<?xml version="1.0" encoding="iso-8859-1"?>
<!-- Generator: Adobe Illustrator 18.0.0, SVG Export Plug-In . SVG Version: 6.00 Build 0)  -->
<!DOCTYPE svg PUBLIC "-//W3C//DTD SVG 1.1//EN" "http://www.w3.org/Graphics/SVG/1.1/DTD/svg11.dtd">
<svg version="1.1" id="Capa_1" xmlns="http://www.w3.org/2000/svg" xmlns:xlink="http://www.w3.org/1999/xlink" x="0px" y="0px"
	 viewBox="0 0 496.472 496.472" style="enable-background:new 0 0 496.472 496.472;" xml:space="preserve">
<g id="XMLID_86_">
	<path id="XMLID_96_" d="M236.091,259.459c0,11.523,5.173,18.788,15.16,18.788c11.216,0,23.045-14.238,25.777-31.83l4.25-28.792
		c-2.425-0.605-5.463-1.211-9.405-1.211C251.865,216.414,236.091,236.114,236.091,259.459z"/>
	<path id="XMLID_93_" d="M389.786,0H74.642C58.269,0,45.001,13.276,45.001,29.647v28.273h34.488
		c22.853,0,41.373,18.521,41.373,41.372c0,22.853-18.52,41.373-41.373,41.373H45.001v66.196h34.488
		c22.853,0,41.373,18.521,41.373,41.373c0,22.852-18.52,41.372-41.373,41.372H45.001v66.196h34.488
		c22.853,0,41.373,18.52,41.373,41.373c0,22.853-18.52,41.373-41.373,41.373H45.001v28.273c0,16.372,13.268,29.648,29.641,29.648
		h315.145c16.369,0,29.637-13.276,29.637-29.648V29.647C419.423,13.276,406.155,0,389.786,0z M305.537,302.496
		c-14.239,0-24.565-7.265-26.068-23.337h-0.615c-9.405,15.467-23.046,23.337-39.11,23.337c-19.717,0-33.953-14.544-33.953-39.401
		c0-36.976,27.295-70.64,70.945-70.64c7.273,0,15.096,0.993,21.916,2.585c8.131,1.892,13.382,9.745,12.056,17.988l-6.997,43.093
		c-3.039,17.898-0.906,26.077,7.596,26.376c13.025,0.307,29.381-16.372,29.381-51.23c0-39.409-25.453-70.036-72.435-70.036
		c-46.384,0-87.011,36.388-87.011,94.285c0,50.625,32.451,79.432,77.606,79.432c12.008,0,24.582-2.019,35.279-5.906
		c2.313-0.832,4.865-0.686,7.063,0.404c2.199,1.091,3.863,3.03,4.59,5.382c1.455,4.654-0.986,9.607-5.542,11.313
		c-15.015,5.624-29.155,7.596-47.466,7.596c-50.311,0-94.577-36.064-94.577-95.496c0-61.833,44.866-115.496,113.387-115.496
		c53.35,0,91.554,36.687,91.554,87.617C363.134,274.619,338.261,302.496,305.537,302.496z"/>
	<path id="XMLID_92_" d="M27.062,124.117h52.428c13.705,0,24.824-11.11,24.824-24.824c0-13.713-11.119-24.823-24.824-24.823H27.062
		c-13.703,0-24.823,11.11-24.823,24.823C2.238,113.007,13.358,124.117,27.062,124.117z"/>
	<path id="XMLID_91_" d="M27.062,273.06h52.428c13.705,0,24.824-11.112,24.824-24.824c0-13.713-11.119-24.823-24.824-24.823H27.062
		c-13.703,0-24.823,11.11-24.823,24.823C2.238,261.947,13.358,273.06,27.062,273.06z"/>
	<path id="XMLID_90_" d="M104.313,397.177c0-13.713-11.119-24.824-24.824-24.824H27.062c-13.703,0-24.823,11.111-24.823,24.824
		C2.238,410.89,13.358,422,27.062,422h52.428C93.194,422,104.313,410.89,104.313,397.177z"/>
	<path id="XMLID_89_" d="M475.099,138.598h-30.513v76.54h30.513c10.57,0,19.135-8.566,19.135-19.136v-38.27
		C494.233,147.164,485.669,138.598,475.099,138.598z"/>
	<path id="XMLID_88_" d="M475.099,250.821h-30.513v76.539h30.513c10.57,0,19.135-8.565,19.135-19.135v-38.27
		C494.233,259.387,485.669,250.821,475.099,250.821z"/>
	<path id="XMLID_87_" d="M475.099,363.044h-30.513v76.54h30.513c10.57,0,19.135-8.566,19.135-19.136V382.18
		C494.233,371.61,485.669,363.044,475.099,363.044z"/>
</g>
<g>
</g>
<g>
</g>
<g>
</g>
<g>
</g>
<g>
</g>
<g>
</g>
<g>
</g>
<g>
</g>
<g>
</g>
<g>
</g>
<g>
</g>
<g>
</g>
<g>
</g>
<g>
</g>
<g>
</g>
</svg>
