<?xml version="1.0" encoding="iso-8859-1"?>
<!-- Generator: Adobe Illustrator 16.0.0, SVG Export Plug-In . SVG Version: 6.00 Build 0)  -->
<!DOCTYPE svg PUBLIC "-//W3C//DTD SVG 1.1//EN" "http://www.w3.org/Graphics/SVG/1.1/DTD/svg11.dtd">
<svg version="1.1" id="Capa_1" xmlns="http://www.w3.org/2000/svg" xmlns:xlink="http://www.w3.org/1999/xlink" x="0px" y="0px"
	 width="31.883px" height="31.883px" viewBox="0 0 31.883 31.883" style="enable-background:new 0 0 31.883 31.883;"
	 xml:space="preserve">
<g>
	<g>
		<g>
			<path d="M30.907,1.316c-1.303-1.302-3.412-1.302-4.713-0.002c-0.356,0.356-0.834,0.992-1.307,1.749
				C20.076,1.19,13.308,4.948,7,7.577c-6.146,2.561-7.516,5.546-6.844,8.788c0.423,2.043,1.648,4.13,2.924,5.863
				c0.701-0.327,1.477-0.475,2.247-0.438l0.495-0.494c-2.683-3.293-3.966-6.322-2.934-7.355c1.286-1.282,5.678,1.025,9.812,5.16
				c4.134,4.131,6.442,8.525,5.157,9.81c-1.069,1.07-4.292-0.349-7.724-3.235l-0.423,0.422c0.045,0.779-0.107,1.566-0.455,2.283
				c1.832,1.316,4.117,2.614,6.332,3.025c3.116,0.575,5.868-0.479,8.646-6.594c2.565-5.646,6.138-12.448,4.688-17.335
				c0.859-0.52,1.591-1.058,1.98-1.449C32.21,4.729,32.21,2.618,30.907,1.316z M20.1,7.773c-0.039,0.009-3.867,0.783-8.298,3.526
				c-0.227,0.141-0.479,0.207-0.727,0.207c-0.463,0-0.915-0.233-1.179-0.654c-0.4-0.652-0.2-1.506,0.45-1.909
				c4.889-3.022,9.051-3.852,9.225-3.885c0.757-0.151,1.476,0.342,1.619,1.092C21.336,6.898,20.848,7.627,20.1,7.773z"/>
			<path d="M12.576,21.276l-2.387-2.39l-3.253,3.256L6.547,22.53c-1.341,0.026-2.908,0.714-3.735,1.539
				c-1.264,1.267-1.264,3.317,0,4.582c1.267,1.269,3.318,1.269,4.582,0c0.828-0.826,1.515-2.396,1.542-3.735l0.403-0.402
				L12.576,21.276z"/>
		</g>
	</g>
</g>
<g>
</g>
<g>
</g>
<g>
</g>
<g>
</g>
<g>
</g>
<g>
</g>
<g>
</g>
<g>
</g>
<g>
</g>
<g>
</g>
<g>
</g>
<g>
</g>
<g>
</g>
<g>
</g>
<g>
</g>
</svg>
