<?xml version="1.0" encoding="iso-8859-1"?>
<!-- Generator: Adobe Illustrator 16.0.0, SVG Export Plug-In . SVG Version: 6.00 Build 0)  -->
<!DOCTYPE svg PUBLIC "-//W3C//DTD SVG 1.1//EN" "http://www.w3.org/Graphics/SVG/1.1/DTD/svg11.dtd">
<svg version="1.1" id="Capa_1" xmlns="http://www.w3.org/2000/svg" xmlns:xlink="http://www.w3.org/1999/xlink" x="0px" y="0px"
	 width="31.759px" height="31.759px" viewBox="0 0 31.759 31.759" style="enable-background:new 0 0 31.759 31.759;"
	 xml:space="preserve">
<g>
	<g>
		<path d="M30.667,3.272h-9.814V2.726c0-0.903-0.729-1.634-1.633-1.634h-6.682c-0.903,0-1.634,0.731-1.634,1.634v0.546H1.09
			C0.485,3.272,0,3.772,0,4.377v19.718c0,0.604,0.485,1.121,1.09,1.121h5.597l-1.994,5.451h3.806l1.994-5.451h2.592v3.271h5.587
			v-3.271h2.592l1.994,5.451h3.807l-1.994-5.451h5.599c0.604,0,1.09-0.517,1.09-1.121V4.378C31.759,3.772,31.271,3.272,30.667,3.272
			z M29.576,23.035H2.18V5.453h27.396V23.035L29.576,23.035z"/>
		<rect x="3.816" y="6.953" width="23.989" height="14.584"/>
	</g>
</g>
<g>
</g>
<g>
</g>
<g>
</g>
<g>
</g>
<g>
</g>
<g>
</g>
<g>
</g>
<g>
</g>
<g>
</g>
<g>
</g>
<g>
</g>
<g>
</g>
<g>
</g>
<g>
</g>
<g>
</g>
</svg>
