<?xml version="1.0" encoding="iso-8859-1"?>
<!-- Generator: Adobe Illustrator 16.0.0, SVG Export Plug-In . SVG Version: 6.00 Build 0)  -->
<!DOCTYPE svg PUBLIC "-//W3C//DTD SVG 1.1//EN" "http://www.w3.org/Graphics/SVG/1.1/DTD/svg11.dtd">
<svg version="1.1" id="Capa_1" xmlns="http://www.w3.org/2000/svg" xmlns:xlink="http://www.w3.org/1999/xlink" x="0px" y="0px"
	 width="612px" height="612px" viewBox="0 0 612 612" style="enable-background:new 0 0 612 612;" xml:space="preserve">
<g>
	<g>
		<g>
			<path d="M19.125,306c0,79.209,32.114,150.928,84.011,202.845c51.916,51.896,123.635,84.011,202.844,84.011
				c79.209,0,150.948-32.113,202.865-84.011c51.896-51.917,84.011-123.636,84.011-202.845s-32.113-150.928-84.03-202.845
				c-51.876-51.896-123.596-84.03-202.824-84.03c-79.209,0-150.948,32.114-202.845,84.011C51.259,155.052,19.125,226.791,19.125,306
				L19.125,306z M89.628,522.371C34.266,467.009,0,390.509,0,306S34.246,144.991,89.628,89.628C144.991,34.266,221.491,0,306,0
				s161.028,34.266,216.371,89.628C577.754,145.011,612,221.491,612,306s-34.266,161.009-89.608,216.371
				C467.028,577.734,390.509,612,306,612S144.991,577.734,89.628,522.371z"/>
			<path d="M357.219,557.434c-5.14,1.036-10.18-2.33-11.194-7.471c-1.036-5.14,2.329-10.18,7.471-11.195
				c54.665-11.076,102.558-40.979,136.563-82.637c33.39-40.898,53.431-93.174,53.431-150.131c0-65.583-26.575-124.95-69.547-167.921
				C430.97,95.107,371.583,68.531,306,68.531s-124.95,26.596-167.901,69.547C95.127,181.05,68.551,240.417,68.551,306
				s26.596,124.95,69.547,167.901C181.05,516.873,240.437,543.449,306,543.449c5.279,0,9.562,4.283,9.562,9.562
				c0,5.28-4.282,9.563-9.562,9.563c-70.862,0-135.011-28.729-181.429-75.146C78.134,441.011,49.406,376.862,49.406,306
				c0-70.862,28.728-135.011,75.146-181.448C170.99,78.114,235.118,49.406,305.98,49.406s135.01,28.728,181.449,75.146
				C533.867,170.99,562.575,235.138,562.575,306c0,61.459-21.655,117.938-57.754,162.145
				C468.084,513.146,416.327,545.461,357.219,557.434z"/>
			<path d="M315.562,367.758c0,5.279-4.282,9.563-9.562,9.563c-5.28,0-9.563-4.283-9.563-9.563V306V157.801
				c0-5.279,4.283-9.563,9.563-9.563c5.28,0,9.562,4.283,9.562,9.563V306V367.758z"/>
			<path d="M244.242,315.562c-5.279,0-9.563-4.282-9.563-9.562c0-5.28,4.283-9.563,9.563-9.563H306h148.219
				c5.279,0,9.563,4.303,9.563,9.563c0,5.279-4.283,9.562-9.563,9.562H306H244.242z"/>
			<path d="M96.043,296.438c5.279,0,9.563,4.303,9.563,9.563c0,5.279-4.283,9.563-9.563,9.563H65.165
				c-5.279,0-9.563-4.283-9.563-9.563c0-5.28,4.283-9.563,9.563-9.563H96.043z"/>
			<path d="M546.855,296.438c5.278,0,9.562,4.303,9.562,9.563c0,5.279-4.283,9.563-9.562,9.563h-30.88
				c-5.278,0-9.562-4.283-9.562-9.563c0-5.28,4.283-9.563,9.562-9.563H546.855z"/>
			<path d="M296.438,515.977c0-5.278,4.283-9.562,9.563-9.562c5.28,0,9.563,4.283,9.563,9.562v37.056
				c0,5.278-4.283,9.562-9.563,9.562c-5.28,0-9.563-4.283-9.563-9.562V515.977z"/>
			<path d="M296.438,65.145c0-5.279,4.283-9.563,9.563-9.563c5.28,0,9.563,4.283,9.563,9.563v30.879
				c0,5.279-4.283,9.563-9.563,9.563c-5.28,0-9.563-4.283-9.563-9.563V65.145z"/>
			<path d="M150.769,447.704c3.726-3.727,9.802-3.727,13.527,0c3.725,3.726,3.725,9.802,0,13.526l-21.834,21.834
				c-3.726,3.727-9.802,3.727-13.527,0c-3.726-3.726-3.726-9.802,0-13.525L150.769,447.704z"/>
			<path d="M469.539,128.915c3.725-3.726,9.801-3.726,13.526,0c3.726,3.725,3.726,9.801,0,13.527l-21.834,21.834
				c-3.727,3.725-9.803,3.725-13.527,0c-3.727-3.726-3.727-9.802,0-13.527L469.539,128.915z"/>
			<path d="M164.296,150.749c3.725,3.725,3.725,9.801,0,13.527c-3.726,3.725-9.802,3.725-13.527,0l-21.834-21.814
				c-3.726-3.726-3.726-9.802,0-13.527c3.725-3.726,9.801-3.726,13.527,0L164.296,150.749z"/>
			<path d="M483.065,469.539c3.726,3.725,3.726,9.801,0,13.526c-3.727,3.725-9.803,3.726-13.526,0l-21.835-21.834
				c-3.727-3.727-3.727-9.803,0-13.527c3.726-3.725,9.802-3.726,13.527,0L483.065,469.539z"/>
		</g>
	</g>
</g>
<g>
</g>
<g>
</g>
<g>
</g>
<g>
</g>
<g>
</g>
<g>
</g>
<g>
</g>
<g>
</g>
<g>
</g>
<g>
</g>
<g>
</g>
<g>
</g>
<g>
</g>
<g>
</g>
<g>
</g>
</svg>
