<?xml version="1.0" encoding="iso-8859-1"?>
<!-- Generator: Adobe Illustrator 16.0.0, SVG Export Plug-In . SVG Version: 6.00 Build 0)  -->
<!DOCTYPE svg PUBLIC "-//W3C//DTD SVG 1.1//EN" "http://www.w3.org/Graphics/SVG/1.1/DTD/svg11.dtd">
<svg version="1.1" id="Capa_1" xmlns="http://www.w3.org/2000/svg" xmlns:xlink="http://www.w3.org/1999/xlink" x="0px" y="0px"
	 width="31.833px" height="31.833px" viewBox="0 0 31.833 31.833" style="enable-background:new 0 0 31.833 31.833;"
	 xml:space="preserve">
<g>
	<g>
		<path d="M27.356,28.314l0.94-0.496l-7.639-14.523c1.017-1.132,1.646-2.629,1.646-4.267c0-2.998-2.154-5.519-4.854-6.209V1.346
			C17.451,0.602,16.848,0,16.105,0h-0.197c-0.744,0-1.346,0.602-1.346,1.346v1.443c-2.89,0.643-5.027,3.195-5.027,6.239
			c0,1.56,0.544,2.991,1.475,4.102L3.53,27.848l0.944,0.48l-1.049,2.062c-0.104,0.205-0.123,0.442-0.052,0.66
			c0.071,0.221,0.227,0.4,0.431,0.506l0.359,0.184c0.205,0.104,0.443,0.121,0.662,0.051c0.218-0.07,0.4-0.227,0.504-0.434
			l1.046-2.062l0.956,0.485l5.69-11.203v0.882h5.973v-0.318l5.564,10.668l0.926-0.498l1.029,2.041
			c0.104,0.207,0.283,0.361,0.504,0.436c0.219,0.07,0.459,0.053,0.664-0.053l0.348-0.178c0.426-0.219,0.595-0.738,0.379-1.164
			L27.356,28.314z M15.962,15.414c-0.868,0-1.573-0.704-1.573-1.573c0-0.868,0.705-1.573,1.573-1.573
			c0.868,0,1.572,0.705,1.572,1.573C17.534,14.71,16.83,15.414,15.962,15.414z M18.995,12.044V9.655c0-0.756-0.613-1.37-1.37-1.37
			h-3.233c-0.756,0-1.37,0.613-1.37,1.37v2.512c-0.771-0.779-1.384-1.898-1.384-3.139c0-2.35,1.91-4.26,4.259-4.26
			c2.35,0,4.306,1.91,4.306,4.26C20.203,10.205,19.767,11.272,18.995,12.044z"/>
	</g>
</g>
<g>
</g>
<g>
</g>
<g>
</g>
<g>
</g>
<g>
</g>
<g>
</g>
<g>
</g>
<g>
</g>
<g>
</g>
<g>
</g>
<g>
</g>
<g>
</g>
<g>
</g>
<g>
</g>
<g>
</g>
</svg>
