<?xml version="1.0" encoding="iso-8859-1"?>
<!-- Generator: Adobe Illustrator 16.0.0, SVG Export Plug-In . SVG Version: 6.00 Build 0)  -->
<!DOCTYPE svg PUBLIC "-//W3C//DTD SVG 1.1//EN" "http://www.w3.org/Graphics/SVG/1.1/DTD/svg11.dtd">
<svg version="1.1" id="Capa_1" xmlns="http://www.w3.org/2000/svg" xmlns:xlink="http://www.w3.org/1999/xlink" x="0px" y="0px"
	 width="612.001px" height="612px" viewBox="0 0 612.001 612" style="enable-background:new 0 0 612.001 612;" xml:space="preserve"
	>
<g>
	<g>
		<g>
			<circle cx="503.625" cy="553.012" r="16.057"/>
			<path d="M377.52,262.092c-2.031,4.841-7.63,7.132-12.471,5.08c-4.842-2.032-7.133-7.63-5.08-12.471
				c2.291-5.399,5.04-10.459,8.147-15.061c3.228-4.781,6.913-9.264,10.917-13.248c4.005-4.004,8.447-7.67,13.248-10.917
				c4.662-3.148,9.723-5.897,15.021-8.168c4.841-2.052,10.459,0.199,12.531,5.04c2.052,4.841-0.199,10.459-5.041,12.511
				c-4.104,1.753-8.088,3.924-11.813,6.435c-3.686,2.49-7.19,5.399-10.398,8.606c-3.207,3.207-6.115,6.733-8.605,10.399
				C381.404,254.104,379.213,258.068,377.52,262.092z"/>
			<path d="M336.062,260.877c-1.354,5.1-6.595,8.128-11.693,6.773c-5.102-1.354-8.128-6.594-6.773-11.694
				c0.678-2.55,1.573-5.359,2.609-8.407l-0.04-0.02c0.877-2.53,1.953-5.299,3.188-8.248l0.021-0.04h-0.021
				c1.595-3.745,3.407-7.491,5.419-11.176c1.974-3.625,4.145-7.172,6.476-10.638h-0.021c2.191-3.247,4.683-6.554,7.432-9.881
				l0.02-0.02l-0.02-0.02c2.709-3.267,5.479-6.335,8.287-9.144c2.688-2.689,5.776-5.499,9.204-8.308l0.299-0.239
				c3.208-2.649,6.415-5.06,9.562-7.172l0.657-0.398c3.248-2.151,6.595-4.203,10.001-6.056v-0.02v-0.02
				c3.486-1.893,7.252-3.706,11.156-5.379c2.511-1.056,5.3-2.132,8.208-3.148v-0.02c2.948-1.016,5.776-1.893,8.485-2.629
				c5.102-1.355,10.341,1.673,11.694,6.773c1.354,5.1-1.673,10.339-6.772,11.694c-2.551,0.697-4.96,1.415-7.133,2.172l0,0
				l-0.04,0.02c-2.171,0.737-4.502,1.654-6.973,2.689c-3.128,1.335-6.335,2.889-9.542,4.622l-0.021-0.02
				c-2.89,1.554-5.697,3.267-8.407,5.06l-0.657,0.498c-2.908,1.973-5.638,3.984-8.048,5.957l-0.062,0.04l-0.06,0.06l-0.259,0.219
				c-2.49,2.032-5.101,4.463-7.789,7.132c-2.59,2.59-5.001,5.2-7.133,7.79l0,0c-2.111,2.55-4.224,5.379-6.275,8.447l-0.02-0.02v0.02
				c-1.952,2.889-3.825,5.937-5.52,9.064c-1.634,3.008-3.188,6.215-4.622,9.542v-0.02c-0.876,2.052-1.771,4.383-2.669,7.013
				l-0.04-0.02v0.02C337.517,255.777,336.799,258.167,336.062,260.877z"/>
			<path d="M295.481,260.24c-1.016,5.18-6.037,8.566-11.216,7.551c-5.18-0.996-8.566-6.037-7.55-11.216
				c3.228-16.236,8.885-31.895,16.694-46.438l0.02-0.02l-0.02-0.02c7.83-14.563,17.751-27.99,29.523-39.764
				c11.773-11.774,25.201-21.715,39.784-29.544l0.519-0.259c14.402-7.67,29.923-13.248,45.979-16.437
				c5.18-0.996,10.221,2.371,11.217,7.55s-2.371,10.2-7.551,11.216c-14.264,2.829-27.95,7.75-40.641,14.463l-0.498,0.279
				c-12.83,6.893-24.743,15.738-35.281,26.257c-10.52,10.519-19.364,22.452-26.258,35.282l-0.021-0.02
				C303.331,231.951,298.33,245.796,295.481,260.24z"/>
			<path d="M367.758,592.856c5.279,0,9.563,4.282,9.563,9.581c0,5.279-4.304,9.563-9.563,9.563H170.133
				c-5.279,0-9.583-4.283-9.583-9.563v-0.259v-24.443c0-4.064,2.55-7.552,6.136-8.945l43.27-21.635v-18.847
				c0-5.278,4.303-9.583,9.583-9.583c5.28,0,9.563,4.305,9.563,9.583v24.703h-0.04c0,3.486-1.932,6.854-5.259,8.526l-44.087,22.054
				v9.265H367.758z"/>
			<path d="M262.77,537.891c-5.279,0-9.563-4.282-9.563-9.562s4.303-9.582,9.563-9.582h98.813c5.279,0,9.563,4.303,9.563,9.582
				s-4.304,9.562-9.563,9.562H262.77z"/>
			<path d="M612,215.615c0,5.279-4.283,9.562-9.562,9.562c-5.28,0-9.582-4.283-9.582-9.562V58.969
				c0-10.917-4.504-20.898-11.716-28.11c-7.23-7.211-17.191-11.714-28.129-11.714H58.969c-10.917,0-20.878,4.482-28.11,11.674
				l-0.04,0.04c-7.192,7.232-11.674,17.193-11.674,28.11v370.547c0,10.917,4.502,20.878,11.714,28.109l0.418,0.479
				c7.192,6.934,16.974,11.236,27.671,11.236h302.614c5.278,0,9.562,4.303,9.562,9.563c0,5.278-4.304,9.582-9.562,9.582H58.969
				c-15.858,0-30.341-6.415-40.959-16.716l-0.677-0.616C6.634,460.475,0,445.712,0,429.516V58.969
				C0,42.812,6.654,28.05,17.332,17.373l0.04-0.04C28.05,6.654,42.812,0,58.969,0h494.042c16.217,0,30.979,6.654,41.656,17.332
				C605.326,27.991,612,42.752,612,58.99V215.615z"/>
			<path d="M550.242,213.363c0,5.279-4.303,9.583-9.563,9.583c-5.278,0-9.562-4.283-9.562-9.583V80.883H80.903v264.961h280.679
				c5.279,0,9.562,4.283,9.562,9.563c0,5.279-4.303,9.582-9.562,9.582H71.579H71.32c-5.279,0-9.563-4.304-9.563-9.582V71.58V71.32
				c0-5.279,4.283-9.563,9.563-9.563h469.101h0.239c5.279,0,9.562,4.303,9.562,9.563v142.043H550.242L550.242,213.363z"/>
			<path d="M448.043,562.594c-5.279,0-9.562-4.283-9.562-9.582c0-5.278,4.282-9.562,9.562-9.562h12.352
				c5.279,0,9.582,4.283,9.582,9.562c0,5.28-4.303,9.582-9.582,9.582H448.043z"/>
			<path d="M549.625,309.407h-92v190.812h92V309.407L549.625,309.407z M448.043,290.243h110.905h0.239
				c5.278,0,9.562,4.303,9.562,9.583v209.718v0.259c0,5.279-4.283,9.563-9.562,9.563H448.282h-0.239
				c-5.279,0-9.562-4.283-9.562-9.563V300.063v-0.239C438.48,294.545,442.764,290.243,448.043,290.243z"/>
			<path d="M577.734,266.176H429.516c-4.124,0-7.908,1.713-10.657,4.422l-0.04,0.04c-2.709,2.749-4.424,6.534-4.424,10.658v296.438
				c0,4.124,1.715,7.929,4.464,10.657c2.729,2.749,6.515,4.464,10.657,4.464h148.22c4.144,0,7.929-1.715,10.657-4.464
				c2.749-2.729,4.464-6.533,4.464-10.657V281.297c0-4.144-1.715-7.929-4.464-10.678l-0.339-0.358
				C585.364,267.73,581.719,266.176,577.734,266.176L577.734,266.176z M429.516,247.032h148.22c9.084,0,17.411,3.626,23.566,9.483
				l0.639,0.578c6.194,6.196,10.061,14.782,10.061,24.205v296.438c0,9.442-3.865,18.01-10.061,24.205
				c-6.196,6.194-14.783,10.06-24.206,10.06H429.516c-9.423,0-18.01-3.865-24.205-10.061c-6.194-6.217-10.061-14.803-10.061-24.205
				V281.297c0-9.383,3.865-17.93,10.061-24.146l0.04-0.04C411.586,250.896,420.133,247.032,429.516,247.032z"/>
			<path d="M546.855,562.594c-5.279,0-9.582-4.283-9.582-9.582c0-5.278,4.303-9.562,9.582-9.562h12.352
				c5.279,0,9.562,4.283,9.562,9.562c0,5.28-4.282,9.582-9.562,9.582H546.855z"/>
			<path d="M306,408.2c-2.47,0-4.722,1.016-6.335,2.63l-0.339,0.318c-1.415,1.594-2.291,3.705-2.291,6.017
				c0,2.49,0.996,4.741,2.61,6.354l0.02-0.021c1.613,1.614,3.865,2.61,6.335,2.61c2.49,0,4.722-0.996,6.335-2.57l0.04-0.04
				c1.574-1.613,2.57-3.864,2.57-6.335c0-2.49-0.996-4.741-2.59-6.355l-0.021,0.021C310.722,409.215,308.471,408.2,306,408.2
				L306,408.2z M286.118,397.302c5.08-5.08,12.132-8.228,19.882-8.228s14.782,3.146,19.862,8.228l-0.021,0.021l0.021,0.02
				c5.06,5.062,8.228,12.093,8.228,19.822c0,7.71-3.168,14.742-8.228,19.822l-0.04,0.04c-5.08,5.06-12.112,8.228-19.822,8.228
				c-7.75,0-14.782-3.146-19.882-8.228l0.02-0.021l-0.02-0.02c-5.061-5.08-8.228-12.094-8.228-19.822
				c0-7.411,2.909-14.164,7.59-19.165L286.118,397.302z"/>
		</g>
	</g>
</g>
<g>
</g>
<g>
</g>
<g>
</g>
<g>
</g>
<g>
</g>
<g>
</g>
<g>
</g>
<g>
</g>
<g>
</g>
<g>
</g>
<g>
</g>
<g>
</g>
<g>
</g>
<g>
</g>
<g>
</g>
</svg>
