<?xml version="1.0" encoding="iso-8859-1"?>
<!-- Generator: Adobe Illustrator 16.0.0, SVG Export Plug-In . SVG Version: 6.00 Build 0)  -->
<!DOCTYPE svg PUBLIC "-//W3C//DTD SVG 1.1//EN" "http://www.w3.org/Graphics/SVG/1.1/DTD/svg11.dtd">
<svg version="1.1" id="Capa_1" xmlns="http://www.w3.org/2000/svg" xmlns:xlink="http://www.w3.org/1999/xlink" x="0px" y="0px"
	 width="612px" height="612px" viewBox="0 0 612 612" style="enable-background:new 0 0 612 612;" xml:space="preserve">
<g>
	<g>
		<g>
			<g>
				<path d="M306.829,540.204l285.196-349.655L503.278,66.307H110.379L21.612,190.549L306.829,540.204L306.829,540.204z
					 M611.461,196.961L314.3,561.276c-0.42,0.54-0.898,1.02-1.459,1.459c-4.095,3.314-10.126,2.696-13.442-1.398L2.177,196.961
					c-2.637-3.256-2.917-7.99-0.379-11.565l95.458-133.63c1.698-2.776,4.734-4.654,8.229-4.654h402.708v0.04
					c2.995,0.02,5.933,1.398,7.79,4.015l95.737,134.049L611.461,196.961z"/>
			</g>
			<path d="M373.924,181.341c5.293,0,9.587,4.295,9.587,9.588s-4.294,9.588-9.587,9.588H9.588c-5.293,0-9.588-4.294-9.588-9.588
				c0-5.293,4.294-9.588,9.588-9.588H373.924z"/>
			<path d="M602.412,181.341c5.293,0,9.588,4.295,9.588,9.588s-4.295,9.588-9.588,9.588h-36.713c-5.293,0-9.588-4.294-9.588-9.588
				c0-5.293,4.295-9.588,9.588-9.588H602.412z"/>
			<path d="M96.597,60.255c-1.958-4.894,0.439-10.467,5.333-12.424c4.894-1.958,10.467,0.439,12.424,5.313l201.343,498.604
				c1.958,4.895-0.439,10.467-5.313,12.424c-4.894,1.958-10.467-0.419-12.444-5.312L96.597,60.255z"/>
			<path d="M410.237,273.683c1.957-4.894,7.55-7.291,12.424-5.333c4.894,1.958,7.291,7.55,5.312,12.444L315.697,558.88
				c-1.957,4.895-7.55,7.291-12.424,5.313c-4.894-1.958-7.291-7.551-5.333-12.425L410.237,273.683z"/>
			<path d="M499.283,53.145c1.958-4.894,7.551-7.271,12.443-5.313c4.894,1.958,7.291,7.551,5.313,12.444l-15.48,38.351
				c-1.957,4.894-7.55,7.291-12.424,5.313c-4.894-1.957-7.291-7.55-5.312-12.424L499.283,53.145z"/>
			<path d="M169.524,197.92c-3.875,3.595-9.927,3.375-13.523-0.479c-3.595-3.855-3.375-9.927,0.5-13.503L300.338,49.709
				c3.855-3.596,9.927-3.376,13.502,0.479c3.596,3.855,3.376,9.927-0.479,13.502L169.524,197.92z"/>
			<path d="M409.179,139.154c3.854,3.595,4.074,9.648,0.479,13.503c-3.597,3.855-9.648,4.075-13.503,0.479L300.317,63.69
				c-3.855-3.595-4.075-9.647-0.479-13.503c3.595-3.855,9.647-4.075,13.503-0.479L409.179,139.154z"/>
			<path d="M478.37,129.107l17.856,35.435l35.436,17.857c4.714,2.357,6.592,8.129,4.234,12.843
				c-0.959,1.898-2.478,3.336-4.234,4.235l-35.436,17.857l-17.856,35.435c-2.356,4.714-8.13,6.612-12.844,4.235
				c-1.897-0.959-3.335-2.477-4.234-4.235l-17.837-35.435l-35.437-17.857c-4.714-2.377-6.591-8.13-4.233-12.844
				c0.959-1.897,2.478-3.335,4.233-4.234l35.437-17.857l17.837-35.435c2.377-4.714,8.13-6.591,12.844-4.234
				C476.033,125.812,477.472,127.33,478.37,129.107L478.37,129.107z M480.567,175.967l-10.728-21.293l-10.726,21.293
				c-0.899,1.758-2.338,3.276-4.235,4.235l-21.312,10.726l21.312,10.747c1.758,0.899,3.276,2.337,4.235,4.234l10.726,21.313
				l10.728-21.313c0.898-1.758,2.337-3.276,4.233-4.234l21.313-10.747l-21.313-10.726
				C483.044,179.303,481.526,177.865,480.567,175.967z"/>
		</g>
	</g>
</g>
<g>
</g>
<g>
</g>
<g>
</g>
<g>
</g>
<g>
</g>
<g>
</g>
<g>
</g>
<g>
</g>
<g>
</g>
<g>
</g>
<g>
</g>
<g>
</g>
<g>
</g>
<g>
</g>
<g>
</g>
</svg>
