<?xml version="1.0" encoding="iso-8859-1"?>
<!-- Generator: Adobe Illustrator 16.0.0, SVG Export Plug-In . SVG Version: 6.00 Build 0)  -->
<!DOCTYPE svg PUBLIC "-//W3C//DTD SVG 1.1//EN" "http://www.w3.org/Graphics/SVG/1.1/DTD/svg11.dtd">
<svg version="1.1" id="Capa_1" xmlns="http://www.w3.org/2000/svg" xmlns:xlink="http://www.w3.org/1999/xlink" x="0px" y="0px"
	 width="31.344px" height="31.344px" viewBox="0 0 31.344 31.344" style="enable-background:new 0 0 31.344 31.344;"
	 xml:space="preserve">
<g>
	<g>
		<path d="M14.512,16.491c-1.044-1.062-3.715-3.402-6.129-2.517l-7.339,7.238c0.038-0.006,0.076-0.013,0.114-0.017
			c1.682-0.221,4.117,0.041,6.459,2.414c1.89,1.918,2.702,3.679,2.285,4.955c-0.233,0.707-0.825,1.188-1.628,1.319
			c-0.141,0.021-0.296,0.034-0.458,0.034c-1.351,0-3.353-0.84-5.176-3.298l1.128-0.84c1.484,1.998,3.281,2.888,4.28,2.716
			c0.421-0.07,0.492-0.295,0.518-0.37c0.175-0.536-0.23-1.785-1.952-3.526c-2.78-2.82-5.592-2.089-6.569-1.701
			c-0.265,1.611,0.65,3.861,2.489,5.728c2.377,2.412,5.423,3.289,6.929,2.04c0.011-0.002,0.015-0.003,0.015-0.003l8.174-8.06
			c0.125-0.328,0.252-1.062-0.352-2.27C16.644,19.021,15.628,17.622,14.512,16.491z"/>
		<path d="M28.811,2.715c-2.452-2.486-5.618-3.342-7.069-1.912C21.7,0.843,15.845,6.61,15.845,6.61
			c1.791,0.721,3.709,2.043,5.274,3.63c1.811,1.835,2.945,3.762,3.365,5.624c0,0,6.102-6.015,6.139-6.052
			C32.074,8.38,31.264,5.203,28.811,2.715z"/>
		<path d="M24.449,19.137c-0.752-0.176-1.311-0.238-1.395-0.244c0.172-0.59,0.229-1.193,0.186-1.8
			c-0.148-2.06-1.437-4.151-3.121-5.86c-1.484-1.506-3.277-2.716-4.875-3.342c-0.183-0.072-0.36-0.12-0.536-0.151l-4.719,4.653
			c1.953,0.186,3.908,1.473,5.526,3.112c1.283,1.304,2.356,2.831,3.043,4.201c0.277,0.551,0.44,1.048,0.524,1.486
			c0.328,1.67-0.461,2.521-0.461,2.521l2.617-2.58c0.111-0.021,0.229-0.051,0.34-0.094c0.121,0.562,0.146,1.104,0.1,1.633
			c-0.254,2.887-2.604,5.102-2.604,5.102l2.781,1.201c3.491-2.803,2.368-6.197,1.447-7.904c-0.215-0.396-0.418-0.699-0.55-0.887
			c-0.006-0.01-0.014-0.021-0.02-0.035c0.008,0.008,0.012,0.017,0.02,0.024c0.336,0.146,0.644,0.326,0.927,0.521
			c2.791,1.945,2.977,5.982,2.977,5.982l2.724-1.326C29.524,20.977,26.362,19.58,24.449,19.137z"/>
	</g>
</g>
<g>
</g>
<g>
</g>
<g>
</g>
<g>
</g>
<g>
</g>
<g>
</g>
<g>
</g>
<g>
</g>
<g>
</g>
<g>
</g>
<g>
</g>
<g>
</g>
<g>
</g>
<g>
</g>
<g>
</g>
</svg>
