<?xml version="1.0" encoding="iso-8859-1"?>
<!-- Generator: Adobe Illustrator 19.0.0, SVG Export Plug-In . SVG Version: 6.00 Build 0)  -->
<svg version="1.1" id="Capa_1" xmlns="http://www.w3.org/2000/svg" xmlns:xlink="http://www.w3.org/1999/xlink" x="0px" y="0px"
	 viewBox="0 0 414.016 414.016" style="enable-background:new 0 0 414.016 414.016;" xml:space="preserve">
<g>
	<g>
		<path d="M238.801,181.845c0-17.531-14.263-31.794-31.793-31.794c-17.531,0-31.794,14.263-31.794,31.794
			s14.263,31.794,31.794,31.794C224.538,213.639,238.801,199.376,238.801,181.845z M190.213,181.845
			c0-9.26,7.534-16.794,16.794-16.794c9.26,0,16.793,7.534,16.793,16.794s-7.534,16.794-16.793,16.794
			C197.747,198.639,190.213,191.104,190.213,181.845z"/>
		<circle cx="207.007" cy="181.845" r="4.408"/>
		<path d="M377.004,399.017h-36.566l-37.407-65.191c1.375-2.518,2.014-5.387,1.825-8.265c17.881-12.213,33.373-27.672,45.628-45.522
			c0.352,0.025,0.704,0.04,1.058,0.04l0,0c5.393,0,10.413-2.903,13.101-7.576c2.011-3.498,2.541-7.569,1.49-11.465
			c-0.441-1.634-1.151-3.146-2.07-4.51c8.992-18.834,14.701-39.525,16.364-61.331c4.989-2.474,8.432-7.609,8.426-13.543
			c-0.006-5.931-3.46-11.059-8.458-13.524c-1.718-21.916-7.512-42.704-16.628-61.602c3.089-4.642,3.501-10.82,0.518-15.96
			c-2.693-4.642-7.701-7.525-13.071-7.525c-0.374,0-0.748,0.018-1.12,0.046c-11.852-17.12-26.692-32.018-43.762-43.936
			c0.129-1.658-0.002-3.343-0.434-5c-1.02-3.904-3.499-7.178-6.98-9.217c-2.315-1.355-4.953-2.072-7.628-2.072
			c-3.011,0-5.911,0.909-8.352,2.526c-19.114-9.314-40.175-15.23-62.396-16.948C218.072,3.449,212.94,0,207.004,0
			s-11.068,3.45-13.536,8.442c-21.833,1.689-42.548,7.429-61.395,16.465c-2.456-1.649-5.383-2.577-8.429-2.577
			c-2.641,0-5.25,0.7-7.543,2.023c-3.495,2.017-5.995,5.274-7.04,9.172c-0.443,1.653-0.585,3.337-0.467,4.995
			C91.071,50.59,75.862,65.785,63.776,83.297c-0.365-0.027-0.731-0.043-1.097-0.043c-5.378,0-10.391,2.891-13.083,7.544
			c-2.976,5.144-2.554,11.324,0.544,15.962c-9.073,18.878-14.836,39.635-16.533,61.515c-4.993,2.467-8.444,7.598-8.445,13.533
			c-0.001,4.035,1.57,7.829,4.423,10.683c1.19,1.19,2.55,2.143,4.017,2.866c1.693,21.924,7.469,42.722,16.566,61.633
			c-0.913,1.365-1.618,2.878-2.054,4.512c-1.04,3.898-0.499,7.969,1.523,11.46c2.692,4.649,7.704,7.537,13.079,7.537
			c0.369,0,0.737-0.017,1.103-0.044c12.213,17.679,27.606,32.997,45.354,45.116c-0.111,1.657,0.038,3.338,0.487,4.987
			c0.313,1.15,0.768,2.235,1.323,3.257L73.57,399.016H37.004c-4.142,0-7.5,3.357-7.5,7.5s3.358,7.5,7.5,7.5h340
			c4.142,0,7.5-3.357,7.5-7.5S381.146,399.017,377.004,399.017z M219.937,340.243c-1.374-2.063-3.239-3.772-5.432-4.955v-29.719
			c17.05-1.022,33.179-5.505,47.698-12.757l14.788,25.772c-1.316,2.118-2.085,4.532-2.25,7.009
			C257.878,333.571,239.398,338.669,219.937,340.243z M139.298,325.604c-0.167-2.488-0.944-4.912-2.271-7.036l14.78-25.759
			c14.518,7.252,30.648,11.735,47.697,12.759v30.14c-1.905,1.167-3.536,2.732-4.763,4.594
			C175.045,338.792,156.347,333.667,139.298,325.604z M70.099,252.233c-1.971-1.107-4.188-1.777-6.495-1.916
			c-8.229-17.165-13.465-36.026-15.028-55.905c1.955-1.294,3.585-3.032,4.762-5.066h29.945c1.027,17.113,5.54,33.3,12.84,47.861
			L70.099,252.233z M63.574,113.437c2.334-0.142,4.576-0.825,6.563-1.956l25.985,15.003c-7.299,14.561-11.812,30.748-12.838,47.862
			H53.389c-0.662-1.159-1.47-2.244-2.44-3.214c-0.73-0.73-1.524-1.374-2.366-1.932C50.151,149.376,55.373,130.563,63.574,113.437z
			 M138.242,41.347c0.266-0.992,0.427-1.995,0.49-2.997c17.103-8.171,35.884-13.373,55.674-14.933
			c1.301,1.965,3.05,3.603,5.099,4.781v29.923c-17.113,1.027-33.299,5.54-47.86,12.84L136.687,45.05
			C137.355,43.902,137.888,42.665,138.242,41.347z M276.666,41.787c0.245,0.937,0.579,1.836,0.985,2.692l-15.286,26.479
			c-14.561-7.299-30.748-11.812-47.861-12.838V28.198c2.049-1.178,3.799-2.816,5.1-4.781c20.145,1.587,39.244,6.946,56.592,15.371
			C276.252,39.79,276.407,40.794,276.666,41.787z M344.012,111.406c1.93,1.05,4.087,1.686,6.329,1.819
			c8.242,17.147,13.493,35.992,15.079,55.854c-2.016,1.338-3.692,3.146-4.873,5.267h-29.816
			c-1.026-17.114-5.539-33.301-12.838-47.862L344.012,111.406z M350.606,249.897c-2.481,0.157-4.854,0.93-6.928,2.197
			l-25.788-14.887c7.299-14.561,11.813-30.747,12.839-47.86h30.033c1.173,1.975,2.773,3.666,4.686,4.93
			C363.913,214.043,358.739,232.804,350.606,249.897z M159.557,181.845c0-26.155,21.271-47.434,47.423-47.449
			c0.008,0,0.016,0.001,0.025,0.001c0.009,0,0.018-0.001,0.027-0.001c26.141,0.013,47.405,21.273,47.425,47.412
			c0,0.013-0.002,0.026-0.002,0.039s0.002,0.025,0.002,0.038c-0.022,26.146-21.298,47.41-47.449,47.41
			C180.843,229.295,159.557,208.009,159.557,181.845z M214.504,243.829c5.957-0.717,11.663-2.262,16.987-4.54l23.234,40.491
			c-12.295,6.015-25.881,9.779-40.221,10.758L214.504,243.829L214.504,243.829z M244.473,231.774
			c4.71-3.543,8.904-7.736,12.449-12.445l40.439,23.346c-7.882,11.67-17.965,21.737-29.646,29.604L244.473,231.774z
			 M264.442,206.351c2.282-5.329,3.831-11.04,4.549-17.004h46.71c-0.983,14.39-4.772,28.02-10.823,40.348L264.442,206.351z
			 M315.701,174.347h-46.71c-0.717-5.965-2.266-11.677-4.548-17.006l40.436-23.343C310.93,146.326,314.718,159.957,315.701,174.347z
			 M256.923,144.362c-3.541-4.704-7.73-8.893-12.434-12.434l23.345-40.439c11.632,7.856,21.672,17.896,29.528,29.528
			L256.923,144.362z M231.51,124.408c-5.329-2.282-11.041-3.831-17.005-4.548V73.15c14.39,0.983,28.02,4.77,40.349,10.822
			L231.51,124.408z M199.504,73.151v46.71c-5.964,0.718-11.675,2.267-17.004,4.549l-23.343-40.436
			C171.485,77.922,185.115,74.134,199.504,73.151z M169.521,131.931c-4.703,3.541-8.891,7.729-12.432,12.433l-40.437-23.348
			c7.855-11.63,17.894-21.67,29.524-29.525L169.521,131.931z M149.57,157.343c-2.282,5.329-3.83,11.04-4.547,17.004h-46.71
			c0.983-14.39,4.771-28.021,10.822-40.349L149.57,157.343z M98.313,189.347h46.71c0.718,5.963,2.266,11.674,4.548,17.002
			l-40.435,23.345C103.085,217.366,99.297,203.736,98.313,189.347z M157.091,219.328c3.544,4.708,7.737,8.9,12.446,12.443
			l-23.242,40.505c-11.68-7.866-21.76-17.932-29.642-29.601L157.091,219.328z M182.519,239.288
			c5.324,2.278,11.028,3.824,16.986,4.541v46.71c-14.34-0.98-27.925-4.745-40.22-10.76L182.519,239.288z M296.555,313.07
			c-1.947-0.974-4.109-1.526-6.345-1.588l-15.018-26.172c13.95-9.224,25.933-21.189,35.177-35.124l26.089,15.061
			c0.024,1.222,0.18,2.448,0.507,3.658c0.263,0.975,0.617,1.91,1.055,2.796C326.868,287.909,312.792,301.956,296.555,313.07z
			 M337.672,91.488c-1.085,2.215-1.621,4.674-1.545,7.15l-25.756,14.869c-9.211-13.886-21.141-25.816-35.027-35.027l14.699-25.461
			c0.409,0.034,0.819,0.057,1.231,0.057c0,0,0,0,0.001,0c2.323,0,4.58-0.542,6.612-1.532
			C313.395,62.392,326.883,75.934,337.672,91.488z M116.956,50.968c2.053,1.017,4.342,1.573,6.701,1.573h0.001
			c0.01,0,0.021-0.001,0.031-0.001l14.976,25.943c-13.884,9.21-25.813,21.139-35.023,35.024l-25.88-14.942
			c0.028-2.387-0.505-4.749-1.554-6.884C87.211,75.769,101.036,61.956,116.956,50.968z M76.259,272.081
			c0.435-0.886,0.786-1.821,1.046-2.795c0.369-1.384,0.529-2.789,0.504-4.182l25.836-14.917
			c9.243,13.934,21.225,25.897,35.173,35.121l-15.028,26.19c-2.223,0.067-4.372,0.619-6.309,1.588
			C101.363,302.056,87.374,288.136,76.259,272.081z M123.765,341.681c0.154,0.005,0.308,0.015,0.463,0.015l0,0
			c3.072,0,6.019-0.942,8.485-2.614c18.784,8.911,39.404,14.56,61.128,16.194c2.475,4.975,7.6,8.413,13.518,8.414h0.033
			c5.937-0.012,11.063-3.475,13.52-8.474c21.464-1.706,41.839-7.328,60.417-16.146c2.466,1.671,5.412,2.613,8.483,2.613
			c0.142,0,0.283-0.01,0.425-0.014l32.907,57.349H90.865L123.765,341.681z"/>
	</g>
</g>
<g>
</g>
<g>
</g>
<g>
</g>
<g>
</g>
<g>
</g>
<g>
</g>
<g>
</g>
<g>
</g>
<g>
</g>
<g>
</g>
<g>
</g>
<g>
</g>
<g>
</g>
<g>
</g>
<g>
</g>
</svg>
