<?xml version="1.0" encoding="iso-8859-1"?>
<!-- Generator: Adobe Illustrator 18.0.0, SVG Export Plug-In . SVG Version: 6.00 Build 0)  -->
<!DOCTYPE svg PUBLIC "-//W3C//DTD SVG 1.1//EN" "http://www.w3.org/Graphics/SVG/1.1/DTD/svg11.dtd">
<svg version="1.1" id="Capa_1" xmlns="http://www.w3.org/2000/svg" xmlns:xlink="http://www.w3.org/1999/xlink" x="0px" y="0px"
	 viewBox="0 0 476.599 476.599" style="enable-background:new 0 0 476.599 476.599;" xml:space="preserve">
<g>
	<path d="M141.038,363.234c0,6.515,4.193,11.934,10.001,14.014c-0.076-0.846-0.248-1.668-0.248-2.53
		c0-6.919,2.702-13.434,7.595-18.326l18.044-18.044l150.294-150.294l32.814-32.822c-2.33-1.49-4.939-2.578-7.921-2.578h-30.903
		c-2.672-8.711-6.181-17.052-10.391-24.963l21.866-21.873c2.827-2.826,4.411-6.647,4.411-10.639c0-3.99-1.584-7.811-4.411-10.629
		l-38.528-38.521c-5.885-5.861-15.39-5.861-21.26,0.008l-21.881,21.881c-7.919-4.201-16.244-7.711-24.955-10.389V26.641
		c0-8.301-6.725-15.032-15.032-15.032h-54.462c-8.309,0-15.034,6.731-15.034,15.032v30.888c-8.711,2.678-17.05,6.195-24.955,10.389
		L94.201,46.045c-2.826-2.818-6.646-4.403-10.637-4.403c-3.992,0-7.811,1.586-10.639,4.403L34.414,84.566
		c-5.871,5.869-5.871,15.388,0.014,21.26l21.866,21.866c-4.208,7.919-7.717,16.252-10.389,24.963H15.032
		C6.723,152.654,0,159.386,0,167.687v54.478c0,8.301,6.723,15.032,15.032,15.032h30.857c2.672,8.713,6.197,17.044,10.39,24.963
		l-21.866,21.865c-5.871,5.871-5.871,15.39,0,21.261l38.512,38.528c5.871,5.869,15.406,5.869,21.276,0l21.85-21.858
		c7.937,4.208,16.276,7.725,24.987,10.397V363.234z M88.192,194.941c0-52.444,42.659-95.111,95.103-95.111
		c52.442,0,95.101,42.667,95.101,95.111c0,52.442-42.659,95.109-95.101,95.109C130.851,290.051,88.192,247.384,88.192,194.941z"/>
	<path d="M254.543,194.941c0-39.29-31.958-71.258-71.248-71.258c-39.289,0-71.25,31.968-71.25,71.258
		c0,39.289,31.96,71.256,71.25,71.256C222.584,266.197,254.543,234.231,254.543,194.941z"/>
	<g>
		<path d="M439.343,195.951l-41.929-41.945c-1.88-1.88-4.426-2.935-7.081-2.935c-2.656,0-5.203,1.056-7.082,2.935l-213.623,213.63
			c-1.879,1.88-2.936,4.427-2.936,7.083s1.056,5.202,2.936,7.081l41.945,41.921c1.956,1.957,4.519,2.935,7.081,2.935
			s5.125-0.978,7.081-2.935L327.5,321.949c0.116,0.116,1.81,1.811,4.175,4.177c6.374,6.378,16.717,6.383,23.092,0.006L429,251.873
			c5.063-5.063,8.013-11.391,9.039-17.96c1.024-6.585-0.032-13.356-3.06-19.444l4.364-4.356
			C443.257,206.2,443.257,199.865,439.343,195.951z"/>
	</g>
	<path d="M156.536,394.518c-1.118-1.104-2.608-1.702-4.13-1.702c-0.466,0-0.948,0.056-1.414,0.172
		c-1.988,0.504-3.572,2.012-4.162,3.975l-18.186,60.519c-0.62,2.056-0.062,4.286,1.46,5.8c1.119,1.11,2.594,1.708,4.115,1.708
		c0.56,0,1.134-0.078,1.678-0.248l60.533-18.208c1.958-0.59,3.464-2.174,3.976-4.162c0.498-1.988-0.092-4.093-1.536-5.537
		L156.536,394.518z"/>
	<path d="M464.952,128.351c-15.498-15.506-40.657-15.506-56.185,0.024c-1.042,1.04-1.616,2.452-1.616,3.92
		c0,1.468,0.59,2.882,1.616,3.921l48.327,48.288c2.175,2.175,5.685,2.175,7.859,0.008c7.453-7.453,11.647-17.548,11.647-28.069
		C476.599,145.915,472.421,135.82,464.952,128.351z"/>
</g>
<g>
</g>
<g>
</g>
<g>
</g>
<g>
</g>
<g>
</g>
<g>
</g>
<g>
</g>
<g>
</g>
<g>
</g>
<g>
</g>
<g>
</g>
<g>
</g>
<g>
</g>
<g>
</g>
<g>
</g>
</svg>
