<?xml version="1.0" encoding="iso-8859-1"?>
<!-- Generator: Adobe Illustrator 16.0.0, SVG Export Plug-In . SVG Version: 6.00 Build 0)  -->
<!DOCTYPE svg PUBLIC "-//W3C//DTD SVG 1.1//EN" "http://www.w3.org/Graphics/SVG/1.1/DTD/svg11.dtd">
<svg version="1.1" id="Capa_1" xmlns="http://www.w3.org/2000/svg" xmlns:xlink="http://www.w3.org/1999/xlink" x="0px" y="0px"
	 width="791.999px" height="791.998px" viewBox="0 0 791.999 791.998" style="enable-background:new 0 0 791.999 791.998;"
	 xml:space="preserve">
<g>
	<g>
		<g>
			<path d="M214.599,330.153c0,6.832-5.569,12.401-12.401,12.401s-12.401-5.569-12.401-12.401c0-23.642,4.641-47.386,13.871-69.712
				c8.92-21.553,22.094-41.688,39.471-59.065c17.351-17.351,37.512-30.551,59.039-39.471c22.327-9.229,46.097-13.87,69.713-13.87
				c6.832,0,12.4,5.568,12.4,12.4s-5.568,12.401-12.4,12.401c-20.6,0-41.147,3.996-60.303,11.911
				c-18.408,7.657-35.784,19.052-50.918,34.186c-15.133,15.133-26.529,32.484-34.16,50.918
				C218.595,289.006,214.599,309.554,214.599,330.153z"/>
			<path d="M599.153,394.786c8.56-31.891,10.364-63.989,6.342-94.72c-4.202-31.969-14.771-62.597-30.628-90.08
				c-15.83-27.431-37.073-51.872-62.674-71.491c-24.596-18.898-53.29-33.361-85.156-41.895c-31.917-8.56-64.015-10.364-94.72-6.342
				c-31.969,4.202-62.597,14.772-90.08,30.628c-27.457,15.83-51.872,37.074-71.517,62.674
				c-18.872,24.595-33.361,53.29-41.895,85.155c-8.559,31.917-10.338,64.015-6.316,94.746c4.203,31.969,14.747,62.597,30.603,90.054
				c15.83,27.433,37.099,51.872,62.648,71.492c24.595,18.897,53.315,33.387,85.181,41.92c31.892,8.561,63.989,10.338,94.72,6.316
				c31.995-4.202,62.598-14.747,90.08-30.604c27.432-15.829,51.872-37.072,71.491-62.674
				C576.13,455.347,590.619,426.626,599.153,394.786L599.153,394.786z M629.987,296.869c4.46,33.928,2.476,69.274-6.909,104.311
				c-9.385,35.037-25.343,66.671-46.147,93.818c-21.604,28.153-48.547,51.562-78.84,69.042
				c-30.293,17.454-63.988,29.081-99.181,33.722c-33.903,4.461-69.275,2.477-104.312-6.909
				c-35.037-9.409-66.67-25.367-93.818-46.199c-28.153-21.578-51.537-48.521-69.042-78.84
				c-17.48-30.293-29.082-63.963-33.722-99.153c-4.46-33.928-2.475-69.3,6.91-104.311c9.384-35.063,25.343-66.67,46.148-93.792
				c21.604-28.153,48.52-51.563,78.839-69.042c30.293-17.505,63.989-29.107,99.181-33.748c33.928-4.46,69.275-2.475,104.311,6.909
				c35.037,9.359,66.645,25.317,93.792,46.174c28.153,21.604,51.562,48.521,69.043,78.839
				C613.718,227.956,625.346,261.678,629.987,296.869z"/>
			<path d="M382.1,24.696c-6.806-0.387-12.014-6.265-11.627-13.071c0.387-6.806,6.265-12.014,13.071-11.602
				c10.983,0.67,22.172,1.934,33.413,3.738l0.052,0.026V3.762c11.111,1.805,22.146,4.176,32.948,7.064
				c10.854,2.888,21.604,6.368,32.099,10.364c10.698,4.047,20.985,8.559,30.834,13.483l0.953,0.516
				c9.539,4.821,18.719,10.029,27.51,15.546c9.229,5.827,18.176,12.117,26.761,18.82c8.508,6.652,16.681,13.664,24.338,20.935
				c7.708,7.322,15.159,15.108,22.249,23.28c6.986,8.044,13.587,16.449,19.748,25.085c6.188,8.688,11.963,17.66,17.248,26.787
				l0.387,0.696c5.183,9.049,9.951,18.33,14.231,27.74c4.484,9.849,8.456,19.723,11.858,29.597l0.311,1.057
				c3.325,9.745,6.238,19.748,8.662,29.829c2.525,10.57,4.562,21.115,6.007,31.531c1.47,10.596,2.449,21.501,2.862,32.587
				c0.411,10.905,0.309,21.811-0.336,32.665c-0.646,11.035-1.907,22.224-3.712,33.413c-1.806,11.112-4.178,22.172-7.064,33.026
				c-2.888,10.88-6.368,21.604-10.364,32.123c-3.943,10.44-8.48,20.754-13.509,30.783h0.025
				c-4.821,9.668-10.209,19.182-16.062,28.463c-5.826,9.229-12.117,18.2-18.82,26.786c-6.65,8.533-13.664,16.681-20.935,24.338
				c-7.321,7.708-15.134,15.158-23.28,22.249c-8.044,6.985-16.423,13.587-25.033,19.723c-8.56,6.11-17.558,11.885-26.839,17.248l0,0
				c-9.101,5.259-18.588,10.157-28.358,14.592c-9.616,4.383-19.542,8.354-29.674,11.834h-0.026l0.026,0.051
				c-6.344,2.191-13.277,4.332-20.625,6.344c-7.116,1.934-14.154,3.661-21.038,5.053c-6.678,1.366-13.227-2.965-14.593-9.643
				c-1.365-6.678,2.966-13.227,9.644-14.593c6.729-1.366,13.226-2.938,19.465-4.641c5.98-1.624,12.426-3.661,19.104-5.93
				l0.024,0.052c9.256-3.197,18.408-6.884,27.406-10.957c8.868-4.048,17.66-8.561,26.245-13.535v0.025l0.024-0.025
				c8.432-4.873,16.759-10.235,24.854-16.01c8.044-5.725,15.804-11.834,23.203-18.254c7.398-6.445,14.618-13.328,21.526-20.6
				c6.857-7.219,13.329-14.747,19.361-22.507c6.136-7.89,11.988-16.191,17.402-24.776c5.232-8.302,10.209-17.117,14.799-26.321
				l0.024,0.024v-0.024c4.537-9.075,8.74-18.614,12.452-28.488c3.609-9.539,6.832-19.491,9.565-29.777
				c2.758-10.339,4.976-20.599,6.6-30.627c1.65-10.261,2.812-20.599,3.43-30.886c0.593-10.184,0.695-20.29,0.31-30.216v-0.051
				c-0.387-9.926-1.289-20.032-2.707-30.113c-1.393-10.055-3.248-19.826-5.491-29.236c-2.242-9.307-4.897-18.537-7.967-27.534
				l-0.412-1.031c-3.273-9.487-6.909-18.64-10.904-27.328c-4.022-8.843-8.457-17.454-13.228-25.781l-0.335-0.542
				c-4.95-8.559-10.312-16.887-15.984-24.853c-5.724-8.044-11.833-15.804-18.277-23.229c-6.42-7.399-13.329-14.618-20.625-21.527
				c-7.22-6.858-14.723-13.329-22.481-19.362c-7.863-6.136-16.165-11.962-24.75-17.376c-8.275-5.208-16.81-10.055-25.472-14.438
				l-0.853-0.387c-9.332-4.667-18.871-8.869-28.514-12.504c-9.539-3.609-19.49-6.832-29.752-9.565
				c-10.313-2.758-20.547-4.976-30.551-6.6v-0.077C402.802,26.501,392.438,25.315,382.1,24.696L382.1,24.696z M364.002,639.321
				c-6.419,0-12.478-0.182-18.125-0.517c-10.338-0.618-20.702-1.777-30.938-3.402l0,0c-10.003-1.624-20.212-3.842-30.551-6.601
				c-10.287-2.759-20.212-5.955-29.751-9.563c-9.9-3.738-19.413-7.915-28.488-12.453c-6.084-3.042-13.509-0.566-16.551,5.518
				s-0.567,13.511,5.517,16.552c10.055,5.027,20.341,9.564,30.809,13.51c10.519,3.971,21.244,7.451,32.098,10.363
				c10.828,2.889,21.836,5.261,32.948,7.064v-0.052l0.052,0.024c11.241,1.806,22.43,3.068,33.413,3.713
				c6.935,0.412,13.483,0.619,19.568,0.619c6.832,0,12.401-5.568,12.401-12.4S370.833,639.321,364.002,639.321z"/>
			<path d="M442.197,87.706c-1.754,6.6-8.56,10.519-15.16,8.766c-6.6-1.753-10.519-8.56-8.766-15.16l16.552-61.72
				c1.753-6.6,8.56-10.519,15.159-8.766c6.601,1.753,10.52,8.56,8.766,15.159L442.197,87.706z"/>
			<path d="M295.887,714.86c6.445-2.27,13.509,1.107,15.778,7.554c2.269,6.445-1.109,13.51-7.554,15.778
				c-14.283,5.054-27.74,11.834-40.038,20.108c-4.151,2.812-8.198,5.749-12.091,8.869h224.039
				c-11.809-9.462-24.854-17.429-38.801-23.667c-22.249-9.952-47.051-15.495-73.219-15.495c-6.832,0-12.401-5.567-12.401-12.399
				s5.569-12.401,12.401-12.401c29.545,0,57.802,6.343,83.273,17.764c26.039,11.653,49.217,28.617,68.141,49.5
				c2.476,2.27,4.021,5.519,4.021,9.127c0,6.832-5.568,12.4-12.4,12.4H220.942v-0.077c-2.939,0-5.878-1.031-8.225-3.146
				c-5.079-4.537-5.517-12.351-0.954-17.429c11.395-12.762,24.389-24.055,38.543-33.566
				C264.408,728.344,279.723,720.584,295.887,714.86z"/>
			<path d="M293.155,643.91c-1.753,6.601-8.559,10.545-15.159,8.766c-6.6-1.753-10.519-8.559-8.766-15.159l16.552-61.72
				c1.753-6.601,8.559-10.545,15.159-8.766c6.6,1.753,10.544,8.559,8.766,15.159L293.155,643.91z"/>
			<path d="M351.601,651.645c0-6.831,5.569-12.399,12.401-12.399c6.832,0,12.401,5.567,12.401,12.399v63.965
				c0,6.831-5.569,12.399-12.401,12.399c-6.832,0-12.401-5.567-12.401-12.399V651.645z"/>
		</g>
	</g>
</g>
<g>
</g>
<g>
</g>
<g>
</g>
<g>
</g>
<g>
</g>
<g>
</g>
<g>
</g>
<g>
</g>
<g>
</g>
<g>
</g>
<g>
</g>
<g>
</g>
<g>
</g>
<g>
</g>
<g>
</g>
</svg>
