<?xml version="1.0" encoding="iso-8859-1"?>
<!-- Generator: Adobe Illustrator 16.0.0, SVG Export Plug-In . SVG Version: 6.00 Build 0)  -->
<!DOCTYPE svg PUBLIC "-//W3C//DTD SVG 1.1//EN" "http://www.w3.org/Graphics/SVG/1.1/DTD/svg11.dtd">
<svg version="1.1" id="Capa_1" xmlns="http://www.w3.org/2000/svg" xmlns:xlink="http://www.w3.org/1999/xlink" x="0px" y="0px"
	 width="31.996px" height="31.995px" viewBox="0 0 31.996 31.995" style="enable-background:new 0 0 31.996 31.995;"
	 xml:space="preserve">
<g>
	<path d="M31.101,4.893c-0.846-1.003-2.238-0.533-2.633-0.418c-2.275-2.118-5.297-2.872-7.822-2.126l-1.557-1.668
		c-0.391-0.415-0.924-0.66-1.492-0.679c-0.568-0.02-1.121,0.188-1.537,0.575l-0.966,0.902c-0.415,0.388-0.66,0.924-0.679,1.492
		s0.188,1.121,0.576,1.536l0.188,0.202L9.293,5.222C9.126,5.237,8.981,5.346,8.922,5.502C8.863,5.66,8.899,5.836,9.017,5.958
		l-6.568,6.287l-0.123-0.06c-0.413-0.201-0.9-0.175-1.29,0.068c-0.39,0.244-0.626,0.671-0.626,1.13v5.237
		c0,0.354,0.179,0.685,0.475,0.876c0.296,0.192,0.67,0.225,0.993,0.08l3.898,7.186c-0.23,0.226-0.444,0.459-0.641,0.719h-0.83
		c-1.959,0-3.547,1.588-3.547,3.547v0.968h18.666v-0.968c0-1.959-1.588-3.547-3.547-3.547h-0.093
		c-0.787-1.041-1.859-1.806-3.098-2.237l-4.567-8.417l0.475-0.209c0.269-0.119,0.444-0.382,0.449-0.675
		c0.006-0.293-0.16-0.564-0.424-0.692l4.839-4.633c0.213,0.223,0.534,0.307,0.829,0.216c0.295-0.09,0.513-0.34,0.564-0.644
		l0.829-4.941l0.867,0.93c-0.917,2.466-0.374,5.532,1.581,7.947c-0.793,2.291,0.961,3.255,1.75,3.255
		c2.017,0,5.006-2.119,7.131-4.104c1.563-1.461,2.875-3.026,3.688-4.41C31.752,7.071,31.841,5.774,31.101,4.893z M10.049,24.879
		c-0.893,0.055-1.74,0.28-2.505,0.647L3.847,18.71l2.305-1.018L10.049,24.879z M6.563,14.248l-2.058-1.001l5.992-5.736l1.481,1.552
		L6.563,14.248z M25.544,11.706c-1.564,1.463-3.068,2.496-4.188,3.051c-0.229,0.114-0.506,0.064-0.682-0.123
		c-0.176-0.186-0.207-0.466-0.078-0.688c0.584-1.003,1.639-2.404,3.324-3.979c1.555-1.451,3.045-2.479,4.184-3.037
		c0.229-0.113,0.506-0.062,0.681,0.125c0.174,0.188,0.204,0.467,0.075,0.688C28.275,8.747,27.222,10.141,25.544,11.706z"/>
</g>
<g>
</g>
<g>
</g>
<g>
</g>
<g>
</g>
<g>
</g>
<g>
</g>
<g>
</g>
<g>
</g>
<g>
</g>
<g>
</g>
<g>
</g>
<g>
</g>
<g>
</g>
<g>
</g>
<g>
</g>
</svg>
