<?xml version="1.0" encoding="iso-8859-1"?>
<!-- Generator: Adobe Illustrator 19.0.0, SVG Export Plug-In . SVG Version: 6.00 Build 0)  -->
<svg version="1.1" id="Capa_1" xmlns="http://www.w3.org/2000/svg" xmlns:xlink="http://www.w3.org/1999/xlink" x="0px" y="0px"
	 viewBox="0 0 425.814 425.814" style="enable-background:new 0 0 425.814 425.814;" xml:space="preserve">
<g>
	<g>
		<path d="M212.907,132.579c25.226,0,45.749-20.522,45.749-45.748s-20.522-45.748-45.749-45.748
			c-25.226,0-45.748,20.522-45.748,45.748S187.682,132.579,212.907,132.579z M212.907,56.083c16.955,0,30.749,13.793,30.749,30.748
			s-13.794,30.748-30.749,30.748s-30.748-13.793-30.748-30.748S195.953,56.083,212.907,56.083z"/>
		<path d="M276.655,235.077c0-24.262,19.738-44,44-44h0.693c16.542,0,30-13.458,30-30c0-4.142-3.357-7.5-7.5-7.5h-67.193v-30.994
			c0-24.262,19.738-44,44-44h0.693c16.542,0,30-13.458,30-30c0-4.142-3.357-7.5-7.5-7.5h-67.193V30.584c0-4.142-3.357-7.5-7.5-7.5
			h-16.502C244.571,8.914,229.467,0,212.908,0c-16.56,0-31.663,8.914-39.745,23.084H156.66c-4.142,0-7.5,3.358-7.5,7.5v10.499
			H81.967c-4.142,0-7.5,3.358-7.5,7.5c0,16.542,13.458,30,30,30h0.693c24.262,0,44,19.738,44,44v30.994H81.967
			c-4.142,0-7.5,3.358-7.5,7.5c0,16.542,13.458,30,30,30h0.693c24.262,0,44,19.738,44,44v30.995H81.967c-4.142,0-7.5,3.358-7.5,7.5
			c0,16.542,13.458,30,30,30h0.693c24.262,0,44,19.738,44,44v20.495c0,4.142,3.358,7.5,7.5,7.5h35.248v50.247h15v-50.247h11.999
			v50.247h15v-50.247h35.248c4.143,0,7.5-3.358,7.5-7.5v-20.495c0-24.262,19.738-44,44-44h0.693c16.542,0,30-13.458,30-30
			c0-4.142-3.357-7.5-7.5-7.5h-67.193L276.655,235.077L276.655,235.077z M334.336,168.577c-2.598,4.48-7.446,7.5-12.987,7.5h-0.693
			c-17.472,0-33.187,7.641-44,19.749v-27.249H334.336z M334.336,56.083c-2.598,4.48-7.446,7.5-12.987,7.5h-0.693
			c-17.472,0-33.187,7.641-44,19.749V56.083H334.336z M212.908,15c7.846,0,15.198,2.989,20.762,8.084h-41.525
			C197.71,17.989,205.061,15,212.908,15z M105.16,63.583h-0.693c-5.541,0-10.39-3.02-12.987-7.5h57.68v27.249
			C138.348,71.224,122.633,63.583,105.16,63.583z M164.16,38.084h97.495v97.494H164.16V38.084z M105.16,176.077h-0.693
			c-5.541,0-10.39-3.02-12.987-7.5h57.68v27.249C138.348,183.718,122.633,176.077,105.16,176.077z M164.16,150.578h97.495v97.495
			H164.16V150.578z M105.16,288.572h-0.693c-5.541,0-10.39-3.02-12.987-7.5h57.68v27.249
			C138.348,296.213,122.633,288.572,105.16,288.572z M261.655,360.567H164.16v-97.494h97.495V360.567z M334.336,281.072
			c-2.598,4.48-7.446,7.5-12.987,7.5h-0.693c-17.472,0-33.187,7.641-44,19.749v-27.249H334.336z"/>
		<path d="M212.907,245.073c25.226,0,45.749-20.522,45.749-45.748s-20.522-45.748-45.749-45.748
			c-25.226,0-45.748,20.522-45.748,45.748S187.682,245.073,212.907,245.073z M212.907,168.577c16.955,0,30.749,13.793,30.749,30.748
			s-13.794,30.748-30.749,30.748s-30.748-13.793-30.748-30.748S195.953,168.577,212.907,168.577z"/>
		<path d="M212.907,266.072c-25.226,0-45.748,20.522-45.748,45.748s20.522,45.748,45.748,45.748s45.749-20.522,45.749-45.748
			S238.134,266.072,212.907,266.072z M212.907,342.568c-16.955,0-30.748-13.793-30.748-30.748s13.793-30.748,30.748-30.748
			s30.749,13.793,30.749,30.748S229.862,342.568,212.907,342.568z"/>
	</g>
</g>
<g>
</g>
<g>
</g>
<g>
</g>
<g>
</g>
<g>
</g>
<g>
</g>
<g>
</g>
<g>
</g>
<g>
</g>
<g>
</g>
<g>
</g>
<g>
</g>
<g>
</g>
<g>
</g>
<g>
</g>
</svg>
