<?xml version="1.0" encoding="iso-8859-1"?>
<!-- Generator: Adobe Illustrator 16.0.0, SVG Export Plug-In . SVG Version: 6.00 Build 0)  -->
<!DOCTYPE svg PUBLIC "-//W3C//DTD SVG 1.1//EN" "http://www.w3.org/Graphics/SVG/1.1/DTD/svg11.dtd">
<svg version="1.1" id="Capa_1" xmlns="http://www.w3.org/2000/svg" xmlns:xlink="http://www.w3.org/1999/xlink" x="0px" y="0px"
	 width="792px" height="792px" viewBox="0 0 792 792" style="enable-background:new 0 0 792 792;" xml:space="preserve">
<g>
	<g>
		<g>
			<path d="M632.156,204.188c0,6.832-5.543,12.375-12.375,12.375s-12.375-5.569-12.375-12.375v-115.5H184.619v167.037h435.162
				c6.832,0,12.375,5.569,12.375,12.375c0,6.832-5.543,12.401-12.375,12.401H172.553h-0.335c-6.832,0-12.375-5.569-12.375-12.401
				V76.647v-0.335c0-6.832,5.569-12.375,12.375-12.375h447.228h0.31c6.832,0,12.375,5.543,12.375,12.375v127.875L632.156,204.188
				L632.156,204.188z"/>
			<path d="M223.755,367.615v-23.177h-39.136v23.177H223.755L223.755,367.615z M248.531,332.063v47.618v0.309
				c0,6.832-5.543,12.375-12.375,12.375h-63.603h-0.335c-6.832,0-12.375-5.569-12.375-12.375v-47.618v-0.31
				c0-6.832,5.569-12.401,12.375-12.401h63.603h0.335C242.988,319.688,248.531,325.23,248.531,332.063z"/>
			<path d="M287.719,380.016v-0.31v-47.644c0-6.832,5.543-12.401,12.401-12.401h0.309h63.603c6.832,0,12.401,5.569,12.401,12.401
				v0.31v47.618c0,6.832-5.569,12.375-12.401,12.375h-0.31h-63.628C293.261,392.391,287.719,386.848,287.719,380.016
				L287.719,380.016z M312.494,344.463v23.177h39.162v-23.177H312.494z"/>
			<path d="M543.443,380.016v-0.31v-47.644c0-6.832,5.543-12.401,12.375-12.401h0.309h63.629c6.832,0,12.375,5.569,12.375,12.401
				v0.31v47.618c0,6.832-5.543,12.375-12.375,12.375h-0.31h-63.604C548.986,392.391,543.443,386.848,543.443,380.016
				L543.443,380.016z M568.219,344.463v23.177h39.162v-23.177H568.219z"/>
			<path d="M479.506,367.615v-23.177h-39.137v23.177H479.506L479.506,367.615z M504.281,332.063v47.618v0.309
				c0,6.832-5.543,12.375-12.4,12.375h-63.603h-0.31c-6.832,0-12.375-5.569-12.375-12.375v-47.618v-0.31
				c0-6.832,5.567-12.401,12.375-12.401h63.603h0.31C498.738,319.688,504.281,325.23,504.281,332.063z"/>
			<path d="M223.755,479.506v-23.152h-39.136v23.152H223.755L223.755,479.506z M248.531,443.953v47.618v0.335
				c0,6.832-5.543,12.375-12.375,12.375h-63.603h-0.335c-6.832,0-12.375-5.568-12.375-12.375v-47.618v-0.335
				c0-6.832,5.569-12.375,12.375-12.375h63.603h0.335C242.988,431.553,248.531,437.121,248.531,443.953z"/>
			<path d="M287.719,491.906v-0.335v-47.618c0-6.832,5.543-12.375,12.401-12.375h0.309h63.603c6.832,0,12.401,5.568,12.401,12.375
				v0.335v47.618c0,6.832-5.569,12.375-12.401,12.375h-0.31h-63.628C293.261,504.281,287.719,498.713,287.719,491.906
				L287.719,491.906z M312.494,456.354v23.152h39.162v-23.152H312.494z"/>
			<path d="M543.443,491.906v-0.335v-47.618c0-6.832,5.543-12.375,12.375-12.375h0.309h63.629c6.832,0,12.375,5.568,12.375,12.375
				v0.335v47.618c0,6.832-5.543,12.375-12.375,12.375h-0.31h-63.604C548.986,504.281,543.443,498.713,543.443,491.906
				L543.443,491.906z M568.219,456.354v23.152h39.162v-23.152H568.219z"/>
			<path d="M479.506,479.506v-23.152h-39.137v23.152H479.506L479.506,479.506z M504.281,443.953v47.618v0.335
				c0,6.832-5.543,12.375-12.4,12.375h-63.603h-0.31c-6.832,0-12.375-5.568-12.375-12.375v-47.618v-0.335
				c0-6.832,5.567-12.375,12.375-12.375h63.603h0.31C498.738,431.553,504.281,437.121,504.281,443.953z"/>
			<path d="M223.755,591.396v-23.179h-39.136v23.179H223.755L223.755,591.396z M248.531,555.844v47.618v0.31
				c0,6.832-5.543,12.375-12.375,12.375h-63.603h-0.335c-6.832,0-12.375-5.543-12.375-12.375v-47.617v-0.311
				c0-6.832,5.569-12.399,12.375-12.399h63.603h0.335C242.988,543.443,248.531,549.012,248.531,555.844z"/>
			<path d="M287.719,603.797v-0.31v-47.645c0-6.832,5.543-12.399,12.401-12.399h0.309h63.603c6.832,0,12.401,5.567,12.401,12.399
				v0.335v47.618c0,6.832-5.569,12.375-12.401,12.375h-0.31h-63.628C293.261,616.172,287.719,610.629,287.719,603.797
				L287.719,603.797z M312.494,568.244v23.178h39.162v-23.178H312.494z"/>
			<path d="M223.755,703.287v-23.178h-39.136v23.178H223.755L223.755,703.287z M248.531,667.734v47.617v0.311
				c0,6.832-5.543,12.4-12.375,12.4h-63.603h-0.335c-6.832,0-12.375-5.544-12.375-12.4v-47.618v-0.31
				c0-6.832,5.569-12.4,12.375-12.4h63.603h0.335C242.988,655.334,248.531,660.902,248.531,667.734z"/>
			<path d="M287.719,715.662v-0.311v-47.617c0-6.832,5.543-12.4,12.401-12.4h0.309h63.603c6.832,0,12.401,5.543,12.401,12.4v0.31
				v47.618c0,6.832-5.569,12.4-12.401,12.4h-0.31h-63.628C293.261,728.062,287.719,722.494,287.719,715.662L287.719,715.662z
				 M312.494,680.109v23.178h39.162v-23.178H312.494z"/>
			<path d="M607.381,591.396v-23.179H440.344v23.179H607.381L607.381,591.396z M632.156,555.844v47.618v0.31
				c0,6.832-5.543,12.375-12.375,12.375H428.304h-0.335c-6.832,0-12.375-5.543-12.375-12.375v-47.617v-0.311
				c0-6.832,5.567-12.399,12.375-12.399h191.478h0.31C626.613,543.443,632.156,549.012,632.156,555.844z"/>
			<path d="M607.381,703.287v-23.178H440.344v23.178H607.381L607.381,703.287z M632.156,667.734v47.617v0.311
				c0,6.832-5.543,12.4-12.375,12.4H428.304h-0.335c-6.832,0-12.375-5.544-12.375-12.4v-47.618v-0.31
				c0-6.832,5.567-12.4,12.375-12.4h191.478h0.31C626.613,655.334,632.156,660.902,632.156,667.734z"/>
			<path d="M619.781,24.776H172.219c-14.128,0-27.044,5.801-36.377,15.108l-0.051,0.051c-9.307,9.333-15.108,22.25-15.108,36.377
				v639.35c0,14.153,5.801,27.07,15.133,36.429l0.026-0.025c9.333,9.333,22.25,15.159,36.377,15.159h447.563
				c14.154,0,27.045-5.826,36.377-15.159c9.333-9.332,15.16-22.249,15.16-36.378V76.313c0-14.154-5.827-27.07-15.16-36.377
				l-0.541-0.619C646.311,30.345,633.651,24.776,619.781,24.776L619.781,24.776z M172.219,0h447.563
				c20.548,0,39.265,8.276,53.032,21.63l0.876,0.799c13.793,13.819,22.403,32.897,22.403,53.909v639.35
				c0,21.012-8.61,40.114-22.403,53.907S640.768,792,619.781,792H172.219c-21.012,0-40.116-8.611-53.909-22.404l0.026-0.024
				l-0.026-0.025c-13.793-13.846-22.404-32.924-22.404-53.884V76.313c0-20.96,8.611-40.038,22.404-53.857l0.052-0.052
				C132.18,8.611,151.259,0,172.219,0z"/>
		</g>
	</g>
</g>
<g>
</g>
<g>
</g>
<g>
</g>
<g>
</g>
<g>
</g>
<g>
</g>
<g>
</g>
<g>
</g>
<g>
</g>
<g>
</g>
<g>
</g>
<g>
</g>
<g>
</g>
<g>
</g>
<g>
</g>
</svg>
