<?xml version="1.0" encoding="iso-8859-1"?>
<!-- Generator: Adobe Illustrator 16.0.0, SVG Export Plug-In . SVG Version: 6.00 Build 0)  -->
<!DOCTYPE svg PUBLIC "-//W3C//DTD SVG 1.1//EN" "http://www.w3.org/Graphics/SVG/1.1/DTD/svg11.dtd">
<svg version="1.1" id="Capa_1" xmlns="http://www.w3.org/2000/svg" xmlns:xlink="http://www.w3.org/1999/xlink" x="0px" y="0px"
	 width="32px" height="32.001px" viewBox="0 0 32 32.001" style="enable-background:new 0 0 32 32.001;" xml:space="preserve">
<g>
	<g>
		<path d="M9.097,17.875c-0.291,0.521-0.159,1.174,0.311,1.54l1.393,1.085c0.496,0.387,1.206,0.327,1.63-0.139l0.818-0.896
			l1.178,0.995c0.244,0.207,0.56,0.309,0.878,0.281c0.319-0.027,0.613-0.183,0.82-0.427l2.244-2.652
			c-0.705-0.52-1.271-1.212-1.628-2.02c-0.279-0.625-0.435-1.317-0.435-2.045c0-2.779,2.261-5.04,5.041-5.04
			c0.567,0,1.113,0.095,1.623,0.269c0.715,0.245,1.356,0.645,1.889,1.16l2.83-3.348c0.43-0.508,0.365-1.269-0.143-1.698
			l-0.578-0.488l0.297-0.323c0.223-0.242,0.334-0.563,0.313-0.891c-0.021-0.327-0.174-0.632-0.424-0.843l-2.5-2.112
			c-0.25-0.212-0.576-0.312-0.901-0.278c-0.326,0.033-0.623,0.198-0.824,0.455l-0.273,0.35l-0.574-0.485
			c-0.508-0.429-1.27-0.365-1.697,0.143L8.734,14.25c-0.395,0.467-0.377,1.154,0.041,1.601l0.911,0.975L9.097,17.875z"/>
		<path d="M26.242,14.792c-0.289,1.184-0.996,2.207-1.955,2.898c1.359,1.725,2.652,4.235,2.652,7.574v3.362H10.078v-0.212
			l5.546-2.029v-1.033c0-0.666-0.54-1.205-1.205-1.205H2.897c-0.666,0-1.205,0.539-1.205,1.205v1.033l5.013,1.838v1.416
			c0,1.305,1.057,2.362,2.361,2.362h18.883c1.306,0,2.36-1.058,2.36-2.361v-4.375C30.311,20.441,28.209,16.979,26.242,14.792z"/>
		<path d="M21.344,9.685c-2.16,0-3.916,1.757-3.916,3.917c0,2.16,1.756,3.917,3.916,3.917s3.918-1.757,3.918-3.917
			C25.262,11.44,23.504,9.685,21.344,9.685z"/>
	</g>
</g>
<g>
</g>
<g>
</g>
<g>
</g>
<g>
</g>
<g>
</g>
<g>
</g>
<g>
</g>
<g>
</g>
<g>
</g>
<g>
</g>
<g>
</g>
<g>
</g>
<g>
</g>
<g>
</g>
<g>
</g>
</svg>
