<?xml version="1.0" encoding="iso-8859-1"?>
<!-- Generator: Adobe Illustrator 19.0.0, SVG Export Plug-In . SVG Version: 6.00 Build 0)  -->
<svg version="1.1" id="Capa_1" xmlns="http://www.w3.org/2000/svg" xmlns:xlink="http://www.w3.org/1999/xlink" x="0px" y="0px"
	 viewBox="0 0 388.325 388.325" style="enable-background:new 0 0 388.325 388.325;" xml:space="preserve">
<g>
	<path d="M379.403,373.325h-63.049v-64.694c3.257,1.584,6.754,2.71,10.412,3.305c2.009,0.327,4.054,0.493,6.077,0.493
		c0.001,0,0,0,0.001,0c18.5,0,34.09-13.271,37.065-31.556c1.101-6.756,0.337-13.609-2.146-19.874
		c6.325-5.316,10.557-12.701,11.92-21.072c1.5-9.21-0.678-18.453-6.13-26.026c-5.452-7.573-13.527-12.569-22.737-14.068
		c-0.964-0.157-1.938-0.274-2.913-0.35c0.252-20.023-14.205-37.813-34.555-41.126c-2.201-0.358-4.44-0.54-6.656-0.54
		c-20.261,0-37.332,14.534-40.593,34.559c-0.264,1.618-0.431,3.246-0.501,4.876c-8.593,4.774-14.646,13.243-16.258,23.146
		c-0.509,3.126-0.555,6.312-0.146,9.436c-7.504,4.945-12.771,12.896-14.238,21.907c-2.356,14.479,5.504,28.649,18.411,34.65
		c1.174,14.592,12.171,26.946,27.126,29.381c1.733,0.282,3.496,0.425,5.241,0.425c5.549,0,10.908-1.474,15.62-4.086v61.212H191.913
		V7.5c0-4.142-3.357-7.5-7.5-7.5H49.42c-4.143,0-7.5,3.358-7.5,7.5v365.825H8.922c-4.143,0-7.5,3.358-7.5,7.5s3.357,7.5,7.5,7.5
		h370.481c4.143,0,7.5-3.358,7.5-7.5S383.546,373.325,379.403,373.325z M285.735,301.199c-0.939,0-1.893-0.077-2.831-0.23
		c-9.131-1.487-15.518-9.849-14.54-19.037c0.396-3.72-2.011-7.163-5.641-8.069c-8.713-2.177-14.406-10.834-12.962-19.71
		c0.995-6.109,5.03-11.124,10.795-13.415c3.729-1.482,5.632-5.637,4.316-9.429c-0.953-2.746-1.197-5.605-0.727-8.5
		c1.031-6.332,5.441-11.575,11.511-13.683c3.253-1.13,5.318-4.33,5.009-7.759c-0.197-2.181-0.116-4.396,0.239-6.581
		c2.073-12.729,12.918-21.969,25.788-21.969c1.411,0,2.84,0.116,4.246,0.345c14.242,2.319,23.943,15.792,21.625,30.035
		c-0.128,0.782-0.302,1.6-0.519,2.429c-0.661,2.526,0.041,5.215,1.852,7.097c1.811,1.882,4.468,2.689,7.021,2.124
		c2.456-0.541,5.003-0.612,7.489-0.208c10.849,1.766,18.238,12.03,16.473,22.878c-1.008,6.188-4.767,11.434-10.313,14.393
		c-1.851,0.987-3.203,2.704-3.729,4.734s-0.179,4.188,0.958,5.95c3.035,4.705,4.212,10.341,3.312,15.87
		c-1.789,10.99-11.151,18.966-22.262,18.966c-1.219,0-2.452-0.1-3.667-0.298c-5.733-0.934-10.83-4-14.35-8.635
		c-1.635-2.151-4.3-3.259-6.979-2.896c-2.678,0.363-4.954,2.139-5.957,4.648C299.273,296.798,292.779,301.199,285.735,301.199z
		 M176.913,283.329H88.169V271.33h88.744V283.329z M176.913,228.429H88.169V216.43h88.744V228.429z M176.913,173.529H88.169V161.53
		h88.744V173.529z M176.913,118.629H88.169V106.63h88.744V118.629z M176.913,63.729H88.169V51.731h88.744V63.729z M56.92,15h119.993
		v21.731H80.669c-4.143,0-7.5,3.358-7.5,7.5V71.23c0,4.142,3.357,7.5,7.5,7.5h96.244v12.901H80.669c-4.143,0-7.5,3.358-7.5,7.5
		v26.999c0,4.142,3.357,7.5,7.5,7.5h96.244v12.901H80.669c-4.143,0-7.5,3.358-7.5,7.5v26.999c0,4.142,3.357,7.5,7.5,7.5h96.244
		v12.901H80.669c-4.143,0-7.5,3.358-7.5,7.5v26.999c0,4.142,3.357,7.5,7.5,7.5h96.244v12.901H80.669c-4.143,0-7.5,3.358-7.5,7.5
		v26.999c0,4.142,3.357,7.5,7.5,7.5h96.244v13.499h-37.497c-4.143,0-7.5,3.358-7.5,7.5v53.997H56.92V15z M146.916,373.325v-46.497
		h29.997v46.497H146.916z"/>
</g>
<g>
</g>
<g>
</g>
<g>
</g>
<g>
</g>
<g>
</g>
<g>
</g>
<g>
</g>
<g>
</g>
<g>
</g>
<g>
</g>
<g>
</g>
<g>
</g>
<g>
</g>
<g>
</g>
<g>
</g>
</svg>
