<?xml version="1.0" encoding="iso-8859-1"?>
<!-- Generator: Adobe Illustrator 16.0.0, SVG Export Plug-In . SVG Version: 6.00 Build 0)  -->
<!DOCTYPE svg PUBLIC "-//W3C//DTD SVG 1.1//EN" "http://www.w3.org/Graphics/SVG/1.1/DTD/svg11.dtd">
<svg version="1.1" id="Capa_1" xmlns="http://www.w3.org/2000/svg" xmlns:xlink="http://www.w3.org/1999/xlink" x="0px" y="0px"
	 width="31.295px" height="31.295px" viewBox="0 0 31.295 31.295" style="enable-background:new 0 0 31.295 31.295;"
	 xml:space="preserve">
<g>
	<g>
		<path d="M29.074,11.601c0-1.712-0.441-3.339-1.235-4.802l0.746-3.127c0.106-0.449,0.003-0.922-0.283-1.284
			c-0.284-0.362-0.722-0.573-1.183-0.573H22.67c-0.02-0.01-0.04-0.019-0.059-0.028c-2.021-1.069-4.371-1.714-6.939-1.786V0
			c0,0-0.021,0.001-0.031,0.001C15.63,0.001,15.612,0,15.612,0v0.002c-2.51,0.071-4.91,0.716-6.93,1.786
			C8.667,1.797,8.655,1.806,8.637,1.816H4.189c-0.461,0-0.896,0.211-1.183,0.573c-0.285,0.362-0.39,0.835-0.283,1.283L3.467,6.8
			c-0.796,1.463-1.246,3.089-1.246,4.802c0,6.318,2.5,19.322,13.392,19.69v0.003c0,0,0.019-0.001,0.029-0.001
			c0.01,0,0.031,0,0.031,0v-0.002C26.564,30.924,29.074,17.92,29.074,11.601z M19.677,16.572l-3.233,3.719
			c-0.196,0.229-0.484,0.359-0.791,0.359c-0.304,0-0.592-0.133-0.791-0.361l-3.23-3.717c-0.285,0.037-0.576,0.061-0.873,0.061
			c-3.584,0-6.49-2.908-6.49-6.493c0-3.584,2.899-6.492,6.483-6.492c1.937,0,3.697,0.849,4.86,2.194v0.069
			c0-0.012,0.019-0.023,0.029-0.035c0.01,0.012,0.031,0.023,0.031,0.035v-0.07c1.225-1.345,2.934-2.194,4.87-2.194
			c3.585,0,6.493,2.907,6.493,6.492s-2.902,6.492-6.488,6.492C20.25,16.631,19.962,16.611,19.677,16.572z"/>
		<path d="M15.612,14.367c0,0-1.625,1.505-2.659,1.878l1.782,2.052c0.222,0.254,0.542,0.401,0.88,0.403
			c0.338,0,0.661-0.146,0.885-0.396l1.829-2.062C17.296,15.872,15.612,14.379,15.612,14.367z"/>
		<path d="M20.549,4.827c-1.771,0-3.346,0.874-4.312,2.213c-0.229,0.322-0.425,0.67-0.583,1.039
			c-0.155-0.369-0.351-0.717-0.583-1.039c-0.965-1.339-2.537-2.213-4.311-2.213c-2.929,0-5.31,2.383-5.31,5.311
			c0,2.929,2.381,5.311,5.31,5.311c0.445,0,1.363-0.178,1.363-0.178c1.204-0.319,2.242-1.051,2.949-2.036
			c0.231-0.321,0.428-0.67,0.583-1.039c0.156,0.369,0.352,0.718,0.583,1.039c0.709,0.984,1.749,1.717,2.95,2.036
			c0,0,0.918,0.178,1.36,0.178c2.931,0,5.312-2.382,5.312-5.311C25.859,7.21,23.479,4.827,20.549,4.827z M10.759,13.01
			c-1.581,0-2.87-1.289-2.87-2.872s1.289-2.871,2.87-2.871c1.584,0,2.871,1.288,2.871,2.871S12.343,13.01,10.759,13.01z
			 M20.549,13.01c-1.583,0-2.872-1.289-2.872-2.872s1.289-2.871,2.872-2.871c1.582,0,2.871,1.288,2.871,2.871
			S22.131,13.01,20.549,13.01z"/>
	</g>
</g>
<g>
</g>
<g>
</g>
<g>
</g>
<g>
</g>
<g>
</g>
<g>
</g>
<g>
</g>
<g>
</g>
<g>
</g>
<g>
</g>
<g>
</g>
<g>
</g>
<g>
</g>
<g>
</g>
<g>
</g>
</svg>
