<?xml version="1.0" encoding="iso-8859-1"?>
<!-- Generator: Adobe Illustrator 16.0.0, SVG Export Plug-In . SVG Version: 6.00 Build 0)  -->
<!DOCTYPE svg PUBLIC "-//W3C//DTD SVG 1.1//EN" "http://www.w3.org/Graphics/SVG/1.1/DTD/svg11.dtd">
<svg version="1.1" id="Capa_1" xmlns="http://www.w3.org/2000/svg" xmlns:xlink="http://www.w3.org/1999/xlink" x="0px" y="0px"
	 width="31.753px" height="31.753px" viewBox="0 0 31.753 31.753" style="enable-background:new 0 0 31.753 31.753;"
	 xml:space="preserve">
<g>
	<g>
		<path d="M20.199,6.912h-8.647l-4.09,7.494c-0.961,1.761-0.976,3.885-0.039,5.66l5.833,11.053c0.205,0.391,0.609,0.634,1.05,0.634
			V20.896c-0.747-0.471-1.244-1.299-1.244-2.246c0-1.402,1.098-2.541,2.48-2.629h0.665c1.382,0.088,2.479,1.227,2.479,2.629
			c0,0.947-0.496,1.775-1.244,2.246v10.854c0.438,0,0.846-0.243,1.051-0.634l5.834-11.057c0.938-1.771,0.922-3.896-0.039-5.66
			L20.199,6.912z"/>
		<path d="M6.044,0v2.754h1.351v0.001c0,1.521,1.233,2.754,2.754,2.754h11.452c1.521,0,2.754-1.233,2.754-2.754V2.754h1.354V0H6.044
			z"/>
	</g>
</g>
<g>
</g>
<g>
</g>
<g>
</g>
<g>
</g>
<g>
</g>
<g>
</g>
<g>
</g>
<g>
</g>
<g>
</g>
<g>
</g>
<g>
</g>
<g>
</g>
<g>
</g>
<g>
</g>
<g>
</g>
</svg>
