<?xml version="1.0" encoding="iso-8859-1"?>
<!-- Generator: Adobe Illustrator 16.0.0, SVG Export Plug-In . SVG Version: 6.00 Build 0)  -->
<!DOCTYPE svg PUBLIC "-//W3C//DTD SVG 1.1//EN" "http://www.w3.org/Graphics/SVG/1.1/DTD/svg11.dtd">
<svg version="1.1" id="Capa_1" xmlns="http://www.w3.org/2000/svg" xmlns:xlink="http://www.w3.org/1999/xlink" x="0px" y="0px"
	 width="31.893px" height="31.893px" viewBox="0 0 31.893 31.893" style="enable-background:new 0 0 31.893 31.893;"
	 xml:space="preserve">
<g>
	<g>
		<path d="M0,23.487l6.772,7.521l6.579-5.927l-6.773-7.519L0,23.487z M9.916,25.52l-2.349,2.114l-1.188-1.316L8.727,24.2
			L9.916,25.52z M4.484,24.213l-1.19-1.32l2.35-2.114l1.189,1.317L4.484,24.213z"/>
		<path d="M30.621,4.569l-1.848-2.05c-1.826-2.029-4.953-2.192-6.981-0.365L6.672,15.775l8.466,9.396l15.12-13.622
			C32.287,9.723,32.448,6.597,30.621,4.569z M23.184,6.458l-9.642,8.569c-0.241,0.217-0.542,0.32-0.839,0.32
			c-0.351,0-0.697-0.143-0.946-0.425c-0.464-0.521-0.416-1.321,0.104-1.784l9.642-8.57c0.521-0.466,1.32-0.419,1.784,0.105
			C23.753,5.196,23.706,5.995,23.184,6.458z"/>
	</g>
</g>
<g>
</g>
<g>
</g>
<g>
</g>
<g>
</g>
<g>
</g>
<g>
</g>
<g>
</g>
<g>
</g>
<g>
</g>
<g>
</g>
<g>
</g>
<g>
</g>
<g>
</g>
<g>
</g>
<g>
</g>
</svg>
