<?xml version="1.0" encoding="iso-8859-1"?>
<!-- Generator: Adobe Illustrator 16.0.0, SVG Export Plug-In . SVG Version: 6.00 Build 0)  -->
<!DOCTYPE svg PUBLIC "-//W3C//DTD SVG 1.1//EN" "http://www.w3.org/Graphics/SVG/1.1/DTD/svg11.dtd">
<svg version="1.1" id="Capa_1" xmlns="http://www.w3.org/2000/svg" xmlns:xlink="http://www.w3.org/1999/xlink" x="0px" y="0px"
	 width="612px" height="612px" viewBox="0 0 612 612" style="enable-background:new 0 0 612 612;" xml:space="preserve">
<g>
	<g>
		<g>
			<path d="M553.014,19.135H58.967c-10.917,0-20.897,4.502-28.129,11.714c-7.191,7.231-11.713,17.212-11.713,28.129v494.046
				c0,10.938,4.462,20.938,11.674,28.129l0.02,0.021l0.02-0.021c7.211,7.211,17.192,11.714,28.129,11.714h494.047
				c10.938,0,20.917-4.503,28.128-11.714c7.213-7.212,11.715-17.191,11.715-28.129V58.977c0-10.937-4.502-20.897-11.715-28.129
				C573.931,23.637,563.97,19.135,553.014,19.135L553.014,19.135z M58.987,0.01h494.046c16.216,0,30.997,6.634,41.654,17.312
				C605.366,28,612,42.741,612,58.977v494.046c0,16.235-6.634,30.979-17.312,41.655c-10.678,10.677-25.438,17.312-41.654,17.312
				H58.987c-16.236,0-30.978-6.635-41.655-17.312l0.02-0.021C6.634,583.961,0,569.199,0,553.023V58.977
				c0-16.216,6.654-30.958,17.332-41.636C27.989,6.664,42.771,0.01,58.987,0.01z"/>
			<path d="M562.596,429.512c0,5.279-4.283,9.563-9.562,9.563c-5.28,0-9.563-4.283-9.563-9.563V68.539H68.549v400.815h484.465
				c5.278,0,9.562,4.282,9.562,9.562c0,5.279-4.283,9.562-9.562,9.562H59.226h-0.239c-5.279,0-9.562-4.283-9.562-9.562v-419.7
				v-0.239c0-5.279,4.283-9.563,9.562-9.563h493.789h0.238c5.278,0,9.562,4.283,9.562,9.563v370.535H562.596z"/>
			<path d="M207.201,160.575c12.869,0,24.543,5.219,32.97,13.646c8.427,8.427,13.646,20.101,13.646,32.97
				c0,12.869-5.239,24.543-13.646,32.969c-8.427,8.427-20.101,13.646-32.97,13.646c-12.869,0-24.543-5.22-32.97-13.646
				c-8.427-8.426-13.666-20.1-13.666-32.969c0-12.869,5.22-24.543,13.646-32.97C182.658,165.795,194.312,160.575,207.201,160.575
				L207.201,160.575z M226.624,187.748c-4.98-4.96-11.854-8.048-19.443-8.048c-7.589,0-14.463,3.088-19.443,8.048
				c-4.96,4.979-8.048,11.853-8.048,19.443c0,7.59,3.088,14.462,8.048,19.443c4.96,4.96,11.853,8.048,19.443,8.048
				c7.59,0,14.463-3.088,19.443-8.048c4.96-4.98,8.048-11.853,8.048-19.443C234.672,199.601,231.604,192.728,226.624,187.748z"/>
			<path d="M216.763,133.084c0,5.279-4.283,9.562-9.562,9.562c-5.279,0-9.582-4.283-9.582-9.562v-24.703
				c0-5.279,4.283-9.562,9.562-9.562c5.279,0,9.563,4.283,9.563,9.562v24.703H216.763z"/>
			<path d="M108.372,439.094c-5.279,0-9.563-4.283-9.563-9.562c0-5.278,4.283-9.562,9.563-9.562h45.44l46.615-46.616
				c3.726-3.725,9.801-3.725,13.527,0l0.498,0.538l42.113,42.134l116.778-116.779c3.727-3.725,9.801-3.725,13.526,0l61.756,61.756
				c3.726,3.725,3.726,9.801,0,13.525c-3.726,3.726-9.801,3.726-13.526,0l-54.981-55.003L263.358,436.285l-0.02-0.021l-0.02,0.021
				c-3.725,3.705-9.781,3.686-13.487-0.04l-42.611-42.632l-42.671,42.672c-1.733,1.731-4.124,2.809-6.773,2.809H108.372
				L108.372,439.094z M470.021,409.451c-3.727-3.727-3.727-9.803,0-13.526c3.726-3.726,9.801-3.726,13.525,0l24.025,24.024h45.439
				c5.278,0,9.562,4.282,9.562,9.562s-4.283,9.563-9.562,9.563h-49.404l0,0c-2.45,0-4.9-0.917-6.773-2.789L470.021,409.451z"/>
			<path d="M216.763,306c0,5.278-4.283,9.562-9.562,9.562c-5.279,0-9.562-4.283-9.562-9.562v-24.702
				c0-5.279,4.283-9.563,9.562-9.563c5.279,0,9.562,4.283,9.562,9.563V306z"/>
			<path d="M281.288,216.753c-5.279,0-9.562-4.283-9.562-9.562c0-5.279,4.283-9.563,9.562-9.563h24.703
				c5.278,0,9.562,4.283,9.562,9.563c0,5.279-4.281,9.562-9.562,9.562H281.288z"/>
			<path d="M108.372,216.753c-5.279,0-9.563-4.283-9.563-9.562c0-5.279,4.283-9.563,9.563-9.563h24.702
				c5.279,0,9.562,4.283,9.562,9.563c0,5.279-4.283,9.562-9.562,9.562H108.372z"/>
			<path d="M266.367,161.552c-3.725,3.725-9.801,3.725-13.526,0c-3.726-3.725-3.726-9.801,0-13.526l17.471-17.471
				c3.726-3.725,9.801-3.725,13.527,0c3.725,3.726,3.725,9.801,0,13.526L266.367,161.552z"/>
			<path d="M144.03,283.828c-3.725,3.706-9.781,3.686-13.486-0.04c-3.706-3.726-3.686-9.782,0.04-13.487l17.471-17.451
				c3.725-3.705,9.781-3.686,13.486,0.04c3.706,3.725,3.686,9.781-0.04,13.487L144.03,283.828z"/>
			<path d="M161.501,148.025c3.725,3.705,3.765,9.761,0.06,13.486c-3.705,3.726-9.761,3.746-13.486,0.04L130.604,144.1
				c-3.725-3.705-3.745-9.761-0.04-13.486c3.706-3.726,9.762-3.765,13.487-0.04L161.501,148.025z"/>
			<path d="M283.818,270.281c3.725,3.725,3.725,9.801,0,13.526c-3.726,3.726-9.801,3.726-13.527,0l-17.471-17.471
				c-3.725-3.725-3.725-9.801,0-13.526c3.725-3.726,9.801-3.726,13.526,0L283.818,270.281z"/>
			<path d="M402.31,420.846c-3.726,3.727-9.802,3.727-13.526,0c-3.726-3.725-3.726-9.801,0-13.526l15.438-15.438l15.438-15.439
				l15.438-15.438c3.727-3.727,9.802-3.727,13.526,0c3.726,3.725,3.726,9.801,0,13.526l-15.438,15.438l-15.438,15.439
				L402.31,420.846z"/>
			<path d="M454.224,241.455c-5.278,0-9.562-4.283-9.562-9.562c0-5.279,4.282-9.562,9.562-9.562h24.702
				c4.164,0,7.969-1.693,10.678-4.423l0.04-0.04c2.729-2.709,4.424-6.514,4.424-10.678c0-4.164-1.693-7.949-4.402-10.678l-0.04-0.04
				c-2.77-2.729-6.534-4.422-10.698-4.422h-12.351c-5.279,0-9.563-4.283-9.563-9.563v-0.239c-0.06-7.471-3.146-14.264-8.048-19.165
				l-0.04-0.04c-4.96-4.94-11.833-8.048-19.423-8.048c-7.551,0-14.423,3.108-19.403,8.088c-4.961,4.98-8.067,11.854-8.067,19.403
				c0,5.279-4.283,9.563-9.563,9.563h-0.259h-12.112c-4.163,0-7.947,1.693-10.678,4.402l-0.04,0.04
				c-2.709,2.749-4.402,6.534-4.402,10.678c0,4.144,1.693,7.948,4.402,10.678l0.04,0.04c2.729,2.709,6.534,4.402,10.678,4.402
				h24.702c5.279,0,9.563,4.283,9.563,9.562c0,5.279-4.283,9.563-9.563,9.563h-24.702c-9.383,0-17.948-3.865-24.164-10.061
				l-0.04-0.04c-6.194-6.215-10.061-14.782-10.061-24.165c0-9.403,3.865-17.949,10.061-24.165l0.04-0.04
				c6.217-6.196,14.781-10.061,24.164-10.061h3.785c1.894-9.004,6.396-17.092,12.69-23.368c8.426-8.446,20.1-13.686,32.93-13.686
				c12.789,0,24.443,5.239,32.89,13.686l0.04,0.04c6.275,6.275,10.777,14.343,12.689,23.328h3.805
				c9.423,0,17.971,3.865,24.165,10.061l0.04,0.04c6.195,6.215,10.061,14.762,10.061,24.165c0,9.363-3.846,17.949-10.061,24.165
				l-0.04,0.04c-6.216,6.216-14.782,10.061-24.165,10.061h-24.702V241.455L454.224,241.455z"/>
			<path d="M430.1,269.525c-3.726,3.725-9.802,3.725-13.526,0c-3.726-3.726-3.726-9.801,0-13.527l15.438-15.439l15.438-15.438
				c3.726-3.726,9.802-3.726,13.526,0c3.726,3.725,3.726,9.801,0,13.526l-15.438,15.439L430.1,269.525z"/>
		</g>
	</g>
</g>
<g>
</g>
<g>
</g>
<g>
</g>
<g>
</g>
<g>
</g>
<g>
</g>
<g>
</g>
<g>
</g>
<g>
</g>
<g>
</g>
<g>
</g>
<g>
</g>
<g>
</g>
<g>
</g>
<g>
</g>
</svg>
