<?xml version="1.0" encoding="iso-8859-1"?>
<!-- Generator: Adobe Illustrator 16.0.0, SVG Export Plug-In . SVG Version: 6.00 Build 0)  -->
<!DOCTYPE svg PUBLIC "-//W3C//DTD SVG 1.1//EN" "http://www.w3.org/Graphics/SVG/1.1/DTD/svg11.dtd">
<svg version="1.1" id="Capa_1" xmlns="http://www.w3.org/2000/svg" xmlns:xlink="http://www.w3.org/1999/xlink" x="0px" y="0px"
	 width="31.736px" height="31.736px" viewBox="0 0 31.736 31.736" style="enable-background:new 0 0 31.736 31.736;"
	 xml:space="preserve">
<g>
	<g>
		<path d="M27.663,3.372C27.663,1.463,26.171,0,24.263,0H7.586C5.678,0,4.074,1.463,4.074,3.372v24.823
			c0,1.908,1.604,3.541,3.513,3.541h16.677c1.91,0,3.399-1.633,3.399-3.541V3.372z M11.831,6.449h2.935V4.345
			c0-0.671,0.517-1.216,1.187-1.216c0.672,0,1.189,0.545,1.189,1.216v2.104h2.885c0.672,0,1.217,0.6,1.217,1.273
			c0,0.672-0.545,1.274-1.217,1.274h-2.885v7.352c0,0.672-0.519,1.218-1.189,1.218c-0.669,0-1.187-0.546-1.187-1.218V8.996h-2.935
			c-0.672,0-1.217-0.602-1.217-1.274C10.615,7.049,11.159,6.449,11.831,6.449z M25.288,28.014c0,0.65-0.526,1.18-1.178,1.18H7.797
			c-0.65,0-1.178-0.526-1.178-1.18v-1.207c0-0.649,0.528-1.18,1.178-1.18H24.11c0.649,0,1.178,0.527,1.178,1.18V28.014z"/>
	</g>
</g>
<g>
</g>
<g>
</g>
<g>
</g>
<g>
</g>
<g>
</g>
<g>
</g>
<g>
</g>
<g>
</g>
<g>
</g>
<g>
</g>
<g>
</g>
<g>
</g>
<g>
</g>
<g>
</g>
<g>
</g>
</svg>
