<?xml version="1.0" encoding="iso-8859-1"?>
<!-- Generator: Adobe Illustrator 18.1.1, SVG Export Plug-In . SVG Version: 6.00 Build 0)  -->
<svg version="1.1" id="Capa_1" xmlns="http://www.w3.org/2000/svg" xmlns:xlink="http://www.w3.org/1999/xlink" x="0px" y="0px"
	 viewBox="0 0 285 285" style="enable-background:new 0 0 285 285;" xml:space="preserve">
<g>
	<g>
		<path d="M278.222,37.125c-3.761,0-6.798,3.04-6.798,6.788v48.196L126.679,119.56c-3.191,0.612-5.522,3.411-5.522,6.667v25.519
			c0,3.748,3.036,6.788,6.797,6.788c3.742,0,6.778-3.04,6.778-6.788v-19.903l144.745-27.452c3.21-0.603,5.523-3.401,5.523-6.667
			V43.913C285,40.165,281.963,37.125,278.222,37.125z"/>
		<path d="M255.851,73.693V14.12c0-3.739-3.037-6.779-6.778-6.779H6.778C3.037,7.341,0,10.381,0,14.12v59.573
			c0,3.739,3.037,6.779,6.778,6.779h242.294C252.813,80.472,255.851,77.432,255.851,73.693z"/>
		<path d="M144.899,170.496h-33.93c-3.761,0-6.798,3.04-6.798,6.788v93.596c0,3.739,3.037,6.779,6.798,6.779h33.93
			c3.742,0,6.779-3.04,6.779-6.779v-93.596C151.679,173.536,148.642,170.496,144.899,170.496z"/>
	</g>
</g>
<g>
</g>
<g>
</g>
<g>
</g>
<g>
</g>
<g>
</g>
<g>
</g>
<g>
</g>
<g>
</g>
<g>
</g>
<g>
</g>
<g>
</g>
<g>
</g>
<g>
</g>
<g>
</g>
<g>
</g>
</svg>
