<?xml version="1.0" encoding="iso-8859-1"?>
<!-- Generator: Adobe Illustrator 16.0.0, SVG Export Plug-In . SVG Version: 6.00 Build 0)  -->
<!DOCTYPE svg PUBLIC "-//W3C//DTD SVG 1.1//EN" "http://www.w3.org/Graphics/SVG/1.1/DTD/svg11.dtd">
<svg version="1.1" id="Capa_1" xmlns="http://www.w3.org/2000/svg" xmlns:xlink="http://www.w3.org/1999/xlink" x="0px" y="0px"
	 width="611.994px" height="611.993px" viewBox="0 0 611.994 611.993" style="enable-background:new 0 0 611.994 611.993;"
	 xml:space="preserve">
<g>
	<g>
		<g>
			<path d="M251.915,264.782c-5.161,1.056-10.202-2.292-11.258-7.433c-1.056-5.161,2.292-10.202,7.432-11.258
				c8.389-1.714,16.997-3.049,25.685-3.906c8.747-0.876,17.475-1.335,26.023-1.335c8.527,0,17.255,0.458,26.003,1.335
				c8.688,0.877,17.295,2.192,25.685,3.906c5.141,1.056,8.487,6.097,7.432,11.258c-1.055,5.161-6.098,8.489-11.258,7.433
				c-7.771-1.594-15.721-2.81-23.73-3.607c-7.713-0.777-15.78-1.175-24.13-1.175c-8.369,0-16.419,0.398-24.15,1.175
				C267.637,261.972,259.686,263.208,251.915,264.782z"/>
			<path d="M30.898,324.579c1.793,4.941-0.757,10.422-5.719,12.215c-4.941,1.793-10.421-0.776-12.214-5.719l-6.197-17.076
				l-6.197-17.097c-1.793-4.941,0.777-10.421,5.719-12.214l0.418-0.14l34.272-10.7c0.598-2.451,1.275-4.862,1.993-7.213v-0.02l0,0
				c1.255-4.045,2.79-8.209,4.543-12.354c3.387-8.03,7.492-15.562,12.175-22.516c4.842-7.193,10.301-13.829,16.299-19.846
				c5.998-5.998,12.653-11.457,19.806-16.279c6.954-4.683,14.506-8.787,22.536-12.174c4.842-2.033,10.441,0.239,12.473,5.081
				c2.033,4.842-0.239,10.421-5.081,12.454c-6.675,2.81-13.131,6.356-19.228,10.461c-6.038,4.084-11.756,8.787-16.957,13.988
				c-5.24,5.241-9.943,10.919-14.008,16.977c-4.104,6.117-7.651,12.553-10.461,19.229c-1.395,3.288-2.69,6.854-3.866,10.64h-0.02
				c-1.056,3.467-1.973,6.974-2.71,10.521c-0.558,3.487-3.009,6.536-6.595,7.632l-29.968,9.365l2.79,7.692L30.898,324.579z"/>
			<path d="M105.58,262.47c-1.813,0-3.447,0.717-4.623,1.873l0.02,0.02c-1.156,1.156-1.893,2.79-1.893,4.583
				c0,1.813,0.717,3.447,1.873,4.583l0.04,0.04c1.136,1.156,2.79,1.873,4.583,1.873s3.447-0.717,4.583-1.873l0.04-0.04
				c1.156-1.136,1.873-2.79,1.873-4.583s-0.737-3.427-1.893-4.583l-0.319-0.319C108.729,263.068,107.214,262.47,105.58,262.47
				L105.58,262.47z M87.488,250.834c4.643-4.643,11.039-7.512,18.092-7.512c6.695,0,12.813,2.591,17.396,6.835l0.737,0.657
				c4.643,4.623,7.512,11.059,7.512,18.113c0,7.014-2.869,13.41-7.512,18.073l-0.04,0.04c-4.663,4.643-11.059,7.512-18.073,7.512
				c-7.034,0-13.41-2.869-18.073-7.512l-0.04-0.04c-4.643-4.663-7.512-11.059-7.512-18.073c0-7.054,2.87-13.49,7.512-18.113
				l-0.02,0.04L87.488,250.834z"/>
			<path d="M130.886,188.665c1.953,4.882-0.438,10.441-5.3,12.395c-4.902,1.953-10.461-0.418-12.414-5.3l-9.783-24.27
				c-1.953-4.882,0.418-10.441,5.3-12.394c4.882-1.973,10.441,0.418,12.394,5.3L130.886,188.665z"/>
			<path d="M455.457,446.864c-1.436-5.062,1.494-10.361,6.576-11.797c5.061-1.434,10.36,1.494,11.795,6.576l16.957,59.397
				c1.215,4.283-0.697,8.707-4.363,10.859l-36.623,24.41c-4.346,2.869-10.242,1.692-13.151-2.592l-33.716-47.402
				c-3.047-4.285-2.03-10.242,2.252-13.291c4.285-3.049,10.242-2.033,13.291,2.252l28.476,40.031l23.551-15.703L455.457,446.864z"/>
			<path d="M513.162,290.964c0,5.28-4.285,9.564-9.564,9.564c-5.28,0-9.563-4.284-9.563-9.564c0-16.219,6.596-30.964,17.274-41.665
				l0.021-0.02l0.02-0.02l0.021-0.02c10.68-10.66,25.424-17.235,41.625-17.235c5.279,0,9.563,4.284,9.563,9.564
				c0,5.281-4.284,9.564-9.563,9.564c-11.021,0-21.002,4.443-28.176,11.617l-0.039,0.04
				C517.605,269.963,513.162,279.945,513.162,290.964z"/>
			<path d="M611.994,290.964c0,5.28-4.285,9.564-9.564,9.564c-5.28,0-9.563-4.284-9.563-9.564c0-10.999-4.443-20.981-11.617-28.175
				l-0.039-0.04c-7.213-7.173-17.176-11.617-28.176-11.617c-5.279,0-9.564-4.284-9.564-9.564c0-5.28,4.285-9.564,9.564-9.564
				c16.239,0,31.004,6.615,41.664,17.275l0.041,0.04C605.357,259.96,611.994,274.725,611.994,290.964z"/>
			<g>
				<path d="M392.371,207.895c-4.9-1.893-7.332-7.413-5.459-12.314c1.893-4.902,7.412-7.353,12.313-5.46
					c2.81,1.076,5.439,2.152,7.83,3.168c2.313,0.976,4.902,2.152,7.634,3.427c2.549,1.175,5.021,2.411,7.411,3.626
					c2.431,1.235,4.882,2.57,7.271,3.905c2.231,1.255,4.604,2.65,7.035,4.104l0.039,0.02l0.02-0.02
					c2.57,1.574,4.902,3.049,6.855,4.344l0.578,0.418c1.831,1.235,3.823,2.61,5.897,4.104l0.021-0.04
					c1.752,1.255,3.903,2.87,6.416,4.842c2.489,1.953,4.922,3.925,7.192,5.878l0.199,0.179c2.092,1.813,4.283,3.806,6.555,5.958
					l0.021-0.02c2.094,1.973,4.244,4.105,6.396,6.356l0.539,0.618c2.092,2.192,3.945,4.244,5.578,6.097
					c3.428,3.985,3.01,10.003-0.977,13.45c-3.984,3.427-10.002,3.009-13.449-0.977c-1.793-2.052-3.467-3.925-5.002-5.559
					l-0.418-0.399c-1.754-1.833-3.687-3.746-5.738-5.679l0.02-0.02l-0.061-0.06c-1.812-1.714-3.846-3.527-6.037-5.44l-0.059-0.04
					c-2.172-1.853-4.345-3.646-6.496-5.34c-1.455-1.136-3.428-2.59-5.838-4.304l0.02-0.04l-0.02-0.02
					c-1.597-1.136-3.39-2.391-5.361-3.686l-0.617-0.378c-2.291-1.535-4.363-2.85-6.156-3.945v-0.02
					c-1.973-1.196-4.104-2.451-6.416-3.726c-2.172-1.216-4.424-2.431-6.676-3.587c-2.271-1.156-4.562-2.292-6.795-3.348
					c-2.072-0.976-4.424-2.032-7.033-3.128C397.035,209.747,394.603,208.771,392.371,207.895L392.371,207.895z M443.859,213.114
					l3.666,7.213C447.425,217.578,446.152,214.907,443.859,213.114L443.859,213.114z M500.111,327.847
					c-0.658-5.222,3.047-10.002,8.248-10.66c5.2-0.656,10.004,3.049,10.659,8.25c0.38,2.969,0.697,5.938,0.857,8.787
					c0.199,3.168,0.318,6.116,0.318,8.825c0,4.982-0.3,10.063-0.877,15.164c-0.558,4.961-1.414,10.002-2.552,15.023
					c-1.932,8.609-4.682,16.938-8.067,24.789c-3.47,8.029-7.752,15.881-12.713,23.432c-2.892,4.386-8.81,5.601-13.191,2.73
					c-4.383-2.89-5.6-8.808-2.73-13.191c4.226-6.416,7.951-13.27,11.08-20.522c2.988-6.976,5.379-14.168,7.015-21.42
					c0.936-4.146,1.674-8.47,2.172-12.933c0.457-4.186,0.717-8.549,0.717-13.072c0-2.809-0.08-5.358-0.219-7.631v-0.039
					C500.667,332.829,500.41,330.278,500.111,327.847L500.111,327.847z M407.017,471.97c4.763-2.23,10.461-0.199,12.693,4.562
					c2.23,4.764,0.199,10.463-4.563,12.693c-10.441,4.922-21.439,9.146-32.679,12.573c-11.377,3.468-23.055,6.156-34.711,7.99
					c-3.926,0.617-7.473,1.135-10.521,1.494c-3.445,0.398-7.054,0.777-10.66,1.055c-3.188,0.261-6.873,0.479-10.859,0.619
					c-4.225,0.181-7.85,0.258-10.938,0.258c-9.046,0-18.332-0.477-27.777-1.434c-6.854-0.697-13.529-1.615-19.985-2.771
					l-0.697-0.159c-6.436-1.156-12.813-2.57-19.009-4.164c-5.081-1.314-8.15-6.517-6.834-11.617
					c1.315-5.103,6.536-8.148,11.617-6.834c5.878,1.533,11.776,2.83,17.614,3.885l0.598,0.08c6.316,1.115,12.514,1.992,18.571,2.611
					c8.389,0.854,17.057,1.272,25.904,1.272c4.004,0,7.452-0.059,10.182-0.178H315c3.01-0.121,6.377-0.32,10.082-0.619
					c3.268-0.258,6.615-0.578,9.924-0.977c3.746-0.438,6.994-0.896,9.764-1.334c10.8-1.713,21.619-4.185,32.16-7.412
					C387.171,480.438,397.292,476.554,407.017,471.97L407.017,471.97z M256.299,508.853l-7.074-10.879
					C248.368,502.935,251.517,507.638,256.299,508.853z"/>
			</g>
			<path d="M112.235,177.507c-5.28,0-9.564-4.284-9.564-9.564c0-5.28,4.284-9.564,9.564-9.564c4.324,0,8.847,0.239,13.49,0.717
				c4.503,0.438,8.967,1.136,13.311,2.033c4.304,0.856,8.528,1.953,12.633,3.228c4.105,1.256,8.25,2.79,12.334,4.503l0.04,0.02
				l0.02-0.02c4.045,1.714,7.93,3.586,11.557,5.54l0.698,0.418c3.507,1.933,6.974,4.045,10.321,6.316v-0.02
				c3.507,2.351,6.954,4.941,10.262,7.671c3.388,2.79,6.556,5.659,9.445,8.568c2.81,2.79,5.679,5.998,8.568,9.505
				c2.81,3.407,5.38,6.814,7.651,10.182c2.949,4.364,1.793,10.321-2.57,13.271c-4.364,2.949-10.322,1.793-13.25-2.57
				c-2.132-3.168-4.344-6.098-6.516-8.768c-2.132-2.59-4.643-5.32-7.412-8.09c-2.69-2.69-5.4-5.161-8.11-7.393
				c-2.77-2.292-5.699-4.483-8.768-6.536l0.02-0.02l-0.02-0.02c-2.81-1.913-5.758-3.726-8.807-5.38l-0.618-0.319
				c-3.328-1.793-6.675-3.407-9.943-4.802l0.02-0.02c-3.348-1.396-6.875-2.69-10.521-3.826c-3.547-1.096-7.193-2.052-10.839-2.79
				c-3.726-0.757-7.552-1.335-11.378-1.714C120.246,177.706,116.36,177.507,112.235,177.507z"/>
			<path d="M351.982,145.446c0-14.367-5.857-27.458-15.304-36.903c-9.426-9.445-22.457-15.303-36.882-15.303
				c-14.426,0-27.478,5.858-36.883,15.263c-9.445,9.465-15.303,22.556-15.303,36.922c0,14.406,5.858,27.458,15.283,36.902
				c9.445,9.445,22.497,15.303,36.903,15.303c14.425,0,27.498-5.838,36.902-15.243l0.039-0.06
				C346.164,172.924,351.982,159.873,351.982,145.446L351.982,145.446z M350.208,94.994c12.932,12.912,20.902,30.785,20.902,50.432
				c0,19.627-7.972,37.44-20.863,50.373l-0.02,0.02l-0.021,0.02l-0.02,0.02c-12.933,12.912-30.746,20.902-50.393,20.902
				c-19.707,0-37.541-7.99-50.452-20.902c-12.892-12.892-20.882-30.726-20.882-50.432c0-19.647,7.99-37.54,20.902-50.452
				c12.874-12.853,30.687-20.863,50.434-20.863C319.503,74.112,337.335,82.122,350.208,94.994z"/>
			<path d="M107.892,410.101c-2.471-4.623-0.737-10.441,3.886-12.912c4.623-2.49,10.441-0.758,12.912,3.887
				c4.105,7.57,8.429,14.326,13.43,20.682c4.981,6.357,10.68,12.354,17.535,18.371c3.965,3.47,4.364,9.506,0.896,13.451
				c-3.467,3.945-9.504,4.363-13.45,0.896c-7.851-6.896-14.347-13.729-19.986-20.922
				C117.436,426.341,112.534,418.669,107.892,410.101z"/>
			<path d="M34.346,371.563c-5.28,0-9.564-4.283-9.564-9.564c0-5.278,4.284-9.562,9.564-9.562c1.455,0,3.308,0.059,5.52,0.178
				l0.358,0.021c1.793,0.1,3.507,0.237,5.161,0.397c2.191,0.219,4.025,0.457,5.439,0.656c1.455,0.219,3.208,0.539,5.32,0.977
				c1.594,0.318,3.387,0.738,5.24,1.215l0.04,0.021v-0.021c1.833,0.479,3.606,0.978,5.121,1.455
				c1.614,0.498,3.308,1.076,5.041,1.716h0.06l0,0c1.495,0.557,3.109,1.194,4.842,1.932l0,0c1.514,0.639,3.128,1.375,4.842,2.191
				l0.538,0.278c1.495,0.738,2.889,1.437,4.085,2.092l0.08,0.041v-0.02c1.435,0.797,2.929,1.633,4.423,2.529l0.578,0.379
				c1.474,0.896,2.75,1.733,3.865,2.471l0.279,0.18l3.846,2.75l0.219,0.158l0.02-0.02c1.056,0.797,2.371,1.834,4.005,3.188
				c1.534,1.254,2.929,2.449,3.965,3.406c1.156,1.057,2.431,2.271,3.727,3.586l0.02-0.02c0.757,0.758,1.913,1.991,3.587,3.825
				l0.02-0.02c0.956,1.057,2.092,2.391,3.367,3.926c1.136,1.375,2.232,2.771,3.248,4.104l0.139,0.198l2.73,3.847
				c3.049,4.285,2.033,10.241-2.251,13.291c-4.284,3.049-10.242,2.032-13.291-2.252l-2.73-3.847l-2.55-3.248l-2.77-3.168l0.02-0.02
				l-0.02-0.021l-3.009-3.09l0.02-0.02l-0.02-0.021c-0.877-0.877-1.933-1.893-3.069-2.93c-1.255-1.154-2.351-2.092-3.228-2.828
				l-3.407-2.65l0.02-0.02l-3.606-2.57l-2.989-1.953l-0.558-0.299l-3.766-2.151l-3.348-1.754l-0.458-0.199
				c-1.196-0.537-2.531-1.136-3.945-1.732l0.02-0.021l-0.06-0.021c-1.156-0.479-2.53-1.016-4.005-1.555v-0.021l-4.165-1.395
				c-1.554-0.479-2.969-0.896-4.244-1.215v-0.021c-1.275-0.317-2.73-0.655-4.304-0.975l-4.364-0.758
				c-1.833-0.279-3.367-0.498-4.463-0.599c-1.455-0.141-2.929-0.278-4.264-0.34h-0.359
				C37.813,371.604,36.259,371.563,34.346,371.563z"/>
			<path d="M196.96,477.569c3.188-4.184,9.186-4.98,13.37-1.793c4.184,3.187,4.981,9.205,1.793,13.369l-34.432,44.992
				c-3.148,4.125-9.046,4.963-13.21,1.895l-36.723-24.49c-3.646-2.43-5.042-6.934-3.746-10.897l16.219-56.031
				c1.455-5.041,6.755-7.951,11.796-6.496s7.95,6.756,6.496,11.816l-14.366,49.635l23.811,15.881L196.96,477.569z"/>
			<path d="M592.845,290.964c0-5.28,4.283-9.564,9.564-9.564c5.279,0,9.563,4.284,9.563,9.564c0,12.872-5.221,24.548-13.649,32.978
				c-8.428,8.428-20.084,13.647-32.978,13.647c-5.26,0-9.563-4.282-9.563-9.563c0-5.279,4.283-9.564,9.563-9.564
				c7.593,0,14.468-3.088,19.447-8.049C589.777,305.43,592.845,298.556,592.845,290.964z"/>
			<path d="M531.095,303.318c0-5.26,4.283-9.564,9.564-9.564c5.279,0,9.563,4.284,9.563,9.564c0,4.185,1.714,7.97,4.423,10.7
				c2.729,2.729,6.536,4.442,10.7,4.442c5.279,0,9.564,4.285,9.564,9.564c0,5.281-4.285,9.563-9.564,9.563
				c-9.465,0-18.053-3.846-24.229-10.043C534.919,321.351,531.095,312.784,531.095,303.318z"/>
			<path d="M550.224,303.318c0,5.28-4.284,9.565-9.563,9.565c-5.281,0-9.564-4.285-9.564-9.565c0-6.038,2.451-11.537,6.416-15.502
				c3.965-3.965,9.443-6.416,15.502-6.416c5.279,0,9.564,4.284,9.564,9.564c0,5.28-4.285,9.564-9.564,9.564
				c-0.758,0-1.475,0.319-1.973,0.817C550.542,301.844,550.224,302.542,550.224,303.318z"/>
			<path d="M299.797,111.174c5.26,0,9.564,4.284,9.564,9.564c0,5.28-4.284,9.564-9.564,9.564c-4.185,0-7.97,1.693-10.7,4.423
				l-0.359,0.339c-2.511,2.69-4.084,6.356-4.084,10.361c0,5.28-4.284,9.564-9.564,9.564c-5.28,0-9.564-4.284-9.564-9.564
				c0-9.106,3.626-17.435,9.465-23.612l0.578-0.638C281.744,115.021,290.312,111.174,299.797,111.174z"/>
		</g>
	</g>
</g>
<g>
</g>
<g>
</g>
<g>
</g>
<g>
</g>
<g>
</g>
<g>
</g>
<g>
</g>
<g>
</g>
<g>
</g>
<g>
</g>
<g>
</g>
<g>
</g>
<g>
</g>
<g>
</g>
<g>
</g>
</svg>
