<?xml version="1.0" encoding="iso-8859-1"?>
<!-- Generator: Adobe Illustrator 16.0.0, SVG Export Plug-In . SVG Version: 6.00 Build 0)  -->
<!DOCTYPE svg PUBLIC "-//W3C//DTD SVG 1.1//EN" "http://www.w3.org/Graphics/SVG/1.1/DTD/svg11.dtd">
<svg version="1.1" id="Capa_1" xmlns="http://www.w3.org/2000/svg" xmlns:xlink="http://www.w3.org/1999/xlink" x="0px" y="0px"
	 width="612.02px" height="612.02px" viewBox="0 0 612.02 612.02" style="enable-background:new 0 0 612.02 612.02;"
	 xml:space="preserve">
<g>
	<g>
		<g>
			<path d="M57.009,612.02c-5.28,0-9.563-4.282-9.563-9.562s4.283-9.562,9.563-9.562h59.289c5.28,0,9.563,4.303,9.563,9.562
				c0,5.279-4.283,9.562-9.563,9.562H57.009L57.009,612.02z M166.802,612.02c-5.28,0-9.563-4.282-9.563-9.562
				s4.303-9.562,9.563-9.562h328.941c5.278,0,9.562,4.303,9.562,9.562c0,5.279-4.283,9.562-9.562,9.562H166.802L166.802,612.02z
				 M543.156,612.02h59.03h0.261c5.278,0,9.562-4.282,9.562-9.562v-0.279c-0.06-67.317-21.895-129.596-58.871-180.14
				c-37.912-51.857-91.843-91.364-154.459-111.247c-5.021-1.573-10.38,1.176-11.954,6.196c-1.573,5.021,1.195,10.38,6.196,11.953
				c58.691,18.628,109.255,55.684,144.837,104.354c32.892,44.985,53.014,99.971,54.966,159.579h-49.566
				c-5.279,0-9.563,4.304-9.563,9.562C533.595,607.717,537.878,612.02,543.156,612.02L543.156,612.02z M213.341,310.791
				c-62.637,19.883-116.547,59.369-154.48,111.247C21.865,472.642,0.01,535.02,0.01,602.438c0,5.279,4.283,9.562,9.563,9.562
				c5.279,0,9.563-4.283,9.563-9.562c0-63.295,20.46-121.768,55.106-169.144c35.582-48.651,86.145-85.707,144.856-104.354
				c5.021-1.573,7.79-6.953,6.196-11.953C223.72,311.967,218.361,309.218,213.341,310.791z"/>
			<path d="M306.02,0c43.57,0,83.037,17.671,111.566,46.2c28.529,28.529,46.22,68.016,46.22,111.586
				c0,43.511-17.671,82.958-46.22,111.526l-0.021,0.02l-0.021,0.02v0.02c-28.568,28.549-67.995,46.2-111.507,46.2
				c-43.57,0-83.037-17.671-111.565-46.22c-28.549-28.549-46.201-67.996-46.201-111.566c0-43.551,17.671-82.997,46.201-111.526
				l0.04-0.04C223.023,17.671,262.469,0,306.02,0L306.02,0z M404.059,59.748c-25.083-25.083-59.748-40.622-98.039-40.622
				s-72.976,15.52-98.059,40.582c-25.083,25.083-40.602,59.768-40.602,98.079c0,38.291,15.54,72.957,40.602,98.039
				c25.083,25.082,59.768,40.622,98.039,40.622c38.311,0,72.996-15.52,98.038-40.562l0.04-0.04
				c25.043-25.042,40.562-59.728,40.562-98.039C444.66,119.495,429.141,84.83,404.059,59.748z"/>
			<path d="M306.02,0c35.841,0,68.912,11.993,95.43,32.175l0.598,0.498c26.796,20.6,46.799,49.627,56.021,83.057
				c1.396,5.081-1.573,10.32-6.634,11.734c-0.837,0.239-1.714,0.359-2.551,0.359v0.04H327.576c-23.09,0-44.129-9.483-59.369-24.704
				l-0.04-0.08C252.946,87.838,243.463,66.8,243.463,43.71V19.345c0-4.303,2.849-7.949,6.774-9.145
				c8.626-3.248,17.691-5.817,27.094-7.531C286.735,0.916,296.338,0,306.02,0L306.02,0z M389.874,47.316
				c-23.25-17.671-52.317-28.19-83.854-28.19c-8.746,0-17.213,0.797-25.262,2.271c-6.156,1.136-12.232,2.689-18.169,4.662V43.71
				c0,17.851,7.312,34.107,19.046,45.881l0.06,0.06c11.774,11.754,28.031,19.046,45.882,19.046h108.179
				c-9.204-24.346-25.104-45.463-45.383-61.023L389.874,47.316z"/>
			<path d="M154.19,114.873c6.714-23.808,18.907-45.363,35.044-63.134c16.456-18.11,37.116-32.395,60.385-41.319
				c4.921-1.873,10.439,0.598,12.312,5.519c0.418,1.116,0.638,2.271,0.618,3.407h0.02v24.365c0,23.09-9.483,44.148-24.704,59.369
				l-0.04,0.04c-15.241,15.221-36.279,24.704-59.369,24.704h-15.341c-5.279,0-9.563-4.283-9.563-9.563
				C153.573,117.064,153.792,115.929,154.19,114.873L154.19,114.873z M203.359,64.589c-11.615,12.75-20.859,27.712-27.095,44.108
				h2.211c17.851,0,34.107-7.312,45.882-19.046l0.04-0.04c11.754-11.774,19.046-28.031,19.046-45.882v-9.722
				C228.282,41.698,214.675,52.117,203.359,64.589z"/>
			<path d="M269.602,399.766l29.645-29.646c3.726-3.727,9.802-3.727,13.527,0l29.646,29.646c3.726,3.726,3.726,9.803,0,13.527
				l-29.646,29.645c-3.726,3.727-9.802,3.727-13.527,0l-29.645-29.645C265.876,409.567,265.876,403.49,269.602,399.766
				L269.602,399.766z M306.02,390.422l-16.117,16.117l16.117,16.117l16.117-16.117L306.02,390.422z"/>
			<path d="M347.697,558.866c1.794,4.94-0.757,10.42-5.718,12.213c-4.939,1.793-10.419-0.757-12.231-5.718l-23.747-65.605
				l-23.728,65.605c-1.793,4.939-7.271,7.511-12.232,5.718c-4.941-1.793-7.511-7.271-5.718-12.213l32.673-90.289
				c0.917-2.59,2.969-4.781,5.758-5.817c4.94-1.793,10.419,0.777,12.212,5.719L347.697,558.866z"/>
			<path d="M344.291,248.334c4.841-2.032,10.438,0.239,12.472,5.08c2.032,4.841-0.239,10.439-5.08,12.472
				c-7.112,3.008-14.604,5.339-22.334,6.893c-7.648,1.534-15.479,2.371-23.31,2.371c-7.829,0-15.639-0.817-23.309-2.371
				c-7.73-1.554-15.221-3.905-22.333-6.893c-4.841-2.032-7.112-7.63-5.08-12.472c2.032-4.841,7.63-7.112,12.472-5.08
				c5.937,2.51,12.212,4.463,18.687,5.778c6.196,1.235,12.75,1.913,19.584,1.913c6.833,0,13.388-0.658,19.584-1.913
				C332.078,252.797,338.334,250.844,344.291,248.334z"/>
			<path d="M472.99,536.892c-2.032-4.841,0.238-10.438,5.079-12.472c4.843-2.031,10.439,0.239,12.473,5.081
				c4.802,11.336,8.526,23.31,11.018,35.661c2.45,12.173,3.745,24.624,3.745,37.255c0,5.279-4.283,9.563-9.562,9.563
				c-5.28,0-9.563-4.283-9.563-9.563c0-11.614-1.135-22.831-3.307-33.529C480.641,557.83,477.294,547.092,472.99,536.892z"/>
			<path d="M125.861,602.438c0,5.279-4.283,9.563-9.563,9.563c-5.279,0-9.563-4.283-9.563-9.563c0-12.61,1.295-25.082,3.745-37.256
				c2.491-12.352,6.216-24.324,11.017-35.66c2.032-4.842,7.63-7.112,12.472-5.08c4.842,2.031,7.112,7.63,5.08,12.472
				c-4.303,10.18-7.65,20.918-9.901,31.995C126.996,579.605,125.861,590.822,125.861,602.438z"/>
			<path d="M211.587,328.184c-4.602-2.55-6.236-8.348-3.686-12.948c2.55-4.604,8.367-6.257,12.95-3.688
				c12.81,7.112,26.616,12.691,41.08,16.417l0.04,0.021v-0.021c13.965,3.605,28.728,5.538,44.029,5.538
				c15.301,0,30.083-1.913,44.027-5.538l0.42-0.1c14.323-3.727,28.011-9.244,40.7-16.317c4.604-2.55,10.399-0.896,12.95,3.688
				c2.55,4.602,0.896,10.398-3.686,12.948c-14.086,7.811-29.268,13.967-45.244,18.109l-0.359,0.1
				c-15.679,4.046-32.055,6.217-48.83,6.217c-16.775,0-33.151-2.151-48.83-6.217v-0.02
				C241.093,342.249,225.792,336.053,211.587,328.184z"/>
		</g>
	</g>
</g>
<g>
</g>
<g>
</g>
<g>
</g>
<g>
</g>
<g>
</g>
<g>
</g>
<g>
</g>
<g>
</g>
<g>
</g>
<g>
</g>
<g>
</g>
<g>
</g>
<g>
</g>
<g>
</g>
<g>
</g>
</svg>
