<?xml version="1.0" encoding="iso-8859-1"?>
<!-- Generator: Adobe Illustrator 16.0.0, SVG Export Plug-In . SVG Version: 6.00 Build 0)  -->
<!DOCTYPE svg PUBLIC "-//W3C//DTD SVG 1.1//EN" "http://www.w3.org/Graphics/SVG/1.1/DTD/svg11.dtd">
<svg version="1.1" id="Capa_1" xmlns="http://www.w3.org/2000/svg" xmlns:xlink="http://www.w3.org/1999/xlink" x="0px" y="0px"
	 width="31.67px" height="31.669px" viewBox="0 0 31.67 31.669" style="enable-background:new 0 0 31.67 31.669;"
	 xml:space="preserve">
<g>
	<g>
		<path d="M29.553,8.271c1.164,0,2.113-1.079,2.117-2.247c0.004-1.169-0.94-2.255-2.111-2.259L14.542,4.003
			c-0.003,0-0.004,0-0.007,0c-0.977,0-1.828,0.385-2.058,1.335L8.735,20.486l-4.846-7.428c-0.639-0.979-1.952-1.255-2.929-0.617
			c-0.979,0.639-1.255,1.951-0.616,2.93l7.521,11.53c0.394,0.606,1.065,0.961,1.773,0.961c0.119,0,0.238,0.06,0.358,0.039
			c0.833-0.144,1.499-0.698,1.7-1.519L16.09,8.398l13.456-0.127C29.55,8.271,29.55,8.271,29.553,8.271z"/>
		<path d="M28.948,9.416h-4.058l-8.438,10.042v3.803h8.435v3.123h4.061v-3.123h2.082v-3.592h-2.082V9.416L28.948,9.416z
			 M24.887,19.669h-4.453l4.453-5.237V19.669z"/>
	</g>
</g>
<g>
</g>
<g>
</g>
<g>
</g>
<g>
</g>
<g>
</g>
<g>
</g>
<g>
</g>
<g>
</g>
<g>
</g>
<g>
</g>
<g>
</g>
<g>
</g>
<g>
</g>
<g>
</g>
<g>
</g>
</svg>
