<?xml version="1.0" encoding="iso-8859-1"?>
<!-- Generator: Adobe Illustrator 16.0.0, SVG Export Plug-In . SVG Version: 6.00 Build 0)  -->
<!DOCTYPE svg PUBLIC "-//W3C//DTD SVG 1.1//EN" "http://www.w3.org/Graphics/SVG/1.1/DTD/svg11.dtd">
<svg version="1.1" id="Capa_1" xmlns="http://www.w3.org/2000/svg" xmlns:xlink="http://www.w3.org/1999/xlink" x="0px" y="0px"
	 width="31.425px" height="31.424px" viewBox="0 0 31.425 31.424" style="enable-background:new 0 0 31.425 31.424;"
	 xml:space="preserve">
<g>
	<g>
		<path d="M15.935,11.745c-2.904,0-5.37,2.182-5.737,5.074c-0.036,0.289,0.053,0.574,0.244,0.791
			c0.192,0.221,0.469,0.341,0.758,0.341h9.468c0.289,0,0.564-0.12,0.758-0.341c0.193-0.217,0.281-0.506,0.244-0.791
			C21.305,13.924,18.836,11.745,15.935,11.745z M12.534,15.897c0.608-1.296,1.917-2.169,3.401-2.169
			c1.483,0,2.792,0.874,3.399,2.169H12.534z"/>
		<path d="M30.37,15.897h-2.423c-0.793-5.939-5.896-10.52-12.012-10.52c-6.118,0-11.221,4.581-12.014,10.52H1.053
			C0.494,15.897,0,16.389,0,16.948v8.087c0,0.559,0.494,1.013,1.053,1.013h3.915l0,0h1.188l0,0h3.132l0,0h0.864l0,0h3.131l0,0h0.864
			l0,0h3.132l0,0h0.863l0,0h3.131l0,0h0.865l0,0h3.131l0,0h1.188l0,0h3.914c0.562,0,1.053-0.454,1.053-1.013v-8.087
			C31.422,16.389,30.928,15.897,30.37,15.897z M29.37,23.996l-3.119,0.009l-0.002-1.953H25.27v1.944h-3.133v-1.944h-0.863v1.944
			h-3.131v-1.944h-0.865v1.944h-3.131v-1.944h-0.864v1.944h-3.131v-1.944H9.287v1.944H6.155v-1.944H5.178l-0.027,1.944H2.052v-6.047
			h2.789c0.537,0,0.981-0.415,1.01-0.952c0.014-0.266,0.039-0.527,0.074-0.788l1.87,0.247c0.007-0.05,0.052-0.329,0.161-0.748
			l-1.851-0.486c0.234-0.995,0.614-1.932,1.116-2.788l1.67,0.915c0.128-0.234,0.271-0.472,0.429-0.708l-1.552-1.042
			c0.584-0.802,1.283-1.514,2.072-2.112l1.098,1.38c0.201-0.158,0.414-0.311,0.641-0.453l-0.93-1.482
			c0.828-0.509,1.734-0.902,2.695-1.156l0.427,1.72c0.259-0.065,0.529-0.119,0.81-0.162l-0.272-1.764
			c0.53-0.086,1.071-0.131,1.624-0.131c0.45,0,0.892,0.031,1.327,0.088l-0.209,1.745c0.27,0.033,0.529,0.078,0.777,0.135
			l0.395-1.706c0.971,0.226,1.889,0.592,2.73,1.075l-0.992,1.534c0.223,0.145,0.436,0.3,0.637,0.464l1.191-1.462
			c0.82,0.587,1.553,1.295,2.168,2.098l-1.697,1.186c0.168,0.24,0.322,0.483,0.465,0.721l1.81-1.07
			c0.526,0.856,0.93,1.798,1.184,2.801l-1.896,0.655c0.128,0.371,0.207,0.657,0.25,0.819l1.849-0.479
			c0.047,0.315,0.08,0.63,0.099,0.953c0.026,0.537,0.472,0.952,1.008,0.952h2.344L29.37,23.996L29.37,23.996z"/>
	</g>
</g>
<g>
</g>
<g>
</g>
<g>
</g>
<g>
</g>
<g>
</g>
<g>
</g>
<g>
</g>
<g>
</g>
<g>
</g>
<g>
</g>
<g>
</g>
<g>
</g>
<g>
</g>
<g>
</g>
<g>
</g>
</svg>
