<?xml version="1.0" encoding="iso-8859-1"?>
<!-- Generator: Adobe Illustrator 16.0.0, SVG Export Plug-In . SVG Version: 6.00 Build 0)  -->
<!DOCTYPE svg PUBLIC "-//W3C//DTD SVG 1.1//EN" "http://www.w3.org/Graphics/SVG/1.1/DTD/svg11.dtd">
<svg version="1.1" id="Capa_1" xmlns="http://www.w3.org/2000/svg" xmlns:xlink="http://www.w3.org/1999/xlink" x="0px" y="0px"
	 width="791.993px" height="791.993px" viewBox="0 0 791.993 791.993" style="enable-background:new 0 0 791.993 791.993;"
	 xml:space="preserve">
<g>
	<g>
		<g>
			<path d="M395.996,143.982c16.577,0,31.583,6.729,42.411,17.557s17.582,25.858,17.582,42.41c0,16.551-6.729,31.582-17.582,42.41
				c-10.828,10.828-25.859,17.583-42.411,17.583c-16.577,0-31.582-6.729-42.41-17.583c-10.828-10.828-17.557-25.859-17.557-42.41
				c0-16.552,6.729-31.582,17.557-42.41C364.414,150.711,379.418,143.982,395.996,143.982L395.996,143.982z M421.467,178.503
				c-6.521-6.497-15.545-10.544-25.471-10.544s-18.949,4.048-25.472,10.544c-6.497,6.523-10.545,15.546-10.545,25.472
				c0,9.926,4.048,18.949,10.545,25.472c6.522,6.497,15.546,10.544,25.472,10.544s18.95-4.047,25.471-10.544
				c6.498-6.522,10.545-15.546,10.545-25.472C432.012,194.049,427.965,185.026,421.467,178.503z"/>
			<path d="M267.967,451.964c-6.6,0-11.988-5.388-11.988-11.988c0-6.6,5.388-11.987,11.988-11.987H524
				c6.601,0,11.988,5.362,11.988,11.987c0,6.602-5.389,11.988-11.988,11.988H267.967z"/>
			<path d="M267.967,527.941c-6.6,0-11.988-5.389-11.988-11.988c0-6.601,5.388-11.988,11.988-11.988H524
				c6.601,0,11.988,5.362,11.988,11.988c0,6.601-5.389,11.988-11.988,11.988H267.967z"/>
			<path d="M267.967,603.944c-6.6,0-11.988-5.389-11.988-11.988s5.388-11.988,11.988-11.988H524c6.601,0,11.988,5.363,11.988,11.988
				c0,6.601-5.389,11.988-11.988,11.988H267.967z"/>
			<path d="M267.967,679.922c-6.6,0-11.988-5.388-11.988-11.988c0-6.6,5.388-11.987,11.988-11.987h144.015
				c6.6,0,11.987,5.389,11.987,11.987c0,6.602-5.389,11.988-11.987,11.988H267.967z"/>
			<path d="M267.967,375.987c-6.6,0-11.988-5.388-11.988-11.988s5.388-11.988,11.988-11.988H524c6.601,0,11.988,5.363,11.988,11.988
				c0,6.6-5.389,11.988-11.988,11.988H267.967z"/>
			<path d="M387.515,20.438c-4.667-4.666-4.667-12.271,0-16.938s12.271-4.667,16.938,0l160.025,159.999
				c67.493,67.495,67.521,67.521,67.521,136.486v448.026c0,12.117-4.977,23.125-12.918,31.066
				c-7.939,7.939-18.949,12.916-31.066,12.916H395.971H203.978c-12.117,0-23.126-4.95-31.066-12.916
				c-7.967-7.967-12.917-18.949-12.917-31.066V299.984c0-16.087,0.026-28.205,1.083-39.162c0.542-5.672,1.418-10.803,2.707-15.624
				c1.315-4.976,3.12-9.72,5.518-14.541h-0.026c2.243-4.563,5.104-9.152,8.688-14c3.403-4.615,7.425-9.461,12.117-14.695
				c9.488-10.544,21.244-22.275,36.764-37.821l0.645-0.645l40.013-40.013l39.987-39.987l40.012-40.012
				c4.667-4.667,12.272-4.667,16.938,0c4.667,4.666,4.667,12.271,0,16.938l-39.987,40.039l-40.013,39.986l-39.986,39.987
				l-0.645,0.67c-15.804,15.778-27.741,27.715-35.965,36.867c-4.254,4.718-7.786,8.972-10.622,12.813
				c-2.655,3.635-4.847,7.09-6.548,10.519h-0.026l0,0c-1.599,3.171-2.836,6.445-3.738,9.952c-0.979,3.635-1.624,7.58-2.063,11.885
				c-0.902,8.972-0.902,20.934-0.902,36.815v448.026c0,5.49,2.269,10.492,5.878,14.128c3.635,3.608,8.637,5.903,14.128,5.903
				h191.993h192.019c5.465,0,10.492-2.269,14.129-5.903c3.636-3.636,5.902-8.638,5.902-14.128v-448
				c0-59.039,0-59.039-60.508-119.522L387.515,20.438z"/>
		</g>
	</g>
</g>
<g>
</g>
<g>
</g>
<g>
</g>
<g>
</g>
<g>
</g>
<g>
</g>
<g>
</g>
<g>
</g>
<g>
</g>
<g>
</g>
<g>
</g>
<g>
</g>
<g>
</g>
<g>
</g>
<g>
</g>
</svg>
