<?xml version="1.0" encoding="iso-8859-1"?>
<!-- Generator: Adobe Illustrator 16.0.0, SVG Export Plug-In . SVG Version: 6.00 Build 0)  -->
<!DOCTYPE svg PUBLIC "-//W3C//DTD SVG 1.1//EN" "http://www.w3.org/Graphics/SVG/1.1/DTD/svg11.dtd">
<svg version="1.1" id="Capa_1" xmlns="http://www.w3.org/2000/svg" xmlns:xlink="http://www.w3.org/1999/xlink" x="0px" y="0px"
	 width="612.121px" height="612.121px" viewBox="0 0 612.121 612.121" style="enable-background:new 0 0 612.121 612.121;"
	 xml:space="preserve">
<g>
	<g>
		<g>
			<path d="M114.786,592.992c5.281,0,9.565,4.285,9.565,9.564s-4.284,9.564-9.565,9.564c-31.643,0-60.337-12.873-81.121-33.656
				C12.923,557.684,0.07,528.988,0.07,497.346c0-29.631,11.418-56.988,30.229-77.533c18.771-20.504,44.954-34.232,74.485-36.725
				c5.261-0.418,9.863,3.486,10.302,8.729c0.438,5.26-3.487,9.883-8.728,10.303c-24.589,2.072-46.389,13.488-61.991,30.525
				c-15.642,17.098-25.127,39.912-25.127,64.682c0,26.424,10.72,50.354,27.997,67.67C64.492,582.291,88.384,592.992,114.786,592.992
				z"/>
			<path d="M468.639,592.992c5.28,0,9.564,4.285,9.564,9.564s-4.284,9.564-9.564,9.564H112.714c-5.28,0-9.565-4.285-9.565-9.564
				s4.285-9.564,9.565-9.564H468.639z"/>
			<path d="M180.583,403.393c4.304,2.988,5.36,8.947,2.352,13.252c-3.009,4.305-8.947,5.359-13.251,2.352
				c-4.922-3.447-10.322-6.496-16.001-9.008l-0.737-0.377c-5.3-2.312-10.939-4.146-16.738-5.48
				c-6.157-1.414-12.534-2.23-18.95-2.391c-6.177-0.141-12.553,0.316-19.049,1.453c-5.201,0.896-10.143-2.57-11.04-7.771
				c-0.896-5.201,2.571-10.143,7.771-11.059c7.572-1.336,15.224-1.855,22.776-1.674c7.792,0.197,15.423,1.176,22.736,2.83
				c6.854,1.572,13.589,3.824,20.105,6.635l0.837,0.318C168.03,395.461,174.506,399.129,180.583,403.393z"/>
			<path d="M77.903,497.346c0,5.281-4.304,9.564-9.564,9.564c-5.281,0-9.565-4.283-9.565-9.564c0-3.746,0.398-7.512,1.156-11.238
				h-0.04c0.717-3.646,1.873-7.293,3.367-10.801c1.455-3.467,3.208-6.715,5.161-9.625c2.072-3.066,4.424-5.938,6.954-8.467
				c2.531-2.531,5.38-4.902,8.469-6.955c2.909-1.953,6.157-3.727,9.625-5.182c2.75-1.154,5.58-2.111,8.409-2.811l0.378-0.078
				c2.81-0.658,5.6-1.156,8.31-1.375c5.24-0.459,9.883,3.445,10.342,8.707c0.458,5.24-3.447,9.885-8.708,10.342
				c-1.913,0.18-3.726,0.479-5.4,0.838l-0.379,0.1c-1.973,0.479-3.866,1.115-5.579,1.832c-2.112,0.898-4.265,2.074-6.317,3.469
				c-1.973,1.314-3.866,2.908-5.619,4.662s-3.328,3.646-4.643,5.6c-1.375,2.053-2.55,4.205-3.467,6.338
				c-0.917,2.15-1.654,4.582-2.172,7.152l0,0v0.039C78.142,492.164,77.903,494.676,77.903,497.346z"/>
			<path d="M468.639,612.121c-5.28,0-9.564-4.283-9.564-9.564c0-5.279,4.284-9.562,9.564-9.562c8.607,0,16.918-0.838,24.789-2.434
				c8.188-1.652,16.119-4.123,23.633-7.312c7.271-3.088,14.327-6.934,20.981-11.438c6.575-4.443,12.792-9.564,18.473-15.244
				c5.679-5.68,10.8-11.896,15.242-18.473c4.505-6.676,8.351-13.729,11.438-21.002c3.188-7.512,5.659-15.424,7.313-23.633
				c1.573-7.852,2.432-16.18,2.432-24.768c0-8.609-0.837-16.898-2.432-24.73c-1.653-8.209-4.146-16.139-7.313-23.691
				c-3.089-7.293-6.935-14.348-11.418-21.002c-4.443-6.596-9.585-12.812-15.264-18.492c-5.681-5.68-11.896-10.818-18.473-15.242
				c-6.676-4.504-13.71-8.352-20.981-11.418c-7.514-3.189-15.443-5.66-23.633-7.314c-7.871-1.574-16.182-2.43-24.789-2.43
				c-8.608,0-16.897,0.836-24.729,2.43c-8.21,1.654-16.141,4.146-23.691,7.314c-7.294,3.088-14.348,6.934-21.003,11.418
				c-6.596,4.441-12.812,9.584-18.491,15.264c-3.728,3.727-9.805,3.727-13.53,0c-3.727-3.727-3.727-9.805,0-13.531
				c6.456-6.455,13.63-12.373,21.342-17.555c7.492-5.041,15.643-9.484,24.29-13.131c8.708-3.668,17.854-6.537,27.339-8.449
				c9.307-1.893,18.852-2.891,28.455-2.891c9.624,0,19.169,1.018,28.516,2.891c9.484,1.912,18.631,4.762,27.299,8.449
				c8.647,3.645,16.777,8.09,24.291,13.15c7.69,5.182,14.863,11.078,21.32,17.555c6.456,6.457,12.374,13.631,17.556,21.342
				c5.041,7.492,9.484,15.643,13.132,24.291c3.666,8.707,6.516,17.854,8.429,27.338c1.894,9.326,2.891,18.852,2.891,28.455
				c0,9.605-0.997,19.17-2.891,28.516c-1.913,9.465-4.763,18.631-8.429,27.279c-3.667,8.627-8.091,16.797-13.151,24.311
				c-5.182,7.711-11.079,14.863-17.556,21.32c-6.456,6.457-13.63,12.375-21.321,17.557c-7.492,5.061-15.642,9.484-24.29,13.15
				c-8.668,3.666-17.813,6.535-27.299,8.43C487.809,611.125,478.264,612.121,468.639,612.121z"/>
			<path d="M451.403,283.556c3.348,4.025,2.81,10.043-1.235,13.41c-4.024,3.348-10.043,2.81-13.409-1.235
				c-7.373-8.887-15.583-17.077-24.431-24.41s-18.332-13.789-28.296-19.289c-4.623-2.531-6.297-8.35-3.766-12.952
				c2.529-4.623,8.349-6.297,12.952-3.767c10.999,6.078,21.5,13.211,31.283,21.321C434.127,264.584,443.154,273.611,451.403,283.556
				L451.403,283.556z M166.017,258.667c4.005-3.407,10.003-2.929,13.411,1.076c3.407,4.005,2.929,10.003-1.076,13.41
				c-10.621,9.047-20.305,19.409-28.694,30.906c-8.15,11.139-15.124,23.354-20.584,36.465c-2.012,4.861-7.612,7.152-12.474,5.141
				c-4.862-2.012-7.154-7.611-5.161-12.473c6.058-14.527,13.769-28.058,22.816-40.412
				C143.461,280.208,154.181,268.75,166.017,258.667z"/>
			<path d="M535.573,468.691c0,5.279-4.284,9.564-9.565,9.564c-5.279,0-9.563-4.285-9.563-9.564c0-3.389-0.318-6.596-0.916-9.545
				l0,0h-0.04c-0.638-3.248-1.595-6.316-2.771-9.105c-1.154-2.73-2.648-5.441-4.402-8.051l-0.219-0.34
				c-1.596-2.312-3.509-4.621-5.681-6.773l-0.498-0.539c-2.013-1.973-4.244-3.766-6.575-5.34c-2.57-1.713-5.301-3.229-8.091-4.404
				c-2.77-1.176-5.838-2.131-9.086-2.77l-0.718-0.158c-2.75-0.52-5.719-0.777-8.847-0.777c-5.281,0-9.565-4.283-9.565-9.564
				c0-5.26,4.284-9.564,9.565-9.564c4.124,0,8.309,0.418,12.434,1.195l0.856,0.139c4.305,0.857,8.607,2.213,12.732,3.967
				c4.025,1.715,7.831,3.766,11.318,6.117c3.348,2.252,6.516,4.842,9.386,7.631l0.617,0.559c2.79,2.791,5.42,5.979,7.812,9.426
				l0.379,0.539c2.331,3.447,4.403,7.293,6.117,11.357c1.753,4.164,3.108,8.447,3.965,12.752l-0.039,0.021
				C535.094,459.824,535.573,464.287,535.573,468.691z"/>
			<path d="M325.189,180.417h42.005c5.28,0,9.565,4.284,9.565,9.564c0,1.754-0.479,3.388-1.297,4.783L272.743,425.85
				c-2.132,4.803-7.751,6.975-12.554,4.844c-3.547-1.574-5.659-5.043-5.659-8.689h-0.06V251.095h-41.985
				c-5.28,0-9.564-4.284-9.564-9.564c0-1.753,0.478-3.388,1.295-4.782L306.937,5.662c2.132-4.802,7.751-6.974,12.554-4.842
				c3.547,1.574,5.658,5.041,5.658,8.688h0.061v170.909H325.189z M352.528,199.545h-36.664h-0.239c-5.261,0-9.563-4.284-9.563-9.565
				V54.46l-78.889,177.505h36.645h0.239c5.28,0,9.564,4.284,9.564,9.564v135.52L352.528,199.545z"/>
		</g>
	</g>
</g>
<g>
</g>
<g>
</g>
<g>
</g>
<g>
</g>
<g>
</g>
<g>
</g>
<g>
</g>
<g>
</g>
<g>
</g>
<g>
</g>
<g>
</g>
<g>
</g>
<g>
</g>
<g>
</g>
<g>
</g>
</svg>
