<?xml version="1.0" encoding="iso-8859-1"?>
<!-- Generator: Adobe Illustrator 16.0.0, SVG Export Plug-In . SVG Version: 6.00 Build 0)  -->
<!DOCTYPE svg PUBLIC "-//W3C//DTD SVG 1.1//EN" "http://www.w3.org/Graphics/SVG/1.1/DTD/svg11.dtd">
<svg version="1.1" id="Capa_1" xmlns="http://www.w3.org/2000/svg" xmlns:xlink="http://www.w3.org/1999/xlink" x="0px" y="0px"
	 width="612px" height="612px" viewBox="0 0 612 612" style="enable-background:new 0 0 612 612;" xml:space="preserve">
<g>
	<g>
		<g>
			<path d="M170.127,519.376c-2.47,0-4.702,0.996-6.335,2.608c-1.614,1.614-2.63,3.865-2.63,6.336s0.996,4.722,2.63,6.335
				l0.318,0.339c1.594,1.415,3.706,2.291,6.017,2.291c2.49,0,4.721-0.996,6.335-2.59l0.04-0.04c1.594-1.613,2.59-3.846,2.59-6.335
				c0-2.49-0.996-4.741-2.59-6.354l-0.02,0.021C174.869,520.372,172.617,519.376,170.127,519.376L170.127,519.376z M150.266,508.459
				c5.08-5.08,12.092-8.229,19.862-8.229c7.749,0,14.801,3.147,19.881,8.229l-0.02,0.021l0.02,0.021
				c5.06,5.08,8.228,12.092,8.228,19.82c0,7.729-3.167,14.742-8.228,19.843l-0.04,0.04c-5.08,5.06-12.112,8.228-19.841,8.228
				c-7.411,0-14.164-2.908-19.165-7.59l-0.697-0.638c-5.08-5.08-8.227-12.133-8.227-19.883
				C142.039,520.552,145.186,513.539,150.266,508.459z"/>
			<path d="M231.903,537.902c-5.279,0-9.582-4.303-9.582-9.582c0-5.277,4.303-9.562,9.582-9.562h49.405
				c5.279,0,9.562,4.283,9.562,9.562c0,5.279-4.303,9.582-9.562,9.582H231.903z"/>
			<path d="M340.274,83.679c0,5.279-4.304,9.583-9.563,9.583c-5.278,0-9.582-4.283-9.582-9.583V58.977
				c0-10.937-4.502-20.917-11.714-28.109l-0.438-0.478c-7.191-6.933-16.973-11.235-27.69-11.235H58.987
				c-10.937,0-20.917,4.502-28.129,11.713S19.145,48.06,19.145,58.977v494.047c0,10.938,4.502,20.896,11.713,28.108l0.438,0.479
				c7.191,6.934,16.993,11.235,27.71,11.235h222.321c10.937,0,20.897-4.502,28.108-11.714c7.212-7.212,11.715-17.192,11.715-28.108
				V404.789c0-5.279,4.282-9.582,9.582-9.582c5.278,0,9.562,4.303,9.562,9.582v148.233c0,16.235-6.653,30.997-17.312,41.655
				c-10.679,10.657-25.419,17.312-41.655,17.312H58.987c-15.877,0-30.36-6.396-40.998-16.716l-0.677-0.616
				C6.654,584.021,0,569.259,0,553.023V58.977c0-16.236,6.654-30.978,17.332-41.655C27.989,6.664,42.751,0.01,58.987,0.01h222.321
				c15.877,0,30.34,6.395,40.978,16.714l0.678,0.618c10.658,10.678,17.312,25.419,17.312,41.655v24.682H340.274z"/>
			<path d="M290.87,83.679c0,5.279-4.303,9.583-9.562,9.583c-5.279,0-9.582-4.283-9.582-9.583v-15.14H68.549v376.093h203.177
				v-39.823c0-5.277,4.283-9.582,9.582-9.582c5.279,0,9.562,4.305,9.562,9.582v49.146v0.259c0,5.279-4.303,9.582-9.562,9.582H59.246
				h-0.259c-5.279,0-9.582-4.303-9.582-9.582V59.236v-0.259c0-5.279,4.303-9.562,9.582-9.562h222.062h0.259
				c5.279,0,9.562,4.283,9.562,9.562V83.679L290.87,83.679z"/>
			<path d="M58.987,537.902c-5.279,0-9.582-4.303-9.582-9.582c0-5.277,4.303-9.562,9.582-9.562h49.405
				c5.279,0,9.582,4.283,9.582,9.562c0,5.279-4.303,9.582-9.582,9.582H58.987z"/>
			<g>
				<path d="M272.224,364.967l-59.086,47.293c-4.104,3.287-10.1,2.609-13.387-1.494c-1.395-1.753-2.092-3.845-2.092-5.937l0,0
					l-0.02-40.641c-12.431-2.03-23.587-8.008-32.133-16.555c-10.678-10.657-17.312-25.439-17.312-41.655v-123.49
					c0-16.196,6.654-30.938,17.312-41.616l0.04-0.021l-0.02-0.02c10.678-10.678,25.439-17.312,41.655-17.312h345.853
					c16.234,0,30.997,6.653,41.655,17.312l0.616,0.677c10.3,10.638,16.694,25.121,16.694,40.998V306
					c0,16.234-6.653,30.997-17.312,41.654c-10.678,10.679-25.42,17.331-41.654,17.331h-280.81L272.224,364.967L272.224,364.967z
					 M216.723,385.008l45.5-36.416c1.733-1.714,4.124-2.771,6.733-2.771h284.077c10.917,0,20.896-4.502,28.107-11.714
					c7.212-7.211,11.715-17.19,11.715-28.127V182.489c0-10.718-4.304-20.519-11.235-27.69l-0.479-0.438
					c-7.211-7.211-17.19-11.714-28.107-11.714H207.181c-10.937,0-20.917,4.502-28.129,11.714v-0.02
					c-7.211,7.231-11.693,17.212-11.693,28.149v123.49c0,10.937,4.502,20.917,11.713,28.127
					c7.231,7.231,17.192,11.714,28.129,11.714v0.04c5.259,0,9.522,4.283,9.522,9.522V385.008L216.723,385.008z M595.286,141.51
					l-0.617,12.869C598.194,150.854,598.394,145.256,595.286,141.51z"/>
			</g>
			<path d="M231.883,275.76c-5.279,0-9.583-4.303-9.583-9.582s4.303-9.582,9.583-9.582h222.321c5.279,0,9.562,4.303,9.562,9.582
				s-4.304,9.582-9.562,9.582H231.883z"/>
			<path d="M231.883,216.753c-5.279,0-9.583-4.283-9.583-9.583c0-5.279,4.303-9.562,9.583-9.562H528.31
				c5.279,0,9.563,4.303,9.563,9.562c0,5.279-4.303,9.583-9.563,9.583H231.883z"/>
		</g>
	</g>
</g>
<g>
</g>
<g>
</g>
<g>
</g>
<g>
</g>
<g>
</g>
<g>
</g>
<g>
</g>
<g>
</g>
<g>
</g>
<g>
</g>
<g>
</g>
<g>
</g>
<g>
</g>
<g>
</g>
<g>
</g>
</svg>
