<?xml version="1.0" encoding="iso-8859-1"?>
<!-- Generator: Adobe Illustrator 16.0.0, SVG Export Plug-In . SVG Version: 6.00 Build 0)  -->
<!DOCTYPE svg PUBLIC "-//W3C//DTD SVG 1.1//EN" "http://www.w3.org/Graphics/SVG/1.1/DTD/svg11.dtd">
<svg version="1.1" id="Capa_1" xmlns="http://www.w3.org/2000/svg" xmlns:xlink="http://www.w3.org/1999/xlink" x="0px" y="0px"
	 width="31.852px" height="31.851px" viewBox="0 0 31.852 31.851" style="enable-background:new 0 0 31.852 31.851;"
	 xml:space="preserve">
<g>
	<g>
		<path d="M0,26.356h6.662V6.592c0-0.656-0.532-1.188-1.189-1.188H1.189C0.532,5.404,0,5.936,0,6.592V26.356z M3.765,24.423H2.896
			v-2.799h0.869V24.423z M1.063,9.611c0-0.51,0.414-0.924,0.924-0.924h2.592c0.51,0,0.924,0.414,0.924,0.924v1.53
			c0,0.51-0.414,0.924-0.924,0.924H1.987c-0.51,0-0.924-0.414-0.924-0.924V9.611z"/>
		<path d="M8.979,26.356h6.662V6.592c0-0.656-0.532-1.188-1.189-1.188h-4.285c-0.657,0-1.189,0.532-1.189,1.188L8.979,26.356
			L8.979,26.356z M11.585,24.423h-0.772v-2.799h0.772V24.423z M13.903,24.423h-0.87v-2.799h0.87V24.423z M10.137,9.611
			c0-0.51,0.414-0.924,0.925-0.924h2.592c0.511,0,0.925,0.414,0.925,0.924v1.53c0,0.51-0.414,0.924-0.925,0.924h-2.592
			c-0.511,0-0.925-0.414-0.925-0.924V9.611z"/>
		<path d="M24.086,6.387c-0.27-0.596-0.967-0.863-1.564-0.599l-4.256,1.881c-0.289,0.128-0.516,0.367-0.629,0.662
			c-0.113,0.296-0.104,0.625,0.027,0.913l7.757,17.204l6.431-2.84L24.086,6.387z M19.958,11.273
			c-0.208-0.466,0.002-1.014,0.468-1.221l2.371-1.056c0.467-0.208,1.014,0.002,1.221,0.468l0.59,1.324
			c0.103,0.224,0.107,0.479,0.021,0.707c-0.088,0.23-0.266,0.414-0.484,0.514l-2.371,1.055c-0.467,0.208-1.016-0.002-1.224-0.467
			L19.958,11.273z M25.848,24.72l-1.451-3.061l0.746-0.354l1.451,3.059L25.848,24.72z M27.512,23.957l-1.451-3.061l0.746-0.354
			l1.45,3.06L27.512,23.957z M27.812,20.041l0.746-0.354l1.447,3.061l-0.742,0.354L27.812,20.041z"/>
	</g>
</g>
<g>
</g>
<g>
</g>
<g>
</g>
<g>
</g>
<g>
</g>
<g>
</g>
<g>
</g>
<g>
</g>
<g>
</g>
<g>
</g>
<g>
</g>
<g>
</g>
<g>
</g>
<g>
</g>
<g>
</g>
</svg>
