<?xml version="1.0" encoding="iso-8859-1"?>
<!-- Generator: Adobe Illustrator 18.0.0, SVG Export Plug-In . SVG Version: 6.00 Build 0)  -->
<!DOCTYPE svg PUBLIC "-//W3C//DTD SVG 1.1//EN" "http://www.w3.org/Graphics/SVG/1.1/DTD/svg11.dtd">
<svg version="1.1" id="Capa_1" xmlns="http://www.w3.org/2000/svg" xmlns:xlink="http://www.w3.org/1999/xlink" x="0px" y="0px"
	 viewBox="0 0 319.273 319.273" style="enable-background:new 0 0 319.273 319.273;" xml:space="preserve">
<g>
	<path d="M316.994,281.686L172.735,22.345c-2.646-4.758-7.664-7.708-13.108-7.708c-5.445,0-10.462,2.95-13.108,7.708l-144.626,260
		c-2.584,4.646-2.517,10.313,0.178,14.895c2.695,4.583,7.614,7.397,12.93,7.397h289.253c0.005-0.001,0.013-0.001,0.021,0
		c8.284,0,15-6.716,15-15C319.273,286.716,318.438,283.991,316.994,281.686z M40.509,274.637L159.627,60.494l119.117,214.143H40.509
		z"/>
	<path d="M117.376,187.928c-3.256,1.979-5.245,5.513-5.245,9.322v64.131l11.278-9.083l10.534,9.083v-46.173l50.245,26.106
		c3.38,1.758,7.433,1.622,10.689-0.355c3.256-1.978,5.245-5.512,5.245-9.321v-74.359l-10.658-11.898l-11.154,11.898v56.401
		l-50.245-26.107C124.685,185.815,120.632,185.951,117.376,187.928z"/>
</g>
<g>
</g>
<g>
</g>
<g>
</g>
<g>
</g>
<g>
</g>
<g>
</g>
<g>
</g>
<g>
</g>
<g>
</g>
<g>
</g>
<g>
</g>
<g>
</g>
<g>
</g>
<g>
</g>
<g>
</g>
</svg>
