<?xml version="1.0" encoding="iso-8859-1"?>
<!-- Generator: Adobe Illustrator 18.0.0, SVG Export Plug-In . SVG Version: 6.00 Build 0)  -->
<!DOCTYPE svg PUBLIC "-//W3C//DTD SVG 1.1//EN" "http://www.w3.org/Graphics/SVG/1.1/DTD/svg11.dtd">
<svg version="1.1" id="Capa_1" xmlns="http://www.w3.org/2000/svg" xmlns:xlink="http://www.w3.org/1999/xlink" x="0px" y="0px"
	 viewBox="0 0 353.916 353.916" style="enable-background:new 0 0 353.916 353.916;" xml:space="preserve">
<g>
	<path style="stroke:#000000;stroke-width:0;stroke-linecap:round;stroke-linejoin:round;" d="M288.703,15.127
		C288.703,6.773,281.932,0,273.578,0H80.338c-8.354,0-15.125,6.773-15.125,15.127V50.73h223.49V15.127z"/>
	<path style="stroke:#000000;stroke-width:0;stroke-linecap:round;stroke-linejoin:round;" d="M3.79,90.778v52.667
		c0,5.247,4.253,9.5,9.5,9.5c3.115,0,5.871-1.506,7.603-3.821c1.186-1.585,1.897-3.547,1.897-5.679v-43.167h13.845v-19H13.29
		C8.043,81.278,3.79,85.532,3.79,90.778z"/>
	<path style="stroke:#000000;stroke-width:0;stroke-linecap:round;stroke-linejoin:round;" d="M340.626,81.278h-23.345v19h13.845
		v43.167c0,2.132,0.711,4.093,1.896,5.679c1.732,2.315,4.488,3.821,7.604,3.821c5.247,0,9.5-4.253,9.5-9.5V90.778
		C350.126,85.532,345.873,81.278,340.626,81.278z"/>
	<path style="stroke:#000000;stroke-width:0;stroke-linecap:round;stroke-linejoin:round;" d="M300.458,60.73h-247
		c-3.763,0-6.823,3.061-6.823,6.823V300c0,3.763,3.061,6.824,6.823,6.824h5.234v10v31.424c0,3.125,2.543,5.668,5.668,5.668h36.529
		c3.124,0,5.666-2.543,5.666-5.668v-31.424v-10H247.36v10v31.424c0,3.125,2.542,5.668,5.666,5.668h36.529
		c3.125,0,5.668-2.543,5.668-5.668v-31.424v-10h5.234c3.763,0,6.823-3.061,6.823-6.824V67.554
		C307.281,63.792,304.221,60.73,300.458,60.73z M104.458,278.277h-39.5v-21.5h39.5V278.277z M67.458,170.852V85.777h102v85.074
		H67.458z M215.323,192.235l-1.922,10.042h-72.887l-1.922-10.042H215.323z M199.048,277.301h-44.18l-2.141-11.191h48.461
		L199.048,277.301z M228.708,260.11h-103.5v-16h103.5V260.11z M145.871,230.277h62.174l-1.499,7.833H147.37L145.871,230.277z
		 M228.708,224.277h-103.5v-16h103.5V224.277z M184.458,170.852V85.777h102v85.074H184.458z M288.958,278.277h-39.5v-21.5h39.5
		V278.277z"/>
</g>
<g>
</g>
<g>
</g>
<g>
</g>
<g>
</g>
<g>
</g>
<g>
</g>
<g>
</g>
<g>
</g>
<g>
</g>
<g>
</g>
<g>
</g>
<g>
</g>
<g>
</g>
<g>
</g>
<g>
</g>
</svg>
