<?xml version="1.0" encoding="iso-8859-1"?>
<!-- Generator: Adobe Illustrator 18.0.0, SVG Export Plug-In . SVG Version: 6.00 Build 0)  -->
<!DOCTYPE svg PUBLIC "-//W3C//DTD SVG 1.1//EN" "http://www.w3.org/Graphics/SVG/1.1/DTD/svg11.dtd">
<svg version="1.1" id="Capa_1" xmlns="http://www.w3.org/2000/svg" xmlns:xlink="http://www.w3.org/1999/xlink" x="0px" y="0px"
	 viewBox="0 0 378.908 378.908" style="enable-background:new 0 0 378.908 378.908;" xml:space="preserve">
<g>
	<path style="stroke:#000000;stroke-width:0;stroke-linecap:round;stroke-linejoin:round;" d="M274.99,71.313V40.95H103.918v30.362
		c21.327-1.858,50.571-3.59,85.536-3.59S253.663,69.454,274.99,71.313z"/>
	<path style="stroke:#000000;stroke-width:0;stroke-linecap:round;stroke-linejoin:round;" d="M71.509,74.856
		c4.812-0.658,12.253-1.593,22-2.569V6.607L82.095,0c-0.129,0.129-0.256,0.256-0.377,0.393C73.821,9.325,61.29,13.378,61.29,13.378
		l10.219,5.915V74.856z"/>
	<path style="stroke:#000000;stroke-width:0;stroke-linecap:round;stroke-linejoin:round;" d="M307.399,19.293l10.219-5.915
		c0,0-12.531-4.053-20.428-12.985c-0.121-0.137-0.248-0.264-0.377-0.393l-11.414,6.607v65.679c9.747,0.977,17.189,1.911,22,2.569
		V19.293z"/>
	<path style="stroke:#000000;stroke-width:0;stroke-linecap:round;stroke-linejoin:round;" d="M342.198,294.101h-73.797v-8.442
		h73.561V237.69c0-9.516-4.836-17.901-12.185-22.836c-2.974-1.997-6.358-3.425-10-4.138V92.546c0-5.529-7.646-6.891-7.646-6.891
		c-0.477-0.08-48.477-7.932-122.678-7.932S67.253,85.575,66.776,85.655c0,0-7.646,0.737-7.646,6.891v118.171
		c-3.642,0.712-7.026,2.141-10,4.137c-7.348,4.935-12.185,13.32-12.185,22.836v47.968h73.561v8.442H36.71
		c-3.748,0-6.787,3.038-6.787,6.787v44.436c0,3.748,3.039,6.787,6.787,6.787h34.479v21.129c0,3.125,2.543,5.668,5.668,5.668h36.529
		c3.124,0,5.666-2.543,5.666-5.668v-21.129h140.805v21.129c0,3.125,2.542,5.668,5.666,5.668h36.529c3.125,0,5.668-2.543,5.668-5.668
		v-21.129h34.479c3.75,0,6.787-3.039,6.787-6.787v-44.436C348.985,297.139,345.948,294.101,342.198,294.101z M61.29,333.95
		c-5.989,0-10.845-4.855-10.845-10.845c0-5.989,4.855-10.845,10.845-10.845c5.989,0,10.845,4.855,10.845,10.845
		C72.135,329.095,67.279,333.95,61.29,333.95z M324.927,241.616v17h-46v-17H324.927z M99.981,258.616h-46v-17h46V258.616z
		 M184.454,284.283h-16.703l-7.438-75.086c1.294-0.83,17.714-4.933,24.141-5.288V284.283z M211.157,284.283h-16.703v-80.374
		c6.428,0.355,22.848,4.458,24.141,5.288L211.157,284.283z M79.954,168.95V110.77h219v58.181H79.954z M317.618,333.95
		c-5.989,0-10.845-4.855-10.845-10.845c0-5.989,4.855-10.845,10.845-10.845c5.989,0,10.845,4.855,10.845,10.845
		C328.463,329.095,323.607,333.95,317.618,333.95z"/>
</g>
<g>
</g>
<g>
</g>
<g>
</g>
<g>
</g>
<g>
</g>
<g>
</g>
<g>
</g>
<g>
</g>
<g>
</g>
<g>
</g>
<g>
</g>
<g>
</g>
<g>
</g>
<g>
</g>
<g>
</g>
</svg>
