<?xml version="1.0" encoding="iso-8859-1"?>
<!-- Generator: Adobe Illustrator 18.0.0, SVG Export Plug-In . SVG Version: 6.00 Build 0)  -->
<!DOCTYPE svg PUBLIC "-//W3C//DTD SVG 1.1//EN" "http://www.w3.org/Graphics/SVG/1.1/DTD/svg11.dtd">
<svg version="1.1" id="Capa_1" xmlns="http://www.w3.org/2000/svg" xmlns:xlink="http://www.w3.org/1999/xlink" x="0px" y="0px"
	 viewBox="0 0 400 400" style="enable-background:new 0 0 400 400;" xml:space="preserve">
<g>
	<path style="stroke:#000000;stroke-width:0;stroke-linecap:round;stroke-linejoin:round;" d="M364.269,158.999l-15.055-4.913
		c14.364,1.488,30.229,0.379,33.926-2.174c4.848-3.348,9.402-21.949,0-27.899c-9.402-5.949-40.315,4.289-46.479,8.854
		c-1.395,1.033-2.505,2.057-3.332,3.135c-7.772-12.045-18.575-28.635-28.512-43.357c-1.313-1.944-3.26-3.373-5.509-4.041
		c-1.33-0.396-33.329-9.678-99.308-9.678c-65.979,0-97.977,9.283-99.307,9.678c-2.249,0.668-4.196,2.097-5.509,4.041
		c-9.937,14.722-20.74,31.311-28.512,43.356c-0.827-1.079-1.938-2.103-3.332-3.135c-6.164-4.565-37.077-14.803-46.479-8.854
		c-9.402,5.949-4.848,24.551,0,27.899c3.697,2.554,19.562,3.663,33.926,2.174l-15.055,4.913C15.167,164.604,0,183.435,0,205.751
		v13.077c0,15.652,7.465,29.586,19.015,38.452v48.503c0,8.445,6.846,15.291,15.291,15.291h40.573
		c8.445,0,15.292-6.846,15.292-15.291v-36.022l11.079,17.587H298.75l11.078-17.586v36.021c0,8.445,6.846,15.291,15.291,15.291
		h40.574c8.445,0,15.291-6.846,15.291-15.291V257.28c11.55-8.866,19.015-22.8,19.015-38.452v-13.077
		C400,183.435,384.833,164.604,364.269,158.999z M109.816,107.175c9.533-2.214,39.311-7.998,90.183-7.998
		c50.892,0,80.673,5.788,90.184,7.997c9.838,14.655,20.257,30.693,27.504,41.942c-20.372,0.971-40.845,1.687-61.303,2.155
		c-0.703-0.614-1.485-1.153-2.345-1.595l-19.481-10c-1.651-0.848-3.481-1.29-5.337-1.29h-58.442c-1.856,0-3.686,0.442-5.337,1.29
		l-19.481,10c-0.859,0.441-1.64,0.98-2.343,1.593c-20.452-0.468-40.926-1.184-61.304-2.154
		C89.56,137.868,99.977,121.832,109.816,107.175z M248.703,160.075h-97.405l19.481-10h58.442L248.703,160.075z M380,218.829
		c0,15.693-12.768,28.461-28.462,28.461H279.5v-30.215H272h-7.5v30.215h-14.25v-14.215h-100.5v14.215H135.5v-30.215H128h-7.5v30.215
		H48.462C32.768,247.29,20,234.522,20,218.829v-13.077c0-15.694,12.768-28.462,28.462-28.462h303.076
		c15.694,0,28.462,12.768,28.462,28.462V218.829z"/>
	<circle style="stroke:#000000;stroke-width:0;stroke-linecap:round;stroke-linejoin:round;" cx="58.029" cy="212.745" r="13.997"/>
	<circle style="stroke:#000000;stroke-width:0;stroke-linecap:round;stroke-linejoin:round;" cx="97.362" cy="212.745" r="13.997"/>
	
		<circle style="stroke:#000000;stroke-width:0;stroke-linecap:round;stroke-linejoin:round;" cx="302.638" cy="212.745" r="13.997"/>
	
		<circle style="stroke:#000000;stroke-width:0;stroke-linecap:round;stroke-linejoin:round;" cx="341.971" cy="212.745" r="13.997"/>
	<polygon style="stroke:#000000;stroke-width:0;stroke-linecap:round;stroke-linejoin:round;" points="152.125,217.075 
		152.125,219.575 247.875,219.575 247.875,217.075 247.875,205.144 152.125,205.144 	"/>
</g>
<g>
</g>
<g>
</g>
<g>
</g>
<g>
</g>
<g>
</g>
<g>
</g>
<g>
</g>
<g>
</g>
<g>
</g>
<g>
</g>
<g>
</g>
<g>
</g>
<g>
</g>
<g>
</g>
<g>
</g>
</svg>
