<?xml version="1.0" encoding="iso-8859-1"?>
<!-- Generator: Adobe Illustrator 16.0.0, SVG Export Plug-In . SVG Version: 6.00 Build 0)  -->
<!DOCTYPE svg PUBLIC "-//W3C//DTD SVG 1.1//EN" "http://www.w3.org/Graphics/SVG/1.1/DTD/svg11.dtd">
<svg version="1.1" id="Capa_1" xmlns="http://www.w3.org/2000/svg" xmlns:xlink="http://www.w3.org/1999/xlink" x="0px" y="0px"
	 width="612px" height="612px" viewBox="0 0 612 612" style="enable-background:new 0 0 612 612;" xml:space="preserve">
<g>
	<g>
		<g>
			<path d="M305.99,43.819c-31.478,0-59.947,12.771-80.567,33.371l-0.498,0.458c-20.321,20.6-32.872,48.89-32.872,80.128
				c0,31.458,12.77,59.967,33.37,80.567c20.62,20.62,49.109,33.37,80.567,33.37c31.457,0,59.967-12.771,80.586-33.37
				c20.62-20.62,33.371-49.109,33.371-80.567c0-31.478-12.751-59.987-33.352-80.606l-0.021,0.02
				C365.957,56.59,337.468,43.819,305.99,43.819L305.99,43.819z M211.896,63.683c24.066-24.087,57.337-38.989,94.094-38.989
				c36.757,0,70.026,14.902,94.113,38.989l-0.021,0.02l0.021,0.02c24.087,24.086,38.969,57.357,38.969,94.074
				c0,36.757-14.901,70.028-38.969,94.094c-24.066,24.066-57.356,38.968-94.113,38.968c-36.757,0-70.028-14.902-94.094-38.968
				c-24.066-24.066-38.968-57.357-38.968-94.094c0-36.418,14.663-69.43,38.391-93.497L211.896,63.683z"/>
			<path d="M305.99,93.248c-7.591,0-14.464,3.088-19.444,8.048c-4.961,4.981-8.049,11.854-8.049,19.444
				c0,7.591,3.088,14.464,8.049,19.444c4.96,4.961,11.854,8.049,19.444,8.049c7.59,0,14.464-3.088,19.443-8.049
				c4.961-4.96,8.05-11.854,8.05-19.444s-3.089-14.463-8.05-19.444C320.454,96.316,313.58,93.248,305.99,93.248L305.99,93.248z
				 M273.018,87.769c8.427-8.427,20.102-13.647,32.972-13.647s24.544,5.24,32.972,13.647c8.427,8.427,13.646,20.102,13.646,32.972
				s-5.221,24.545-13.646,32.972c-8.428,8.427-20.102,13.647-32.972,13.647s-24.545-5.24-32.972-13.647
				c-8.427-8.427-13.647-20.102-13.647-32.972S264.591,96.196,273.018,87.769z"/>
			<path d="M257.718,189.015c-2.012,2.251-3.845,4.642-5.499,7.132c-2.172,3.287-4.084,6.793-5.638,10.439
				c6.674,8.089,14.962,14.842,24.365,19.664c10.459,5.359,22.393,8.407,35.063,8.407c12.671,0,24.604-3.048,35.063-8.407
				c9.402-4.821,17.712-11.555,24.364-19.664c-1.554-3.606-3.445-7.112-5.638-10.419l-0.357-0.598
				c-1.574-2.311-3.287-4.522-5.142-6.614c-5.757,4.084-12.053,7.451-18.747,9.981c-9.244,3.486-19.225,5.419-29.564,5.419
				c-10.339,0-20.321-1.913-29.565-5.419C269.751,196.466,263.456,193.099,257.718,189.015L257.718,189.015z M236.301,185.628
				c4.084-6.136,8.925-11.694,14.384-16.496l0,0c3.566-3.148,8.985-3.188,12.611,0.02c5.778,5.1,12.512,9.204,19.863,11.993
				c7.033,2.65,14.743,4.124,22.832,4.124c8.088,0,15.799-1.454,22.831-4.124c7.271-2.749,13.966-6.793,19.703-11.834
				c3.547-3.307,9.104-3.427,12.811-0.159c5.26,4.622,9.961,9.961,13.906,15.778l0.458,0.638c3.943,5.937,7.212,12.531,9.582,19.584
				h-0.021c0.938,2.809,0.559,6.017-1.295,8.586c-8.846,12.312-20.62,22.493-34.227,29.465
				c-13.149,6.754-28.051,10.579-43.75,10.579s-30.581-3.825-43.75-10.579c-13.607-6.973-25.361-17.153-34.207-29.465
				c-1.733-2.411-2.331-5.578-1.315-8.586C229.069,198.179,232.336,191.605,236.301,185.628z"/>
			<path d="M133.083,340.288c-31.478,0-59.967,12.771-80.587,33.369c-20.62,20.619-33.37,49.109-33.37,80.586
				c0,31.459,12.75,59.967,33.37,80.568c20.62,20.6,49.109,33.369,80.587,33.369s59.967-12.771,80.566-33.369
				c20.62-20.621,33.371-49.109,33.371-80.568c0-31.477-12.771-59.967-33.371-80.586
				C193.049,353.057,164.54,340.288,133.083,340.288L133.083,340.288z M38.968,360.129c24.066-24.065,57.357-38.969,94.114-38.969
				s70.047,14.902,94.114,38.969c24.067,24.067,38.969,57.357,38.969,94.113c0,36.738-14.902,70.029-38.969,94.096
				c-24.067,24.067-57.357,38.968-94.114,38.968s-70.048-14.9-94.114-38.968C14.902,524.272,0,490.981,0,454.243
				C0,417.487,14.902,384.196,38.968,360.129z"/>
			<path d="M133.083,389.694c-7.59,0-14.464,3.088-19.444,8.049c-4.961,4.961-8.049,11.834-8.049,19.445
				c0,7.59,3.088,14.463,8.049,19.443c4.98,4.961,11.854,8.049,19.444,8.049c7.61,0,14.483-3.068,19.424-8.008l0.02-0.021
				l-0.02-0.021c4.98-4.98,8.049-11.854,8.049-19.443c0-7.592-3.088-14.465-8.049-19.445l-0.498-0.518
				C147.128,392.563,140.434,389.694,133.083,389.694L133.083,389.694z M100.111,384.215c8.427-8.427,20.102-13.646,32.972-13.646
				c12.531,0,23.907,4.961,32.294,13.049l0.657,0.599c8.427,8.428,13.647,20.102,13.647,32.973c0,12.869-5.22,24.545-13.647,32.971
				l-0.02-0.02c-8.447,8.446-20.102,13.688-32.932,13.688c-12.87,0-24.544-5.24-32.972-13.646
				c-8.427-8.429-13.647-20.104-13.647-32.974C86.444,404.297,91.684,392.643,100.111,384.215z"/>
			<path d="M84.79,485.461c-1.992,2.252-3.845,4.644-5.499,7.152l-0.02,0.041l0.02,0.021c-2.191,3.307-4.104,6.793-5.638,10.42
				c6.654,8.088,14.961,14.821,24.365,19.643c10.459,5.359,22.393,8.408,35.083,8.408s24.604-3.049,35.063-8.408
				c9.403-4.82,17.711-11.555,24.365-19.643c-1.574-3.666-3.486-7.173-5.658-10.461c-1.653-2.511-3.506-4.9-5.499-7.132
				c-5.757,4.084-12.073,7.451-18.747,9.98c-9.244,3.486-19.205,5.42-29.545,5.42s-20.321-1.914-29.565-5.42
				C96.843,492.913,90.548,489.545,84.79,485.461L84.79,485.461z M63.394,482.055c3.984-5.996,8.786-11.494,14.165-16.277
				c3.526-3.307,9.084-3.406,12.79-0.139c5.777,5.1,12.531,9.205,19.883,11.973c7.033,2.65,14.743,4.125,22.831,4.125
				s15.799-1.475,22.812-4.125c7.271-2.748,13.965-6.772,19.703-11.812c3.546-3.31,9.104-3.429,12.81-0.16
				c5.459,4.822,10.32,10.379,14.364,16.457c3.965,5.996,7.232,12.551,9.583,19.543h-0.02c0.936,2.809,0.558,6.018-1.295,8.586
				c-8.846,12.312-20.6,22.494-34.207,29.467c-13.149,6.754-28.051,10.578-43.75,10.578s-30.601-3.824-43.75-10.578
				c-13.607-6.973-25.361-17.154-34.207-29.467c-1.733-2.41-2.331-5.578-1.314-8.586c2.371-7.053,5.618-13.646,9.583-19.584H63.394
				L63.394,482.055z"/>
			<path d="M478.918,340.288c-31.479,0-59.967,12.771-80.587,33.369c-20.62,20.619-33.37,49.109-33.37,80.586
				c0,31.459,12.771,59.967,33.37,80.568c20.62,20.619,49.108,33.369,80.587,33.369c31.457,0,59.967-12.771,80.566-33.369
				c20.619-20.621,33.369-49.109,33.369-80.568c0-31.477-12.771-59.967-33.369-80.586
				C538.885,353.057,510.396,340.288,478.918,340.288L478.918,340.288z M384.823,360.129c24.065-24.065,57.356-38.969,94.114-38.969
				c36.736,0,70.026,14.902,94.094,38.969C597.098,384.197,612,417.487,612,454.243c0,36.738-14.902,70.029-38.969,94.096
				c-24.067,24.067-57.356,38.968-94.094,38.968c-36.758,0-70.049-14.9-94.114-38.968c-24.066-24.066-38.988-57.356-38.988-94.096
				C345.835,417.487,360.757,384.196,384.823,360.129z"/>
			<path d="M478.918,389.694c-7.591,0-14.464,3.088-19.445,8.049c-4.979,4.98-8.048,11.854-8.048,19.445
				c0,7.59,3.088,14.463,8.048,19.443c4.961,4.961,11.854,8.049,19.445,8.049c7.61,0,14.483-3.068,19.424-8.008l0.021-0.021
				l-0.021-0.021c4.961-4.98,8.049-11.854,8.049-19.443c0-7.592-3.088-14.465-8.049-19.445l-0.478-0.518
				C492.963,392.563,486.289,389.694,478.918,389.694L478.918,389.694z M445.966,384.215c8.427-8.427,20.103-13.646,32.972-13.646
				c12.513,0,23.907,4.961,32.295,13.049l0.657,0.599c8.428,8.428,13.646,20.102,13.646,32.973c0,12.869-5.22,24.545-13.646,32.971
				l-0.021-0.02c-8.447,8.446-20.082,13.688-32.932,13.688c-12.87,0-24.546-5.24-32.973-13.646
				c-8.428-8.429-13.646-20.104-13.646-32.974C432.299,404.297,437.538,392.643,445.966,384.215z"/>
			<path d="M430.625,485.461c-1.992,2.252-3.845,4.644-5.498,7.152l-0.021,0.041l0.021,0.021c-2.212,3.307-4.104,6.793-5.639,10.42
				c6.653,8.088,14.962,14.821,24.364,19.643c10.46,5.359,22.395,8.408,35.085,8.408c12.671,0,24.604-3.049,35.062-8.408
				c9.403-4.82,17.691-11.555,24.365-19.643c-1.555-3.646-3.446-7.134-5.639-10.42l-0.379-0.599
				c-1.573-2.311-3.287-4.502-5.12-6.594c-5.758,4.084-12.053,7.449-18.747,9.979c-9.243,3.486-19.204,5.419-29.545,5.419
				c-10.34,0-20.32-1.912-29.564-5.419C442.698,492.913,436.383,489.545,430.625,485.461L430.625,485.461z M409.248,482.055
				c3.985-5.996,8.786-11.494,14.186-16.277c3.526-3.307,9.084-3.406,12.79-0.139c5.777,5.1,12.531,9.205,19.884,11.973
				c7.031,2.65,14.741,4.125,22.83,4.125c8.09,0,15.778-1.475,22.812-4.125c7.271-2.748,13.966-6.772,19.703-11.812
				c3.546-3.31,9.104-3.429,12.811-0.16c5.26,4.643,9.921,9.94,13.887,15.758l0.479,0.658c3.964,5.957,7.211,12.551,9.582,19.563
				h-0.02c0.955,2.828,0.576,6.037-1.296,8.627c-8.846,12.312-20.619,22.492-34.228,29.466
				c-13.148,6.754-28.051,10.578-43.729,10.578c-15.698,0-30.601-3.824-43.75-10.578c-13.606-6.974-25.36-17.154-34.207-29.466
				c-1.732-2.411-2.33-5.579-1.313-8.588c2.37-7.053,5.618-13.646,9.582-19.584v-0.019H409.248z"/>
			<path d="M406.918,311.518c2.629,4.543,1.075,10.399-3.487,13.028c-4.562,2.632-10.398,1.076-13.028-3.485l-6.036-10.379
				l-6.036-10.38c-2.63-4.563-1.076-10.399,3.486-13.029c4.542-2.63,10.398-1.076,13.028,3.486l6.036,10.379L406.918,311.518z"/>
			<path d="M293.638,463.807c-5.28,0-9.563-4.283-9.563-9.564c0-5.279,4.283-9.562,9.563-9.562h24.704
				c5.279,0,9.563,4.282,9.563,9.562c0,5.281-4.284,9.564-9.563,9.564H293.638z"/>
			<path d="M221.598,321.081c-2.63,4.543-8.487,6.117-13.029,3.486c-4.542-2.629-6.116-8.486-3.486-13.029l6.037-10.379
				l6.036-10.379c2.63-4.563,8.487-6.116,13.03-3.486c4.542,2.629,6.116,8.487,3.486,13.029l-6.037,10.379L221.598,321.081z"/>
		</g>
	</g>
</g>
<g>
</g>
<g>
</g>
<g>
</g>
<g>
</g>
<g>
</g>
<g>
</g>
<g>
</g>
<g>
</g>
<g>
</g>
<g>
</g>
<g>
</g>
<g>
</g>
<g>
</g>
<g>
</g>
<g>
</g>
</svg>
