<?xml version="1.0" encoding="iso-8859-1"?>
<!-- Generator: Adobe Illustrator 18.1.1, SVG Export Plug-In . SVG Version: 6.00 Build 0)  -->
<svg version="1.1" id="Capa_1" xmlns="http://www.w3.org/2000/svg" xmlns:xlink="http://www.w3.org/1999/xlink" x="0px" y="0px"
	 viewBox="0 0 284.999 284.999" style="enable-background:new 0 0 284.999 284.999;" xml:space="preserve">
<g>
	<g>
		<path d="M167.84,29.822v4.813c0,9.543,7.712,17.23,17.231,17.23h30.671v8.932h-35.996v3.847c0,7.583,6.148,13.749,13.724,13.749
			h22.272v54.798c-6.197,3.191-10.848,9.006-12.283,16.038l-23.669,6.58l-5.882-21.969c-0.489-1.83-1.676-3.37-3.315-4.329
			c-1.639-0.934-3.587-1.188-5.393-0.699L14.3,169.249c-2.388,0.631-4.268,2.468-4.973,4.812c-0.705,2.375-0.143,4.936,1.497,6.785
			l57.934,65.337c1.367,1.54,3.321,2.381,5.313,2.381c0.625,0,1.237-0.067,1.843-0.241l113.177-30.324
			c3.792-1.002,6.043-4.904,5.028-8.702l-8.807-32.873l23.948-6.648c4.274,4.645,10.348,7.583,17.157,7.583
			c12.938,0,23.44-10.49,23.44-23.423c0-9.085-5.22-16.878-12.771-20.774V78.393h22.296c7.558,0,13.718-6.166,13.718-13.749v-3.847
			h-36.015v-8.932h30.708c9.5,0,17.206-7.688,17.206-17.23v-4.813C284.999,29.822,167.84,29.822,167.84,29.822z"/>
		<path d="M5.27,195.931c-1.818,0.494-3.377,1.682-4.317,3.314s-1.2,3.581-0.711,5.388l12.141,45.273
			c0.847,3.166,3.723,5.27,6.859,5.27c0.612,0,1.231-0.068,1.843-0.241l35.594-9.537l-45.311-51.106L5.27,195.931z"/>
	</g>
</g>
<g>
</g>
<g>
</g>
<g>
</g>
<g>
</g>
<g>
</g>
<g>
</g>
<g>
</g>
<g>
</g>
<g>
</g>
<g>
</g>
<g>
</g>
<g>
</g>
<g>
</g>
<g>
</g>
<g>
</g>
</svg>
