<?xml version="1.0" encoding="UTF-8" standalone="no"?>
<!-- Created with Inkscape (http://www.inkscape.org/) -->

<svg
   xmlns:dc="http://purl.org/dc/elements/1.1/"
   xmlns:cc="http://creativecommons.org/ns#"
   xmlns:rdf="http://www.w3.org/1999/02/22-rdf-syntax-ns#"
   xmlns:svg="http://www.w3.org/2000/svg"
   xmlns="http://www.w3.org/2000/svg"
   version="1.0"
   width="110"
   height="110"
   viewBox="0 0 110 110"
   id="svg2"
   xml:space="preserve"><metadata
     id="metadata44"><rdf:RDF><cc:Work
         rdf:about=""><dc:format>image/svg+xml</dc:format><dc:type
           rdf:resource="http://purl.org/dc/dcmitype/StillImage" /><dc:title></dc:title></cc:Work></rdf:RDF></metadata><defs
     id="defs42"><clipPath
       id="clipPath3608"><path
         d="m 3961.7,228.172 106.77,0 0,62.8672 -106.77,0 0,-62.8672 z"
         id="path3610" /></clipPath><clipPath
       id="clipPath2658"><path
         d="m 3949.91,1116.36 103.461,0 0,62.9023 -103.461,0 0,-62.9023 z"
         id="path2660" /></clipPath></defs><circle
     cx="55"
     cy="55"
     r="55"
     transform="translate(-0.01106505,0.2891059)"
     id="circle6-9"
     style="fill:#fabc3d" /><circle
     cx="55"
     cy="55"
     r="55"
     transform="translate(-180.92346,106.43755)"
     id="circle6-0"
     style="fill:#fabc3d" /><circle
     cx="55"
     cy="55"
     r="55"
     transform="translate(2.3250604,153.89759)"
     id="circle6-98"
     style="fill:#fabc3d" /><circle
     cx="55"
     cy="55"
     r="55"
     transform="translate(161.20689,-133.52186)"
     id="circle6-1"
     style="fill:#fabc3d" /><g
     id="Artboard" /><path
     d="m 518.42345,35.419379 c -1.01375,3.3775 -2.1725,7.24 -4.34,11.10125 -2.17625,3.85875 -8.7725,8.8275 -9.00625,14.125 -0.49,11.36 15.66375,16.76 22.18,18.6925 6.515,1.92625 8.6875,2.1225 9.41125,4.9225 0.72375,2.79625 0.13125,7.4725 0.13125,7.4725 0,0 5.485,-2.995 7.035,-5.28125 3.3275,-4.92 -0.31375,-8.27 -0.31375,-8.27 0,0 -1.35,1.15625 0.24125,3.7625 1.59375,2.605 1.59375,4.925 1.01625,5.6 -0.57875,0.6775 -2.6075,2.7975 -2.6075,2.7975 0,0 10.06625,-2.84375 8.10625,-11.00375 -0.3325,-1.39875 -1.25,-0.37625 0,0 2.80125,0.8325 2.27375,5.4375 2.27375,5.4375 0,0 6.83,-8.80875 -7.00125,-13.7925 -1.31625,-0.47875 -8.435,-2.2325 -9.17375,-8.10375 -0.41,-3.255 1.98125,-3.5375 2.41625,-7.51375 0.5675,-5.1475 -6.83,-4.0625 -9.675,-8.90875 -0.53625,-0.92625 2.14,-1.4475 0,-3.95375 -2.5775,-3.0275 -3.5275,-2.78625 -7.22125,-4.575 -3.68875,-1.78625 -3.4725,-2.50875 -3.4725,-2.50875"
     id="path200"
     style="fill:#35221b;fill-opacity:1;fill-rule:nonzero;stroke:none" /><path
     d="m 515.68845,48.114379 0,43.925 -23.96375,0 c -0.3875,-0.1825 -0.58875,-0.25 -0.58875,-0.25 0,-6.5325 1.1225,-11.40625 2.7525,-15.0075 2.69125,-5.9425 6.7425,-8.4875 9.36375,-9.5625 1.51,-0.63625 2.5525,-0.7525 2.5525,-0.7525 l 0.12125,0 0.31375,-0.0675 c 1.21375,-0.35125 2.03625,-2.10875 2.58875,-4.65375 0.1025,-0.45125 0.19,-0.88875 0.25625,-1.3725 0.13125,-0.805 0.24875,-1.6575 0.33625,-2.56375 0.0475,-0.5175 0.095,-1.05 0.14625,-1.60625 0.2225,-2.715 0.28875,-5.6475 0.28875,-8.40875 0,0 3.22875,0.32 5.8325,0.32"
     id="path202"
     style="fill:#dab58d;fill-opacity:1;fill-rule:nonzero;stroke:none" /><path
     d="m 540.3247,91.789379 c 0,0 -0.22,0.0675 -0.57375,0.25 l -24.0625,0 0,-43.925 0.0512,0 c 2.6025,0 5.8425,-0.32 5.8425,-0.32 0,2.76125 0.0687,5.665 0.28875,8.3425 0.0475,0.5325 0.1025,1.06875 0.15,1.58875 0.1025,0.92 0.205,1.79125 0.33625,2.595 l 0,0.0362 c 0.0512,0.365 0.1175,0.7 0.1825,1.03625 0.505,2.4625 1.2475,4.2725 2.32625,4.87375 l 0.24875,0.1 c 0.1675,0.0675 0.35375,0.1 0.53625,0.1 0,0 7.4125,0.89 11.6975,9.8475 1.7475,3.65125 2.97625,8.6375 2.97625,15.475"
     id="path204"
     style="fill:#ecc99e;fill-opacity:1;fill-rule:nonzero;stroke:none" /><path
     d="m 509.08595,60.366879 c -0.001,0 -0.001,-10e-4 -0.001,-10e-4 0.0788,-0.475 0.15125,-0.97 0.21625,-1.48 -0.065,0.51125 -0.1375,1.005 -0.215,1.48125 m 12.975,-2.2875 c -0.0138,-0.1175 -0.0275,-0.235 -0.04,-0.35375 -0.0475,-0.52 -0.1025,-1.05625 -0.15,-1.58875 0,-0.001 0,-0.002 0,-0.004 l 0,0 c 0.0475,0.53625 0.1025,1.0725 0.15,1.59125 0.0125,0.11875 0.0263,0.2375 0.04,0.355 m -12.6275,-0.40375 c 0.0412,-0.48625 0.0875,-0.975 0.13375,-1.47625 l 0,0 c 0,10e-4 0,0.002 0,0.004 -0.0462,0.50875 -0.09,0.99625 -0.13375,1.4725"
     id="path206"
     style="fill:#927158;fill-opacity:1;fill-rule:nonzero;stroke:none" /><path
     d="m 515.68845,63.953129 c -3.815,-0.015 -6.03125,-2.7775 -6.6025,-3.58625 0.0775,-0.47625 0.15,-0.97 0.215,-1.48125 0.0437,-0.34875 0.085,-0.7025 0.12,-1.06375 0.004,-0.0487 0.009,-0.0975 0.0125,-0.14625 0.0437,-0.47625 0.0875,-0.96375 0.13375,-1.4725 0,-10e-4 0,-0.002 0,-0.004 1.865,0.47 3.88375,0.75625 6.05125,0.78625 l 0.07,0 0,6.9675"
     id="path208"
     style="fill:#c49a7b;fill-opacity:1;fill-rule:nonzero;stroke:none" /><path
     d="m 515.7172,63.953129 -0.0288,0 0,-6.9675 c 2.215,-0.03 4.2625,-0.3325 6.1825,-0.8525 0,0.001 0,0.002 0,0.004 0.0475,0.5325 0.1025,1.06875 0.15,1.58875 0.0125,0.11875 0.0263,0.23625 0.04,0.35375 0.0888,0.79 0.17875,1.54 0.29625,2.255 l 0,0.0187 c -0.58875,0.93625 -2.61875,3.6 -6.64,3.6"
     id="path210"
     style="fill:#c8a180;fill-opacity:1;fill-rule:nonzero;stroke:none" /><path
     d="m 515.66595,0.90312924 c -25.00875,-0.0425 -25.15625,19.98374976 -24.04,33.04374976 -1.715,-3.0625 -6.79,-1.925 -6.37375,2.98125 0.39875,4.7 7.56875,6.8325 7.46625,6.31375 2.0475,10.63875 13.83625,16.54375 22.9475,17.3875 l 0.1975,0.009 c 0,-19.90875 0,-39.81875 0,-59.73124976 l -0.1975,-0.004"
     id="path212"
     style="fill:#cb9c7a;fill-opacity:1;fill-rule:nonzero;stroke:none" /><path
     d="m 486.5072,34.854379 c 1.2575,-1.89875 3.19125,-1.0825 3.6675,-0.66 0.50375,0.455 0.90625,1.05375 0.59125,2.1775 -0.175,0.63125 -0.8775,0.68 -0.70125,1.63875 0.18625,1.0775 0.71625,1.14625 1.0125,1.39375 0.2925,0.24 0.66875,0.4325 0.85875,0.88375 0.17625,0.4575 0.2125,0.94125 0.11,1.35625 -0.1975,0.78 -1.38875,0.15875 -2.19375,-0.18375 -0.5225,-0.22875 -2.20125,-1.565 -2.62125,-2.02375 -1.0675,-1.13 -1.56125,-3.32125 -0.72375,-4.5825"
     id="path214"
     style="fill:#ba9074;fill-opacity:1;fill-rule:nonzero;stroke:none" /><path
     d="m 515.79095,0.90312924 c 25.00875,-0.0425 25.155,19.98374976 24.04375,33.04374976 1.715,-3.0625 6.78625,-1.925 6.3725,2.98125 -0.39875,4.7 -7.56875,6.8325 -7.46625,6.31375 -2.0475,10.63875 -13.83125,16.54375 -22.95,17.3875 l -0.18625,0.009 c 0,-19.90875 0,-39.81875 0,-59.73124976 l 0.18625,-0.004"
     id="path216"
     style="fill:#d8ad8c;fill-opacity:1;fill-rule:nonzero;stroke:none" /><path
     d="m 545.12845,34.854379 c -1.25375,-1.89875 -3.19125,-1.0825 -3.66625,-0.66 -0.50875,0.455 -0.90375,1.05375 -0.5925,2.1775 0.17125,0.63125 0.8775,0.68 0.705,1.63875 -0.18625,1.0775 -0.7125,1.14625 -1.01625,1.39375 -0.2925,0.24 -0.66875,0.4325 -0.855,0.88375 -0.17625,0.4575 -0.2125,0.94125 -0.11,1.35625 0.19,0.78 1.385,0.15875 2.18625,-0.18375 0.53,-0.22875 2.20125,-1.565 2.625,-2.02375 1.0675,-1.13 1.55875,-3.32125 0.72375,-4.5825"
     id="path218"
     style="fill:#ba9074;fill-opacity:1;fill-rule:nonzero;stroke:none" /><path
     d="m 515.5347,6.5743792 c -8.35125,0 -14.465,2.2975 -18.165,6.8274998 -5.16625,6.3275 -4.9725,15.99125 -3.06,22.92875 0.5775,2.12125 0.8775,7.83625 1.2825,9.935 1.8,9.3825 12.73875,14.38 19.9425,14.38 l 0.19375,-0.007 0,-54.0549998 -0.19375,-0.009"
     id="path220"
     style="fill:#dab58d;fill-opacity:1;fill-rule:nonzero;stroke:none" /><path
     d="m 533.6622,13.409379 c -3.67,-4.5012498 -9.71375,-6.7949998 -17.93375,-6.8262498 l 0,54.0549998 c 8.22625,-0.0875 18.05875,-5.56125 19.7475,-14.3725 0.4025,-2.09875 0.7025,-7.81375 1.28375,-9.935 1.90125,-6.9175 2.0875,-16.57125 -3.0975,-22.92125"
     id="path222"
     style="fill:#ecc99e;fill-opacity:1;fill-rule:nonzero;stroke:none" /><path
     d="m 519.93345,52.164379 c 0,0 -1.8875,2.01125 -4.21625,2.01125 -2.325,0 -4.1025,-1.97125 -4.1025,-1.97125 0,0 1.7775,-0.3025 4.1025,-0.3025 2.32875,0 4.21625,0.2625 4.21625,0.2625"
     id="path224"
     style="fill:#be5467;fill-opacity:1;fill-rule:nonzero;stroke:none" /><path
     d="m 516.91595,51.234379 c -0.6575,0 -1.18375,0.41 -1.19875,0.9125 -0.007,-0.5025 -0.5375,-0.9125 -1.18875,-0.9125 -0.66125,0 -3.02375,0.93 -3.02375,0.93 0,0 2.30375,0.24 2.96625,0.24 0.65375,0 1.23875,0.25875 1.24625,-0.225 0.0113,0.48875 0.49,0.29875 1.14125,0.29875 0.665,0 3.075,-0.31375 3.075,-0.31375 0,0 -2.35875,-0.93 -3.0175,-0.93"
     id="path226"
     style="fill:#cc596a;fill-opacity:1;fill-rule:nonzero;stroke:none" /><path
     d="m 542.81845,14.646879 c -0.33,-1.03125 -0.66875,-1.99 -1.01625,-2.91125 0,-0.135 0,-0.26625 0,-0.3975 0,-3.8974998 -3.185,-8.9449998 -8.24875,-13.8499998 -5.0675,-4.905 -8.26,-3.89625 -12.4575,-3.755 l -0.0325,0.08 c -1.84375,-0.42625 -11.7525,-2.54625 -17.65,-0.1975 -6.5125,2.5975 -11.85,7.05750004 -15.61625,19.0362498 -3.76625,11.97125 -0.6725,21.78375 0.0588,25.9675 2.31125,13.255 13.4075,21.64625 13.4075,21.64625 0,0 -2.80375,-3.54125 -4.055,-7.07 -0.9725,-2.7375 -2.42,-7.4425 -2.42,-14.36625 0,-6.92625 6.32875,-15.505 6.32875,-15.505 0,0 -2.92125,5.38125 -3.495,11.29875 -0.58125,5.91625 2.47875,10.49125 2.47875,10.49125 0,0 -3.87625,-7.6825 2.32125,-13.4175 1.9675,-1.83 3.62,-3.7325 4.95125,-5.47125 l -0.004,0.0138 c -1.55375,4.53125 1.56875,8.34 1.56875,8.34 0,0 -0.0588,-5.81125 3.1775,-7.7875 7.87875,-4.8125 9.13,-6.805 10.24125,-10.6775 0.15,-0.53 0.23375,-1.01375 0.2925,-1.48875 l 7.2025,11.2025 c 0.3375,0.49125 0.88875,1.31375 1.52875,2.3775 1.865,3.1075 4.44625,8.19625 4.44625,12.62125 0,6.9275 -1.45125,11.62875 -2.42375,14.365 -1.25125,3.5325 -4.055,7.07125 -4.055,7.07125 0,0 11.1,-8.39125 13.41125,-21.64375 0.73125,-4.185 3.825,-13.995 0.0587,-25.9725"
     id="path228"
     style="fill:#50181a;fill-opacity:1;fill-rule:nonzero;stroke:none" /><path
     d="m 534.2547,69.040629 c -3.22875,-1.54125 -7.05625,-2.51 -6.85125,-2.0525 2.09125,2.92875 1.30875,5.385 0.965,9.58875 -0.53375,6.5375 -4.7975,4.94125 -12.72375,4.865 -7.9275,0.0763 -12.19125,1.6725 -12.725,-4.865 -0.3475,-4.20375 -1.12625,-6.66 0.96625,-9.58875 0.20375,-0.4575 -3.62,0.51125 -6.8525,2.0525 -3.22875,1.535 -5.8575,3.6375 -5.8575,3.6375 0,0 2.41625,0.795 3.4075,3.75875 0.505,1.4775 0.81125,4.1525 0.98,6.63 0.35125,5.02625 2.88125,7.28125 2.735,8.9725 l 34.69125,0 c -0.15,-1.69125 2.38375,-3.94625 2.735,-8.9725 0.1725,-2.4775 0.475,-5.1525 0.98,-6.63 0.99125,-2.96375 3.4075,-3.75875 3.4075,-3.75875 0,0 -2.62875,-2.1025 -5.8575,-3.6375"
     id="path230"
     style="fill:#fdf7f3;fill-opacity:1;fill-rule:nonzero;stroke:none" /><path
     d="m 512.16345,66.966879 c 0.3725,5.675 -2.11,12.1075 -2.66875,13.955 -0.7425,2.47625 -2.72875,5.32 -2.72875,5.32 0,0 2.14375,0.19375 2.46125,0.1825 0.31875,-0.0125 3.11875,0.7075 3.82875,-1.4175 0.7125,-2.13375 3.41875,-15.91125 3.19125,-16.26375 -0.2225,-0.355 -0.8775,-1.77625 -0.8775,-1.77625 l -3.20625,0"
     id="path232"
     style="fill:#cfced1;fill-opacity:1;fill-rule:nonzero;stroke:none" /><path
     d="m 508.4047,62.020629 c 1.54625,0.53 4.51125,1.575 7.41875,1.46625 2.90625,-0.1125 7.565,-1.05625 7.565,-1.05625 0,0 2.11375,2.45625 0.33625,3.4575 -1.7775,1.0075 -12.95125,2.515 -16.52,-0.18 -0.57,-0.42875 1.2,-3.6875 1.2,-3.6875"
     id="path234"
     style="fill:#3c3842;fill-opacity:1;fill-rule:nonzero;stroke:none" /><path
     d="m 513.61845,63.353129 c 0.285,-0.195 1.52125,0 2.42125,0 0.89875,0 1.2575,-0.275 2.02875,0 0.7675,0.2725 1.24625,2.42625 1.24625,2.75875 0,0.335 0.004,1.06 -0.3575,1.09875 -0.36625,0.0325 0.006,2.055 0.0587,2.9375 0.98625,15.3675 -1.3025,19.23625 -1.7775,19.5125 -0.475,0.27375 -8.48625,0.49625 -8.48625,0.49625 0,0 2.1825,-4.88375 3.02375,-7.56875 2.25625,-7.1875 2.54125,-14.99625 2.54125,-14.99625 0,0 -0.93625,0.29125 -0.93625,-0.53625 0,-0.83125 -0.53,-3.1775 0.2375,-3.7025"
     id="path236"
     style="fill:#3c3842;fill-opacity:1;fill-rule:nonzero;stroke:none" /><path
     d="m 62.223505,69.145424 c -0.22966,-0.162928 -0.43578,-0.410264 -0.62815,-0.721398 l 0.0137,-0.08146 c 0.18943,0.284633 0.39652,0.583989 0.61441,0.802862"
     id="path416"
     style="fill:#cc596a;fill-opacity:1;fill-rule:nonzero;stroke:none" /><path
     d="m 32.647165,35.15138 c 0.67429,4.856432 0.98739,3.677658 0.51725,11.532554 -0.32193,5.428643 -1.21214,7.184536 -1.21214,7.184536 0,0 5.74174,-9.751143 4.03688,-18.431475 -0.26206,-1.337777 -3.34199,-0.285615 -3.34199,-0.285615"
     id="path418"
     style="fill:#141113;fill-opacity:1;fill-rule:nonzero;stroke:none" /><path
     d="m -103.16682,150.14444 c -0.3971,0.38149 -1.7406,0.39603 -2.99141,2.90155 -0.77273,1.53854 -1.36399,1.68606 -1.36399,1.68606 0,0 0.97373,-6.27172 0.97373,-8.01613 0,-1.73757 -5.57988,-14.64201 -8.68739,-15.68393 -3.12508,-1.0226 -5.92234,2.44679 -9.27767,2.44679 l -0.26344,0 c -3.27923,-0.0671 -6.19844,-3.45866 -9.26888,-2.44679 -3.11435,1.04192 -8.68739,13.94636 -8.68739,15.68393 0,1.74441 0.96982,8.01613 0.96982,8.01613 0,0 -0.9786,-0.409 -1.70938,-1.95896 -1.2674,-2.68124 -2.19429,-2.26658 -2.63725,-2.64728 -0.83029,-10.87075 1.76695,-25.43765 21.30772,-25.43765 l 0.10537,0 c 19.65199,0 22.3868,14.58514 21.53016,25.45628"
     id="path444"
     style="fill:#402b1b;fill-opacity:1;fill-rule:nonzero;stroke:none" /><path
     d="m 48.660916,200.25515 c -1.080458,2.38123 -2.592495,4.78762 -2.198138,6.93545 1.379244,7.5119 0.671011,21.85261 4.5844,22.51457 0.747468,0.12374 -2.766535,-15.02883 -2.67197,-22.77512 -0.397375,-2.14583 0.877244,-3.45767 1.959713,-5.84192 -0.197178,-1.06839 -0.197178,-1.06839 -1.674005,-0.83298"
     id="path1226"
     style="fill:#241c19;fill-opacity:1;fill-rule:nonzero;stroke:none" /><path
     d="m 48.381244,198.43829 c -1.062349,2.37319 -2.495917,4.69808 -2.286667,7.03304 0.74445,8.17486 -0.70622,23.27813 2.598531,24.55677 0.6358,0.24446 -1.477832,-16.34469 -0.947664,-24.55074 -0.215286,-2.33495 0.9537,-3.53211 2.013032,-5.90127 -0.103619,-1.16898 -0.103619,-1.16898 -1.377232,-1.1378"
     id="path1228"
     style="fill:#402b1b;fill-opacity:1;fill-rule:nonzero;stroke:none" /><path
     d="m 51.053214,198.43829 c -1.059331,2.37319 -2.498935,4.69808 -2.286667,7.03304 0.74445,8.17486 -0.703203,23.27813 2.598531,24.55677 0.6358,0.24446 -1.479844,-16.34469 -0.947664,-24.55074 -0.215286,-2.33495 0.9537,-3.53211 2.013032,-5.90127 -0.106638,-1.16898 -0.106638,-1.16898 -1.377232,-1.1378"
     id="path1230"
     style="fill:#402b1b;fill-opacity:1;fill-rule:nonzero;stroke:none" /><path
     d="m 52.185985,198.35479 c -1.06235,2.36413 -2.498936,4.69406 -2.286667,7.02901 0.741431,8.17084 -0.706221,23.27612 2.601549,24.55879 0.632782,0.24345 -1.483869,-16.34771 -0.9537,-24.55074 -0.212269,-2.33998 0.956718,-3.53613 2.018061,-5.90328 -0.105631,-1.17201 -0.105631,-1.17201 -1.379243,-1.13378"
     id="path1232"
     style="fill:#402b1b;fill-opacity:1;fill-rule:nonzero;stroke:none" /><path
     d="m 49.313818,201.92312 c -1.273612,2.26755 -2.922467,4.49688 -2.922467,6.76544 0,7.95253 -2.812811,22.58096 0.371219,23.90487 0.611656,0.25452 0,-15.90405 1.277636,-23.8596 0,-2.26957 1.273612,-3.40435 2.54823,-5.67693 0,-1.13378 0,-1.13378 -1.274618,-1.13378"
     id="path1234"
     style="fill:#241c19;fill-opacity:1;fill-rule:nonzero;stroke:none" /><path
     d="m 55.790528,201.92312 c -1.2716,2.26755 -2.919449,4.49688 -2.919449,6.76544 0,7.95253 -2.812811,22.58096 0.371219,23.90386 0.611656,0.25553 0,-15.90304 1.27663,-23.85859 0,-2.26957 1.2716,-3.40435 2.548231,-5.67693 0,-1.13378 0,-1.13378 -1.276631,-1.13378"
     id="path1236"
     style="fill:#241c19;fill-opacity:1;fill-rule:nonzero;stroke:none" /><path
     d="m 47.986887,199.40105 c -1.2716,2.19713 -2.919449,4.35 -2.919449,6.54713 0,7.68694 -2.812811,21.83148 0.371219,23.11314 0.608638,0.24245 0,-15.37791 1.27663,-23.06888 0,-2.20115 1.2716,-3.29469 2.542195,-5.49283 0,-1.09856 0,-1.09856 -1.270595,-1.09856"
     id="path1238"
     style="fill:#36201a;fill-opacity:1;fill-rule:nonzero;stroke:none" /><path
     d="m 67.76711,200.53482 c 1.07744,2.38224 2.595513,4.78862 2.198138,6.93646 -1.380249,7.50989 -0.667992,21.8516 -4.581382,22.51155 -0.753504,0.12575 2.760499,-15.0248 2.67197,-22.77211 0.394357,-2.14783 -0.883279,-3.45766 -1.965749,-5.84191 0.200196,-1.06939 0.200196,-1.06939 1.677023,-0.83399"
     id="path1240"
     style="fill:#241c19;fill-opacity:1;fill-rule:nonzero;stroke:none" /><path
     d="m 69.367676,199.23405 c 1.274619,2.34099 2.919449,4.62766 2.919449,6.96563 0,8.18391 2.81583,23.22984 -0.370212,24.59399 -0.612662,0.26157 0,-16.36481 -1.274618,-24.5457 0,-2.33898 -1.274619,-3.50696 -2.551249,-5.84594 0,-1.16798 0,-1.16798 1.27663,-1.16798"
     id="path1242"
     style="fill:#402b1b;fill-opacity:1;fill-rule:nonzero;stroke:none" /><path
     d="m 68.046782,198.71897 c 1.062349,2.36916 2.497929,4.69707 2.286667,7.03303 -0.741432,8.17185 0.706221,23.27713 -2.601549,24.55879 -0.632782,0.24245 1.482863,-16.3457 0.9537,-24.55275 0.211263,-2.33496 -0.956718,-3.53312 -2.019068,-5.90228 0.105632,-1.16597 0.105632,-1.16597 1.38025,-1.13679"
     id="path1244"
     style="fill:#402b1b;fill-opacity:1;fill-rule:nonzero;stroke:none" /><path
     d="m 65.374812,198.71897 c 1.062349,2.36916 2.498936,4.69707 2.286667,7.03303 -0.741432,8.17185 0.706221,23.27713 -2.601549,24.55879 -0.632782,0.24245 1.482863,-16.3457 0.9537,-24.55275 0.211263,-2.33496 -0.956718,-3.53312 -2.01605,-5.90228 0.102614,-1.16597 0.102614,-1.16597 1.377232,-1.13679"
     id="path1246"
     style="fill:#402b1b;fill-opacity:1;fill-rule:nonzero;stroke:none" /><path
     d="m 64.242042,198.63446 c 1.059331,2.36413 2.494911,4.69507 2.283648,7.03002 -0.741431,8.17285 0.706221,23.27712 -2.59853,24.55878 -0.632783,0.24245 1.479844,-16.34871 0.9537,-24.55174 0.208244,-2.33596 -0.956719,-3.53613 -2.019068,-5.90328 0.108649,-1.171 0.108649,-1.171 1.38025,-1.13378"
     id="path1248"
     style="fill:#402b1b;fill-opacity:1;fill-rule:nonzero;stroke:none" /><path
     d="m 67.114208,202.19977 c 1.273612,2.27259 2.919449,4.50191 2.919449,6.77248 0,7.94951 2.818848,22.57493 -0.371219,23.89985 -0.609644,0.25351 0,-15.90305 -1.274618,-23.85659 0,-2.26956 -1.273612,-3.40334 -2.551248,-5.67693 0,-1.13881 0,-1.13881 1.277636,-1.13881"
     id="path1250"
     style="fill:#241c19;fill-opacity:1;fill-rule:nonzero;stroke:none" /><path
     d="m 60.637498,202.19977 c 1.273612,2.27259 2.919449,4.50191 2.919449,6.77248 0,7.94951 2.81583,22.57493 -0.371219,23.89985 -0.609644,0.25351 0,-15.90406 -1.274618,-23.8576 0,-2.26855 -1.273612,-3.40233 -2.54823,-5.67592 0,-1.13881 0,-1.13881 1.274618,-1.13881"
     id="path1252"
     style="fill:#241c19;fill-opacity:1;fill-rule:nonzero;stroke:none" /><path
     d="m 68.438121,199.68172 c 1.277636,2.19613 2.925485,4.34698 2.925485,6.54412 0,7.69096 2.812811,21.8345 -0.374237,23.11515 -0.608638,0.24346 0,-15.37791 -1.273612,-23.06888 0,-2.19813 -1.277636,-3.29368 -2.549236,-5.49383 0,-1.09656 0,-1.09656 1.2716,-1.09656"
     id="path1254"
     style="fill:#36201a;fill-opacity:1;fill-rule:nonzero;stroke:none" /><path
     d="m 57.812614,210.67845 0,33.3282 -18.177644,0 c -0.293756,-0.13984 -0.44667,-0.20322 -0.44667,-0.20322 0,-0.9537 0.02616,-1.85207 0.08752,-2.70517 0.753504,-10.87097 6.002878,-14.61636 8.987718,-15.88796 1.209227,-0.50803 2.050254,-0.61065 2.050254,-0.61065 l 0.09155,0 0.241443,-0.0503 c 0.91849,-0.25552 1.542218,-1.60258 1.962731,-3.51903 0.07646,-0.34204 0.13883,-0.68509 0.191142,-1.04324 0.100602,-0.62372 0.191143,-1.26858 0.253516,-1.93959 0.04121,-0.39536 0.07943,-0.81386 0.114685,-1.23538 0.168004,-2.04422 0.217299,-4.2665 0.217299,-6.36001 0,0 2.445617,0.22635 4.426456,0.22635"
     id="path1256"
     style="fill:#dab58d;fill-opacity:1;fill-rule:nonzero;stroke:none" /><path
     d="m 76.495277,243.80343 c 0,0 -0.164986,0.0633 -0.432586,0.20322 l -18.250077,0 0,-33.3282 0.03517,0 c 1.973797,0 4.437522,-0.22635 4.437522,-0.22635 0,2.08144 0.0503,4.28058 0.214281,6.30971 0.04129,0.40844 0.07944,0.81185 0.114686,1.20923 0.07646,0.69616 0.152914,1.37119 0.256533,1.98083 l 0,0.0251 c 0.03823,0.2676 0.08752,0.53219 0.140842,0.77262 0.382285,1.87923 0.941628,3.25345 1.756498,3.6971 l 0.192148,0.0875 c 0.12877,0.0393 0.270618,0.0654 0.408442,0.0654 0,0 0.842032,0.10262 2.05126,0.61065 3.034134,1.29474 8.416302,5.15481 9.021922,16.46139 0.04121,0.68711 0.05328,1.39433 0.05328,2.13174"
     id="path1258"
     style="fill:#ecc99e;fill-opacity:1;fill-rule:nonzero;stroke:none" /><path
     d="m 52.799652,219.99312 c -0.0016,-0.002 -0.0032,-0.004 -0.0048,-0.006 0.100601,-0.61165 0.18913,-1.25651 0.253515,-1.93154 0.04129,-0.40643 0.07646,-0.81487 0.111667,-1.23237 0.0032,8.1e-4 0.0048,0.002 0.008,0.002 -0.03525,0.4175 -0.07348,0.83097 -0.113679,1.22231 -0.06237,0.67101 -0.152914,1.31586 -0.253515,1.93959 0,0.002 -8.05e-4,0.004 -8.05e-4,0.006"
     id="path1260"
     style="fill:#8b6e57;fill-opacity:1;fill-rule:nonzero;stroke:none" /><path
     d="m 57.812614,222.70835 -0.009,0 c -2.885244,-0.0161 -4.566292,-2.09854 -5.003907,-2.71523 0,-0.002 8.05e-4,-0.004 8.05e-4,-0.006 0.100601,-0.62373 0.191142,-1.26858 0.253515,-1.93959 0.04024,-0.39134 0.07847,-0.80481 0.113679,-1.22231 1.41546,0.35613 2.943593,0.57041 4.582388,0.59556 l 0.05328,0 c 0.0032,0 0.0056,0 0.009,0 l 0,5.28761"
     id="path1262"
     style="fill:#c49a7b;fill-opacity:1;fill-rule:nonzero;stroke:none" /><path
     d="m 57.826698,222.70835 -0.01408,0 0,-5.2876 c 1.679035,-0.0262 3.230307,-0.25251 4.680977,-0.64687 0.03517,0.40643 0.07646,0.81185 0.114686,1.2052 0.07646,0.70019 0.150902,1.36013 0.253515,1.98285 l 0,0.0131 c -0.444658,0.71327 -1.986875,2.73334 -5.035094,2.73334"
     id="path1264"
     style="fill:#c8a180;fill-opacity:1;fill-rule:nonzero;stroke:none" /><path
     d="m 57.78847,174.88653 c -18.971389,-0.0352 -19.080038,15.15659 -18.235993,25.05877 -1.299769,-2.32389 -5.148774,-1.46073 -4.83188,2.26152 0.300798,3.56732 5.738297,5.17794 5.664858,4.78761 1.551272,8.06923 10.490701,12.55303 17.403015,13.18983 l 0.146878,0.008 c 0,-15.10327 0,-30.20654 0,-45.30478 l -0.146878,-8e-4"
     id="path1266"
     style="fill:#cb9c7a;fill-opacity:1;fill-rule:nonzero;stroke:none" /><path
     d="m 35.671279,200.63241 c 0.9537,-1.43961 2.422479,-0.81789 2.78062,-0.49697 0.38329,0.34204 0.689118,0.79676 0.450693,1.64684 -0.132793,0.48389 -0.667992,0.52011 -0.53218,1.24444 0.140841,0.8209 0.541234,0.87221 0.764569,1.05631 0.226353,0.18712 0.509043,0.32796 0.653909,0.67403 0.134805,0.34405 0.157944,0.71125 0.08149,1.02915 -0.146878,0.58751 -1.053296,0.1177 -1.658915,-0.14185 -0.397375,-0.17303 -1.671994,-1.1881 -1.992912,-1.53216 -0.805816,-0.86014 -1.183071,-2.52207 -0.547271,-3.47979"
     id="path1268"
     style="fill:#ba9074;fill-opacity:1;fill-rule:nonzero;stroke:none" /><path
     d="m 57.880017,174.88653 c 18.974406,-0.0352 19.080038,15.15659 18.239011,25.05877 1.300775,-2.32389 5.149779,-1.46073 4.833891,2.26152 -0.305828,3.56732 -5.740308,5.17794 -5.663851,4.78761 -1.55429,8.06923 -10.493719,12.55303 -17.409051,13.18983 l -0.141848,0.008 c 0,-15.10327 0,-30.20654 0,-45.30478 l 0.141848,-8e-4"
     id="path1270"
     style="fill:#d8ad8c;fill-opacity:1;fill-rule:nonzero;stroke:none" /><path
     d="m 80.132013,200.63241 c -0.946658,-1.43961 -2.418455,-0.81789 -2.780619,-0.49697 -0.379267,0.34204 -0.682077,0.79676 -0.449688,1.64684 0.134806,0.48389 0.667992,0.52011 0.538217,1.24444 -0.144866,0.8209 -0.544253,0.87221 -0.770606,1.05631 -0.227359,0.18712 -0.509042,0.32796 -0.65089,0.67403 -0.134806,0.34405 -0.161968,0.71125 -0.08551,1.02915 0.150902,0.58751 1.053295,0.1177 1.659921,-0.14185 0.403411,-0.17303 1.674005,-1.1881 1.991905,-1.53216 0.812858,-0.86014 1.183071,-2.52207 0.547271,-3.47979"
     id="path1272"
     style="fill:#ba9074;fill-opacity:1;fill-rule:nonzero;stroke:none" /><path
     d="m 57.688874,179.18522 c -6.335868,0 -10.973587,1.74141 -13.780362,5.17795 -3.917414,4.79868 -3.766512,12.12748 -2.31886,17.38792 0.440634,1.61063 0.664975,5.94554 0.970803,7.53604 1.368177,7.11855 9.663758,10.90719 15.128419,10.90719 l 0.146878,-0.002 0,-41.00407 -0.146878,-0.003"
     id="path1274"
     style="fill:#dab58d;fill-opacity:1;fill-rule:nonzero;stroke:none" /><path
     d="m 71.437045,184.3692 c -2.783638,-3.4144 -7.369044,-5.15179 -13.601293,-5.18096 l 0,41.00407 c 6.238285,-0.0674 13.69787,-4.22123 14.978524,-10.90518 0.30281,-1.5905 0.529163,-5.92541 0.973821,-7.53604 1.441616,-5.24535 1.583464,-12.56711 -2.351052,-17.38189"
     id="path1276"
     style="fill:#ecc99e;fill-opacity:1;fill-rule:nonzero;stroke:none" /><path
     d="m 61.025819,213.76188 c 0,0 -1.433568,1.52411 -3.199121,1.52411 -1.762534,0 -3.112603,-1.49091 -3.112603,-1.49091 0,0 1.350069,-0.2344 3.112603,-0.2344 1.765553,0 3.199121,0.2012 3.199121,0.2012"
     id="path1278"
     style="fill:#be5467;fill-opacity:1;fill-rule:nonzero;stroke:none" /><path
     d="m 58.733116,213.05868 c -0.493953,0 -0.894346,0.30884 -0.906418,0.68911 -0.008,-0.38027 -0.405423,-0.68911 -0.903399,-0.68911 -0.499989,0 -2.291697,0.7032 -2.291697,0.7032 0,0 1.747444,0.1851 2.247432,0.1851 0.497976,0 0.939616,0.19618 0.947664,-0.17806 0.0091,0.37625 0.371219,0.23138 0.865171,0.23138 0.499988,0 2.33395,-0.23842 2.33395,-0.23842 0,0 -1.792715,-0.7032 -2.292703,-0.7032"
     id="path1280"
     style="fill:#cc596a;fill-opacity:1;fill-rule:nonzero;stroke:none" /><path
     d="m 67.87073,180.37332 c 1.438598,3.44861 3.274571,6.88113 3.3631,10.14966 0.326954,11.44541 3.901318,32.89058 0.576445,34.35232 -0.634794,0.28068 -0.641836,-22.8888 -2.312823,-34.51831 -0.09356,-3.26853 -1.488899,-5.08238 -2.936551,-8.52897 -0.04129,-1.63176 -0.04129,-1.63176 1.309829,-1.4547"
     id="path1282"
     style="fill:#241c19;fill-opacity:1;fill-rule:nonzero;stroke:none" /><path
     d="m 73.723712,182.41854 c 1.359123,3.05024 3.118639,6.03508 3.118639,9.08329 0,10.66877 3.010996,30.2991 -0.394357,32.07571 -0.65592,0.34104 0,-21.34256 -1.365159,-32.01333 0,-3.04722 -1.359123,-4.57334 -2.725289,-7.62256 0,-1.52311 0,-1.52311 1.366166,-1.52311"
     id="path1284"
     style="fill:#402b1b;fill-opacity:1;fill-rule:nonzero;stroke:none" /><path
     d="m 72.899787,193.05814 c 0,12.05002 2.506984,34.2165 -0.33299,36.21947 -0.541235,0.38531 0.3179,-18.75912 -1.027139,-34.73762 C 70.226811,178.90253 58.47457,181.75156 57.3418,178.30697 c 0,-1.7233 5.717171,0.46075 6.753364,0.87825 8.407248,3.40133 8.804623,10.42933 8.804623,13.87292"
     id="path1286"
     style="fill:#241c19;fill-opacity:1;fill-rule:nonzero;stroke:none" /><path
     d="m 74.735761,192.79355 c -0.400394,12.04701 1.368177,34.27083 -1.536182,36.20238 -0.553307,0.3682 0.941628,-18.74906 0.131788,-34.75372 -0.790726,-15.66865 -12.63552,-13.14054 -13.656623,-16.6153 0.05931,-1.7223 5.703086,0.61869 6.724189,1.06335 8.292563,3.62869 8.451513,10.66374 8.336828,14.10329"
     id="path1288"
     style="fill:#241c19;fill-opacity:1;fill-rule:nonzero;stroke:none" /><path
     d="m 73.505407,190.16887 c 0,12.047 2.506984,34.2165 -0.329972,36.22249 -0.544253,0.38027 0.314882,-18.76515 -1.023115,-34.74164 -1.318883,-15.63847 -13.387012,-12.85986 -14.519782,-16.30344 0,-1.71928 6.033058,0.52916 7.068245,0.94967 8.410267,3.39529 8.804624,10.42732 8.804624,13.87292"
     id="path1290"
     style="fill:#402b1b;fill-opacity:1;fill-rule:nonzero;stroke:none" /><path
     d="m 72.422937,191.4968 c 0,12.32467 2.562315,34.99818 -0.339026,37.05045 -0.558337,0.39435 0.323936,-19.1897 -1.050277,-35.5374 -1.348057,-15.99058 -13.368904,-13.08119 -14.524813,-16.60626 0,-1.76052 5.846947,0.47384 6.90326,0.9034 8.604427,3.4788 9.010856,10.66676 9.010856,14.18981"
     id="path1292"
     style="fill:#36201a;fill-opacity:1;fill-rule:nonzero;stroke:none" /><path
     d="m 75.594895,190.2574 c 0,12.32868 2.563321,35.0022 -0.341038,37.05245 -0.553307,0.39335 0.32293,-19.18969 -1.048265,-35.53438 -1.347051,-15.9946 -15.110312,-13.14758 -16.272256,-16.67265 0,-1.76253 7.59439,0.5352 8.650703,0.9698 8.601409,3.47476 9.010856,10.66373 9.010856,14.18478"
     id="path1294"
     style="fill:#49251d;fill-opacity:1;fill-rule:nonzero;stroke:none" /><path
     d="m 76.603926,185.35208 c 3.651826,11.58826 2.569357,32.28697 0.444658,34.91568 -0.406429,0.50603 1.962731,-12.30052 -1.007019,-31.17633 -2.441593,-15.52781 -17.599187,-12.9323 -18.873805,-14.08116 -1.351075,-1.21225 5.640713,-0.96779 6.765436,-0.82493 9.113469,1.19313 11.626489,7.85092 12.67073,11.16674"
     id="path1296"
     style="fill:#36201a;fill-opacity:1;fill-rule:nonzero;stroke:none" /><path
     d="m 72.35151,194.67178 c 0,12.32567 2.566339,34.99818 -0.335002,37.05246 -0.556325,0.39033 0.323936,-19.19171 -1.053295,-35.53841 -1.342021,-15.98957 -13.362868,-13.08118 -14.524812,-16.60726 0,-1.75851 5.849964,0.47383 6.909295,0.90239 8.601409,3.4788 9.003814,10.66776 9.003814,14.19082"
     id="path1298"
     style="fill:#36201a;fill-opacity:1;fill-rule:nonzero;stroke:none" /><path
     d="m 71.645289,196.39407 c 0,12.32668 2.001966,35.00019 -0.264581,37.05045 -0.435604,0.39234 0.253515,-19.19171 -0.823924,-35.5364 -1.04726,-15.99158 -11.808578,-13.14657 -12.718014,-16.66862 0,-1.76052 5.938494,0.5352 6.765436,0.96879 6.724189,3.47477 7.041083,10.66273 7.041083,14.18578"
     id="path1300"
     style="fill:#49251d;fill-opacity:1;fill-rule:nonzero;stroke:none" /><path
     d="m 46.950694,180.05844 c -1.31184,3.49992 -3.022062,6.99481 -2.995906,10.26837 0.08853,11.44843 -2.701144,33.00929 0.671011,34.3493 0.641836,0.25955 -0.188125,-22.90087 1.065367,-34.57666 -0.02913,-3.26954 1.300775,-5.13267 2.619658,-8.63159 -0.01811,-1.63577 -0.01811,-1.63577 -1.36013,-1.40942"
     id="path1302"
     style="fill:#241c19;fill-opacity:1;fill-rule:nonzero;stroke:none" /><path
     d="m 41.892462,182.19018 c -1.365159,3.05224 -3.122663,6.03809 -3.122663,9.08631 0,10.67279 -3.013009,30.29808 0.397375,32.07571 0.65089,0.34104 0,-21.34256 1.360129,-32.01435 0,-3.04922 1.365159,-4.57232 2.7273,-7.62054 0,-1.52713 0,-1.52713 -1.362141,-1.52713"
     id="path1304"
     style="fill:#402b1b;fill-opacity:1;fill-rule:nonzero;stroke:none" /><path
     d="m 42.713369,192.83178 c 0,12.05103 -2.503966,34.21751 0.331984,36.2225 0.545259,0.38429 -0.319912,-18.76315 1.027139,-34.74165 1.312846,-15.63645 13.066093,-12.79245 14.201882,-16.23101 0,-1.72229 -5.721195,0.45975 -6.756382,0.87926 -8.407248,3.40032 -8.804623,10.42833 -8.804623,13.8709"
     id="path1306"
     style="fill:#241c19;fill-opacity:1;fill-rule:nonzero;stroke:none" /><path
     d="m 40.874377,192.56821 c 0.403411,12.04901 -1.362141,34.27083 1.5392,36.19935 0.553307,0.36519 -0.941628,-18.74604 -0.129776,-34.75271 0.788714,-15.66864 12.629484,-13.14255 13.651593,-16.6153 -0.05634,-1.72028 -5.700068,0.6197 -6.725195,1.06738 -8.286527,3.62567 -8.450507,10.65971 -8.335822,14.10128"
     id="path1308"
     style="fill:#241c19;fill-opacity:1;fill-rule:nonzero;stroke:none" /><path
     d="m 42.106743,189.93849 c 0,12.05304 -2.506984,34.21852 0.329972,36.22451 0.541235,0.38429 -0.314882,-18.76315 1.030157,-34.74064 1.311841,-15.63746 13.500691,-12.4645 14.63648,-15.9121 0,-1.71827 -6.155792,0.13782 -7.191985,0.56236 -8.410267,3.3963 -8.804624,10.42531 -8.804624,13.86587"
     id="path1310"
     style="fill:#402b1b;fill-opacity:1;fill-rule:nonzero;stroke:none" /><path
     d="m 43.193237,191.26743 c 0,12.32668 -2.566339,35.0022 0.33802,37.05749 0.553307,0.39234 -0.323936,-19.19573 1.047259,-35.5374 1.345039,-15.99762 13.365886,-13.0842 14.528836,-16.60726 0,-1.76354 -5.849964,0.47081 -6.910301,0.89938 -8.601409,3.47879 -9.003814,10.66876 -9.003814,14.18779"
     id="path1312"
     style="fill:#36201a;fill-opacity:1;fill-rule:nonzero;stroke:none" /><path
     d="m 43.125834,194.44543 c 0,12.32567 -2.566339,34.99918 0.341038,37.05446 0.553307,0.38933 -0.329972,-19.19572 1.047259,-35.53941 1.342021,-15.9956 13.365886,-13.08118 14.524813,-16.60726 0,-1.76152 -5.849965,0.47384 -6.909296,0.9024 -8.598391,3.47678 -9.003814,10.66776 -9.003814,14.18981"
     id="path1314"
     style="fill:#36201a;fill-opacity:1;fill-rule:nonzero;stroke:none" /><path
     d="m 40.020272,190.03004 c 0,12.32667 -2.562314,35.00119 0.339027,37.05145 0.553307,0.39838 -0.326954,-19.18869 1.047259,-35.53137 1.345039,-15.99761 15.704865,-12.89306 16.867816,-16.41611 0,-1.76354 -8.18995,0.28067 -9.252299,0.70924 -8.598391,3.47879 -9.001803,10.66775 -9.001803,14.18679"
     id="path1316"
     style="fill:#49261d;fill-opacity:1;fill-rule:nonzero;stroke:none" /><path
     d="m 43.834067,196.1647 c 0,12.3297 -2.006996,35.00321 0.265587,37.05447 0.432586,0.39235 -0.256533,-19.1917 0.820907,-35.53539 1.050277,-15.99661 12.276373,-12.89406 13.182791,-16.4141 0,-1.76555 -6.400253,0.28168 -7.227196,0.70823 -6.727207,3.4798 -7.042089,10.66776 -7.042089,14.18679"
     id="path1318"
     style="fill:#49261d;fill-opacity:1;fill-rule:nonzero;stroke:none" /><path
     d="m 39.008224,185.12371 c -3.648809,11.59128 -2.562315,32.28999 -0.443652,34.92172 0.405423,0.502 -1.960719,-12.30152 1.006013,-31.18237 2.439581,-15.52277 17.600193,-12.9333 18.874811,-14.07915 1.353087,-1.21727 -5.641719,-0.96879 -6.762418,-0.82493 -9.119505,1.18911 -11.629507,7.85495 -12.674754,11.16473"
     id="path1320"
     style="fill:#36201a;fill-opacity:1;fill-rule:nonzero;stroke:none" /><path
     d="m 67.420036,225.2103 c -0.880261,2.18305 -3.378191,6.36605 -9.584284,6.52802 l -0.02318,0 c -2.842992,0.0735 -5.076341,-1.20118 -6.771472,-2.85406 -0.07646,-2.49793 -0.171022,-4.42645 -0.171022,-4.42645 0,0 -0.706221,-0.0201 -1.959713,0.33701 -0.834991,0.23641 -1.571392,0.85913 -1.571392,0.85913 l 0,8.1e-4 c -3.295698,1.76455 -8.150715,6.34895 -8.150715,18.14847 0,0 0.152914,0.0633 0.446669,0.20321 l 36.427722,0 c 0.267599,-0.13983 0.432586,-0.20321 0.432586,-0.20321 0,-12.9665 -5.862037,-17.22093 -9.075241,-18.59313"
     id="path1322"
     style="fill:#24653a;fill-opacity:1;fill-rule:nonzero;stroke:none" /><path
     d="m 68.026661,187.20415 c 0,2.9617 -2.407388,5.35802 -5.37412,5.35802 l -19.656483,0 c -2.969749,0 -5.376132,-2.39632 -5.376132,-5.35802 0,-2.95667 2.406383,-5.35601 5.376132,-5.35601 l 19.656483,0 c 2.966732,0 5.37412,2.39934 5.37412,5.35601"
     id="path1324"
     style="fill:#2c9242;fill-opacity:1;fill-rule:nonzero;stroke:none" /><path
     d="m 80.932799,195.07419 c -1.282666,-4.87313 -4.61458,-11.93836 -6.967644,-15.21897 -0.559343,-0.77865 -1.168987,-1.35811 -1.560326,-1.69312 0.258545,-0.26357 0.470814,-0.57443 0.509042,-0.91547 0.10865,-0.96577 0.582482,-2.95868 -0.808834,-2.25749 -1.312846,0.65793 0.288726,1.02412 -0.47685,2.10056 -0.800786,-1.09857 -3.355052,-3.35908 -11.511804,-6.37913 -11.750229,-4.35704 -14.792411,-0.64687 -18.674615,1.28971 -3.884215,1.93355 -4.049201,3.86812 -3.563297,5.12463 0.485904,1.25148 0.973821,5.19706 1.780643,6.24029 0.808834,1.04123 4.369113,-0.39938 11.328709,5.71315 6.962615,6.10549 21.205743,9.0511 25.410877,14.74815 4.210163,5.69906 6.149756,3.8158 6.149756,3.8158 0,0 0.487916,-1.12673 0.97382,-2.41845 0.482886,-1.2887 -0.811852,-3.38524 -2.589477,-10.14966"
     id="path1326"
     style="fill:#24653a;fill-opacity:1;fill-rule:nonzero;stroke:none" /><path
     d="m 62.644575,52.031113 c -0.0805,2.482199 0.22378,6.616251 0.39652,8.585128 0.17176,1.964951 0.46425,7.66645 0.0452,10.072092 -0.41616,2.407605 -0.34647,5.417847 -0.95598,5.464958 -0.60852,0.04711 -0.84114,-1.204293 -0.58791,-2.635311 0.2493,-1.431018 0.38474,-9.881682 0.30721,-11.57574 -0.0834,-1.693077 -0.48584,-6.966645 -0.51136,-7.183555 -0.0255,-0.217891 0.42793,-1.772578 0.72041,-2.420364 0.29053,-0.640916 0.58596,-0.307208 0.58596,-0.307208"
     id="path1806"
     style="fill:#141113;fill-opacity:1;fill-rule:nonzero;stroke:none" /><path
     d="m 72.790275,49.514563 c -0.44756,5.890927 -0.39652,8.660703 -0.15508,12.625939 0.25323,3.965235 0.70668,10.44604 0.67233,13.733064 -0.0343,3.288986 -0.65466,9.564659 -0.65466,9.564659 l -0.87549,1.124792 c 0,0 -0.42205,0.02355 -0.0118,-5.11751 0.3818,-4.82208 0.24145,-6.905792 -0.20415,-12.832053 -0.29249,-3.871993 -0.80385,-11.998764 -0.44756,-13.81649 0.36119,-1.81969 1.67639,-5.282401 1.67639,-5.282401"
     id="path1808"
     style="fill:#141113;fill-opacity:1;fill-rule:nonzero;stroke:none" /><path
     d="m 68.662115,54.824445 c -0.51725,3.128022 -0.59185,8.446738 -0.58007,10.988807 0.0177,2.536181 -0.32684,9.843403 -1.43003,12.794756 -1.10222,2.949389 -1.432,6.786049 -2.52048,6.693789 -1.09044,-0.0952 -1.31226,-1.738226 -0.65466,-3.494119 0.6576,-1.752948 2.17696,-12.438473 2.28885,-14.609538 0.106,-2.171065 0.18354,-8.962022 0.16292,-9.239784 -0.0118,-0.285615 1.03352,-2.142602 1.64793,-2.891482 0.61442,-0.742009 1.08554,-0.242429 1.08554,-0.242429"
     id="path1810"
     style="fill:#141113;fill-opacity:1;fill-rule:nonzero;stroke:none" /><path
     d="m 70.884215,51.931001 c 0,3.17317 0.44265,8.432015 0.67723,10.935806 0.23556,2.507717 0.70962,9.767828 0.37395,12.854627 -0.3396,3.091706 -0.17275,6.932292 -0.78127,7.015719 -0.60558,0.08539 -0.87844,-1.503649 -0.67134,-3.33708 0.20022,-1.840301 0.0687,-12.627901 -0.0697,-14.789151 -0.13741,-2.162231 -0.71158,-8.871724 -0.74005,-9.149487 -0.0402,-0.2758 0.37003,-2.278048 0.63699,-3.114281 0.2758,-0.832306 0.57418,-0.416153 0.57418,-0.416153"
     id="path1812"
     style="fill:#141113;fill-opacity:1;fill-rule:nonzero;stroke:none" /><path
     d="m 69.695625,51.931001 c 0,3.17317 0.43971,8.432015 0.67428,10.935806 0.23851,2.507717 0.70962,9.767828 0.37101,12.854627 -0.33862,3.091706 -0.17274,6.932292 -0.78127,7.015719 -0.60264,0.08539 -0.87255,-1.503649 -0.67134,-3.33708 0.20611,-1.840301 0.0687,-12.627901 -0.0667,-14.789151 -0.13447,-2.162231 -0.70864,-8.871724 -0.74299,-9.149487 -0.0344,-0.2758 0.37002,-2.278048 0.64287,-3.114281 0.26992,-0.832306 0.57418,-0.416153 0.57418,-0.416153"
     id="path1814"
     style="fill:#141113;fill-opacity:1;fill-rule:nonzero;stroke:none" /><path
     d="m 69.580785,51.402957 c -0.18942,3.1663 -0.0569,8.44183 0.0314,10.958381 0.0893,2.512624 0.1325,9.791384 -0.38474,12.855608 -0.52216,3.065206 -0.57712,6.906773 -1.19154,6.954867 -0.60852,0.04711 -0.78617,-1.552724 -0.47602,-3.371432 0.31015,-1.824598 0.81562,-12.602383 0.80384,-14.768541 -0.009,-2.165175 -0.18648,-8.897243 -0.20709,-9.175005 -0.0167,-0.277763 0.50547,-2.251548 0.8274,-3.071095 0.318,-0.817585 0.59674,-0.382783 0.59674,-0.382783"
     id="path1816"
     style="fill:#141113;fill-opacity:1;fill-rule:nonzero;stroke:none" /><path
     d="m 37.394655,48.182675 c 0.0491,5.908594 -0.18648,8.667574 -0.70373,12.608272 -0.51921,3.938736 -1.41237,10.37341 -1.59885,13.656508 -0.18649,3.284079 0,9.587233 0,9.587233 l 0.79795,1.181719 c 0,0 0.4191,0.04908 0.36217,-5.102787 -0.0579,-4.84171 0.22673,-6.911681 1.0767,-12.789849 0.55062,-3.845493 1.61554,-11.918281 1.38293,-13.753675 -0.23556,-1.841283 -1.31717,-5.387421 -1.31717,-5.387421"
     id="path1818"
     style="fill:#141113;fill-opacity:1;fill-rule:nonzero;stroke:none" /><path
     d="m 37.139465,50.438149 c 0.44756,5.890927 0.40143,8.659721 0.15115,12.62692 -0.2493,3.965236 -0.70275,10.445059 -0.66545,13.73699 0.0373,3.286042 0.65171,9.563677 0.65171,9.563677 l 0.87844,1.124792 c 0,0 0.42204,0.01673 0.0118,-5.120454 -0.38475,-4.82208 -0.2444,-6.905791 0.20317,-12.830089 0.29052,-3.871994 0.80384,-11.997783 0.44559,-13.818454 -0.35628,-1.820672 -1.67639,-5.283382 -1.67639,-5.283382"
     id="path1820"
     style="fill:#141113;fill-opacity:1;fill-rule:nonzero;stroke:none" /><path
     d="m 41.267635,55.749994 c 0.51626,3.126059 0.59086,8.445756 0.583,10.984881 -0.0147,2.541088 0.3239,9.845366 1.42906,12.794756 1.09927,2.953315 1.43004,6.788012 2.51851,6.695752 1.09044,-0.09422 1.31422,-1.738226 0.65368,-3.489211 -0.65957,-1.752949 -2.17597,-12.439455 -2.28492,-14.613465 -0.10895,-2.171064 -0.18354,-8.960058 -0.16685,-9.242728 0.0148,-0.281689 -1.02959,-2.138676 -1.64793,-2.887556 -0.61442,-0.742991 -1.08455,-0.242429 -1.08455,-0.242429"
     id="path1822"
     style="fill:#141113;fill-opacity:1;fill-rule:nonzero;stroke:none" /><path
     d="m 43.121675,55.899181 c 0.51725,3.128022 0.93929,8.390792 1.11399,10.903417 0.17569,2.506736 0.89022,9.750161 1.72842,12.746663 0.8323,2.990612 1.29262,6.807642 1.90409,6.790956 0.61147,-0.01468 0.61638,-1.626335 0.1168,-3.401858 -0.49369,-1.781411 -2.11806,-12.446325 -2.33694,-14.602667 -0.21789,-2.152417 -0.74299,-8.86878 -0.75476,-9.147524 -0.0118,-0.277763 -0.7322,-2.190695 -1.13952,-2.96902 -0.40241,-0.779306 -0.63208,-0.319967 -0.63208,-0.319967"
     id="path1824"
     style="fill:#141113;fill-opacity:1;fill-rule:nonzero;stroke:none" /><path
     d="m 39.045525,52.854587 c 0,3.17317 -0.44265,8.432015 -0.67821,10.93875 -0.23556,2.501829 -0.70569,9.766847 -0.37002,12.855609 0.33567,3.088761 0.17176,6.929347 0.77832,7.012774 0.60264,0.08343 0.87844,-1.50463 0.67429,-3.338061 -0.20317,-1.839319 -0.0717,-12.624957 0.0657,-14.786207 0.13839,-2.165175 0.71256,-8.87565 0.74397,-9.152431 0.0373,-0.271874 -0.37002,-2.275103 -0.64288,-3.113299 -0.26991,-0.835252 -0.57123,-0.417135 -0.57123,-0.417135"
     id="path1826"
     style="fill:#141113;fill-opacity:1;fill-rule:nonzero;stroke:none" /><path
     d="m 40.237065,52.854587 c 0,3.17317 -0.43971,8.432015 -0.67527,10.93875 -0.2385,2.501829 -0.71158,9.766847 -0.37297,12.855609 0.33862,3.088761 0.17176,6.929347 0.78029,7.012774 0.60656,0.08343 0.87353,-1.50463 0.67232,-3.338061 -0.20415,-1.839319 -0.0687,-12.624957 0.0687,-14.786207 0.1325,-2.165175 0.70962,-8.87565 0.74103,-9.152431 0.0373,-0.271874 -0.37297,-2.275103 -0.63994,-3.113299 -0.26991,-0.835252 -0.57417,-0.417135 -0.57417,-0.417135"
     id="path1828"
     style="fill:#141113;fill-opacity:1;fill-rule:nonzero;stroke:none" /><path
     d="m 45.327095,52.354025 c 0.25813,3.160411 0.2493,8.436922 0.21789,10.952491 -0.0314,2.512625 0.0923,9.791385 0.68017,12.845794 0.5889,3.047539 0.73809,6.889106 1.34956,6.92444 0.61147,0.03243 0.75182,-1.57039 0.39946,-3.381247 -0.35333,-1.817727 -1.10025,-12.58079 -1.14344,-14.743021 -0.0393,-2.164194 -0.0166,-8.904114 -0.005,-9.179913 0.0108,-0.278745 -0.55454,-2.242714 -0.8961,-3.049502 -0.33273,-0.811696 -0.60264,-0.369042 -0.60264,-0.369042"
     id="path1830"
     style="fill:#141113;fill-opacity:1;fill-rule:nonzero;stroke:none" /><path
     d="m 54.956525,54.774389 0,35.687122 -19.46891,0 c -0.31212,-0.140354 -0.47603,-0.207095 -0.47603,-0.207095 0,-16.269245 8.61556,-19.737845 11.19394,-20.417039 0.27286,-0.07067 0.47603,-0.108945 0.59675,-0.122686 l 0.0726,-0.01476 0.0539,-0.0157 0.0923,0 0.26403,-0.053 c 0.39259,-0.107964 0.72336,-0.395542 1.02173,-0.843103 0.45051,-0.679194 0.80679,-1.686207 1.07965,-2.939574 0.0805,-0.35432 0.14918,-0.72238 0.20022,-1.113015 0.11287,-0.655638 0.2071,-1.347591 0.27678,-2.06997 0.0403,-0.433821 0.0824,-0.869604 0.11974,-1.317165 0.18158,-2.192658 0.23556,-4.573762 0.23556,-6.829236 0,0 2.61863,0.255189 4.73767,0.255189"
     id="path1832"
     style="fill:#dab58d;fill-opacity:1;fill-rule:nonzero;stroke:none" /><path
     d="m 60.525525,65.56199 c 0.25813,1.277905 0.60264,2.355585 1.03646,3.076002 -0.21789,2.160268 10.97605,21.854927 10.97605,21.854927 l -17.58151,-0.03141 0,-35.687122 0.0432,0 c 2.11512,0 4.74552,-0.255188 4.74552,-0.255188 0,2.242713 0.0569,4.594373 0.23458,6.771327 0.0412,0.435783 0.0834,0.871566 0.12367,1.295572 0.0834,0.745935 0.16096,1.455555 0.27285,2.121008 l 0,0.01374 c 0.0403,0.297393 0.0923,0.57123 0.14919,0.841141"
     id="path1834"
     style="fill:#ecc99e;fill-opacity:1;fill-rule:nonzero;stroke:none" /><path
     d="m 62.613165,69.6028 0.21789,0.06674 -0.21789,-0.03832 c -0.14624,-0.04413 -0.27286,-0.135446 -0.41125,-0.258132 l 0.2071,0.150168 0.20415,0.0795"
     id="path1836"
     style="fill:#ecc99e;fill-opacity:1;fill-rule:nonzero;stroke:none" /><path
     d="m 62.831055,69.669542 0.13839,0.01476 -0.0952,0 -0.0432,-0.01476"
     id="path1838"
     style="fill:#ecc99e;fill-opacity:1;fill-rule:nonzero;stroke:none" /><path
     d="m 63.051895,69.684264 0.0403,0.0157 -0.12269,-0.0157 0.0824,0"
     id="path1840"
     style="fill:#ecc99e;fill-opacity:1;fill-rule:nonzero;stroke:none" /><path
     d="m 74.966245,90.254416 c 0,0 -0.17176,0.06674 -0.46228,0.207095 l -4.5983,0 c 0.85782,-1.638114 2.30455,-5.784926 -1.7608,-10.45193 -0.39849,-0.46032 -0.84899,-0.925549 -1.36624,-1.39961 -0.37002,-0.339597 -0.69784,-0.681157 -0.9707,-1.047254 -2.03562,-2.531273 -2.11512,-5.522867 -2.11512,-7.72534 -0.10894,-0.02842 -0.21593,-0.05795 -0.3023,-0.08244 0.71257,0.146243 2.45766,0.638953 4.38433,2.039545 0.66938,0.475043 1.3633,1.071791 2.0474,1.809874 2.69028,2.91013 5.14401,7.945194 5.14401,16.650065"
     id="path1842"
     style="fill:#ecc99e;fill-opacity:1;fill-rule:nonzero;stroke:none" /><path
     d="m 49.585795,64.743424 c 0,-7.86e-4 -7.9e-4,-0.0016 -7.9e-4,-0.0016 0.10895,-0.655638 0.20317,-1.349554 0.26991,-2.069971 0.0432,-0.43382 0.0854,-0.871566 0.12269,-1.319128 0.002,0 0.004,7.86e-4 0.005,7.86e-4 -0.0373,0.446579 -0.0805,0.8804 -0.11975,1.312257 -0.0697,0.72238 -0.16391,1.414333 -0.27678,2.069971 0,0.0031 0,0.0047 -7.8e-4,0.0079"
     id="path1844"
     style="fill:#a19b8e;fill-opacity:1;fill-rule:nonzero;stroke:none" /><path
     d="m 54.956525,67.653553 -0.005,0 c -3.0976,-0.0157 -4.89962,-2.256454 -5.36485,-2.910129 7.9e-4,-0.0031 7.9e-4,-0.0047 7.9e-4,-0.0079 0.11287,-0.655638 0.20709,-1.347592 0.27678,-2.069971 0.0393,-0.431857 0.0824,-0.865678 0.11974,-1.312258 1.51444,0.378857 3.15158,0.613434 4.90943,0.639934 l 0.0579,0 c 0.002,0 0.004,0 0.006,0 l 0,5.660276"
     id="path1846"
     style="fill:#c49a7b;fill-opacity:1;fill-rule:nonzero;stroke:none" /><path
     d="m 54.976155,67.653553 -0.0196,0 0,-5.660276 c 1.80006,-0.02748 3.45781,-0.272855 5.01544,-0.694897 0.0432,0.43382 0.0834,0.870585 0.12268,1.291646 0.0805,0.750843 0.16391,1.457518 0.2758,2.124934 l 0,0.0128 c -0.47897,0.759676 -2.12984,2.925834 -5.39429,2.925834"
     id="path1848"
     style="fill:#c8a180;fill-opacity:1;fill-rule:nonzero;stroke:none" /><path
     d="m 66.815925,78.571693 c -2.97688,-2.729535 -3.08582,-6.282544 -3.08582,-8.804983 -0.10895,-0.02944 -0.21888,-0.05591 -0.29936,-0.08245 -0.12268,-0.03046 -0.23556,-0.04421 -0.29837,-0.05598 l -0.12563,-0.01374 -0.0952,0 -0.0432,-0.01374 -0.2179,-0.04122 c -0.14918,-0.0402 -0.26991,-0.135446 -0.4083,-0.259114 l -0.0166,-0.0157 c -0.22967,-0.159002 -0.43382,-0.406338 -0.6262,-0.721398 -0.21789,2.171065 -0.44756,6.183412 -0.73514,7.278759 -3.10642,11.67389 -8.69309,11.909449 -11.68468,0 -0.28071,-1.113995 -0.54866,-4.972248 -0.76655,-7.12859 -0.30132,0.449524 -0.62815,0.737102 -1.02468,0.846047 l -0.25813,0.05496 -0.0952,0 -0.12268,0.01374 -0.0697,0.01178 c -0.12367,0.03039 -0.30426,0.07067 -0.53393,0.126613 0,2.522439 -0.10895,6.075447 -3.08287,8.804982 -5.72211,5.243141 -4.0683,10.09074 -3.1241,11.889819 l 29.84134,0 c 0.94126,-1.799079 2.59213,-6.646678 -3.12703,-11.889819"
     id="path1850"
     style="fill:#683159;fill-opacity:1;fill-rule:nonzero;stroke:none" /><path
     d="m 69.822235,73.636741 c -0.57417,1.176811 -1.26907,3.791511 -1.67737,6.446452 -0.39849,-0.463265 -0.84899,-0.931438 -1.36624,-1.408444 -0.37002,-0.34156 -0.69784,-0.685082 -0.9707,-1.054124 0.39947,-2.026785 1.02272,-4.365685 1.96691,-5.805537 0.66938,0.477987 1.3633,1.078662 2.0474,1.821653"
     id="path1852"
     style="fill:#683159;fill-opacity:1;fill-rule:nonzero;stroke:none" /><path
     d="m 39.855265,73.948856 c 0.57417,1.177793 1.26514,3.792493 1.67639,6.450378 0.39652,-0.465228 0.84703,-0.931437 1.36624,-1.411388 0.37002,-0.34156 0.6949,-0.685083 0.96775,-1.056088 -0.39652,-2.02384 -1.02173,-4.365685 -1.96102,-5.803574 -0.67135,0.480933 -1.36624,1.081607 -2.04936,1.820672"
     id="path1854"
     style="fill:#6f2027;fill-opacity:1;fill-rule:nonzero;stroke:none" /><path
     d="m 47.285175,52.956662 c 0.0824,2.486125 -0.22378,6.61527 -0.39358,8.584147 -0.17471,1.966914 -0.46229,7.666449 -0.0491,10.075036 0.4191,2.403678 0.3504,5.41392 0.95892,5.462995 0.60853,0.04421 0.84114,-1.208219 0.59184,-2.635311 -0.25322,-1.432981 -0.39063,-9.883645 -0.31015,-11.576722 0.0805,-1.697003 0.48191,-6.967626 0.51136,-7.182573 0.0226,-0.221818 -0.43088,-1.774541 -0.72434,-2.421346 -0.28954,-0.640915 -0.58497,-0.306226 -0.58497,-0.306226"
     id="path1856"
     style="fill:#141113;fill-opacity:1;fill-rule:nonzero;stroke:none" /><path
     d="m 49.024375,53.203999 c -0.0108,3.004353 -0.46522,7.991324 -0.71158,10.365558 -0.24734,2.370308 -0.74103,9.253525 -0.40732,12.186229 0.32684,2.925834 0.14919,6.564232 0.75182,6.648641 0.60853,0.07852 0.88433,-1.423167 0.68901,-3.164337 -0.2012,-1.743133 -0.0314,-11.968338 0.10895,-14.016716 0.1433,-2.042489 0.74103,-8.407477 0.77538,-8.667573 0.0343,-0.261078 -0.36512,-2.162232 -0.63405,-2.954297 -0.265,-0.792066 -0.57221,-0.397505 -0.57221,-0.397505"
     id="path1858"
     style="fill:#141113;fill-opacity:1;fill-rule:nonzero;stroke:none" /><path
     d="m 37.058985,48.367196 c -4.76613,17.714004 -3.86414,24.212476 -3.54908,24.458831 0.31015,0.254207 0.57417,0.488784 0.83525,-1.91784 2.38896,-22.077725 4.22926,-19.951809 4.28128,-20.790005 0.051,-0.830344 0.57417,-1.334832 -0.26206,-1.750986 -0.83525,-0.417135 -1.30539,0 -1.30539,0"
     id="path1860"
     style="fill:#141113;fill-opacity:1;fill-rule:nonzero;stroke:none" /><path
     d="m 33.493215,71.772884 c -0.38769,1.091421 -0.26402,1.769633 -0.14428,2.83161 0.11484,1.060995 0.055,2.374234 0.55455,2.729535 0.50252,0.358245 1.10516,0.810714 1.05608,-0.145262 -0.0403,-0.952049 -0.38474,-1.560575 -0.54178,-2.694201 -0.15606,-1.131662 -0.28169,-2.460605 -0.28169,-2.460605 l -0.64288,-0.261077"
     id="path1862"
     style="fill:#141113;fill-opacity:1;fill-rule:nonzero;stroke:none" /><path
     d="m 34.947795,71.987831 c 0,0.599693 -0.48486,1.083569 -1.0875,1.083569 -0.59969,0 -1.08553,-0.483876 -1.08553,-1.083569 0,-0.594786 0.48584,-1.084551 1.08553,-1.084551 0.60264,0 1.0875,0.489765 1.0875,1.084551"
     id="path1864"
     style="fill:#663020;fill-opacity:1;fill-rule:nonzero;stroke:none" /><path
     d="m 40.348955,52.326543 c 0.18943,3.164337 0.0569,8.446737 -0.0295,10.958381 -0.0854,2.512624 -0.13446,9.791384 0.38475,12.854626 0.51725,3.066188 0.58006,6.909718 1.18859,6.95683 0.61245,0.04617 0.7901,-1.549779 0.477,-3.375358 -0.31015,-1.818708 -0.80973,-12.596494 -0.80089,-14.762651 0.009,-2.166157 0.18648,-8.897243 0.20316,-9.178932 0.0177,-0.276781 -0.50448,-2.252529 -0.82641,-3.069132 -0.31604,-0.817584 -0.59675,-0.383764 -0.59675,-0.383764"
     id="path1866"
     style="fill:#141113;fill-opacity:1;fill-rule:nonzero;stroke:none" /><path
     d="m 66.807085,54.975595 c -0.51626,3.126059 -0.93536,8.389811 -1.11399,10.897528 -0.17177,2.510662 -0.88924,9.755069 -1.72547,12.748626 -0.83525,2.993556 -1.29459,6.810587 -1.90312,6.795864 -0.60852,-0.01963 -0.6203,-1.625354 -0.12072,-3.405784 0.49663,-1.777486 2.12199,-12.447307 2.33694,-14.602668 0.21887,-2.149472 0.74691,-8.867798 0.75771,-9.145561 0.0118,-0.278744 0.73514,-2.186768 1.13755,-2.971964 0.40143,-0.778324 0.6311,-0.316041 0.6311,-0.316041"
     id="path1868"
     style="fill:#141113;fill-opacity:1;fill-rule:nonzero;stroke:none" /><path
     d="m 64.602655,51.42455 c -0.25814,3.163355 -0.25028,8.442811 -0.21888,10.958381 0.0353,2.513606 -0.0883,9.791384 -0.68017,12.845793 -0.58792,3.049502 -0.7371,6.889106 -1.34956,6.92444 -0.61147,0.03628 -0.75477,-1.573335 -0.39848,-3.386154 0.35628,-1.81282 1.10221,-12.578827 1.14246,-14.74204 0.0403,-2.163213 0.0148,-8.900187 0.006,-9.178932 -0.0118,-0.276781 0.5565,-2.239769 0.8961,-3.050483 0.33567,-0.809733 0.60264,-0.371005 0.60264,-0.371005"
     id="path1870"
     style="fill:#141113;fill-opacity:1;fill-rule:nonzero;stroke:none" /><path
     d="m 60.904385,52.277468 c 0.0118,3.00828 0.46522,7.993288 0.71256,10.368503 0.24636,2.369326 0.74005,9.251562 0.41027,12.183285 -0.32684,2.927797 -0.14919,6.567176 -0.75477,6.647659 -0.60853,0.08244 -0.88433,-1.423167 -0.68607,-3.163355 0.19728,-1.741171 0.0284,-11.965394 -0.11189,-14.014753 -0.14133,-2.045434 -0.74103,-8.406496 -0.77538,-8.666592 -0.0324,-0.264022 0.36708,-2.163213 0.63699,-2.953316 0.26402,-0.794028 0.56829,-0.401431 0.56829,-0.401431"
     id="path1872"
     style="fill:#141113;fill-opacity:1;fill-rule:nonzero;stroke:none" /><path
     d="m 41.141015,54.507423 c 0.37886,3.149614 0.57418,8.425144 0.63994,10.940713 0.0667,2.514588 0.47111,9.780588 1.17485,12.808497 0.70569,3.025946 1.00505,6.857698 1.61357,6.867513 0.61442,0.0098 0.69196,-1.597872 0.26991,-3.394987 -0.42302,-1.798097 -1.58511,-12.526808 -1.70878,-14.690021 -0.12367,-2.16125 -0.35824,-8.890373 -0.35824,-9.17108 0,-0.2758 -0.64386,-2.217195 -1.01094,-3.013186 -0.36806,-0.796973 -0.62031,-0.347449 -0.62031,-0.347449"
     id="path1874"
     style="fill:#141113;fill-opacity:1;fill-rule:nonzero;stroke:none" /><path
     d="m 54.932975,16.434289 c -20.31497,-0.03628 -20.43569,16.231948 -19.52781,26.841898 -1.39568,-2.489069 -5.51599,-1.565483 -5.1764,2.421346 0.32095,3.818011 6.14317,5.547404 6.06564,5.128306 1.6597,8.642054 11.23712,13.445486 18.63857,14.126643 l 0.15507,0.0055 c 0,-16.175021 0,-32.348079 0,-48.519174 l -0.15507,-0.0047"
     id="path1876"
     style="fill:#cb9c7a;fill-opacity:1;fill-rule:nonzero;stroke:none" /><path
     d="m 31.247555,44.011326 c 1.02174,-1.539964 2.59017,-0.877456 2.97688,-0.534914 0.41124,0.369042 0.73513,0.856844 0.48289,1.768652 -0.14624,0.51234 -0.71551,0.553563 -0.57417,1.329924 0.15213,0.879419 0.58006,0.934383 0.82347,1.132644 0.24145,0.196299 0.54571,0.349412 0.6949,0.720417 0.14918,0.370023 0.17274,0.763602 0.0923,1.100255 -0.15508,0.633063 -1.12578,0.130538 -1.77749,-0.148206 -0.42793,-0.185502 -1.78828,-1.272998 -2.13278,-1.644002 -0.86764,-0.91966 -1.26613,-2.698127 -0.58596,-3.72477"
     id="path1878"
     style="fill:#ba9074;fill-opacity:1;fill-rule:nonzero;stroke:none" /><path
     d="m 55.034065,16.434289 c 20.31693,-0.03628 20.43765,16.231948 19.53075,26.841898 1.3947,-2.489069 5.51207,-1.565483 5.17935,2.421346 -0.32488,3.818011 -6.15299,5.547404 -6.06662,5.128306 -1.66265,8.642054 -11.24007,13.445486 -18.64348,14.126643 l -0.15311,0.0055 c 0,-16.175021 0,-32.348079 0,-48.519174 l 0.15311,-0.0047"
     id="path1880"
     style="fill:#d8ad8c;fill-opacity:1;fill-rule:nonzero;stroke:none" /><path
     d="m 78.865725,44.011326 c -1.01683,-1.539964 -2.59311,-0.877456 -2.9808,-0.534914 -0.40732,0.369042 -0.72925,0.856844 -0.47897,1.768652 0.14624,0.51234 0.71453,0.553563 0.57712,1.329924 -0.15213,0.879419 -0.58301,0.934383 -0.8274,1.132644 -0.24047,0.196299 -0.54473,0.349412 -0.69392,0.720417 -0.14624,0.370023 -0.17863,0.763602 -0.0923,1.100255 0.15802,0.633063 1.12578,0.130538 1.77454,-0.148206 0.4299,-0.185502 1.79123,-1.272998 2.13573,-1.644002 0.86667,-0.91966 1.26613,-2.698127 0.58596,-3.72477"
     id="path1882"
     style="fill:#ba9074;fill-opacity:1;fill-rule:nonzero;stroke:none" /><path
     d="m 54.826975,21.041422 c -6.78704,0 -11.75045,1.863857 -14.75971,5.545441 -4.19687,5.134195 -4.03394,12.98811 -2.48613,18.622867 0.47112,1.725467 0.71159,6.364989 1.0453,8.07377 1.46439,7.619338 10.34691,11.678797 16.20054,11.678797 l 0.15802,-0.0039 0,-43.912042 -0.15802,-0.0047"
     id="path1884"
     style="fill:#dab58d;fill-opacity:1;fill-rule:nonzero;stroke:none" /><path
     d="m 69.552325,26.590789 c -2.98276,-3.654102 -7.89219,-5.516978 -14.56733,-5.54446 l 0,43.912042 c 6.68004,-0.07067 14.67039,-4.517817 16.03957,-11.674871 0.32782,-1.708781 0.56829,-6.348303 1.04529,-8.07377 1.54782,-5.620034 1.69701,-13.460208 -2.51753,-18.618941"
     id="path1886"
     style="fill:#ecc99e;fill-opacity:1;fill-rule:nonzero;stroke:none" /><path
     d="m 58.401575,58.075153 c 0,0 -1.53604,1.635169 -3.42542,1.635169 -1.89232,0 -3.33315,-1.602779 -3.33315,-1.602779 0,0 1.44083,-0.2493 3.33315,-0.2493 1.88938,0 3.42542,0.21691 3.42542,0.21691"
     id="path1888"
     style="fill:#be5467;fill-opacity:1;fill-rule:nonzero;stroke:none" /><path
     d="m 55.949805,57.31744 c -0.53688,0 -0.96481,0.331745 -0.97365,0.740047 -0.0118,-0.408302 -0.43971,-0.740047 -0.96775,-0.740047 -0.53688,0 -2.45766,0.757713 -2.45766,0.757713 0,0 1.87171,0.193355 2.41153,0.193355 0.52902,0 1.00211,0.210039 1.01388,-0.184521 0.009,0.399468 0.39358,0.245373 0.92751,0.245373 0.53394,0 2.49791,-0.254207 2.49791,-0.254207 0,0 -1.91784,-0.757713 -2.45177,-0.757713"
     id="path1890"
     style="fill:#cc596a;fill-opacity:1;fill-rule:nonzero;stroke:none" /><path
     d="m 77.191295,38.104695 c -0.0137,4.899618 -0.48486,3.775808 1.0394,11.497221 1.05413,5.332457 2.17107,6.953885 2.17107,6.953885 0,0 -7.00296,-8.89528 -6.48572,-17.722837 0.0805,-1.360351 3.27525,-0.728269 3.27525,-0.728269"
     id="path1892"
     style="fill:#141113;fill-opacity:1;fill-rule:nonzero;stroke:none" /><path
     d="m 37.557585,20.452526 c 0,0 -0.1433,0.104038 -0.41027,0.296411 -0.26696,0.195317 -0.62521,0.51234 -1.05314,0.943215 -0.42204,0.436765 -0.87844,1.01781 -1.30637,1.740189 -0.43382,0.720417 -0.81267,1.592965 -1.16896,2.558755 -0.69686,1.946303 -1.13068,4.343111 -1.3839,6.933274 -0.28954,2.5882 -0.38475,5.39331 -0.65957,8.20529 -0.25617,2.803146 -0.57417,5.610219 -1.05412,8.221975 -0.45051,2.620589 -1.11105,5.024268 -1.79123,7.037312 -0.66349,2.022859 -1.43298,3.624657 -1.98654,4.728838 -0.25912,0.560433 -0.68607,1.03842 -0.25912,-0.11189 0.44266,-1.148348 0.93046,-2.826703 1.47323,-4.843673 0.53982,-2.021878 0.95303,-4.422612 1.34366,-7.005904 0.36708,-2.585256 0.65466,-5.364847 0.93046,-8.150327 0.28659,-2.77959 0.46719,-5.590589 0.85586,-8.222956 0.40438,-2.632367 1.00996,-5.074324 1.85699,-7.056942 0.85292,-1.982618 2.02973,-3.408729 2.97981,-4.215517 0.47995,-0.398487 0.90494,-0.656619 1.18565,-0.817584 0.29346,-0.159002 0.44756,-0.240466 0.44756,-0.240466"
     id="path1894"
     style="fill:#161315;fill-opacity:1;fill-rule:nonzero;stroke:none" /><path
     d="m 29.283585,56.848286 c 0,0.598711 -0.48191,1.085532 -1.08749,1.085532 -0.59969,0 -1.08848,-0.486821 -1.08848,-1.085532 0,-0.600674 0.48879,-1.082588 1.08848,-1.082588 0.60558,0 1.08749,0.481914 1.08749,1.082588"
     id="path1896"
     style="fill:#3e9b69;fill-opacity:1;fill-rule:nonzero;stroke:none" /><path
     d="m 72.535085,47.257127 c -0.0462,5.910556 0.18943,8.668555 0.70373,12.60729 0.52216,3.940698 1.41237,10.377336 1.6018,13.65847 0.18354,3.282116 0,9.586252 0,9.586252 l -0.8009,1.183682 c 0,0 -0.42008,0.04617 -0.35923,-5.10475 0.055,-4.837784 -0.22672,-6.909718 -1.07669,-12.79083 -0.55357,-3.842549 -1.62241,-11.915337 -1.38391,-13.753675 0.23261,-1.841283 1.3152,-5.386439 1.3152,-5.386439"
     id="path1898"
     style="fill:#141113;fill-opacity:1;fill-rule:nonzero;stroke:none" /><path
     d="m 75.411845,74.062709 c 0,0.59773 -0.48878,1.081607 -1.08848,1.081607 -0.60263,0 -1.09142,-0.483877 -1.09142,-1.081607 0,-0.599693 0.48879,-1.083569 1.09142,-1.083569 0.5997,0 1.08848,0.483876 1.08848,1.083569"
     id="path1900"
     style="fill:#46989e;fill-opacity:1;fill-rule:nonzero;stroke:none" /><path
     d="m 36.260045,24.168462 c 0,0 -0.61932,3.750289 -1.54977,9.380138 -0.22673,1.401574 -0.45934,2.925834 -0.68901,4.536466 -0.25323,1.605724 -0.42499,3.308616 -0.66055,5.064508 -0.20709,1.758838 -0.37002,3.577546 -0.52804,5.422755 -0.14625,1.851097 -0.26991,3.73164 -0.30427,5.608256 -0.0637,1.815764 -0.15507,3.926958 -0.5516,5.791796 -0.35333,1.895265 -0.91573,3.689436 -1.45261,5.402143 -1.10516,3.414618 -2.22504,6.501417 -2.68733,9.242729 -0.22378,1.368203 -0.30426,2.640219 -0.24046,3.765011 0.0628,1.127737 0.2807,2.098434 0.52215,2.880685 0.25225,0.777343 0.49075,1.38587 0.68607,1.786319 0.19826,0.401431 0.30131,0.615397 0.30131,0.615397 0,0 -0.1374,-0.195317 -0.39554,-0.560433 -0.25322,-0.36806 -0.61736,-0.928494 -0.9707,-1.701911 -0.33861,-0.770473 -0.689,-1.750985 -0.90199,-2.930741 -0.22083,-1.171904 -0.29543,-2.532254 -0.1747,-3.99468 0.22083,-2.93663 1.17386,-6.210894 2.12984,-9.615697 0.47995,-1.705837 0.90788,-3.464674 1.23472,-5.247067 0.35922,-1.811838 0.39652,-3.518656 0.45639,-5.496366 0.0579,-1.922747 0.21004,-3.83666 0.38475,-5.716221 0.1698,-1.880543 0.44756,-3.718881 0.71158,-5.496367 0.29052,-1.771596 0.59184,-3.481359 0.94812,-5.081194 0.31212,-1.613576 0.68607,-3.119188 1.04235,-4.508002 0.68606,-2.779591 1.40059,-5.063527 1.88251,-6.653548 0.49761,-1.591983 0.80678,-2.493976 0.80678,-2.493976"
     id="path1902"
     style="fill:#1f1718;fill-opacity:1;fill-rule:nonzero;stroke:none" /><path
     d="m 28.196095,77.76196 c 0,0.598711 -0.48584,1.080625 -1.08848,1.080625 -0.59969,0 -1.08553,-0.481914 -1.08553,-1.080625 0,-0.598711 0.48584,-1.085532 1.08553,-1.085532 0.60264,0 1.08848,0.486821 1.08848,1.085532"
     id="path1904"
     style="fill:#853624;fill-opacity:1;fill-rule:nonzero;stroke:none" /><path
     d="m 73.048405,31.100754 c 0,0 0.0805,0.847029 0.1698,2.335956 0.0255,0.743972 0.10895,1.645965 0.2385,2.665738 0.106,1.019772 0.24734,2.16812 0.45345,3.417562 0.16391,1.252386 0.42794,2.596051 0.69785,4.016273 0.25224,1.420222 0.63993,2.900315 0.97855,4.438316 0.37885,1.53113 0.79893,3.104465 1.24649,4.706263 0.4191,1.603762 0.93242,3.211449 1.41237,4.835821 0.48192,1.627317 0.95892,3.257579 1.39274,4.899618 0.48781,1.609651 0.74594,3.284079 1.07572,4.864285 0.10404,0.806788 0.20121,1.601798 0.29936,2.379141 0.0373,0.401431 0.10894,0.743973 0.1168,1.1827 0.01,0.37395 0.0148,0.744954 0.0265,1.109089 0.0177,0.730231 0.0344,1.436907 0.052,2.124934 -0.0432,0.703731 -0.0805,1.378999 -0.12073,2.02973 -0.052,1.299498 -0.20709,2.464531 -0.34745,3.498044 -0.12661,1.03155 -0.73514,-0.994253 -0.83034,-3.4951 -0.0225,-0.623249 -0.0481,-1.272998 -0.0716,-1.946302 -0.0658,-0.684102 -0.13446,-1.391759 -0.20906,-2.114139 -0.0343,-0.367078 -0.0667,-0.734157 -0.10404,-1.107125 -0.0255,-0.308189 -0.12563,-0.711583 -0.18648,-1.068847 -0.12858,-0.738083 -0.26402,-1.489908 -0.39849,-2.258417 -0.37297,-1.526224 -0.72925,-3.089744 -1.2092,-4.681727 -0.44462,-1.584131 -0.94714,-3.208504 -1.44672,-4.835821 -0.45934,-1.639095 -0.95598,-3.27819 -1.35741,-4.912377 -0.44854,-1.623391 -0.76458,-3.25856 -1.09731,-4.827969 -0.29543,-1.578242 -0.56239,-3.112318 -0.72925,-4.580633 -0.18354,-1.462426 -0.31604,-2.853203 -0.35628,-4.140922 -0.10011,-1.278887 -0.0805,-2.467476 -0.0452,-3.513749 0.0108,-1.048236 0.0452,-1.950229 0.12367,-2.690275 0.12563,-1.485982 0.22574,-2.330067 0.22574,-2.330067"
     id="path1906"
     style="fill:#1f1718;fill-opacity:1;fill-rule:nonzero;stroke:none" /><path
     d="m 81.489255,74.157914 c 0,0.599693 -0.48486,1.082588 -1.08749,1.082588 -0.60068,0 -1.08848,-0.482895 -1.08848,-1.082588 0,-0.59773 0.4878,-1.086514 1.08848,-1.086514 0.60263,0 1.08749,0.488784 1.08749,1.086514"
     id="path1908"
     style="fill:#39823d;fill-opacity:1;fill-rule:nonzero;stroke:none" /><path
     d="m 67.904395,29.839534 c -1.68522,3.1398 -1.21509,6.688882 -6.93622,9.017967 -5.71327,2.33203 -8.28577,2.969019 -14.52414,5.781981 -14.13941,6.366952 -6.8793,21.121751 -6.8793,21.121751 0,0 -3.87297,-3.793474 -5.27945,-7.745951 -1.40648,-3.954439 -6.82727,-21.170825 0,-34.774332 3.74636,-7.466225 10.68258,-9.187765 16.77471,-9.691272 6.08919,-0.510376 10.43623,0.02261 14.84019,4.081052 0.95598,0.879419 3.70907,1.082588 6.72912,3.228134 6.74974,4.804413 6.19912,11.887856 6.49455,16.412543 0.37297,5.774129 -0.44265,9.902293 -1.75099,13.852806 -1.3152,3.952476 -9.27021,15.626366 -9.27021,15.626366 0,0 6.18636,-14.261108 2.75015,-23.531319 -2.01304,-5.424717 -5.61316,-5.120454 -5.76824,-7.225758 -0.15802,-2.105305 2.81983,-6.153968 2.81983,-6.153968"
     id="path1910"
     style="fill:#141113;fill-opacity:1;fill-rule:nonzero;stroke:none" /><path
     d="m 217.37774,-75.117364 0,32.193229 -17.57106,0 c -0.26608,-0.125666 -0.42645,-0.180056 -0.42645,-0.180056 0,-8.130187 2.37464,-12.719908 4.8887,-15.29775 2.84664,-2.908614 5.8637,-3.265813 5.8637,-3.265813 l 0.0911,0 0.22872,-0.04833 c 0.89025,-0.244207 1.5035,-1.543607 1.89806,-3.409786 0.0747,-0.318927 0.13304,-0.650611 0.18133,-1.005076 0.10115,-0.594116 0.2023,-1.21739 0.25333,-1.86709 0.0447,-0.393647 0.0666,-0.787294 0.10661,-1.193698 0.15673,-1.973703 0.21049,-4.120538 0.21049,-6.16076 0,0 2.13225,0.210491 3.98204,0.235095 l 0.29341,0"
     id="path2650"
     style="fill:#dab58d;fill-opacity:1;fill-rule:nonzero;stroke:none" /><path
     d="m 235.13924,-43.104191 c 0,0 -0.1622,0.0544 -0.42098,0.180056 l -17.63393,0 0,-32.193229 0.29341,0 c 1.8598,-0.02464 4.02941,-0.235095 4.02941,-0.235095 0,2.021998 0.0482,4.150608 0.20776,6.110642 0.0346,0.394559 0.072,0.787295 0.10935,1.168185 0.0774,0.673392 0.1467,1.312157 0.24239,1.918118 l 0,0.0051 c 0.0401,0.274278 0.0911,0.519395 0.13941,0.768159 0.36996,1.805127 0.90849,3.125485 1.6976,3.571983 l 0.18954,0.06561 c 0.11663,0.05197 0.25514,0.07654 0.39365,0.07654 0,0 2.7455,0.330774 5.45365,2.871255 0.56768,0.543088 1.13264,1.170007 1.67664,1.918118 1.99649,2.746418 3.6221,7.041816 3.6221,13.774186"
     id="path2652"
     style="fill:#ecc99e;fill-opacity:1;fill-rule:nonzero;stroke:none" /><g
     transform="matrix(0.09112202,0,0,-0.09112202,-147.38462,38.221102)"
     id="g2654"><g
       clip-path="url(#clipPath2658)"
       id="g2656"><path
         d="m 4053.37,1145.46 0,-0.11 c -4.59,-7.56 -20.43,-28.99 -51.74,-28.99 l -0.26,0 c -29.72,0.13 -47.01,22.38 -51.43,28.83 1.05,6.45 1.93,13.36 2.61,20.49 0.4,4.32 0.77,8.64 1.19,13.04 14.54,-3.79 30.26,-6.06 47.15,-6.32 l 0.48,0 c 17.32,0.26 33.27,2.67 48.21,6.86 0.42,-4.33 0.82,-8.57 1.19,-12.81 0.76,-7.42 1.56,-14.4 2.6,-20.99"
         id="path2662"
         style="fill:#ba9074;fill-opacity:1;fill-rule:nonzero;stroke:none" /></g></g><path
     d="m 235.13924,-43.104191 c 0,0 -0.1622,0.0544 -0.42098,0.180056 l -34.91158,0 c -0.26608,-0.125666 -0.42645,-0.180056 -0.42645,-0.180056 0,-8.130187 2.39377,-13.312201 5.29692,-15.697776 0.0291,0.111169 0,0.743556 0.0984,1.124446 0,0 0.14944,1.549074 0.43192,2.004685 1.67391,2.669875 8.13993,5.412648 9.81658,5.582135 0.22051,0.02347 0.46654,0.04665 0.74355,0.07545 0.37815,0.02384 0.81007,0.04767 1.25201,0.07299 l 0.0648,0 c 0.0984,-0.01174 0.19409,-0.01174 0.29341,-0.01174 0.30617,-0.02457 0.60232,-0.03739 0.88479,-0.06123 0.27155,-0.02879 0.51667,-0.05197 0.73536,-0.07545 1.67937,-0.169487 8.15907,-2.91226 9.81931,-5.582135 0.29341,-0.469279 0.42645,-1.330382 0.61325,-1.966413 l -0.0593,-0.269721 c 0.0747,-0.248763 -0.23966,-1.067951 -0.15673,-1.461598 0.56768,0.543999 1.65477,1.361363 2.31085,2.343659 2.06027,3.068989 3.6139,7.190344 3.6139,13.922712"
     id="path2664"
     style="fill:#fcfbfe;fill-opacity:1;fill-rule:nonzero;stroke:none" /><path
     d="m 215.82319,-42.924135 -1.95912,0 c 0.0638,-1.181672 0.14944,-3.077104 0.14944,-4.14496 0,-1.012277 0.22416,-2.247069 -1.77506,-3.685069 -1.99375,-1.422415 -7.20775,-1.323092 -7.72441,-4.750097 -0.12028,-0.79914 -0.11208,-1.510803 -0.0482,-2.087605 l 0,-0.01093 c 0.0966,-0.943112 0.30981,-1.535405 0.30981,-1.535405 0,0 0.98321,-0.804608 1.34861,-1.03788 0.46381,-0.291591 1.95639,-0.98594 1.95639,-0.98594 0,1.587345 -1.30122,5.080963 0.30344,6.268284 1.58643,1.192787 5.03813,2.168704 5.96029,2.641714 0.91395,0.479119 1.23652,1.106317 1.3969,1.99184 0.01,0.05664 0.021,0.132127 0.021,0.244936 0.0984,1.153605 0.0747,5.093904 0.0611,7.091117"
     id="path2666"
     style="fill:#cc7084;fill-opacity:1;fill-rule:nonzero;stroke:none" /><path
     d="m 229.51063,-55.504261 c -0.50663,3.427005 -5.72793,3.327682 -7.70892,4.750097 -1.99921,1.438 -1.79146,2.672792 -1.79146,3.685069 0,1.067856 0.0857,2.963288 0.14945,4.14496 l -1.9564,0 c -0.01,-1.997213 -0.0374,-5.937512 0.0593,-7.091117 0,-0.11281 0.01,-0.188259 0.0264,-0.244936 0.15946,-0.885524 0.4793,-1.512721 1.39963,-1.99184 0.91395,-0.473011 4.36292,-1.448928 5.95118,-2.641715 1.60466,-1.18732 0.29888,-4.769327 0.29888,-6.350293 0,0 1.49258,0.438296 1.93269,0.708017 0.82557,0.504817 1.41239,1.252017 1.41239,1.252017 0,0 0.18408,0.726242 0.28522,1.631084 l 0,0.01371 c 0.0501,0.584092 0.0638,1.32218 -0.0583,2.134988"
     id="path2668"
     style="fill:#cc7084;fill-opacity:1;fill-rule:nonzero;stroke:none" /><path
     d="m 217.06246,-109.71822 c -18.32738,-0.0319 -18.43855,14.647867 -17.62027,24.217502 -1.25566,-2.246158 -4.97708,-1.410569 -4.67274,2.188751 0.29615,3.445323 5.5466,5.006244 5.47461,4.623531 1.50079,7.799134 10.13915,12.131074 16.8184,12.743414 l 0.1385,0.0066 0,-43.772288 -0.1385,-0.007"
     id="path2670"
     style="fill:#cb9c7a;fill-opacity:1;fill-rule:nonzero;stroke:none" /><path
     d="m 195.69161,-84.836439 c 0.92215,-1.3887 2.33728,-0.785471 2.68627,-0.482035 0.37361,0.330773 0.66429,0.774537 0.43739,1.599191 -0.12757,0.461077 -0.64515,0.490237 -0.52213,1.198254 0.13851,0.793674 0.52486,0.842879 0.74903,1.026035 0.21595,0.173131 0.49023,0.309814 0.626,0.647877 0.12849,0.329862 0.15491,0.686149 0.0857,0.992319 -0.14671,0.568602 -1.01874,0.112991 -1.60465,-0.139417 -0.3891,-0.161285 -1.61833,-1.147226 -1.9245,-1.47891 -0.78365,-0.828299 -1.14632,-2.432958 -0.53306,-3.363314"
     id="path2672"
     style="fill:#ba9074;fill-opacity:1;fill-rule:nonzero;stroke:none" /><path
     d="m 217.15905,-109.71822 c 18.33192,-0.0319 18.43945,14.647867 17.61844,24.217502 1.25748,-2.246158 4.97891,-1.410569 4.67182,2.188751 -0.29614,3.445323 -5.5466,5.006244 -5.47734,4.623531 -1.49531,7.799134 -10.13642,12.131074 -16.81292,12.743414 l -0.14398,0.0066 0,-43.772288 0.14398,-0.007"
     id="path2674"
     style="fill:#d8ad8c;fill-opacity:1;fill-rule:nonzero;stroke:none" /><path
     d="m 238.6602,-84.836439 c -0.91942,-1.3887 -2.33729,-0.785471 -2.68628,-0.482035 -0.37087,0.330773 -0.66428,0.774537 -0.44012,1.599191 0.13304,0.461077 0.64514,0.490237 0.5194,1.198254 -0.13578,0.793674 -0.52487,0.842879 -0.74356,1.026035 -0.21779,0.173131 -0.49023,0.309814 -0.62874,0.647877 -0.13031,0.329862 -0.154,0.686149 -0.0802,0.992319 0.1385,0.568602 1.01874,0.112991 1.60466,-0.139417 0.3818,-0.161285 1.61286,-1.147226 1.92449,-1.47891 0.78092,-0.828299 1.14632,-2.432958 0.53034,-3.363314"
     id="path2676"
     style="fill:#ba9074;fill-opacity:1;fill-rule:nonzero;stroke:none" /><path
     d="m 216.96951,-105.56032 c -6.12522,0 -10.60022,1.68029 -13.31931,5.00168 -3.78429,4.638119 -3.64032,11.723767 -2.24433,16.806554 0.42645,1.557275 0.64788,5.746154 0.94402,7.280649 1.31672,6.880623 9.3391,10.540083 14.61962,10.540083 l 0.14124,-0.0073 0,-39.621676 -0.14124,0"
     id="path2678"
     style="fill:#dab58d;fill-opacity:1;fill-rule:nonzero;stroke:none" /><path
     d="m 230.25601,-100.54679 c -2.69174,-3.30317 -7.12119,-4.98073 -13.14526,-5.01353 l 0,39.621677 c 6.02954,-0.06196 13.23638,-4.069509 14.47837,-10.532794 0.28795,-1.534495 0.51212,-5.723374 0.93583,-7.280649 1.39326,-5.068207 1.52994,-12.150214 -2.26894,-16.794704"
     id="path2680"
     style="fill:#ecc99e;fill-opacity:1;fill-rule:nonzero;stroke:none" /><path
     d="m 220.19158,-72.144053 c 0,0 -1.38323,1.473443 -3.09176,1.473443 -1.70307,0 -3.00612,-1.443372 -3.00612,-1.443372 0,0 1.30305,-0.22416 3.00612,-0.22416 1.70853,0 3.09176,0.194089 3.09176,0.194089"
     id="path2682"
     style="fill:#be5467;fill-opacity:1;fill-rule:nonzero;stroke:none" /><path
     d="m 217.98005,-72.824734 c -0.48568,0 -0.86657,0.293413 -0.88023,0.668835 -0.004,-0.375422 -0.3891,-0.668835 -0.8684,-0.668835 -0.48568,0 -2.21791,0.680681 -2.21791,0.680681 0,0 1.69031,0.174955 2.17235,0.174955 0.48204,0 0.9094,0.193178 0.91396,-0.168576 0.011,0.361754 0.3572,0.219604 0.84287,0.219604 0.4793,0 2.24889,-0.225983 2.24889,-0.225983 0,0 -1.72676,-0.680681 -2.21153,-0.680681"
     id="path2684"
     style="fill:#cc596a;fill-opacity:1;fill-rule:nonzero;stroke:none" /><path
     d="m 199.17247,-98.81911 c 0.22416,-0.6652 0.45834,-1.28027 0.69344,-1.87529 0,-0.0857 0,-0.16858 0,-0.25424 0,-0.84652 0.36266,-1.54816 0.96498,-2.23066 -0.43466,-0.58592 -0.38454,-1.40602 0.14853,-1.92633 -0.25515,-0.0427 -0.50299,-0.15763 -0.69526,-0.36174 -0.46655,-0.48386 -0.44559,-1.25567 0.0456,-1.71765 l 0.41551,-0.39275 c -0.14397,-0.0784 -0.28248,-0.18041 -0.40823,-0.31436 -0.46654,-0.48568 -0.56222,-1.14449 -0.21596,-1.46889 l 0.19228,-0.18497 c -0.12758,-0.0565 -0.25606,-0.14124 -0.36723,-0.2597 -0.33624,-0.35447 -0.40823,-0.8356 -0.15764,-1.07343 l 3.00338,-2.8348 c 0.25059,-0.23509 0.72807,-0.14032 1.06613,0.21414 0.10935,0.11755 0.1868,0.24876 0.24056,0.37998 l 0.14398,-0.13487 c 0.34352,-0.32621 0.99961,-0.19408 1.4625,0.29251 0.12575,0.13304 0.22143,0.27609 0.29068,0.42554 l 0.1868,-0.1786 c 0.49024,-0.46381 1.26387,-0.44012 1.72677,0.0456 0.195,0.20593 0.29888,0.46289 0.32348,0.72533 0.59412,-0.46655 1.45795,-0.41917 1.99102,0.13941 0.13576,0.14397 0.23418,0.30891 0.30343,0.48113 1.08253,-0.6898 2.10036,-0.99323 3.51276,-0.94767 l 0.0218,0.0528 c 1.26022,-0.277 8.04425,-1.6402 12.07913,-0.13121 4.45952,1.67026 8.11351,4.54061 10.68861,12.24498 2.57967,7.702541 0.46108,14.01183 -0.0374,16.703574 -1.58097,8.525376 -11.65087,16.957807 -11.65087,16.957807 0,0 4.39026,-5.309679 5.24864,-7.581351 0.66336,-1.76139 1.65751,-4.786641 1.65751,-9.241596 0,-3.763339 -1.80422,-5.182109 -2.36645,-5.534751 0.0984,0.297969 0.23966,1.047903 0.42646,2.826605 0.39638,3.8089 -1.70034,6.752142 -1.70034,6.752142 0,0 2.65438,-4.944282 -1.58643,-8.6329 -1.35135,-1.174563 -2.47853,-2.400155 -3.38792,-3.517311 l 0.003,0.0073 c 1.0634,2.916816 -1.3723,9.712696 -1.3723,9.712696 0,0 0.33534,-8.086168 -1.87619,-9.356409 -5.39261,-3.097238 -6.24825,-4.374765 -7.01094,-6.866952 -0.10388,-0.339886 -0.15946,-0.652436 -0.20228,-0.955876 l -4.92516,7.20502 c -0.23235,0.314372 -0.60778,0.84379 -1.04516,1.526294 -1.27935,1.999217 -3.04621,5.273232 -3.04621,8.119883 0,4.454045 0.67977,6.071461 0.67977,6.071461 0,0 -2.2899,-0.03193 -5.42176,-6.206321 -1.242,-2.443893 -2.61703,-9.000123 -0.0428,-16.703577"
     id="path2686"
     style="fill:#242c3c;fill-opacity:1;fill-rule:nonzero;stroke:none" /><path
     d="m -146.21544,142.06695 c -1.2674,2.76885 -2.98556,5.53586 -2.72213,8.14959 0.94153,9.15376 -0.71419,26.33438 3.28412,27.46441 0.76493,0.22138 -1.88598,-18.30685 -1.29277,-27.61769 -0.26831,-2.6068 1.13081,-4.07801 2.39235,-6.84532 -0.13171,-1.31033 -0.13171,-1.31033 -1.66157,-1.15099"
     id="path3548"
     style="fill:#251c19;fill-opacity:1;fill-rule:nonzero;stroke:none" /><path
     d="m -103.12096,142.06695 c 1.2674,2.76885 2.98556,5.53586 2.71725,8.14959 -0.94445,9.15376 0.713215,26.33438 -3.27924,27.46441 -0.76492,0.22138 1.88305,-18.30685 1.28691,-27.61769 0.27417,-2.6068 -1.12495,-4.07801 -2.3943,-6.84532 0.13367,-1.31033 0.13367,-1.31033 1.66938,-1.15099"
     id="path3550"
     style="fill:#251c19;fill-opacity:1;fill-rule:nonzero;stroke:none" /><path
     d="m -145.82712,138.42456 c -1.32399,2.62866 -3.02556,5.19741 -3.02556,7.82978 0,9.19688 -2.91043,26.12558 0.38246,27.65768 0.63126,0.29349 0,-18.40743 1.31911,-27.60276 0,-2.62865 1.32399,-3.94005 2.6392,-6.5732 0,-1.3115 0,-1.3115 -1.31521,-1.3115"
     id="path3552"
     style="fill:#402b1b;fill-opacity:1;fill-rule:nonzero;stroke:none" /><path
     d="m -102.6702,140.22273 c 1.31326,2.63549 3.019708,5.20726 3.019708,7.83582 0,9.19952 2.910431,26.12061 -0.382468,27.6573 -0.63906,0.28704 0,-18.40588 -1.32398,-27.60393 0,-2.62739 -1.31326,-3.94455 -2.63725,-6.57281 0,-1.31638 0,-1.31638 1.32399,-1.31638"
     id="path3554"
     style="fill:#402b1b;fill-opacity:1;fill-rule:nonzero;stroke:none" /><path
     d="m -106.88217,147.83102 c 1.31813,2.63549 3.02458,5.20804 3.02458,7.83553 0,9.19796 2.9114,26.11983 -0.38832,27.64969 -0.63321,0.29377 0,-18.39719 -1.31813,-27.59593 0,-2.62934 -1.31813,-3.94464 -2.63432,-6.57213 0,-1.31716 0,-1.31716 1.31619,-1.31716"
     id="path3556"
     style="fill:#402b1b;fill-opacity:1;fill-rule:nonzero;stroke:none" /><path
     d="m -146.65449,151.67429 c 1.32399,2.62935 3.02751,5.20727 3.02751,7.8366 0,9.19953 2.91141,26.1176 -0.38246,27.65047 -0.63614,0.29378 0,-18.39718 -1.32106,-27.59787 0,-2.62632 -1.32399,-3.94348 -2.63725,-6.57009 0,-1.31911 0,-1.31911 1.31326,-1.31911"
     id="path3558"
     style="fill:#402b1b;fill-opacity:1;fill-rule:nonzero;stroke:none" /><path
     d="m -104.03126,144.82097 c 1.32106,2.62974 3.02458,5.20151 3.02458,7.83778 0,9.19757 2.91141,26.11983 -0.39027,27.64851 -0.62833,0.29573 0,-18.39718 -1.31325,-27.59592 0,-2.63432 -1.32106,-3.94348 -2.63724,-6.57399 0,-1.31638 0,-1.31638 1.31618,-1.31638"
     id="path3560"
     style="fill:#36201a;fill-opacity:1;fill-rule:nonzero;stroke:none" /><path
     d="m -144.669,142.06695 c -1.26642,2.76885 -2.98458,5.53586 -2.71627,8.14959 0.94738,9.15376 -0.71614,26.33438 3.28704,27.46441 0.76493,0.22138 -1.8889,-18.30685 -1.30057,-27.61769 -0.26831,-2.6068 1.13568,-4.07801 2.40308,-6.84532 -0.13464,-1.31033 -0.13464,-1.31033 -1.67328,-1.15099"
     id="path3562"
     style="fill:#36201a;fill-opacity:1;fill-rule:nonzero;stroke:none" /><path
     d="m -140.53312,151.64795 c -1.27033,2.77579 -2.99434,5.53392 -2.72603,8.14765 0.94738,9.16186 -0.71029,26.33555 3.28802,27.46636 0.76492,0.22069 -1.88305,-18.29689 -1.2957,-27.61272 -0.26831,-2.61177 1.13081,-4.07606 2.39723,-6.85175 -0.13659,-1.30389 -0.13659,-1.30389 -1.66352,-1.14954"
     id="path3564"
     style="fill:#402b1b;fill-opacity:1;fill-rule:nonzero;stroke:none" /><path
     d="m -136.88606,151.92319 c -1.25862,2.77189 -2.98458,5.53577 -2.71334,8.14765 0.94445,9.15298 -0.7142,26.33437 3.28704,27.46518 0.762,0.21953 -1.89476,-18.30537 -1.2957,-27.61232 -0.27709,-2.61373 1.12496,-4.07841 2.39138,-6.85225 -0.13074,-1.30456 -0.13074,-1.30456 -1.66938,-1.14826"
     id="path3566"
     style="fill:#36201a;fill-opacity:1;fill-rule:nonzero;stroke:none" /><path
     d="m -106.11725,150.14444 c -1.2674,2.767 -2.98556,5.53509 -2.71725,8.14764 0.94446,9.15494 -0.71321,26.33673 3.27631,27.46441 0.76785,0.21465 -1.88402,-18.30372 -1.28398,-27.6172 -0.27417,-2.61411 1.12397,-4.0784 2.3943,-6.84766 -0.13465,-1.30915 -0.13465,-1.30915 -1.66938,-1.14719"
     id="path3568"
     style="fill:#402b1b;fill-opacity:1;fill-rule:nonzero;stroke:none" /><path
     d="m -138.8296,147.70906 c -1.26642,2.76886 -2.98458,5.53695 -2.71627,8.14882 0.94445,9.15376 -0.72005,26.33555 3.28704,27.46821 0.76493,0.21953 -1.89475,-18.30947 -1.30057,-27.61954 -0.26831,-2.60689 1.13276,-4.07801 2.39918,-6.84493 -0.13367,-1.31257 -0.13367,-1.31257 -1.66938,-1.15256"
     id="path3570"
     style="fill:#251c19;fill-opacity:1;fill-rule:nonzero;stroke:none" /><path
     d="m -109.83358,152.84393 c -1.26935,2.77608 -2.98751,5.54192 -2.7192,8.14999 0.94737,9.15942 -0.71127,26.33438 3.28704,27.47007 0.76492,0.21464 -1.88598,-18.30372 -1.29277,-27.61837 -0.27611,-2.61295 1.12398,-4.07724 2.3943,-6.8503 -0.13367,-1.30418 -0.13367,-1.30418 -1.66937,-1.15139"
     id="path3572"
     style="fill:#402b1b;fill-opacity:1;fill-rule:nonzero;stroke:none" /><path
     d="m -108.66863,151.64795 c -1.2674,2.77579 -2.99141,5.53392 -2.71725,8.14765 0.94152,9.16186 -0.71614,26.33555 3.28216,27.46636 0.76493,0.22069 -1.88695,-18.29689 -1.29569,-27.61272 -0.26831,-2.61177 1.13276,-4.07606 2.3943,-6.85175 -0.13464,-1.30389 -0.13464,-1.30389 -1.66352,-1.14954"
     id="path3574"
     style="fill:#402b1b;fill-opacity:1;fill-rule:nonzero;stroke:none" /><path
     d="m -112.56742,154.24226 c -1.25862,2.77384 -2.98263,5.53587 -2.70847,8.15068 0.9386,9.15952 -0.71614,26.33253 3.28217,27.46826 0.762,0.21457 -1.88695,-18.30874 -1.29862,-27.61529 -0.26539,-2.61608 1.13568,-4.07842 2.40308,-6.85342 -0.13952,-1.30341 -0.13952,-1.30341 -1.67816,-1.15023"
     id="path3576"
     style="fill:#402b1b;fill-opacity:1;fill-rule:nonzero;stroke:none" /><path
     d="m -133.09264,154.24226 c -1.27033,2.77384 -2.98849,5.53587 -2.71725,8.15068 0.94445,9.15952 -0.71322,26.33253 3.28509,27.46826 0.76493,0.21457 -1.89281,-18.30874 -1.29277,-27.61529 -0.26831,-2.61608 1.12983,-4.07842 2.3943,-6.85342 -0.13464,-1.30341 -0.13464,-1.30341 -1.66937,-1.15023"
     id="path3578"
     style="fill:#251c19;fill-opacity:1;fill-rule:nonzero;stroke:none" /><path
     d="m -131.94525,153.42055 c -1.27033,2.77384 -2.98849,5.53431 -2.71725,8.14883 0.94152,9.16176 -0.71322,26.33252 3.27924,27.46254 0.762,0.21953 -1.88695,-18.29503 -1.2957,-27.60968 -0.26831,-2.6149 1.13276,-4.07841 2.40016,-6.85215 -0.13172,-1.30272 -0.13172,-1.30272 -1.66645,-1.14954"
     id="path3580"
     style="fill:#36201a;fill-opacity:1;fill-rule:nonzero;stroke:none" /><path
     d="m -129.73926,153.42055 c -1.27032,2.77384 -2.98555,5.53431 -2.72602,8.14883 0.95323,9.16176 -0.70151,26.33252 3.28801,27.46254 0.76493,0.21953 -1.88402,-18.29503 -1.29569,-27.60968 -0.26831,-2.6149 1.13568,-4.07841 2.40308,-6.85215 -0.13464,-1.30272 -0.13464,-1.30272 -1.66938,-1.14954"
     id="path3582"
     style="fill:#402b1b;fill-opacity:1;fill-rule:nonzero;stroke:none" /><path
     d="m -116.79111,153.42055 c -1.27032,2.77384 -2.98555,5.53431 -2.71724,8.14883 0.94445,9.16176 -0.71322,26.33252 3.27923,27.46254 0.77371,0.21953 -1.88402,-18.29503 -1.29569,-27.60968 -0.26831,-2.6149 1.13568,-4.07841 2.40308,-6.85215 -0.13367,-1.30272 -0.13367,-1.30272 -1.66938,-1.14954"
     id="path3584"
     style="fill:#251c19;fill-opacity:1;fill-rule:nonzero;stroke:none" /><path
     d="m -114.57145,153.42055 c -1.26057,2.77384 -2.98458,5.53431 -2.71042,8.14883 0.9386,9.16176 -0.71712,26.33252 3.28119,27.46254 0.7659,0.21953 -1.88598,-18.29503 -1.29472,-27.60968 -0.26831,-2.6149 1.13276,-4.07841 2.40016,-6.85215 -0.1405,-1.30272 -0.1405,-1.30272 -1.67621,-1.14954"
     id="path3586"
     style="fill:#402b1b;fill-opacity:1;fill-rule:nonzero;stroke:none" /><path
     d="m -104.2625,146.76657 c -1.25861,2.77568 -2.98555,5.53616 -2.70846,8.14988 0.9386,9.15386 -0.71614,26.33448 3.27923,27.46412 0.76493,0.2206 -1.88402,-18.30148 -1.29276,-27.61047 -0.27124,-2.61372 1.13275,-4.07909 2.40015,-6.85215 -0.1405,-1.30272 -0.1405,-1.30272 -1.67816,-1.15138"
     id="path3588"
     style="fill:#36201a;fill-opacity:1;fill-rule:nonzero;stroke:none" /><path
     d="m -143.54697,146.7971 c 0.98445,7.88617 -1.38156,14.36942 -2.95922,22.34749 -0.90542,4.54674 0,11.82623 3.94367,13.13646 -2.95629,-5.25605 -2.95629,-10.50907 -0.98445,-15.7697 1.97183,-5.25488 0,-11.82808 1.97183,-18.39943 0,-1.31482 -0.98738,-1.31482 -1.97183,-1.31482"
     id="path3590"
     style="fill:#251c19;fill-opacity:1;fill-rule:nonzero;stroke:none" /><path
     d="m -107.41294,149.35512 c 0.98738,7.88812 -1.51912,14.3463 -2.96019,22.35061 -1.0469,5.79647 0,11.82428 3.94757,13.14261 -2.96019,-5.26298 -2.96019,-10.516 -0.98738,-15.76892 1.97769,-5.26298 0,-11.83618 1.97769,-18.40636 0,-1.31794 -0.99031,-1.31794 -1.97769,-1.31794"
     id="path3592"
     style="fill:#251c19;fill-opacity:1;fill-rule:nonzero;stroke:none" /><path
     d="m -112.34497,155.13871 c 0.98739,7.88958 -1.54644,14.3378 -2.95628,22.34096 -0.70541,3.95762 0,11.82738 3.94367,13.14264 -2.95922,-5.25296 -2.95922,-10.51516 -0.98739,-15.76818 1.97184,-5.25566 0,-11.82584 1.97184,-18.40704 0,-1.30838 -0.98445,-1.30838 -1.97184,-1.30838"
     id="path3594"
     style="fill:#36201a;fill-opacity:1;fill-rule:nonzero;stroke:none" /><path
     d="m -104.18835,140.22956 c -0.98445,7.88236 1.524,14.34053 2.95922,22.34407 0.81371,4.53005 0,11.82701 -3.94367,13.14222 2.95922,-5.2618 2.95922,-10.51473 0.98445,-15.77078 -1.96988,-5.2618 0,-11.83315 -1.96988,-18.40596 0,-1.30955 0.98543,-1.30955 1.96988,-1.30955"
     id="path3596"
     style="fill:#251c19;fill-opacity:1;fill-rule:nonzero;stroke:none" /><path
     d="m -137.65684,153.45294 c -0.98445,7.88169 1.09958,14.42816 2.96605,22.34184 1.06153,4.51853 0,11.82622 -3.9505,13.14338 2.96604,-5.26102 2.96604,-10.51482 0.98445,-15.77087 -1.97183,-5.26063 0,-11.83266 -1.97183,-18.40285 0,-1.3115 0.98738,-1.3115 1.97183,-1.3115"
     id="path3598"
     style="fill:#402b1b;fill-opacity:1;fill-rule:nonzero;stroke:none" /><path
     d="m -124.77699,164.32301 0,34.46941 -18.80121,0 c -0.30245,-0.12577 -0.46539,-0.19399 -0.46539,-0.19399 0,-18.49128 11.51293,-19.86864 11.51293,-19.86864 1.15325,0 1.88598,-1.47043 2.37382,-3.70257 0.0829,-0.34842 0.14927,-0.70093 0.20294,-1.08436 0.10537,-0.62619 0.19416,-1.29658 0.25953,-1.99701 0.0429,-0.41466 0.0829,-0.83625 0.12293,-1.27336 0.16586,-2.11525 0.21953,-4.41687 0.21953,-6.5934 0,0 2.53772,0.24392 4.57492,0.24392"
     id="path3600"
     style="fill:#dab58d;fill-opacity:1;fill-rule:nonzero;stroke:none" /><path
     d="m -105.43525,198.59843 c 0,0 -0.17465,0.0682 -0.44784,0.20161 l -18.8939,0 0,-34.47703 0.04,0 c 2.04988,0 4.58956,-0.24392 4.58956,-0.24392 0,2.16473 0.0566,4.43619 0.22831,6.54384 0.04,0.42149 0.08,0.84191 0.12001,1.24896 0.0742,0.72376 0.15415,1.40478 0.26245,2.04579 l 0,0.0126 c 0.04,0.28704 0.0966,0.55535 0.1483,0.81673 0.48199,2.38055 1.24691,3.9828 2.43431,3.9828 0,0 11.51879,1.37735 11.51879,19.86863"
     id="path3602"
     style="fill:#ecc99e;fill-opacity:1;fill-rule:nonzero;stroke:none" /><g
     transform="matrix(0.09756726,0,0,-0.09756726,-516.48611,199.01884)"
     id="g3604"><g
       clip-path="url(#clipPath3608)"
       id="g3606"><path
         d="m 4068.47,257.27 0,-0.129 c -4.74,-7.539 -21.12,-28.969 -53.41,-28.969 l -0.3,0 c -30.65,0.117 -48.43,22.379 -53.06,28.84 1.08,6.418 1.99,13.289 2.66,20.468 0.44,4.25 0.85,8.571 1.26,13.051 14.98,-3.812 31.18,-6.051 48.62,-6.34 l 0.52,0 c 17.9,0.289 34.4,2.661 49.79,6.848 0.41,-4.32 0.82,-8.629 1.23,-12.801 0.76,-7.418 1.58,-14.398 2.69,-20.968"
         id="path3612"
         style="fill:#ba9074;fill-opacity:1;fill-rule:nonzero;stroke:none" /></g></g><path
     d="m -107.94468,185.82167 c -1.24984,0.45963 -3.03629,0.99742 -5.42767,1.44907 -0.3249,-0.47721 -1.11031,-2.02647 -1.23325,-5.99922 -0.0254,-0.75049 -0.04,-1.35267 -0.0254,-1.81494 l -0.0371,-0.0118 0.0117,-0.1845 -1.64401,-0.66999 c 0,0 -1.83817,3.24908 0.70248,9.04253 -0.65955,0.0914 -1.34155,0.18137 -2.07233,0.25455 -1.51229,0.15894 -4.15246,0.2527 -6.98093,0.28012 -2.83141,-0.0274 -5.46767,-0.12118 -6.98094,-0.28012 -0.74737,-0.075 -1.44107,-0.16694 -2.11136,-0.26255 2.40894,-5.66583 0.6137,-8.83677 0.6137,-8.83677 l -1.64401,0.66853 c 0.0137,0.46228 0,1.06446 -0.0205,1.81495 -0.12587,3.92894 -0.89567,5.48503 -1.22935,5.98243 -2.34357,-0.44588 -4.0988,-0.9783 -5.334,-1.43229 -1.57279,2.94 -2.71725,7.09348 -2.71725,12.94256 0,0 0.16001,0.0526 0.46247,0.20199 l 37.91951,0 c 0.30246,-0.14939 0.46539,-0.20199 0.46539,-0.20199 0,-5.84908 -1.14738,-10.00256 -2.71724,-12.94256"
     id="path3614"
     style="fill:#464548;fill-opacity:1;fill-rule:nonzero;stroke:none" /><path
     d="m -124.71357,124.78651 c -19.92616,0 -20.04031,16.61961 -19.15635,27.4888 -1.35814,-2.57373 -5.40523,-1.7768 -5.07935,2.28024 0.3249,3.91831 6.03258,5.936 5.95355,5.48318 1.63816,8.95073 11.00754,14.1256 18.28215,14.1256 l 0.14538,-0.0133 0,-49.36445 -0.14538,0"
     id="path3616"
     style="fill:#cb9c7a;fill-opacity:1;fill-rule:nonzero;stroke:none" /><path
     d="m -147.67114,152.84393 c 0.98543,-1.57054 2.50065,-0.89372 2.87726,-0.54608 0.39612,0.37455 0.71321,0.87429 0.46247,1.79699 -0.13465,0.52208 -0.69078,0.56208 -0.55126,1.35638 0.1483,0.88874 0.56199,0.95128 0.79322,1.151 0.23416,0.20694 0.52784,0.35446 0.67712,0.73478 0.14245,0.37583 0.16196,0.77556 0.0878,1.11705 -0.15416,0.64111 -1.09275,0.13308 -1.71816,-0.15279 -0.41661,-0.1887 -1.73182,-1.29091 -2.06647,-1.66548 -0.8303,-0.94367 -1.22057,-2.74681 -0.56199,-3.79185"
     id="path3618"
     style="fill:#ba9074;fill-opacity:1;fill-rule:nonzero;stroke:none" /><path
     d="m -124.62283,124.78651 c 19.92616,0 20.04031,16.61961 19.15636,27.4888 1.36106,-2.57373 5.40522,-1.7768 5.06764,2.28024 -0.31319,3.91831 -6.02673,5.936 -5.94672,5.48318 -1.63328,8.95073 -11.00462,14.1256 -18.27728,14.1256 l -0.15416,-0.0133 0,-49.36445 0.15416,0"
     id="path3620"
     style="fill:#d8ad8c;fill-opacity:1;fill-rule:nonzero;stroke:none" /><path
     d="m -101.66526,152.84393 c -0.98543,-1.57054 -2.5065,-0.89372 -2.87725,-0.54608 -0.39613,0.37455 -0.71322,0.87429 -0.46833,1.79699 0.13757,0.52208 0.69078,0.56208 0.55711,1.35638 -0.15123,0.88874 -0.55711,0.95128 -0.802,1.151 -0.22538,0.20694 -0.52198,0.35446 -0.66833,0.73478 -0.14245,0.37583 -0.16782,0.77556 -0.0878,1.11705 0.15415,0.64111 1.08689,0.13308 1.71815,-0.15279 0.41369,-0.1887 1.73182,-1.29091 2.06062,-1.66548 0.83615,-0.94367 1.22642,-2.74681 0.56784,-3.79185"
     id="path3622"
     style="fill:#ba9074;fill-opacity:1;fill-rule:nonzero;stroke:none" /><path
     d="m -124.89114,129.47199 c -6.55262,0 -11.35292,1.89387 -14.25262,5.64524 -4.06075,5.22551 -3.90367,13.21655 -2.40796,18.94366 0.45661,1.75884 0.6898,6.47759 1.00396,8.21702 1.4157,7.75464 10.00357,11.88642 15.65662,11.88642 l 0.14928,-0.007 0,-44.68581 -0.14928,0"
     id="path3624"
     style="fill:#dab58d;fill-opacity:1;fill-rule:nonzero;stroke:none" /><path
     d="m -110.66681,135.12289 c -2.87921,-3.72503 -7.62,-5.61695 -14.07505,-5.6509 l 0,44.67897 c 6.4609,-0.0656 14.17457,-4.59249 15.50246,-11.87305 0.31612,-1.73943 0.55321,-6.45818 1.00689,-8.21702 1.48986,-5.71569 1.63523,-13.69064 -2.4343,-18.938"
     id="path3626"
     style="fill:#ecc99e;fill-opacity:1;fill-rule:nonzero;stroke:none" /><path
     d="m -121.43726,166.62072 c 0,0 -1.47814,1.57562 -3.30753,1.57562 -1.82451,0 -3.22264,-1.54245 -3.22264,-1.54245 0,0 1.39813,-0.23435 3.22264,-0.23435 1.82939,0 3.30753,0.20118 3.30753,0.20118"
     id="path3628"
     style="fill:#be5467;fill-opacity:1;fill-rule:nonzero;stroke:none" /><path
     d="m -123.80619,165.89092 c -0.51711,0 -0.92494,0.32207 -0.9386,0.71614 -0.005,-0.39407 -0.42051,-0.71614 -0.93372,-0.71614 -0.51613,0 -2.37478,0.7298 -2.37478,0.7298 0,0 1.8128,0.19407 2.32893,0.19407 0.5171,0 0.97372,0.20079 0.97957,-0.18148 0.0137,0.38227 0.38247,0.23514 0.8986,0.23514 0.51613,0 2.40893,-0.24773 2.40893,-0.24773 0,0 -1.8528,-0.7298 -2.36893,-0.7298"
     id="path3630"
     style="fill:#cc596a;fill-opacity:1;fill-rule:nonzero;stroke:none" /><path
     d="m -102.22237,139.62669 c -0.78444,-2.25097 -1.14739,-3.15347 -1.24105,-5.01906 -0.1005,-1.85836 -1.30155,-3.59018 -2.8714,-5.28882 -0.88396,-0.9505 -2.82262,-3.00244 -6.41212,-4.47053 -2.80311,-1.1514 -7.29218,-2.51431 -11.82125,-2.64993 l 0,-0.005 -0.0888,0.005 -0.0849,-0.005 0,0.005 c -4.52127,0.13562 -9.01034,1.49853 -11.82125,2.64993 -3.58169,1.46809 -5.52523,3.52003 -6.40431,4.47053 -1.57864,1.69864 -2.77384,3.43046 -2.87434,5.28882 -0.0995,1.86559 -0.46246,2.76809 -1.24691,5.01906 -0.78444,2.26151 1.16691,3.0638 0.77079,4.82762 -0.38832,1.765 0,6.36432 0,6.36432 0.28197,-0.12762 3.88708,-2.40601 4.68322,-3.18157 2.83628,-2.76926 6.0443,-6.74014 16.97768,-6.90591 10.66215,0.16079 14.30434,5.79072 17.24404,8.62397 0.91908,0.89567 4.11733,1.32409 4.42272,1.46351 0,0 0.39417,-4.59932 0,-6.36432 -0.39027,-1.76382 1.55815,-2.56611 0.76785,-4.82762"
     id="path3632"
     style="fill:#f1f0ce;fill-opacity:1;fill-rule:nonzero;stroke:none" /></svg>