<?xml version="1.0" encoding="UTF-8" standalone="no"?>
<!-- Created with Inkscape (http://www.inkscape.org/) -->

<svg
   xmlns:dc="http://purl.org/dc/elements/1.1/"
   xmlns:cc="http://creativecommons.org/ns#"
   xmlns:rdf="http://www.w3.org/1999/02/22-rdf-syntax-ns#"
   xmlns:svg="http://www.w3.org/2000/svg"
   xmlns="http://www.w3.org/2000/svg"
   version="1.0"
   width="110"
   height="110"
   viewBox="0 0 110 110"
   id="svg2"
   xml:space="preserve"><metadata
     id="metadata44"><rdf:RDF><cc:Work
         rdf:about=""><dc:format>image/svg+xml</dc:format><dc:type
           rdf:resource="http://purl.org/dc/dcmitype/StillImage" /><dc:title></dc:title></cc:Work></rdf:RDF></metadata><defs
     id="defs42"><clipPath
       id="clipPath3608"><path
         d="m 3961.7,228.172 106.77,0 0,62.8672 -106.77,0 0,-62.8672 z"
         id="path3610" /></clipPath><clipPath
       id="clipPath2658"><path
         d="m 3949.91,1116.36 103.461,0 0,62.9023 -103.461,0 0,-62.9023 z"
         id="path2660" /></clipPath></defs><circle
     cx="55"
     cy="55"
     r="55"
     transform="translate(-180.92346,106.43755)"
     id="circle6-0"
     style="fill:#fabc3d" /><circle
     cx="55"
     cy="55"
     r="55"
     transform="translate(-0.12197335,0.10309854)"
     id="circle6-98"
     style="fill:#fabc3d" /><g
     id="Artboard" /><path
     d="m 518.42345,35.419379 c -1.01375,3.3775 -2.1725,7.24 -4.34,11.10125 -2.17625,3.85875 -8.7725,8.8275 -9.00625,14.125 -0.49,11.36 15.66375,16.76 22.18,18.6925 6.515,1.92625 8.6875,2.1225 9.41125,4.9225 0.72375,2.79625 0.13125,7.4725 0.13125,7.4725 0,0 5.485,-2.995 7.035,-5.28125 3.3275,-4.92 -0.31375,-8.27 -0.31375,-8.27 0,0 -1.35,1.15625 0.24125,3.7625 1.59375,2.605 1.59375,4.925 1.01625,5.6 -0.57875,0.6775 -2.6075,2.7975 -2.6075,2.7975 0,0 10.06625,-2.84375 8.10625,-11.00375 -0.3325,-1.39875 -1.25,-0.37625 0,0 2.80125,0.8325 2.27375,5.4375 2.27375,5.4375 0,0 6.83,-8.80875 -7.00125,-13.7925 -1.31625,-0.47875 -8.435,-2.2325 -9.17375,-8.10375 -0.41,-3.255 1.98125,-3.5375 2.41625,-7.51375 0.5675,-5.1475 -6.83,-4.0625 -9.675,-8.90875 -0.53625,-0.92625 2.14,-1.4475 0,-3.95375 -2.5775,-3.0275 -3.5275,-2.78625 -7.22125,-4.575 -3.68875,-1.78625 -3.4725,-2.50875 -3.4725,-2.50875"
     id="path200"
     style="fill:#35221b;fill-opacity:1;fill-rule:nonzero;stroke:none" /><path
     d="m 515.68845,48.114379 0,43.925 -23.96375,0 c -0.3875,-0.1825 -0.58875,-0.25 -0.58875,-0.25 0,-6.5325 1.1225,-11.40625 2.7525,-15.0075 2.69125,-5.9425 6.7425,-8.4875 9.36375,-9.5625 1.51,-0.63625 2.5525,-0.7525 2.5525,-0.7525 l 0.12125,0 0.31375,-0.0675 c 1.21375,-0.35125 2.03625,-2.10875 2.58875,-4.65375 0.1025,-0.45125 0.19,-0.88875 0.25625,-1.3725 0.13125,-0.805 0.24875,-1.6575 0.33625,-2.56375 0.0475,-0.5175 0.095,-1.05 0.14625,-1.60625 0.2225,-2.715 0.28875,-5.6475 0.28875,-8.40875 0,0 3.22875,0.32 5.8325,0.32"
     id="path202"
     style="fill:#dab58d;fill-opacity:1;fill-rule:nonzero;stroke:none" /><path
     d="m 540.3247,91.789379 c 0,0 -0.22,0.0675 -0.57375,0.25 l -24.0625,0 0,-43.925 0.0512,0 c 2.6025,0 5.8425,-0.32 5.8425,-0.32 0,2.76125 0.0687,5.665 0.28875,8.3425 0.0475,0.5325 0.1025,1.06875 0.15,1.58875 0.1025,0.92 0.205,1.79125 0.33625,2.595 l 0,0.0362 c 0.0512,0.365 0.1175,0.7 0.1825,1.03625 0.505,2.4625 1.2475,4.2725 2.32625,4.87375 l 0.24875,0.1 c 0.1675,0.0675 0.35375,0.1 0.53625,0.1 0,0 7.4125,0.89 11.6975,9.8475 1.7475,3.65125 2.97625,8.6375 2.97625,15.475"
     id="path204"
     style="fill:#ecc99e;fill-opacity:1;fill-rule:nonzero;stroke:none" /><path
     d="m 509.08595,60.366879 c -0.001,0 -0.001,-10e-4 -0.001,-10e-4 0.0788,-0.475 0.15125,-0.97 0.21625,-1.48 -0.065,0.51125 -0.1375,1.005 -0.215,1.48125 m 12.975,-2.2875 c -0.0138,-0.1175 -0.0275,-0.235 -0.04,-0.35375 -0.0475,-0.52 -0.1025,-1.05625 -0.15,-1.58875 0,-0.001 0,-0.002 0,-0.004 l 0,0 c 0.0475,0.53625 0.1025,1.0725 0.15,1.59125 0.0125,0.11875 0.0263,0.2375 0.04,0.355 m -12.6275,-0.40375 c 0.0412,-0.48625 0.0875,-0.975 0.13375,-1.47625 l 0,0 c 0,10e-4 0,0.002 0,0.004 -0.0462,0.50875 -0.09,0.99625 -0.13375,1.4725"
     id="path206"
     style="fill:#927158;fill-opacity:1;fill-rule:nonzero;stroke:none" /><path
     d="m 515.68845,63.953129 c -3.815,-0.015 -6.03125,-2.7775 -6.6025,-3.58625 0.0775,-0.47625 0.15,-0.97 0.215,-1.48125 0.0437,-0.34875 0.085,-0.7025 0.12,-1.06375 0.004,-0.0487 0.009,-0.0975 0.0125,-0.14625 0.0437,-0.47625 0.0875,-0.96375 0.13375,-1.4725 0,-10e-4 0,-0.002 0,-0.004 1.865,0.47 3.88375,0.75625 6.05125,0.78625 l 0.07,0 0,6.9675"
     id="path208"
     style="fill:#c49a7b;fill-opacity:1;fill-rule:nonzero;stroke:none" /><path
     d="m 515.7172,63.953129 -0.0288,0 0,-6.9675 c 2.215,-0.03 4.2625,-0.3325 6.1825,-0.8525 0,0.001 0,0.002 0,0.004 0.0475,0.5325 0.1025,1.06875 0.15,1.58875 0.0125,0.11875 0.0263,0.23625 0.04,0.35375 0.0888,0.79 0.17875,1.54 0.29625,2.255 l 0,0.0187 c -0.58875,0.93625 -2.61875,3.6 -6.64,3.6"
     id="path210"
     style="fill:#c8a180;fill-opacity:1;fill-rule:nonzero;stroke:none" /><path
     d="m 515.66595,0.90312924 c -25.00875,-0.0425 -25.15625,19.98374976 -24.04,33.04374976 -1.715,-3.0625 -6.79,-1.925 -6.37375,2.98125 0.39875,4.7 7.56875,6.8325 7.46625,6.31375 2.0475,10.63875 13.83625,16.54375 22.9475,17.3875 l 0.1975,0.009 c 0,-19.90875 0,-39.81875 0,-59.73124976 l -0.1975,-0.004"
     id="path212"
     style="fill:#cb9c7a;fill-opacity:1;fill-rule:nonzero;stroke:none" /><path
     d="m 486.5072,34.854379 c 1.2575,-1.89875 3.19125,-1.0825 3.6675,-0.66 0.50375,0.455 0.90625,1.05375 0.59125,2.1775 -0.175,0.63125 -0.8775,0.68 -0.70125,1.63875 0.18625,1.0775 0.71625,1.14625 1.0125,1.39375 0.2925,0.24 0.66875,0.4325 0.85875,0.88375 0.17625,0.4575 0.2125,0.94125 0.11,1.35625 -0.1975,0.78 -1.38875,0.15875 -2.19375,-0.18375 -0.5225,-0.22875 -2.20125,-1.565 -2.62125,-2.02375 -1.0675,-1.13 -1.56125,-3.32125 -0.72375,-4.5825"
     id="path214"
     style="fill:#ba9074;fill-opacity:1;fill-rule:nonzero;stroke:none" /><path
     d="m 515.79095,0.90312924 c 25.00875,-0.0425 25.155,19.98374976 24.04375,33.04374976 1.715,-3.0625 6.78625,-1.925 6.3725,2.98125 -0.39875,4.7 -7.56875,6.8325 -7.46625,6.31375 -2.0475,10.63875 -13.83125,16.54375 -22.95,17.3875 l -0.18625,0.009 c 0,-19.90875 0,-39.81875 0,-59.73124976 l 0.18625,-0.004"
     id="path216"
     style="fill:#d8ad8c;fill-opacity:1;fill-rule:nonzero;stroke:none" /><path
     d="m 545.12845,34.854379 c -1.25375,-1.89875 -3.19125,-1.0825 -3.66625,-0.66 -0.50875,0.455 -0.90375,1.05375 -0.5925,2.1775 0.17125,0.63125 0.8775,0.68 0.705,1.63875 -0.18625,1.0775 -0.7125,1.14625 -1.01625,1.39375 -0.2925,0.24 -0.66875,0.4325 -0.855,0.88375 -0.17625,0.4575 -0.2125,0.94125 -0.11,1.35625 0.19,0.78 1.385,0.15875 2.18625,-0.18375 0.53,-0.22875 2.20125,-1.565 2.625,-2.02375 1.0675,-1.13 1.55875,-3.32125 0.72375,-4.5825"
     id="path218"
     style="fill:#ba9074;fill-opacity:1;fill-rule:nonzero;stroke:none" /><path
     d="m 515.5347,6.5743792 c -8.35125,0 -14.465,2.2975 -18.165,6.8274998 -5.16625,6.3275 -4.9725,15.99125 -3.06,22.92875 0.5775,2.12125 0.8775,7.83625 1.2825,9.935 1.8,9.3825 12.73875,14.38 19.9425,14.38 l 0.19375,-0.007 0,-54.0549998 -0.19375,-0.009"
     id="path220"
     style="fill:#dab58d;fill-opacity:1;fill-rule:nonzero;stroke:none" /><path
     d="m 533.6622,13.409379 c -3.67,-4.5012498 -9.71375,-6.7949998 -17.93375,-6.8262498 l 0,54.0549998 c 8.22625,-0.0875 18.05875,-5.56125 19.7475,-14.3725 0.4025,-2.09875 0.7025,-7.81375 1.28375,-9.935 1.90125,-6.9175 2.0875,-16.57125 -3.0975,-22.92125"
     id="path222"
     style="fill:#ecc99e;fill-opacity:1;fill-rule:nonzero;stroke:none" /><path
     d="m 519.93345,52.164379 c 0,0 -1.8875,2.01125 -4.21625,2.01125 -2.325,0 -4.1025,-1.97125 -4.1025,-1.97125 0,0 1.7775,-0.3025 4.1025,-0.3025 2.32875,0 4.21625,0.2625 4.21625,0.2625"
     id="path224"
     style="fill:#be5467;fill-opacity:1;fill-rule:nonzero;stroke:none" /><path
     d="m 516.91595,51.234379 c -0.6575,0 -1.18375,0.41 -1.19875,0.9125 -0.007,-0.5025 -0.5375,-0.9125 -1.18875,-0.9125 -0.66125,0 -3.02375,0.93 -3.02375,0.93 0,0 2.30375,0.24 2.96625,0.24 0.65375,0 1.23875,0.25875 1.24625,-0.225 0.0113,0.48875 0.49,0.29875 1.14125,0.29875 0.665,0 3.075,-0.31375 3.075,-0.31375 0,0 -2.35875,-0.93 -3.0175,-0.93"
     id="path226"
     style="fill:#cc596a;fill-opacity:1;fill-rule:nonzero;stroke:none" /><path
     d="m 542.81845,14.646879 c -0.33,-1.03125 -0.66875,-1.99 -1.01625,-2.91125 0,-0.135 0,-0.26625 0,-0.3975 0,-3.8974998 -3.185,-8.9449998 -8.24875,-13.8499998 -5.0675,-4.905 -8.26,-3.89625 -12.4575,-3.755 l -0.0325,0.08 c -1.84375,-0.42625 -11.7525,-2.54625 -17.65,-0.1975 -6.5125,2.5975 -11.85,7.05750004 -15.61625,19.0362498 -3.76625,11.97125 -0.6725,21.78375 0.0588,25.9675 2.31125,13.255 13.4075,21.64625 13.4075,21.64625 0,0 -2.80375,-3.54125 -4.055,-7.07 -0.9725,-2.7375 -2.42,-7.4425 -2.42,-14.36625 0,-6.92625 6.32875,-15.505 6.32875,-15.505 0,0 -2.92125,5.38125 -3.495,11.29875 -0.58125,5.91625 2.47875,10.49125 2.47875,10.49125 0,0 -3.87625,-7.6825 2.32125,-13.4175 1.9675,-1.83 3.62,-3.7325 4.95125,-5.47125 l -0.004,0.0138 c -1.55375,4.53125 1.56875,8.34 1.56875,8.34 0,0 -0.0588,-5.81125 3.1775,-7.7875 7.87875,-4.8125 9.13,-6.805 10.24125,-10.6775 0.15,-0.53 0.23375,-1.01375 0.2925,-1.48875 l 7.2025,11.2025 c 0.3375,0.49125 0.88875,1.31375 1.52875,2.3775 1.865,3.1075 4.44625,8.19625 4.44625,12.62125 0,6.9275 -1.45125,11.62875 -2.42375,14.365 -1.25125,3.5325 -4.055,7.07125 -4.055,7.07125 0,0 11.1,-8.39125 13.41125,-21.64375 0.73125,-4.185 3.825,-13.995 0.0587,-25.9725"
     id="path228"
     style="fill:#50181a;fill-opacity:1;fill-rule:nonzero;stroke:none" /><path
     d="m 534.2547,69.040629 c -3.22875,-1.54125 -7.05625,-2.51 -6.85125,-2.0525 2.09125,2.92875 1.30875,5.385 0.965,9.58875 -0.53375,6.5375 -4.7975,4.94125 -12.72375,4.865 -7.9275,0.0763 -12.19125,1.6725 -12.725,-4.865 -0.3475,-4.20375 -1.12625,-6.66 0.96625,-9.58875 0.20375,-0.4575 -3.62,0.51125 -6.8525,2.0525 -3.22875,1.535 -5.8575,3.6375 -5.8575,3.6375 0,0 2.41625,0.795 3.4075,3.75875 0.505,1.4775 0.81125,4.1525 0.98,6.63 0.35125,5.02625 2.88125,7.28125 2.735,8.9725 l 34.69125,0 c -0.15,-1.69125 2.38375,-3.94625 2.735,-8.9725 0.1725,-2.4775 0.475,-5.1525 0.98,-6.63 0.99125,-2.96375 3.4075,-3.75875 3.4075,-3.75875 0,0 -2.62875,-2.1025 -5.8575,-3.6375"
     id="path230"
     style="fill:#fdf7f3;fill-opacity:1;fill-rule:nonzero;stroke:none" /><path
     d="m 512.16345,66.966879 c 0.3725,5.675 -2.11,12.1075 -2.66875,13.955 -0.7425,2.47625 -2.72875,5.32 -2.72875,5.32 0,0 2.14375,0.19375 2.46125,0.1825 0.31875,-0.0125 3.11875,0.7075 3.82875,-1.4175 0.7125,-2.13375 3.41875,-15.91125 3.19125,-16.26375 -0.2225,-0.355 -0.8775,-1.77625 -0.8775,-1.77625 l -3.20625,0"
     id="path232"
     style="fill:#cfced1;fill-opacity:1;fill-rule:nonzero;stroke:none" /><path
     d="m 508.4047,62.020629 c 1.54625,0.53 4.51125,1.575 7.41875,1.46625 2.90625,-0.1125 7.565,-1.05625 7.565,-1.05625 0,0 2.11375,2.45625 0.33625,3.4575 -1.7775,1.0075 -12.95125,2.515 -16.52,-0.18 -0.57,-0.42875 1.2,-3.6875 1.2,-3.6875"
     id="path234"
     style="fill:#3c3842;fill-opacity:1;fill-rule:nonzero;stroke:none" /><path
     d="m 513.61845,63.353129 c 0.285,-0.195 1.52125,0 2.42125,0 0.89875,0 1.2575,-0.275 2.02875,0 0.7675,0.2725 1.24625,2.42625 1.24625,2.75875 0,0.335 0.004,1.06 -0.3575,1.09875 -0.36625,0.0325 0.006,2.055 0.0587,2.9375 0.98625,15.3675 -1.3025,19.23625 -1.7775,19.5125 -0.475,0.27375 -8.48625,0.49625 -8.48625,0.49625 0,0 2.1825,-4.88375 3.02375,-7.56875 2.25625,-7.1875 2.54125,-14.99625 2.54125,-14.99625 0,0 -0.93625,0.29125 -0.93625,-0.53625 0,-0.83125 -0.53,-3.1775 0.2375,-3.7025"
     id="path236"
     style="fill:#3c3842;fill-opacity:1;fill-rule:nonzero;stroke:none" /><path
     d="m -103.16682,150.14444 c -0.3971,0.38149 -1.7406,0.39603 -2.99141,2.90155 -0.77273,1.53854 -1.36399,1.68606 -1.36399,1.68606 0,0 0.97373,-6.27172 0.97373,-8.01613 0,-1.73757 -5.57988,-14.64201 -8.68739,-15.68393 -3.12508,-1.0226 -5.92234,2.44679 -9.27767,2.44679 l -0.26344,0 c -3.27923,-0.0671 -6.19844,-3.45866 -9.26888,-2.44679 -3.11435,1.04192 -8.68739,13.94636 -8.68739,15.68393 0,1.74441 0.96982,8.01613 0.96982,8.01613 0,0 -0.9786,-0.409 -1.70938,-1.95896 -1.2674,-2.68124 -2.19429,-2.26658 -2.63725,-2.64728 -0.83029,-10.87075 1.76695,-25.43765 21.30772,-25.43765 l 0.10537,0 c 19.65199,0 22.3868,14.58514 21.53016,25.45628"
     id="path444"
     style="fill:#402b1b;fill-opacity:1;fill-rule:nonzero;stroke:none" /><path
     d="m 46.213881,48.460659 c -1.080458,2.38123 -2.592495,4.78762 -2.198138,6.93545 1.379244,7.5119 0.671011,21.85261 4.5844,22.51457 0.747468,0.12374 -2.766535,-15.02883 -2.67197,-22.77512 -0.397375,-2.14583 0.877244,-3.45767 1.959713,-5.84192 -0.197178,-1.06839 -0.197178,-1.06839 -1.674005,-0.83298"
     id="path1226"
     style="fill:#241c19;fill-opacity:1;fill-rule:nonzero;stroke:none" /><path
     d="m 45.934209,46.643799 c -1.062349,2.37319 -2.495917,4.69808 -2.286667,7.03304 0.74445,8.17486 -0.70622,23.27813 2.598531,24.55677 0.6358,0.24446 -1.477832,-16.34469 -0.947664,-24.55074 -0.215286,-2.33495 0.9537,-3.53211 2.013032,-5.90127 -0.103619,-1.16898 -0.103619,-1.16898 -1.377232,-1.1378"
     id="path1228"
     style="fill:#402b1b;fill-opacity:1;fill-rule:nonzero;stroke:none" /><path
     d="m 48.606179,46.643799 c -1.059331,2.37319 -2.498935,4.69808 -2.286667,7.03304 0.74445,8.17486 -0.703203,23.27813 2.598531,24.55677 0.6358,0.24446 -1.479844,-16.34469 -0.947664,-24.55074 -0.215286,-2.33495 0.9537,-3.53211 2.013032,-5.90127 -0.106638,-1.16898 -0.106638,-1.16898 -1.377232,-1.1378"
     id="path1230"
     style="fill:#402b1b;fill-opacity:1;fill-rule:nonzero;stroke:none" /><path
     d="m 49.73895,46.560299 c -1.06235,2.36413 -2.498936,4.69406 -2.286667,7.02901 0.741431,8.17084 -0.706221,23.27612 2.601549,24.55879 0.632782,0.24345 -1.483869,-16.34771 -0.9537,-24.55074 -0.212269,-2.33998 0.956718,-3.53613 2.018061,-5.90328 -0.105631,-1.17201 -0.105631,-1.17201 -1.379243,-1.13378"
     id="path1232"
     style="fill:#402b1b;fill-opacity:1;fill-rule:nonzero;stroke:none" /><path
     d="m 46.866783,50.128629 c -1.273612,2.26755 -2.922467,4.49688 -2.922467,6.76544 0,7.95253 -2.812811,22.58096 0.371219,23.90487 0.611656,0.25452 0,-15.90405 1.277636,-23.8596 0,-2.26957 1.273612,-3.40435 2.54823,-5.67693 0,-1.13378 0,-1.13378 -1.274618,-1.13378"
     id="path1234"
     style="fill:#241c19;fill-opacity:1;fill-rule:nonzero;stroke:none" /><path
     d="m 53.343493,50.128629 c -1.2716,2.26755 -2.919449,4.49688 -2.919449,6.76544 0,7.95253 -2.812811,22.58096 0.371219,23.90386 0.611656,0.25553 0,-15.90304 1.27663,-23.85859 0,-2.26957 1.2716,-3.40435 2.548231,-5.67693 0,-1.13378 0,-1.13378 -1.276631,-1.13378"
     id="path1236"
     style="fill:#241c19;fill-opacity:1;fill-rule:nonzero;stroke:none" /><path
     d="m 45.539852,47.606559 c -1.2716,2.19713 -2.919449,4.35 -2.919449,6.54713 0,7.68694 -2.812811,21.83148 0.371219,23.11314 0.608638,0.24245 0,-15.37791 1.27663,-23.06888 0,-2.20115 1.2716,-3.29469 2.542195,-5.49283 0,-1.09856 0,-1.09856 -1.270595,-1.09856"
     id="path1238"
     style="fill:#36201a;fill-opacity:1;fill-rule:nonzero;stroke:none" /><path
     d="m 65.320075,48.740329 c 1.07744,2.38224 2.595513,4.78862 2.198138,6.93646 -1.380249,7.50989 -0.667992,21.8516 -4.581382,22.51155 -0.753504,0.12575 2.760499,-15.0248 2.67197,-22.77211 0.394357,-2.14783 -0.883279,-3.45766 -1.965749,-5.84191 0.200196,-1.06939 0.200196,-1.06939 1.677023,-0.83399"
     id="path1240"
     style="fill:#241c19;fill-opacity:1;fill-rule:nonzero;stroke:none" /><path
     d="m 66.920641,47.439559 c 1.274619,2.34099 2.919449,4.62766 2.919449,6.96563 0,8.18391 2.81583,23.22984 -0.370212,24.59399 -0.612662,0.26157 0,-16.36481 -1.274618,-24.5457 0,-2.33898 -1.274619,-3.50696 -2.551249,-5.84594 0,-1.16798 0,-1.16798 1.27663,-1.16798"
     id="path1242"
     style="fill:#402b1b;fill-opacity:1;fill-rule:nonzero;stroke:none" /><path
     d="m 65.599747,46.924479 c 1.062349,2.36916 2.497929,4.69707 2.286667,7.03303 -0.741432,8.17185 0.706221,23.27713 -2.601549,24.55879 -0.632782,0.24245 1.482863,-16.3457 0.9537,-24.55275 0.211263,-2.33496 -0.956718,-3.53312 -2.019068,-5.90228 0.105632,-1.16597 0.105632,-1.16597 1.38025,-1.13679"
     id="path1244"
     style="fill:#402b1b;fill-opacity:1;fill-rule:nonzero;stroke:none" /><path
     d="m 62.927777,46.924479 c 1.062349,2.36916 2.498936,4.69707 2.286667,7.03303 -0.741432,8.17185 0.706221,23.27713 -2.601549,24.55879 -0.632782,0.24245 1.482863,-16.3457 0.9537,-24.55275 0.211263,-2.33496 -0.956718,-3.53312 -2.01605,-5.90228 0.102614,-1.16597 0.102614,-1.16597 1.377232,-1.13679"
     id="path1246"
     style="fill:#402b1b;fill-opacity:1;fill-rule:nonzero;stroke:none" /><path
     d="m 61.795007,46.839969 c 1.059331,2.36413 2.494911,4.69507 2.283648,7.03002 -0.741431,8.17285 0.706221,23.27712 -2.59853,24.55878 -0.632783,0.24245 1.479844,-16.34871 0.9537,-24.55174 0.208244,-2.33596 -0.956719,-3.53613 -2.019068,-5.90328 0.108649,-1.171 0.108649,-1.171 1.38025,-1.13378"
     id="path1248"
     style="fill:#402b1b;fill-opacity:1;fill-rule:nonzero;stroke:none" /><path
     d="m 64.667173,50.405279 c 1.273612,2.27259 2.919449,4.50191 2.919449,6.77248 0,7.94951 2.818848,22.57493 -0.371219,23.89985 -0.609644,0.25351 0,-15.90305 -1.274618,-23.85659 0,-2.26956 -1.273612,-3.40334 -2.551248,-5.67693 0,-1.13881 0,-1.13881 1.277636,-1.13881"
     id="path1250"
     style="fill:#241c19;fill-opacity:1;fill-rule:nonzero;stroke:none" /><path
     d="m 58.190463,50.405279 c 1.273612,2.27259 2.919449,4.50191 2.919449,6.77248 0,7.94951 2.81583,22.57493 -0.371219,23.89985 -0.609644,0.25351 0,-15.90406 -1.274618,-23.8576 0,-2.26855 -1.273612,-3.40233 -2.54823,-5.67592 0,-1.13881 0,-1.13881 1.274618,-1.13881"
     id="path1252"
     style="fill:#241c19;fill-opacity:1;fill-rule:nonzero;stroke:none" /><path
     d="m 65.991086,47.887229 c 1.277636,2.19613 2.925485,4.34698 2.925485,6.54412 0,7.69096 2.812811,21.8345 -0.374237,23.11515 -0.608638,0.24346 0,-15.37791 -1.273612,-23.06888 0,-2.19813 -1.277636,-3.29368 -2.549236,-5.49383 0,-1.09656 0,-1.09656 1.2716,-1.09656"
     id="path1254"
     style="fill:#36201a;fill-opacity:1;fill-rule:nonzero;stroke:none" /><path
     d="m 55.365579,58.883959 0,33.3282 -18.177644,0 c -0.293756,-0.13984 -0.44667,-0.20322 -0.44667,-0.20322 0,-0.9537 0.02616,-1.85207 0.08752,-2.70517 0.753504,-10.87097 6.002878,-14.61636 8.987718,-15.88796 1.209227,-0.50803 2.050254,-0.61065 2.050254,-0.61065 l 0.09155,0 0.241443,-0.0503 c 0.91849,-0.25552 1.542218,-1.60258 1.962731,-3.51903 0.07646,-0.34204 0.13883,-0.68509 0.191142,-1.04324 0.100602,-0.62372 0.191143,-1.26858 0.253516,-1.93959 0.04121,-0.39536 0.07943,-0.81386 0.114685,-1.23538 0.168004,-2.04422 0.217299,-4.2665 0.217299,-6.36001 0,0 2.445617,0.22635 4.426456,0.22635"
     id="path1256"
     style="fill:#dab58d;fill-opacity:1;fill-rule:nonzero;stroke:none" /><path
     d="m 74.048242,92.008939 c 0,0 -0.164986,0.0633 -0.432586,0.20322 l -18.250077,0 0,-33.3282 0.03517,0 c 1.973797,0 4.437522,-0.22635 4.437522,-0.22635 0,2.08144 0.0503,4.28058 0.214281,6.30971 0.04129,0.40844 0.07944,0.81185 0.114686,1.20923 0.07646,0.69616 0.152914,1.37119 0.256533,1.98083 l 0,0.0251 c 0.03823,0.2676 0.08752,0.53219 0.140842,0.77262 0.382285,1.87923 0.941628,3.25345 1.756498,3.6971 l 0.192148,0.0875 c 0.12877,0.0393 0.270618,0.0654 0.408442,0.0654 0,0 0.842032,0.10262 2.05126,0.61065 3.034134,1.29474 8.416302,5.15481 9.021922,16.46139 0.04121,0.68711 0.05328,1.39433 0.05328,2.13174"
     id="path1258"
     style="fill:#ecc99e;fill-opacity:1;fill-rule:nonzero;stroke:none" /><path
     d="m 50.352617,68.198629 c -0.0016,-0.002 -0.0032,-0.004 -0.0048,-0.006 0.100601,-0.61165 0.18913,-1.25651 0.253515,-1.93154 0.04129,-0.40643 0.07646,-0.81487 0.111667,-1.23237 0.0032,8.1e-4 0.0048,0.002 0.008,0.002 -0.03525,0.4175 -0.07348,0.83097 -0.113679,1.22231 -0.06237,0.67101 -0.152914,1.31586 -0.253515,1.93959 0,0.002 -8.05e-4,0.004 -8.05e-4,0.006"
     id="path1260"
     style="fill:#8b6e57;fill-opacity:1;fill-rule:nonzero;stroke:none" /><path
     d="m 55.365579,70.913859 -0.009,0 c -2.885244,-0.0161 -4.566292,-2.09854 -5.003907,-2.71523 0,-0.002 8.05e-4,-0.004 8.05e-4,-0.006 0.100601,-0.62373 0.191142,-1.26858 0.253515,-1.93959 0.04024,-0.39134 0.07847,-0.80481 0.113679,-1.22231 1.41546,0.35613 2.943593,0.57041 4.582388,0.59556 l 0.05328,0 c 0.0032,0 0.0056,0 0.009,0 l 0,5.28761"
     id="path1262"
     style="fill:#c49a7b;fill-opacity:1;fill-rule:nonzero;stroke:none" /><path
     d="m 55.379663,70.913859 -0.01408,0 0,-5.2876 c 1.679035,-0.0262 3.230307,-0.25251 4.680977,-0.64687 0.03517,0.40643 0.07646,0.81185 0.114686,1.2052 0.07646,0.70019 0.150902,1.36013 0.253515,1.98285 l 0,0.0131 c -0.444658,0.71327 -1.986875,2.73334 -5.035094,2.73334"
     id="path1264"
     style="fill:#c8a180;fill-opacity:1;fill-rule:nonzero;stroke:none" /><path
     d="m 55.341435,23.092039 c -18.971389,-0.0352 -19.080038,15.15659 -18.235993,25.05877 -1.299769,-2.32389 -5.148774,-1.46073 -4.83188,2.26152 0.300798,3.56732 5.738297,5.17794 5.664858,4.78761 1.551272,8.06923 10.490701,12.55303 17.403015,13.18983 l 0.146878,0.008 c 0,-15.10327 0,-30.20654 0,-45.30478 l -0.146878,-8e-4"
     id="path1266"
     style="fill:#cb9c7a;fill-opacity:1;fill-rule:nonzero;stroke:none" /><path
     d="m 33.224244,48.837919 c 0.9537,-1.43961 2.422479,-0.81789 2.78062,-0.49697 0.38329,0.34204 0.689118,0.79676 0.450693,1.64684 -0.132793,0.48389 -0.667992,0.52011 -0.53218,1.24444 0.140841,0.8209 0.541234,0.87221 0.764569,1.05631 0.226353,0.18712 0.509043,0.32796 0.653909,0.67403 0.134805,0.34405 0.157944,0.71125 0.08149,1.02915 -0.146878,0.58751 -1.053296,0.1177 -1.658915,-0.14185 -0.397375,-0.17303 -1.671994,-1.1881 -1.992912,-1.53216 -0.805816,-0.86014 -1.183071,-2.52207 -0.547271,-3.47979"
     id="path1268"
     style="fill:#ba9074;fill-opacity:1;fill-rule:nonzero;stroke:none" /><path
     d="m 55.432982,23.092039 c 18.974406,-0.0352 19.080038,15.15659 18.239011,25.05877 1.300775,-2.32389 5.149779,-1.46073 4.833891,2.26152 -0.305828,3.56732 -5.740308,5.17794 -5.663851,4.78761 -1.55429,8.06923 -10.493719,12.55303 -17.409051,13.18983 l -0.141848,0.008 c 0,-15.10327 0,-30.20654 0,-45.30478 l 0.141848,-8e-4"
     id="path1270"
     style="fill:#d8ad8c;fill-opacity:1;fill-rule:nonzero;stroke:none" /><path
     d="m 77.684978,48.837919 c -0.946658,-1.43961 -2.418455,-0.81789 -2.780619,-0.49697 -0.379267,0.34204 -0.682077,0.79676 -0.449688,1.64684 0.134806,0.48389 0.667992,0.52011 0.538217,1.24444 -0.144866,0.8209 -0.544253,0.87221 -0.770606,1.05631 -0.227359,0.18712 -0.509042,0.32796 -0.65089,0.67403 -0.134806,0.34405 -0.161968,0.71125 -0.08551,1.02915 0.150902,0.58751 1.053295,0.1177 1.659921,-0.14185 0.403411,-0.17303 1.674005,-1.1881 1.991905,-1.53216 0.812858,-0.86014 1.183071,-2.52207 0.547271,-3.47979"
     id="path1272"
     style="fill:#ba9074;fill-opacity:1;fill-rule:nonzero;stroke:none" /><path
     d="m 55.241839,27.390729 c -6.335868,0 -10.973587,1.74141 -13.780362,5.17795 -3.917414,4.79868 -3.766512,12.12748 -2.31886,17.38792 0.440634,1.61063 0.664975,5.94554 0.970803,7.53604 1.368177,7.11855 9.663758,10.90719 15.128419,10.90719 l 0.146878,-0.002 0,-41.00407 -0.146878,-0.003"
     id="path1274"
     style="fill:#dab58d;fill-opacity:1;fill-rule:nonzero;stroke:none" /><path
     d="m 68.99001,32.574709 c -2.783638,-3.4144 -7.369044,-5.15179 -13.601293,-5.18096 l 0,41.00407 c 6.238285,-0.0674 13.69787,-4.22123 14.978524,-10.90518 0.30281,-1.5905 0.529163,-5.92541 0.973821,-7.53604 1.441616,-5.24535 1.583464,-12.56711 -2.351052,-17.38189"
     id="path1276"
     style="fill:#ecc99e;fill-opacity:1;fill-rule:nonzero;stroke:none" /><path
     d="m 58.578784,61.967389 c 0,0 -1.433568,1.52411 -3.199121,1.52411 -1.762534,0 -3.112603,-1.49091 -3.112603,-1.49091 0,0 1.350069,-0.2344 3.112603,-0.2344 1.765553,0 3.199121,0.2012 3.199121,0.2012"
     id="path1278"
     style="fill:#be5467;fill-opacity:1;fill-rule:nonzero;stroke:none" /><path
     d="m 56.286081,61.264189 c -0.493953,0 -0.894346,0.30884 -0.906418,0.68911 -0.008,-0.38027 -0.405423,-0.68911 -0.903399,-0.68911 -0.499989,0 -2.291697,0.7032 -2.291697,0.7032 0,0 1.747444,0.1851 2.247432,0.1851 0.497976,0 0.939616,0.19618 0.947664,-0.17806 0.0091,0.37625 0.371219,0.23138 0.865171,0.23138 0.499988,0 2.33395,-0.23842 2.33395,-0.23842 0,0 -1.792715,-0.7032 -2.292703,-0.7032"
     id="path1280"
     style="fill:#cc596a;fill-opacity:1;fill-rule:nonzero;stroke:none" /><path
     d="m 65.423695,28.578829 c 1.438598,3.44861 3.274571,6.88113 3.3631,10.14966 0.326954,11.44541 3.901318,32.89058 0.576445,34.35232 -0.634794,0.28068 -0.641836,-22.8888 -2.312823,-34.51831 -0.09356,-3.26853 -1.488899,-5.08238 -2.936551,-8.52897 -0.04129,-1.63176 -0.04129,-1.63176 1.309829,-1.4547"
     id="path1282"
     style="fill:#241c19;fill-opacity:1;fill-rule:nonzero;stroke:none" /><path
     d="m 71.276677,30.624049 c 1.359123,3.05024 3.118639,6.03508 3.118639,9.08329 0,10.66877 3.010996,30.2991 -0.394357,32.07571 -0.65592,0.34104 0,-21.34256 -1.365159,-32.01333 0,-3.04722 -1.359123,-4.57334 -2.725289,-7.62256 0,-1.52311 0,-1.52311 1.366166,-1.52311"
     id="path1284"
     style="fill:#402b1b;fill-opacity:1;fill-rule:nonzero;stroke:none" /><path
     d="m 70.452752,41.263649 c 0,12.05002 2.506984,34.2165 -0.33299,36.21947 -0.541235,0.38531 0.3179,-18.75912 -1.027139,-34.73762 -1.312847,-15.63746 -13.065088,-12.78843 -14.197858,-16.23302 0,-1.7233 5.717171,0.46075 6.753364,0.87825 8.407248,3.40133 8.804623,10.42933 8.804623,13.87292"
     id="path1286"
     style="fill:#241c19;fill-opacity:1;fill-rule:nonzero;stroke:none" /><path
     d="m 72.288726,40.999059 c -0.400394,12.04701 1.368177,34.27083 -1.536182,36.20238 -0.553307,0.3682 0.941628,-18.74906 0.131788,-34.75372 -0.790726,-15.66865 -12.63552,-13.14054 -13.656623,-16.6153 0.05931,-1.7223 5.703086,0.61869 6.724189,1.06335 8.292563,3.62869 8.451513,10.66374 8.336828,14.10329"
     id="path1288"
     style="fill:#241c19;fill-opacity:1;fill-rule:nonzero;stroke:none" /><path
     d="m 71.058372,38.374379 c 0,12.047 2.506984,34.2165 -0.329972,36.22249 -0.544253,0.38027 0.314882,-18.76515 -1.023115,-34.74164 -1.318883,-15.63847 -13.387012,-12.85986 -14.519782,-16.30344 0,-1.71928 6.033058,0.52916 7.068245,0.94967 8.410267,3.39529 8.804624,10.42732 8.804624,13.87292"
     id="path1290"
     style="fill:#402b1b;fill-opacity:1;fill-rule:nonzero;stroke:none" /><path
     d="m 69.975902,39.702309 c 0,12.32467 2.562315,34.99818 -0.339026,37.05045 -0.558337,0.39435 0.323936,-19.1897 -1.050277,-35.5374 -1.348057,-15.99058 -13.368904,-13.08119 -14.524813,-16.60626 0,-1.76052 5.846947,0.47384 6.90326,0.9034 8.604427,3.4788 9.010856,10.66676 9.010856,14.18981"
     id="path1292"
     style="fill:#36201a;fill-opacity:1;fill-rule:nonzero;stroke:none" /><path
     d="m 73.14786,38.462909 c 0,12.32868 2.563321,35.0022 -0.341038,37.05245 -0.553307,0.39335 0.32293,-19.18969 -1.048265,-35.53438 -1.347051,-15.9946 -15.110312,-13.14758 -16.272256,-16.67265 0,-1.76253 7.59439,0.5352 8.650703,0.9698 8.601409,3.47476 9.010856,10.66373 9.010856,14.18478"
     id="path1294"
     style="fill:#49251d;fill-opacity:1;fill-rule:nonzero;stroke:none" /><path
     d="m 74.156891,33.557589 c 3.651826,11.58826 2.569357,32.28697 0.444658,34.91568 -0.406429,0.50603 1.962731,-12.30052 -1.007019,-31.17633 -2.441593,-15.52781 -17.599187,-12.9323 -18.873805,-14.08116 -1.351075,-1.21225 5.640713,-0.96779 6.765436,-0.82493 9.113469,1.19313 11.626489,7.85092 12.67073,11.16674"
     id="path1296"
     style="fill:#36201a;fill-opacity:1;fill-rule:nonzero;stroke:none" /><path
     d="m 69.904475,42.877289 c 0,12.32567 2.566339,34.99818 -0.335002,37.05246 -0.556325,0.39033 0.323936,-19.19171 -1.053295,-35.53841 -1.342021,-15.98957 -13.362868,-13.08118 -14.524812,-16.60726 0,-1.75851 5.849964,0.47383 6.909295,0.90239 8.601409,3.4788 9.003814,10.66776 9.003814,14.19082"
     id="path1298"
     style="fill:#36201a;fill-opacity:1;fill-rule:nonzero;stroke:none" /><path
     d="m 69.198254,44.599579 c 0,12.32668 2.001966,35.00019 -0.264581,37.05045 -0.435604,0.39234 0.253515,-19.19171 -0.823924,-35.5364 -1.04726,-15.99158 -11.808578,-13.14657 -12.718014,-16.66862 0,-1.76052 5.938494,0.5352 6.765436,0.96879 6.724189,3.47477 7.041083,10.66273 7.041083,14.18578"
     id="path1300"
     style="fill:#49251d;fill-opacity:1;fill-rule:nonzero;stroke:none" /><path
     d="m 44.503659,28.263949 c -1.31184,3.49992 -3.022062,6.99481 -2.995906,10.26837 0.08853,11.44843 -2.701144,33.00929 0.671011,34.3493 0.641836,0.25955 -0.188125,-22.90087 1.065367,-34.57666 -0.02913,-3.26954 1.300775,-5.13267 2.619658,-8.63159 -0.01811,-1.63577 -0.01811,-1.63577 -1.36013,-1.40942"
     id="path1302"
     style="fill:#241c19;fill-opacity:1;fill-rule:nonzero;stroke:none" /><path
     d="m 39.445427,30.395689 c -1.365159,3.05224 -3.122663,6.03809 -3.122663,9.08631 0,10.67279 -3.013009,30.29808 0.397375,32.07571 0.65089,0.34104 0,-21.34256 1.360129,-32.01435 0,-3.04922 1.365159,-4.57232 2.7273,-7.62054 0,-1.52713 0,-1.52713 -1.362141,-1.52713"
     id="path1304"
     style="fill:#402b1b;fill-opacity:1;fill-rule:nonzero;stroke:none" /><path
     d="m 40.266334,41.037289 c 0,12.05103 -2.503966,34.21751 0.331984,36.2225 0.545259,0.38429 -0.319912,-18.76315 1.027139,-34.74165 1.312846,-15.63645 13.066093,-12.79245 14.201882,-16.23101 0,-1.72229 -5.721195,0.45975 -6.756382,0.87926 -8.407248,3.40032 -8.804623,10.42833 -8.804623,13.8709"
     id="path1306"
     style="fill:#241c19;fill-opacity:1;fill-rule:nonzero;stroke:none" /><path
     d="m 38.427342,40.773719 c 0.403411,12.04901 -1.362141,34.27083 1.5392,36.19935 0.553307,0.36519 -0.941628,-18.74604 -0.129776,-34.75271 0.788714,-15.66864 12.629484,-13.14255 13.651593,-16.6153 -0.05634,-1.72028 -5.700068,0.6197 -6.725195,1.06738 -8.286527,3.62567 -8.450507,10.65971 -8.335822,14.10128"
     id="path1308"
     style="fill:#241c19;fill-opacity:1;fill-rule:nonzero;stroke:none" /><path
     d="m 39.659708,38.143999 c 0,12.05304 -2.506984,34.21852 0.329972,36.22451 0.541235,0.38429 -0.314882,-18.76315 1.030157,-34.74064 1.311841,-15.63746 13.500691,-12.4645 14.63648,-15.9121 0,-1.71827 -6.155792,0.13782 -7.191985,0.56236 -8.410267,3.3963 -8.804624,10.42531 -8.804624,13.86587"
     id="path1310"
     style="fill:#402b1b;fill-opacity:1;fill-rule:nonzero;stroke:none" /><path
     d="m 40.746202,39.472939 c 0,12.32668 -2.566339,35.0022 0.33802,37.05749 0.553307,0.39234 -0.323936,-19.19573 1.047259,-35.5374 1.345039,-15.99762 13.365886,-13.0842 14.528836,-16.60726 0,-1.76354 -5.849964,0.47081 -6.910301,0.89938 -8.601409,3.47879 -9.003814,10.66876 -9.003814,14.18779"
     id="path1312"
     style="fill:#36201a;fill-opacity:1;fill-rule:nonzero;stroke:none" /><path
     d="m 40.678799,42.650939 c 0,12.32567 -2.566339,34.99918 0.341038,37.05446 0.553307,0.38933 -0.329972,-19.19572 1.047259,-35.53941 1.342021,-15.9956 13.365886,-13.08118 14.524813,-16.60726 0,-1.76152 -5.849965,0.47384 -6.909296,0.9024 -8.598391,3.47678 -9.003814,10.66776 -9.003814,14.18981"
     id="path1314"
     style="fill:#36201a;fill-opacity:1;fill-rule:nonzero;stroke:none" /><path
     d="m 37.573237,38.235549 c 0,12.32667 -2.562314,35.00119 0.339027,37.05145 0.553307,0.39838 -0.326954,-19.18869 1.047259,-35.53137 1.345039,-15.99761 15.704865,-12.89306 16.867816,-16.41611 0,-1.76354 -8.18995,0.28067 -9.252299,0.70924 -8.598391,3.47879 -9.001803,10.66775 -9.001803,14.18679"
     id="path1316"
     style="fill:#49261d;fill-opacity:1;fill-rule:nonzero;stroke:none" /><path
     d="m 41.387032,44.370209 c 0,12.3297 -2.006996,35.00321 0.265587,37.05447 0.432586,0.39235 -0.256533,-19.1917 0.820907,-35.53539 1.050277,-15.99661 12.276373,-12.89406 13.182791,-16.4141 0,-1.76555 -6.400253,0.28168 -7.227196,0.70823 -6.727207,3.4798 -7.042089,10.66776 -7.042089,14.18679"
     id="path1318"
     style="fill:#49261d;fill-opacity:1;fill-rule:nonzero;stroke:none" /><path
     d="m 36.561189,33.329219 c -3.648809,11.59128 -2.562315,32.28999 -0.443652,34.92172 0.405423,0.502 -1.960719,-12.30152 1.006013,-31.18237 2.439581,-15.52277 17.600193,-12.9333 18.874811,-14.07915 1.353087,-1.21727 -5.641719,-0.96879 -6.762418,-0.82493 -9.119505,1.18911 -11.629507,7.85495 -12.674754,11.16473"
     id="path1320"
     style="fill:#36201a;fill-opacity:1;fill-rule:nonzero;stroke:none" /><path
     d="m 64.973001,73.415809 c -0.880261,2.18305 -3.378191,6.36605 -9.584284,6.52802 l -0.02318,0 c -2.842992,0.0735 -5.076341,-1.20118 -6.771472,-2.85406 -0.07646,-2.49793 -0.171022,-4.42645 -0.171022,-4.42645 0,0 -0.706221,-0.0201 -1.959713,0.33701 -0.834991,0.23641 -1.571392,0.85913 -1.571392,0.85913 l 0,8.1e-4 c -3.295698,1.76455 -8.150715,6.34895 -8.150715,18.14847 0,0 0.152914,0.0633 0.446669,0.20321 l 36.427722,0 c 0.267599,-0.13983 0.432586,-0.20321 0.432586,-0.20321 0,-12.9665 -5.862037,-17.22093 -9.075241,-18.59313"
     id="path1322"
     style="fill:#24653a;fill-opacity:1;fill-rule:nonzero;stroke:none" /><path
     d="m 65.579626,35.409659 c 0,2.9617 -2.407388,5.35802 -5.37412,5.35802 l -19.656483,0 c -2.969749,0 -5.376132,-2.39632 -5.376132,-5.35802 0,-2.95667 2.406383,-5.35601 5.376132,-5.35601 l 19.656483,0 c 2.966732,0 5.37412,2.39934 5.37412,5.35601"
     id="path1324"
     style="fill:#2c9242;fill-opacity:1;fill-rule:nonzero;stroke:none" /><path
     d="m 78.485764,43.279699 c -1.282666,-4.87313 -4.61458,-11.93836 -6.967644,-15.21897 -0.559343,-0.77865 -1.168987,-1.35811 -1.560326,-1.69312 0.258545,-0.26357 0.470814,-0.57443 0.509042,-0.91547 0.10865,-0.96577 0.582482,-2.95868 -0.808834,-2.25749 -1.312846,0.65793 0.288726,1.02412 -0.47685,2.10056 -0.800786,-1.09857 -3.355052,-3.35908 -11.511804,-6.37913 -11.750229,-4.35704 -14.792411,-0.64687 -18.674615,1.28971 -3.884215,1.93355 -4.049201,3.86812 -3.563297,5.12463 0.485904,1.25148 0.973821,5.19706 1.780643,6.24029 0.808834,1.04123 4.369113,-0.39938 11.328709,5.71315 6.962615,6.10549 21.205743,9.0511 25.410877,14.74815 4.210163,5.69906 6.149756,3.8158 6.149756,3.8158 0,0 0.487916,-1.12673 0.97382,-2.41845 0.482886,-1.2887 -0.811852,-3.38524 -2.589477,-10.14966"
     id="path1326"
     style="fill:#24653a;fill-opacity:1;fill-rule:nonzero;stroke:none" /><path
     d="m -146.21544,142.06695 c -1.2674,2.76885 -2.98556,5.53586 -2.72213,8.14959 0.94153,9.15376 -0.71419,26.33438 3.28412,27.46441 0.76493,0.22138 -1.88598,-18.30685 -1.29277,-27.61769 -0.26831,-2.6068 1.13081,-4.07801 2.39235,-6.84532 -0.13171,-1.31033 -0.13171,-1.31033 -1.66157,-1.15099"
     id="path3548"
     style="fill:#251c19;fill-opacity:1;fill-rule:nonzero;stroke:none" /><path
     d="m -103.12096,142.06695 c 1.2674,2.76885 2.98556,5.53586 2.71725,8.14959 -0.94445,9.15376 0.713215,26.33438 -3.27924,27.46441 -0.76492,0.22138 1.88305,-18.30685 1.28691,-27.61769 0.27417,-2.6068 -1.12495,-4.07801 -2.3943,-6.84532 0.13367,-1.31033 0.13367,-1.31033 1.66938,-1.15099"
     id="path3550"
     style="fill:#251c19;fill-opacity:1;fill-rule:nonzero;stroke:none" /><path
     d="m -145.82712,138.42456 c -1.32399,2.62866 -3.02556,5.19741 -3.02556,7.82978 0,9.19688 -2.91043,26.12558 0.38246,27.65768 0.63126,0.29349 0,-18.40743 1.31911,-27.60276 0,-2.62865 1.32399,-3.94005 2.6392,-6.5732 0,-1.3115 0,-1.3115 -1.31521,-1.3115"
     id="path3552"
     style="fill:#402b1b;fill-opacity:1;fill-rule:nonzero;stroke:none" /><path
     d="m -102.6702,140.22273 c 1.31326,2.63549 3.019708,5.20726 3.019708,7.83582 0,9.19952 2.910431,26.12061 -0.382468,27.6573 -0.63906,0.28704 0,-18.40588 -1.32398,-27.60393 0,-2.62739 -1.31326,-3.94455 -2.63725,-6.57281 0,-1.31638 0,-1.31638 1.32399,-1.31638"
     id="path3554"
     style="fill:#402b1b;fill-opacity:1;fill-rule:nonzero;stroke:none" /><path
     d="m -106.88217,147.83102 c 1.31813,2.63549 3.02458,5.20804 3.02458,7.83553 0,9.19796 2.9114,26.11983 -0.38832,27.64969 -0.63321,0.29377 0,-18.39719 -1.31813,-27.59593 0,-2.62934 -1.31813,-3.94464 -2.63432,-6.57213 0,-1.31716 0,-1.31716 1.31619,-1.31716"
     id="path3556"
     style="fill:#402b1b;fill-opacity:1;fill-rule:nonzero;stroke:none" /><path
     d="m -146.65449,151.67429 c 1.32399,2.62935 3.02751,5.20727 3.02751,7.8366 0,9.19953 2.91141,26.1176 -0.38246,27.65047 -0.63614,0.29378 0,-18.39718 -1.32106,-27.59787 0,-2.62632 -1.32399,-3.94348 -2.63725,-6.57009 0,-1.31911 0,-1.31911 1.31326,-1.31911"
     id="path3558"
     style="fill:#402b1b;fill-opacity:1;fill-rule:nonzero;stroke:none" /><path
     d="m -104.03126,144.82097 c 1.32106,2.62974 3.02458,5.20151 3.02458,7.83778 0,9.19757 2.91141,26.11983 -0.39027,27.64851 -0.62833,0.29573 0,-18.39718 -1.31325,-27.59592 0,-2.63432 -1.32106,-3.94348 -2.63724,-6.57399 0,-1.31638 0,-1.31638 1.31618,-1.31638"
     id="path3560"
     style="fill:#36201a;fill-opacity:1;fill-rule:nonzero;stroke:none" /><path
     d="m -144.669,142.06695 c -1.26642,2.76885 -2.98458,5.53586 -2.71627,8.14959 0.94738,9.15376 -0.71614,26.33438 3.28704,27.46441 0.76493,0.22138 -1.8889,-18.30685 -1.30057,-27.61769 -0.26831,-2.6068 1.13568,-4.07801 2.40308,-6.84532 -0.13464,-1.31033 -0.13464,-1.31033 -1.67328,-1.15099"
     id="path3562"
     style="fill:#36201a;fill-opacity:1;fill-rule:nonzero;stroke:none" /><path
     d="m -140.53312,151.64795 c -1.27033,2.77579 -2.99434,5.53392 -2.72603,8.14765 0.94738,9.16186 -0.71029,26.33555 3.28802,27.46636 0.76492,0.22069 -1.88305,-18.29689 -1.2957,-27.61272 -0.26831,-2.61177 1.13081,-4.07606 2.39723,-6.85175 -0.13659,-1.30389 -0.13659,-1.30389 -1.66352,-1.14954"
     id="path3564"
     style="fill:#402b1b;fill-opacity:1;fill-rule:nonzero;stroke:none" /><path
     d="m -136.88606,151.92319 c -1.25862,2.77189 -2.98458,5.53577 -2.71334,8.14765 0.94445,9.15298 -0.7142,26.33437 3.28704,27.46518 0.762,0.21953 -1.89476,-18.30537 -1.2957,-27.61232 -0.27709,-2.61373 1.12496,-4.07841 2.39138,-6.85225 -0.13074,-1.30456 -0.13074,-1.30456 -1.66938,-1.14826"
     id="path3566"
     style="fill:#36201a;fill-opacity:1;fill-rule:nonzero;stroke:none" /><path
     d="m -106.11725,150.14444 c -1.2674,2.767 -2.98556,5.53509 -2.71725,8.14764 0.94446,9.15494 -0.71321,26.33673 3.27631,27.46441 0.76785,0.21465 -1.88402,-18.30372 -1.28398,-27.6172 -0.27417,-2.61411 1.12397,-4.0784 2.3943,-6.84766 -0.13465,-1.30915 -0.13465,-1.30915 -1.66938,-1.14719"
     id="path3568"
     style="fill:#402b1b;fill-opacity:1;fill-rule:nonzero;stroke:none" /><path
     d="m -138.8296,147.70906 c -1.26642,2.76886 -2.98458,5.53695 -2.71627,8.14882 0.94445,9.15376 -0.72005,26.33555 3.28704,27.46821 0.76493,0.21953 -1.89475,-18.30947 -1.30057,-27.61954 -0.26831,-2.60689 1.13276,-4.07801 2.39918,-6.84493 -0.13367,-1.31257 -0.13367,-1.31257 -1.66938,-1.15256"
     id="path3570"
     style="fill:#251c19;fill-opacity:1;fill-rule:nonzero;stroke:none" /><path
     d="m -109.83358,152.84393 c -1.26935,2.77608 -2.98751,5.54192 -2.7192,8.14999 0.94737,9.15942 -0.71127,26.33438 3.28704,27.47007 0.76492,0.21464 -1.88598,-18.30372 -1.29277,-27.61837 -0.27611,-2.61295 1.12398,-4.07724 2.3943,-6.8503 -0.13367,-1.30418 -0.13367,-1.30418 -1.66937,-1.15139"
     id="path3572"
     style="fill:#402b1b;fill-opacity:1;fill-rule:nonzero;stroke:none" /><path
     d="m -108.66863,151.64795 c -1.2674,2.77579 -2.99141,5.53392 -2.71725,8.14765 0.94152,9.16186 -0.71614,26.33555 3.28216,27.46636 0.76493,0.22069 -1.88695,-18.29689 -1.29569,-27.61272 -0.26831,-2.61177 1.13276,-4.07606 2.3943,-6.85175 -0.13464,-1.30389 -0.13464,-1.30389 -1.66352,-1.14954"
     id="path3574"
     style="fill:#402b1b;fill-opacity:1;fill-rule:nonzero;stroke:none" /><path
     d="m -112.56742,154.24226 c -1.25862,2.77384 -2.98263,5.53587 -2.70847,8.15068 0.9386,9.15952 -0.71614,26.33253 3.28217,27.46826 0.762,0.21457 -1.88695,-18.30874 -1.29862,-27.61529 -0.26539,-2.61608 1.13568,-4.07842 2.40308,-6.85342 -0.13952,-1.30341 -0.13952,-1.30341 -1.67816,-1.15023"
     id="path3576"
     style="fill:#402b1b;fill-opacity:1;fill-rule:nonzero;stroke:none" /><path
     d="m -133.09264,154.24226 c -1.27033,2.77384 -2.98849,5.53587 -2.71725,8.15068 0.94445,9.15952 -0.71322,26.33253 3.28509,27.46826 0.76493,0.21457 -1.89281,-18.30874 -1.29277,-27.61529 -0.26831,-2.61608 1.12983,-4.07842 2.3943,-6.85342 -0.13464,-1.30341 -0.13464,-1.30341 -1.66937,-1.15023"
     id="path3578"
     style="fill:#251c19;fill-opacity:1;fill-rule:nonzero;stroke:none" /><path
     d="m -131.94525,153.42055 c -1.27033,2.77384 -2.98849,5.53431 -2.71725,8.14883 0.94152,9.16176 -0.71322,26.33252 3.27924,27.46254 0.762,0.21953 -1.88695,-18.29503 -1.2957,-27.60968 -0.26831,-2.6149 1.13276,-4.07841 2.40016,-6.85215 -0.13172,-1.30272 -0.13172,-1.30272 -1.66645,-1.14954"
     id="path3580"
     style="fill:#36201a;fill-opacity:1;fill-rule:nonzero;stroke:none" /><path
     d="m -129.73926,153.42055 c -1.27032,2.77384 -2.98555,5.53431 -2.72602,8.14883 0.95323,9.16176 -0.70151,26.33252 3.28801,27.46254 0.76493,0.21953 -1.88402,-18.29503 -1.29569,-27.60968 -0.26831,-2.6149 1.13568,-4.07841 2.40308,-6.85215 -0.13464,-1.30272 -0.13464,-1.30272 -1.66938,-1.14954"
     id="path3582"
     style="fill:#402b1b;fill-opacity:1;fill-rule:nonzero;stroke:none" /><path
     d="m -116.79111,153.42055 c -1.27032,2.77384 -2.98555,5.53431 -2.71724,8.14883 0.94445,9.16176 -0.71322,26.33252 3.27923,27.46254 0.77371,0.21953 -1.88402,-18.29503 -1.29569,-27.60968 -0.26831,-2.6149 1.13568,-4.07841 2.40308,-6.85215 -0.13367,-1.30272 -0.13367,-1.30272 -1.66938,-1.14954"
     id="path3584"
     style="fill:#251c19;fill-opacity:1;fill-rule:nonzero;stroke:none" /><path
     d="m -114.57145,153.42055 c -1.26057,2.77384 -2.98458,5.53431 -2.71042,8.14883 0.9386,9.16176 -0.71712,26.33252 3.28119,27.46254 0.7659,0.21953 -1.88598,-18.29503 -1.29472,-27.60968 -0.26831,-2.6149 1.13276,-4.07841 2.40016,-6.85215 -0.1405,-1.30272 -0.1405,-1.30272 -1.67621,-1.14954"
     id="path3586"
     style="fill:#402b1b;fill-opacity:1;fill-rule:nonzero;stroke:none" /><path
     d="m -104.2625,146.76657 c -1.25861,2.77568 -2.98555,5.53616 -2.70846,8.14988 0.9386,9.15386 -0.71614,26.33448 3.27923,27.46412 0.76493,0.2206 -1.88402,-18.30148 -1.29276,-27.61047 -0.27124,-2.61372 1.13275,-4.07909 2.40015,-6.85215 -0.1405,-1.30272 -0.1405,-1.30272 -1.67816,-1.15138"
     id="path3588"
     style="fill:#36201a;fill-opacity:1;fill-rule:nonzero;stroke:none" /><path
     d="m -143.54697,146.7971 c 0.98445,7.88617 -1.38156,14.36942 -2.95922,22.34749 -0.90542,4.54674 0,11.82623 3.94367,13.13646 -2.95629,-5.25605 -2.95629,-10.50907 -0.98445,-15.7697 1.97183,-5.25488 0,-11.82808 1.97183,-18.39943 0,-1.31482 -0.98738,-1.31482 -1.97183,-1.31482"
     id="path3590"
     style="fill:#251c19;fill-opacity:1;fill-rule:nonzero;stroke:none" /><path
     d="m -107.41294,149.35512 c 0.98738,7.88812 -1.51912,14.3463 -2.96019,22.35061 -1.0469,5.79647 0,11.82428 3.94757,13.14261 -2.96019,-5.26298 -2.96019,-10.516 -0.98738,-15.76892 1.97769,-5.26298 0,-11.83618 1.97769,-18.40636 0,-1.31794 -0.99031,-1.31794 -1.97769,-1.31794"
     id="path3592"
     style="fill:#251c19;fill-opacity:1;fill-rule:nonzero;stroke:none" /><path
     d="m -112.34497,155.13871 c 0.98739,7.88958 -1.54644,14.3378 -2.95628,22.34096 -0.70541,3.95762 0,11.82738 3.94367,13.14264 -2.95922,-5.25296 -2.95922,-10.51516 -0.98739,-15.76818 1.97184,-5.25566 0,-11.82584 1.97184,-18.40704 0,-1.30838 -0.98445,-1.30838 -1.97184,-1.30838"
     id="path3594"
     style="fill:#36201a;fill-opacity:1;fill-rule:nonzero;stroke:none" /><path
     d="m -104.18835,140.22956 c -0.98445,7.88236 1.524,14.34053 2.95922,22.34407 0.81371,4.53005 0,11.82701 -3.94367,13.14222 2.95922,-5.2618 2.95922,-10.51473 0.98445,-15.77078 -1.96988,-5.2618 0,-11.83315 -1.96988,-18.40596 0,-1.30955 0.98543,-1.30955 1.96988,-1.30955"
     id="path3596"
     style="fill:#251c19;fill-opacity:1;fill-rule:nonzero;stroke:none" /><path
     d="m -137.65684,153.45294 c -0.98445,7.88169 1.09958,14.42816 2.96605,22.34184 1.06153,4.51853 0,11.82622 -3.9505,13.14338 2.96604,-5.26102 2.96604,-10.51482 0.98445,-15.77087 -1.97183,-5.26063 0,-11.83266 -1.97183,-18.40285 0,-1.3115 0.98738,-1.3115 1.97183,-1.3115"
     id="path3598"
     style="fill:#402b1b;fill-opacity:1;fill-rule:nonzero;stroke:none" /><path
     d="m -124.77699,164.32301 0,34.46941 -18.80121,0 c -0.30245,-0.12577 -0.46539,-0.19399 -0.46539,-0.19399 0,-18.49128 11.51293,-19.86864 11.51293,-19.86864 1.15325,0 1.88598,-1.47043 2.37382,-3.70257 0.0829,-0.34842 0.14927,-0.70093 0.20294,-1.08436 0.10537,-0.62619 0.19416,-1.29658 0.25953,-1.99701 0.0429,-0.41466 0.0829,-0.83625 0.12293,-1.27336 0.16586,-2.11525 0.21953,-4.41687 0.21953,-6.5934 0,0 2.53772,0.24392 4.57492,0.24392"
     id="path3600"
     style="fill:#dab58d;fill-opacity:1;fill-rule:nonzero;stroke:none" /><path
     d="m -105.43525,198.59843 c 0,0 -0.17465,0.0682 -0.44784,0.20161 l -18.8939,0 0,-34.47703 0.04,0 c 2.04988,0 4.58956,-0.24392 4.58956,-0.24392 0,2.16473 0.0566,4.43619 0.22831,6.54384 0.04,0.42149 0.08,0.84191 0.12001,1.24896 0.0742,0.72376 0.15415,1.40478 0.26245,2.04579 l 0,0.0126 c 0.04,0.28704 0.0966,0.55535 0.1483,0.81673 0.48199,2.38055 1.24691,3.9828 2.43431,3.9828 0,0 11.51879,1.37735 11.51879,19.86863"
     id="path3602"
     style="fill:#ecc99e;fill-opacity:1;fill-rule:nonzero;stroke:none" /><g
     transform="matrix(0.09756726,0,0,-0.09756726,-516.48611,199.01884)"
     id="g3604"><g
       clip-path="url(#clipPath3608)"
       id="g3606"><path
         d="m 4068.47,257.27 0,-0.129 c -4.74,-7.539 -21.12,-28.969 -53.41,-28.969 l -0.3,0 c -30.65,0.117 -48.43,22.379 -53.06,28.84 1.08,6.418 1.99,13.289 2.66,20.468 0.44,4.25 0.85,8.571 1.26,13.051 14.98,-3.812 31.18,-6.051 48.62,-6.34 l 0.52,0 c 17.9,0.289 34.4,2.661 49.79,6.848 0.41,-4.32 0.82,-8.629 1.23,-12.801 0.76,-7.418 1.58,-14.398 2.69,-20.968"
         id="path3612"
         style="fill:#ba9074;fill-opacity:1;fill-rule:nonzero;stroke:none" /></g></g><path
     d="m -107.94468,185.82167 c -1.24984,0.45963 -3.03629,0.99742 -5.42767,1.44907 -0.3249,-0.47721 -1.11031,-2.02647 -1.23325,-5.99922 -0.0254,-0.75049 -0.04,-1.35267 -0.0254,-1.81494 l -0.0371,-0.0118 0.0117,-0.1845 -1.64401,-0.66999 c 0,0 -1.83817,3.24908 0.70248,9.04253 -0.65955,0.0914 -1.34155,0.18137 -2.07233,0.25455 -1.51229,0.15894 -4.15246,0.2527 -6.98093,0.28012 -2.83141,-0.0274 -5.46767,-0.12118 -6.98094,-0.28012 -0.74737,-0.075 -1.44107,-0.16694 -2.11136,-0.26255 2.40894,-5.66583 0.6137,-8.83677 0.6137,-8.83677 l -1.64401,0.66853 c 0.0137,0.46228 0,1.06446 -0.0205,1.81495 -0.12587,3.92894 -0.89567,5.48503 -1.22935,5.98243 -2.34357,-0.44588 -4.0988,-0.9783 -5.334,-1.43229 -1.57279,2.94 -2.71725,7.09348 -2.71725,12.94256 0,0 0.16001,0.0526 0.46247,0.20199 l 37.91951,0 c 0.30246,-0.14939 0.46539,-0.20199 0.46539,-0.20199 0,-5.84908 -1.14738,-10.00256 -2.71724,-12.94256"
     id="path3614"
     style="fill:#464548;fill-opacity:1;fill-rule:nonzero;stroke:none" /><path
     d="m -124.71357,124.78651 c -19.92616,0 -20.04031,16.61961 -19.15635,27.4888 -1.35814,-2.57373 -5.40523,-1.7768 -5.07935,2.28024 0.3249,3.91831 6.03258,5.936 5.95355,5.48318 1.63816,8.95073 11.00754,14.1256 18.28215,14.1256 l 0.14538,-0.0133 0,-49.36445 -0.14538,0"
     id="path3616"
     style="fill:#cb9c7a;fill-opacity:1;fill-rule:nonzero;stroke:none" /><path
     d="m -147.67114,152.84393 c 0.98543,-1.57054 2.50065,-0.89372 2.87726,-0.54608 0.39612,0.37455 0.71321,0.87429 0.46247,1.79699 -0.13465,0.52208 -0.69078,0.56208 -0.55126,1.35638 0.1483,0.88874 0.56199,0.95128 0.79322,1.151 0.23416,0.20694 0.52784,0.35446 0.67712,0.73478 0.14245,0.37583 0.16196,0.77556 0.0878,1.11705 -0.15416,0.64111 -1.09275,0.13308 -1.71816,-0.15279 -0.41661,-0.1887 -1.73182,-1.29091 -2.06647,-1.66548 -0.8303,-0.94367 -1.22057,-2.74681 -0.56199,-3.79185"
     id="path3618"
     style="fill:#ba9074;fill-opacity:1;fill-rule:nonzero;stroke:none" /><path
     d="m -124.62283,124.78651 c 19.92616,0 20.04031,16.61961 19.15636,27.4888 1.36106,-2.57373 5.40522,-1.7768 5.06764,2.28024 -0.31319,3.91831 -6.02673,5.936 -5.94672,5.48318 -1.63328,8.95073 -11.00462,14.1256 -18.27728,14.1256 l -0.15416,-0.0133 0,-49.36445 0.15416,0"
     id="path3620"
     style="fill:#d8ad8c;fill-opacity:1;fill-rule:nonzero;stroke:none" /><path
     d="m -101.66526,152.84393 c -0.98543,-1.57054 -2.5065,-0.89372 -2.87725,-0.54608 -0.39613,0.37455 -0.71322,0.87429 -0.46833,1.79699 0.13757,0.52208 0.69078,0.56208 0.55711,1.35638 -0.15123,0.88874 -0.55711,0.95128 -0.802,1.151 -0.22538,0.20694 -0.52198,0.35446 -0.66833,0.73478 -0.14245,0.37583 -0.16782,0.77556 -0.0878,1.11705 0.15415,0.64111 1.08689,0.13308 1.71815,-0.15279 0.41369,-0.1887 1.73182,-1.29091 2.06062,-1.66548 0.83615,-0.94367 1.22642,-2.74681 0.56784,-3.79185"
     id="path3622"
     style="fill:#ba9074;fill-opacity:1;fill-rule:nonzero;stroke:none" /><path
     d="m -124.89114,129.47199 c -6.55262,0 -11.35292,1.89387 -14.25262,5.64524 -4.06075,5.22551 -3.90367,13.21655 -2.40796,18.94366 0.45661,1.75884 0.6898,6.47759 1.00396,8.21702 1.4157,7.75464 10.00357,11.88642 15.65662,11.88642 l 0.14928,-0.007 0,-44.68581 -0.14928,0"
     id="path3624"
     style="fill:#dab58d;fill-opacity:1;fill-rule:nonzero;stroke:none" /><path
     d="m -110.66681,135.12289 c -2.87921,-3.72503 -7.62,-5.61695 -14.07505,-5.6509 l 0,44.67897 c 6.4609,-0.0656 14.17457,-4.59249 15.50246,-11.87305 0.31612,-1.73943 0.55321,-6.45818 1.00689,-8.21702 1.48986,-5.71569 1.63523,-13.69064 -2.4343,-18.938"
     id="path3626"
     style="fill:#ecc99e;fill-opacity:1;fill-rule:nonzero;stroke:none" /><path
     d="m -121.43726,166.62072 c 0,0 -1.47814,1.57562 -3.30753,1.57562 -1.82451,0 -3.22264,-1.54245 -3.22264,-1.54245 0,0 1.39813,-0.23435 3.22264,-0.23435 1.82939,0 3.30753,0.20118 3.30753,0.20118"
     id="path3628"
     style="fill:#be5467;fill-opacity:1;fill-rule:nonzero;stroke:none" /><path
     d="m -123.80619,165.89092 c -0.51711,0 -0.92494,0.32207 -0.9386,0.71614 -0.005,-0.39407 -0.42051,-0.71614 -0.93372,-0.71614 -0.51613,0 -2.37478,0.7298 -2.37478,0.7298 0,0 1.8128,0.19407 2.32893,0.19407 0.5171,0 0.97372,0.20079 0.97957,-0.18148 0.0137,0.38227 0.38247,0.23514 0.8986,0.23514 0.51613,0 2.40893,-0.24773 2.40893,-0.24773 0,0 -1.8528,-0.7298 -2.36893,-0.7298"
     id="path3630"
     style="fill:#cc596a;fill-opacity:1;fill-rule:nonzero;stroke:none" /><path
     d="m -102.22237,139.62669 c -0.78444,-2.25097 -1.14739,-3.15347 -1.24105,-5.01906 -0.1005,-1.85836 -1.30155,-3.59018 -2.8714,-5.28882 -0.88396,-0.9505 -2.82262,-3.00244 -6.41212,-4.47053 -2.80311,-1.1514 -7.29218,-2.51431 -11.82125,-2.64993 l 0,-0.005 -0.0888,0.005 -0.0849,-0.005 0,0.005 c -4.52127,0.13562 -9.01034,1.49853 -11.82125,2.64993 -3.58169,1.46809 -5.52523,3.52003 -6.40431,4.47053 -1.57864,1.69864 -2.77384,3.43046 -2.87434,5.28882 -0.0995,1.86559 -0.46246,2.76809 -1.24691,5.01906 -0.78444,2.26151 1.16691,3.0638 0.77079,4.82762 -0.38832,1.765 0,6.36432 0,6.36432 0.28197,-0.12762 3.88708,-2.40601 4.68322,-3.18157 2.83628,-2.76926 6.0443,-6.74014 16.97768,-6.90591 10.66215,0.16079 14.30434,5.79072 17.24404,8.62397 0.91908,0.89567 4.11733,1.32409 4.42272,1.46351 0,0 0.39417,-4.59932 0,-6.36432 -0.39027,-1.76382 1.55815,-2.56611 0.76785,-4.82762"
     id="path3632"
     style="fill:#f1f0ce;fill-opacity:1;fill-rule:nonzero;stroke:none" /></svg>