<?xml version="1.0" encoding="UTF-8" standalone="no"?>
<!-- Generator: Adobe Illustrator 18.1.1, SVG Export Plug-In . SVG Version: 6.00 Build 0)  -->

<svg
   xmlns:dc="http://purl.org/dc/elements/1.1/"
   xmlns:cc="http://creativecommons.org/ns#"
   xmlns:rdf="http://www.w3.org/1999/02/22-rdf-syntax-ns#"
   xmlns:svg="http://www.w3.org/2000/svg"
   xmlns="http://www.w3.org/2000/svg"
   xmlns:sodipodi="http://sodipodi.sourceforge.net/DTD/sodipodi-0.dtd"
   xmlns:inkscape="http://www.inkscape.org/namespaces/inkscape"
   version="1.1"
   id="Layer_1"
   x="0px"
   y="0px"
   width="480px"
   height="80px"
   viewBox="0 0 480 80"
   enable-background="new 0 0 480 80"
   xml:space="preserve"
   inkscape:version="0.48.4 r9939"
   sodipodi:docname="cd-category-icons.svg"><metadata
     id="metadata36"><rdf:RDF><cc:Work
         rdf:about=""><dc:format>image/svg+xml</dc:format><dc:type
           rdf:resource="http://purl.org/dc/dcmitype/StillImage" /></cc:Work></rdf:RDF></metadata><defs
     id="defs34" /><sodipodi:namedview
     pagecolor="#ffffff"
     bordercolor="#666666"
     borderopacity="1"
     objecttolerance="10"
     gridtolerance="10"
     guidetolerance="10"
     inkscape:pageopacity="0"
     inkscape:pageshadow="2"
     inkscape:window-width="1227"
     inkscape:window-height="776"
     id="namedview32"
     showgrid="false"
     showguides="true"
     inkscape:guide-bbox="true"
     inkscape:zoom="2.8333333"
     inkscape:cx="139.11007"
     inkscape:cy="82.380134"
     inkscape:window-x="53"
     inkscape:window-y="24"
     inkscape:window-maximized="1"
     inkscape:current-layer="Layer_1"><sodipodi:guide
       orientation="0,1"
       position="91.840693,55.90303"
       id="guide3106" /><sodipodi:guide
       orientation="0,1"
       position="45.421212,23.958442"
       id="guide3108" /><sodipodi:guide
       orientation="1,0"
       position="102.82164,121.28961"
       id="guide3110" /><sodipodi:guide
       orientation="1,0"
       position="135.7645,103.81991"
       id="guide3112" /><sodipodi:guide
       orientation="1,0"
       position="184.18052,78.863203"
       id="guide4956" /><sodipodi:guide
       orientation="1,0"
       position="215.12684,85.851082"
       id="guide4958" /><sodipodi:guide
       orientation="1,0"
       position="264.04199,52.409091"
       id="guide5143" /><sodipodi:guide
       orientation="1,0"
       position="296.23615,70.377922"
       id="guide5145" /><sodipodi:guide
       orientation="1,0"
       position="343.90346,68.630952"
       id="guide5147" /><sodipodi:guide
       orientation="1,0"
       position="376.34719,71.875325"
       id="guide5149" /><sodipodi:guide
       orientation="1,0"
       position="424.26407,15.47316"
       id="guide5151" /><sodipodi:guide
       orientation="1,0"
       position="456.70779,4.991342"
       id="guide5153" /><sodipodi:guide
       orientation="1,0"
       position="55.154329,18.717532"
       id="guide5221" /><sodipodi:guide
       orientation="1,0"
       position="24.457576,23.958442"
       id="guide5223" /></sodipodi:namedview><g
     id="g3182"
     transform="matrix(0.06535162,0,0,0.06535162,103.19734,23.723971)"
     style="fill:#ffffff"><g
       id="g3115"
       style="fill:#ffffff"><g
         id="_x31_5_38_"
         style="fill:#ffffff"><g
           id="g3118"
           style="fill:#ffffff"><path
             id="path3120"
             d="m 118.505,115.332 h 6.938 c 10.544,0 19.091,-8.55 19.091,-19.091 V 43.558 23.852 c 0,-10.541 -8.547,-19.09 -19.091,-19.09 h -6.938 c -10.543,0 -19.09,8.549 -19.09,19.09 v 19.707 52.682 c 0,10.541 8.547,19.091 19.09,19.091 z"
             inkscape:connector-curvature="0"
             style="fill:#ffffff" /><path
             id="path3122"
             d="m 363.373,114.859 h 6.938 c 10.543,0 19.09,-8.549 19.09,-19.091 v -57.21 -15.18 c 0,-10.54 -8.547,-19.089 -19.09,-19.089 h -6.938 c -10.545,0 -19.092,8.549 -19.092,19.089 v 15.18 57.209 c 0.002,10.543 8.549,19.092 19.092,19.092 z"
             inkscape:connector-curvature="0"
             style="fill:#ffffff" /><path
             id="path3124"
             d="M 453.916,43.558 H 404.92 v 57.209 c 0,19.084 -15.525,29.61 -34.607,29.61 h -6.938 c -19.084,0 -34.609,-15.526 -34.609,-34.61 V 43.558 H 160.053 V 96.24 c 0,19.084 -15.525,34.61 -34.609,34.61 h -6.938 c -19.083,0 -34.608,-15.526 -34.608,-34.61 V 43.558 H 31.036 C 13.923,43.558 0,57.481 0,74.595 v 375.03 c 0,17.114 13.923,31.037 31.036,31.037 h 422.88 c 17.113,0 31.035,-13.923 31.035,-31.037 V 74.595 C 484.953,57.482 471.029,43.558 453.916,43.558 z m 0,406.067 H 31.037 L 31.036,166.412 h 422.886 l 0.016,283.212 c -0.002,0 -0.008,10e-4 -0.022,10e-4 z"
             inkscape:connector-curvature="0"
             style="fill:#ffffff" /><path
             id="path3126"
             d="m 258.498,261.41 h 55.727 c 2.209,0 4,-1.791 4,-4 v -48.255 c 0,-2.209 -1.791,-4 -4,-4 h -55.727 c -2.209,0 -4,1.791 -4,4 v 48.255 c 0,2.209 1.791,4 4,4 z"
             inkscape:connector-curvature="0"
             style="fill:#ffffff" /><path
             id="path3128"
             d="m 349.443,261.41 h 55.727 c 2.209,0 4,-1.791 4,-4 v -48.255 c 0,-2.209 -1.791,-4 -4,-4 h -55.727 c -2.209,0 -4,1.791 -4,4 v 48.255 c 0,2.209 1.791,4 4,4 z"
             inkscape:connector-curvature="0"
             style="fill:#ffffff" /><path
             id="path3130"
             d="m 76.611,340.41 h 55.726 c 2.209,0 4,-1.791 4,-4 v -48.256 c 0,-2.209 -1.791,-4 -4,-4 H 76.611 c -2.209,0 -4,1.791 -4,4 v 48.256 c 0,2.209 1.791,4 4,4 z"
             inkscape:connector-curvature="0"
             style="fill:#ffffff" /><path
             id="path3132"
             d="m 167.555,340.41 h 55.726 c 2.209,0 4,-1.791 4,-4 v -48.256 c 0,-2.209 -1.791,-4 -4,-4 h -55.726 c -2.209,0 -4,1.791 -4,4 v 48.256 c 0,2.209 1.791,4 4,4 z"
             inkscape:connector-curvature="0"
             style="fill:#ffffff" /><path
             id="path3134"
             d="m 258.499,340.41 h 55.726 c 2.209,0 4,-1.791 4,-4 v -48.256 c 0,-2.209 -1.791,-4 -4,-4 h -55.726 c -2.209,0 -4,1.791 -4,4 v 48.256 c 0,2.209 1.791,4 4,4 z"
             inkscape:connector-curvature="0"
             style="fill:#ffffff" /><path
             id="path3136"
             d="m 349.443,340.41 h 55.727 c 2.209,0 4,-1.791 4,-4 v -48.256 c 0,-2.209 -1.791,-4 -4,-4 h -55.727 c -2.209,0 -4,1.791 -4,4 v 48.256 c 0,2.209 1.791,4 4,4 z"
             inkscape:connector-curvature="0"
             style="fill:#ffffff" /><path
             id="path3138"
             d="M 132.337,363.154 H 76.612 c -2.209,0 -4,1.791 -4,4 v 48.256 c 0,2.209 1.791,4 4,4 h 55.726 c 2.209,0 4,-1.791 4,-4 v -48.256 c -0.001,-2.209 -1.792,-4 -4.001,-4 z"
             inkscape:connector-curvature="0"
             style="fill:#ffffff" /><path
             id="path3140"
             d="m 223.282,363.154 h -55.726 c -2.209,0 -4,1.791 -4,4 v 48.256 c 0,2.209 1.791,4 4,4 h 55.726 c 2.209,0 4,-1.791 4,-4 v -48.256 c 0,-2.209 -1.791,-4 -4,-4 z"
             inkscape:connector-curvature="0"
             style="fill:#ffffff" /><path
             id="path3142"
             d="M 314.227,363.154 H 258.5 c -2.209,0 -4,1.791 -4,4 v 48.256 c 0,2.209 1.791,4 4,4 h 55.727 c 2.209,0 4,-1.791 4,-4 v -48.256 c 0,-2.209 -1.791,-4 -4,-4 z"
             inkscape:connector-curvature="0"
             style="fill:#ffffff" /><path
             id="path3144"
             d="m 405.17,363.154 h -55.727 c -2.209,0 -4,1.791 -4,4 v 48.256 c 0,2.209 1.791,4 4,4 h 55.727 c 2.209,0 4,-1.791 4,-4 v -48.256 c 0,-2.209 -1.791,-4 -4,-4 z"
             inkscape:connector-curvature="0"
             style="fill:#ffffff" /></g></g></g><g
       id="g3146"
       style="fill:#ffffff" /><g
       id="g3148"
       style="fill:#ffffff" /><g
       id="g3150"
       style="fill:#ffffff" /><g
       id="g3152"
       style="fill:#ffffff" /><g
       id="g3154"
       style="fill:#ffffff" /><g
       id="g3156"
       style="fill:#ffffff" /><g
       id="g3158"
       style="fill:#ffffff" /><g
       id="g3160"
       style="fill:#ffffff" /><g
       id="g3162"
       style="fill:#ffffff" /><g
       id="g3164"
       style="fill:#ffffff" /><g
       id="g3166"
       style="fill:#ffffff" /><g
       id="g3168"
       style="fill:#ffffff" /><g
       id="g3170"
       style="fill:#ffffff" /><g
       id="g3172"
       style="fill:#ffffff" /><g
       id="g3174"
       style="fill:#ffffff" /></g><g
     id="g4937"
     transform="matrix(0.05547814,0,0,0.05547814,183.71274,23.82661)"
     style="fill:#ffffff"><g
       id="g4897"
       style="fill:#ffffff"><path
         id="path4899"
         d="M 568.247,72.536 523.25,503.071 c -1.537,14.732 -13.554,25.741 -27.868,26.606 l -5.508,-120.146 13.001,1.358 35.69,-341.459 -378.582,-39.562 -5,47.878 -30.16,1.381 5.471,-52.371 c 1.717,-16.404 16.39,-28.302 32.794,-26.593 l 378.574,39.564 c 16.405,1.724 28.302,16.405 26.585,32.809 z m -107.13,35.988 19.838,432.424 c 0.754,16.479 -11.979,30.436 -28.45,31.189 L 72.273,589.587 C 55.794,590.341 41.837,577.608 41.084,561.137 L 21.239,128.714 C 20.485,112.235 33.218,98.277 49.689,97.524 L 429.92,80.074 c 16.487,-0.754 30.443,11.979 31.197,28.45 z M 66.795,470.299 447.026,452.85 431.294,109.891 51.062,127.34 66.795,470.299 z M 427.397,350.623 c -0.485,-10.575 -4.702,-20.636 -11.904,-28.398 L 388.76,293.402 c -9.3,-8.911 -24.062,-8.232 -32.504,1.492 L 307.871,350.908 202.786,221.469 c -9.031,-11.165 -26.137,-11.054 -34.951,0.261 L 85.7,329.949 c -6.336,8.352 -9.546,18.659 -9.061,29.123 l 4.388,95.628 350.415,-16.076 -4.045,-88.001 z m -61.46,-118.19 c 22.666,-1.037 40.16,-20.226 39.123,-42.885 -1.037,-22.667 -20.226,-40.161 -42.885,-39.123 -22.666,1.037 -40.16,20.226 -39.123,42.885 1.045,22.666 20.225,40.168 42.885,39.123 z"
         inkscape:connector-curvature="0"
         style="fill:#ffffff" /></g><g
       id="g4901"
       style="fill:#ffffff" /><g
       id="g4903"
       style="fill:#ffffff" /><g
       id="g4905"
       style="fill:#ffffff" /><g
       id="g4907"
       style="fill:#ffffff" /><g
       id="g4909"
       style="fill:#ffffff" /><g
       id="g4911"
       style="fill:#ffffff" /><g
       id="g4913"
       style="fill:#ffffff" /><g
       id="g4915"
       style="fill:#ffffff" /><g
       id="g4917"
       style="fill:#ffffff" /><g
       id="g4919"
       style="fill:#ffffff" /><g
       id="g4921"
       style="fill:#ffffff" /><g
       id="g4923"
       style="fill:#ffffff" /><g
       id="g4925"
       style="fill:#ffffff" /><g
       id="g4927"
       style="fill:#ffffff" /><g
       id="g4929"
       style="fill:#ffffff" /></g><g
     id="g5003"
     transform="matrix(0.07540189,0,0,0.07540189,344.77186,23.878007)"
     style="fill:#ffffff"><g
       id="g4961"
       style="fill:#ffffff"><g
         id="g4963"
         style="fill:#ffffff"><path
           id="path4965"
           d="m 350.035,275.014 c -3.38,-8.072 -11.508,-13.254 -19.263,-16.434 l -25.851,-11.898 c -0.028,-18.977 -0.207,-113.495 -0.101,-123.436 0.153,-15.465 -1.69,-29.278 -5.754,-41.227 l 32.188,-11.63 0.074,29.738 -2.188,-10e-4 c -1.521,-0.134 -2.865,0.96 -3.04,2.478 l -2.833,24.559 c -0.088,0.747 0.135,1.493 0.609,2.081 0.473,0.585 1.166,0.963 1.914,1.026 l 22.482,-0.008 c 0.756,-0.085 1.445,-0.446 1.912,-1.034 0.48,-0.586 0.693,-1.344 0.609,-2.094 -0.567,-4.823 -1.132,-9.639 -1.693,-14.462 l -1.174,-10.095 c -0.179,-1.505 -1.526,-2.601 -3.044,-2.466 l -2.188,0.003 0.047,-33.883 1.144,-0.415 3.806,-1.375 c 3.227,-1.164 5.372,-4.225 5.372,-7.65 0,-3.427 -2.146,-6.488 -5.372,-7.653 L 213.071,0.488 c -1.789,-0.65 -3.744,-0.65 -5.531,0 L 72.915,49.139 c -3.227,1.165 -5.374,4.227 -5.374,7.653 0,3.426 2.147,6.486 5.374,7.65 l 48.819,17.644 c -4.263,12.257 -6.203,26.431 -6.044,42.259 l 0.002,122.333 -25.855,11.902 c -7.757,3.18 -15.383,8.016 -19.263,16.434 0,0 -56.998,145.596 -26.081,145.596 h 331.62 C 407.034,420.607 350.035,275.014 350.035,275.014 z M 262.119,262.51 c 0,0 -43.391,14.377 -51.748,64.875 -0.022,0.133 -0.106,0.133 -0.129,0 -8.359,-50.498 -51.748,-64.875 -51.748,-64.875 l 28.439,-28.242 c -40.093,-17.982 -50.755,-79.127 -50.755,-79.127 -2.266,-8.839 -2.539,-14.885 -2.539,-14.885 20.073,-1.367 90.128,-7.401 94.917,-30.111 6.603,12.2 41.561,42.857 55.705,45.185 0,0 -13.729,60.463 -51.229,78.895 l 29.087,28.285 z"
           inkscape:connector-curvature="0"
           style="fill:#ffffff" /></g></g><g
       id="g4967"
       style="fill:#ffffff" /><g
       id="g4969"
       style="fill:#ffffff" /><g
       id="g4971"
       style="fill:#ffffff" /><g
       id="g4973"
       style="fill:#ffffff" /><g
       id="g4975"
       style="fill:#ffffff" /><g
       id="g4977"
       style="fill:#ffffff" /><g
       id="g4979"
       style="fill:#ffffff" /><g
       id="g4981"
       style="fill:#ffffff" /><g
       id="g4983"
       style="fill:#ffffff" /><g
       id="g4985"
       style="fill:#ffffff" /><g
       id="g4987"
       style="fill:#ffffff" /><g
       id="g4989"
       style="fill:#ffffff" /><g
       id="g4991"
       style="fill:#ffffff" /><g
       id="g4993"
       style="fill:#ffffff" /><g
       id="g4995"
       style="fill:#ffffff" /></g><g
     id="g5064"
     transform="matrix(0.07810328,0,0,0.07810328,421.27737,21.198004)"
     style="fill:#ffffff"><g
       id="g5024"
       style="fill:#ffffff"><path
         id="path5026"
         d="m 495.622,113.089 v 150.03 c 0,0 -32.11,6.326 -38.725,7.158 -6.594,0.83 -27.316,7.521 -42.334,-6.914 -23.16,-22.197 -105.447,-104.03 -105.447,-104.03 0,0 -14.188,-13.922 -36.969,-1.89 -20.912,11.022 -51.911,27.175 -64.859,33.465 -24.477,13.028 -44.764,-7.642 -44.764,-23.387 0,-12.213 7.621,-20.502 18.515,-26.598 29.524,-17.898 91.752,-52.827 117.67,-66.598 15.754,-8.379 27.105,-9.097 48.734,9.124 26.638,22.403 50.344,42.824 50.344,42.824 0,0 7.732,6.453 20.063,3.854 30.28,-6.402 77.772,-17.038 77.772,-17.038 z M 168.098,367.3 c 3.985,-10.238 2.653,-21.689 -4.987,-29.545 -6.865,-7.027 -16.888,-8.879 -26.445,-6.689 2.673,-9.479 1.197,-19.568 -5.705,-26.688 -6.886,-7.009 -16.89,-8.898 -26.446,-6.688 2.653,-9.465 1.181,-19.553 -5.725,-26.652 -10.814,-11.092 -29.519,-10.616 -41.807,1.097 -12.223,11.729 -20.053,32.979 -9.144,45.487 10.891,12.445 23.405,4.873 32.945,2.699 -2.654,9.465 -10.606,18.269 -0.813,30.658 9.784,12.395 23.404,4.875 32.954,2.721 -2.663,9.429 -10.268,19.117 -0.851,30.604 9.502,11.522 25.065,5.383 35.344,2.19 -3.967,10.199 -12.458,21.193 -1.549,33.513 10.892,12.409 36.063,6.668 48.358,-5.063 12.262,-11.729 13.439,-30.318 2.654,-41.445 -7.446,-7.634 -18.546,-9.41 -28.783,-6.199 z m 224.344,-78.054 c -88.88,-88.881 -47.075,-47.058 -94.906,-94.992 0,0 -14.375,-14.311 -33.321,-5.998 -13.3,5.828 -30.423,13.771 -43.307,19.835 -14.158,7.424 -24.347,9.722 -29.131,9.69 -27.37,-0.179 -49.576,-22.178 -49.576,-49.521 0,-17.738 9.417,-33.181 23.462,-41.947 19.75,-13.667 65.21,-37.847 65.21,-37.847 0,0 -13.849,-17.549 -44.187,-17.549 -30.329,0 -93.695,41.512 -93.695,41.512 0,0 -17.976,11.514 -43.601,1.143 L 0,96.373 V 268.05 c 0,0 14.103,4.082 26.775,9.258 2.862,-8.162 7.48,-15.699 13.886,-21.924 21.023,-20.024 55.869,-20.232 74.996,-0.537 5.762,5.987 9.783,13.129 11.835,21.024 7.707,2.379 14.688,6.593 20.298,12.373 5.779,5.947 9.785,13.129 11.854,20.984 7.698,2.381 14.669,6.611 20.298,12.395 6.339,6.537 10.562,14.433 12.534,22.988 8.047,2.344 15.319,6.705 21.176,12.693 11.495,11.807 15.575,27.826 13.103,43.278 0.02,0 0.058,0 0.076,0.035 0.188,0.246 7.122,7.976 11.446,12.336 8.474,8.482 22.311,8.482 30.811,0 8.444,-8.479 8.481,-22.289 0,-30.811 -0.304,-0.303 -30.572,-31.963 -28.136,-34.418 2.418,-2.438 40.981,37.688 41.699,38.422 8.463,8.465 22.291,8.465 30.792,0 8.481,-8.479 8.463,-22.289 0,-30.791 -0.416,-0.396 -2.152,-2.059 -2.796,-2.721 0,0 -38.234,-34.06 -35.324,-36.97 2.946,-2.928 50.438,41.392 50.515,41.392 8.537,7.688 21.687,7.631 29.9,-0.586 7.991,-7.99 8.162,-20.629 1.078,-29.146 -0.15,-0.453 -36.194,-38.121 -33.381,-40.955 2.854,-2.871 38.519,33.853 38.594,33.929 8.444,8.463 22.291,8.463 30.792,0 8.463,-8.464 8.463,-22.291 0,-30.83 -0.115,-0.072 -0.266,-0.148 -0.379,-0.222 z"
         style="fill:#ffffff"
         inkscape:connector-curvature="0" /></g><g
       id="g5028"
       style="fill:#ffffff" /><g
       id="g5030"
       style="fill:#ffffff" /><g
       id="g5032"
       style="fill:#ffffff" /><g
       id="g5034"
       style="fill:#ffffff" /><g
       id="g5036"
       style="fill:#ffffff" /><g
       id="g5038"
       style="fill:#ffffff" /><g
       id="g5040"
       style="fill:#ffffff" /><g
       id="g5042"
       style="fill:#ffffff" /><g
       id="g5044"
       style="fill:#ffffff" /><g
       id="g5046"
       style="fill:#ffffff" /><g
       id="g5048"
       style="fill:#ffffff" /><g
       id="g5050"
       style="fill:#ffffff" /><g
       id="g5052"
       style="fill:#ffffff" /><g
       id="g5054"
       style="fill:#ffffff" /><g
       id="g5056"
       style="fill:#ffffff" /></g><g
     id="g5123"
     transform="matrix(0.07513389,0,0,0.07513389,259.23291,22.901361)"
     style="fill:#ffffff"><g
       id="XMLID_3_"
       style="fill:#ffffff"><path
         d="m 282.073,299.336 c -3.537,-3.544 -8.33,-5.525 -13.346,-5.525 -5.009,0 -9.802,1.982 -13.346,5.525 l -24.898,24.915 -120.966,-120.983 24.897,-24.897 c 7.376,-7.367 7.376,-19.315 0,-26.684 L 61.471,78.743 c -3.685,-3.683 -8.51,-5.534 -13.339,-5.534 -4.833,0 -9.662,1.852 -13.343,5.534 l -24.9,24.915 c -31.476,31.493 14.678,128.679 103.115,217.106 69.589,69.582 144.615,112.998 188.753,112.998 11.947,0 21.634,-3.183 28.337,-9.893 l -0.043,-0.049 24.965,-24.85 c 7.369,-7.375 7.369,-19.315 0,-26.691 l -72.943,-72.943 z"
         id="XMLID_5_"
         inkscape:connector-curvature="0"
         style="fill:#ffffff" /><path
         d="M 475.036,60.859 H 139.16 c -10.817,0 -19.586,8.769 -19.586,19.586 v 8.766 l 38.647,38.646 c 9.932,9.926 15.408,23.132 15.408,37.168 0,14.044 -5.477,27.25 -15.401,37.158 l -1.086,1.085 26.001,26.002 53.227,-44.174 -84.439,-70.091 c -5.372,-4.456 -6.11,-12.416 -1.655,-17.785 4.458,-5.37 12.425,-6.103 17.787,-1.653 L 307.104,210.982 446.141,95.567 c 5.369,-4.449 13.336,-3.717 17.787,1.653 4.455,5.369 3.717,13.329 -1.655,17.785 l -84.44,70.091 84.292,70.243 c 5.352,4.459 6.082,12.409 1.634,17.77 l 0,0 c -4.461,5.375 -12.438,6.108 -17.805,1.637 L 358.06,201.51 315.168,237.115 c -2.336,1.939 -5.204,2.91 -8.065,2.91 -2.864,0 -5.732,-0.971 -8.067,-2.91 l -42.889,-35.605 -55.069,45.702 17.687,17.687 11.709,11.709 1.094,-1.085 c 4.556,-4.556 9.852,-8.042 15.549,-10.624 6.718,-3.042 14.012,-4.77 21.611,-4.77 7.606,0 14.908,1.728 21.616,4.77 5.707,2.582 11.003,6.068 15.541,10.624 l 30.68,30.679 h 138.473 c 10.817,0 19.586,-8.77 19.586,-19.586 V 80.445 C 494.622,69.628 485.853,60.859 475.036,60.859 z"
         id="XMLID_4_"
         inkscape:connector-curvature="0"
         style="fill:#ffffff" /></g><g
       id="g5087"
       style="fill:#ffffff" /><g
       id="g5089"
       style="fill:#ffffff" /><g
       id="g5091"
       style="fill:#ffffff" /><g
       id="g5093"
       style="fill:#ffffff" /><g
       id="g5095"
       style="fill:#ffffff" /><g
       id="g5097"
       style="fill:#ffffff" /><g
       id="g5099"
       style="fill:#ffffff" /><g
       id="g5101"
       style="fill:#ffffff" /><g
       id="g5103"
       style="fill:#ffffff" /><g
       id="g5105"
       style="fill:#ffffff" /><g
       id="g5107"
       style="fill:#ffffff" /><g
       id="g5109"
       style="fill:#ffffff" /><g
       id="g5111"
       style="fill:#ffffff" /><g
       id="g5113"
       style="fill:#ffffff" /><g
       id="g5115"
       style="fill:#ffffff" /></g><g
     id="g5200"
     transform="matrix(1.146937,0,0,1.381916,23.866275,19.926372)"
     style="fill:#ffffff"><g
       id="g5156"
       style="fill:#ffffff"><g
         id="g5158"
         style="fill:#ffffff"><path
           id="path5160"
           d="m 21.24,4.071 c -5.818,0 -10.535,-4.406 -10.535,1.489 0,1.1 0.164,2.375 0.468,3.722 1.55,-0.095 3.046,-0.513 4.386,-0.885 1.302,-0.363 2.427,-0.676 3.47,-0.676 1.266,0 2.713,0.461 3.354,2.348 0.002,-0.006 0.004,-0.019 0.004,-0.019 h 4.682 c 0.045,0.183 0.076,0.29 0.076,0.443 0,1.027 -1.082,1.86 -2.416,1.86 -0.869,0 -1.629,-0.352 -2.056,-0.88 0.03,0.299 0.046,0.62 0.046,0.967 0,1.059 -0.134,2.261 -0.388,3.536 1.342,0.433 2.392,1.566 2.671,3.006 l -1.044,-0.364 c -0.325,-0.823 -0.998,-1.461 -1.821,-1.753 -0.421,1.775 -1.061,3.65 -1.89,5.436 0.327,0.067 0.657,0.106 0.993,0.106 5.818,0 10.535,-10.952 10.535,-16.848 0,-5.896 -4.716,-1.488 -10.535,-1.488 z"
           inkscape:connector-curvature="0"
           style="fill:#ffffff" /><path
           id="path5162"
           d="m 15.747,10.056 c -0.142,0.039 -0.286,0.079 -0.432,0.119 -1.435,0.39 -3.059,0.774 -4.779,0.774 C 4.717,10.95 0,6.547 0,12.442 c 0,5.894 4.717,16.846 10.536,16.846 5.817,0 10.534,-10.952 10.534,-16.846 0,-3.975 -2.144,-3.269 -5.323,-2.386 z M 4.643,18.054 C 4.599,17.962 4.567,17.783 4.567,17.628 c 0,-1.025 1.082,-1.845 2.417,-1.845 1.335,0 2.417,0.815 2.417,1.845 0,0.151 -0.031,0.334 -0.076,0.426 H 4.643 z m 5.893,7.451 c -2.076,0 -3.801,-1.537 -4.182,-3.447 h 8.364 c -0.383,1.91 -2.107,3.447 -4.182,3.447 z m 5.827,-7.451 h -4.68 c -0.045,-0.092 -0.076,-0.271 -0.076,-0.426 0,-1.025 1.082,-1.845 2.417,-1.845 1.335,0 2.417,0.815 2.417,1.845 -0.002,0.155 -0.032,0.336 -0.078,0.426 z"
           inkscape:connector-curvature="0"
           style="fill:#ffffff" /></g></g><g
       id="g5164"
       style="fill:#ffffff" /><g
       id="g5166"
       style="fill:#ffffff" /><g
       id="g5168"
       style="fill:#ffffff" /><g
       id="g5170"
       style="fill:#ffffff" /><g
       id="g5172"
       style="fill:#ffffff" /><g
       id="g5174"
       style="fill:#ffffff" /><g
       id="g5176"
       style="fill:#ffffff" /><g
       id="g5178"
       style="fill:#ffffff" /><g
       id="g5180"
       style="fill:#ffffff" /><g
       id="g5182"
       style="fill:#ffffff" /><g
       id="g5184"
       style="fill:#ffffff" /><g
       id="g5186"
       style="fill:#ffffff" /><g
       id="g5188"
       style="fill:#ffffff" /><g
       id="g5190"
       style="fill:#ffffff" /><g
       id="g5192"
       style="fill:#ffffff" /></g></svg>