<?xml version="1.0" encoding="iso-8859-1"?>
<!-- Generator: Adobe Illustrator 16.0.0, SVG Export Plug-In . SVG Version: 6.00 Build 0)  -->
<!DOCTYPE svg PUBLIC "-//W3C//DTD SVG 1.1//EN" "http://www.w3.org/Graphics/SVG/1.1/DTD/svg11.dtd">
<svg version="1.1" id="Capa_1" xmlns="http://www.w3.org/2000/svg" xmlns:xlink="http://www.w3.org/1999/xlink" x="0px" y="0px"
	 width="31.653px" height="31.653px" viewBox="0 0 31.653 31.653" style="enable-background:new 0 0 31.653 31.653;"
	 xml:space="preserve">
<g>
	<path d="M27.614,0c-1.146,0-2.076,0.93-2.076,2.076v3.011h-8.603v-1.46c0-0.479-0.389-0.868-0.868-0.868h-2.051
		c-0.479,0-0.868,0.389-0.868,0.868v1.46H11.85v-1.46c0-0.479-0.389-0.868-0.868-0.868H8.93c-0.48,0-0.868,0.389-0.868,0.868v1.46
		H6.167V2.076C6.167,0.929,5.238,0,4.091,0H3.594C2.206,0,1.082,1.125,1.082,2.512v27.065c0,1.146,0.929,2.076,2.076,2.076h0.934
		c1.146,0,2.076-0.931,2.076-2.076v-2.522h14.123v1.404c0,0.479,0.389,0.868,0.868,0.868h2.051c0.479,0,0.868-0.39,0.868-0.868
		v-1.404h1.46v2.522c0,1.146,0.929,2.076,2.076,2.076h0.881c1.146,0,2.076-0.931,2.076-2.076V2.076C30.571,0.929,29.643,0,28.495,0
		H27.614z M8.061,7.574v1.46c0,0.479,0.389,0.868,0.868,0.868h2.052c0.479,0,0.868-0.389,0.868-0.868v-1.46h1.299v1.46
		c0,0.479,0.389,0.868,0.868,0.868h2.051c0.479,0,0.868-0.389,0.868-0.868v-1.46h8.604v7.251h-1.461v-1.674
		c0-0.479-0.389-0.868-0.868-0.868h-2.052c-0.479,0-0.868,0.389-0.868,0.868v1.674h-1.298v-1.674c0-0.479-0.389-0.868-0.868-0.868
		h-2.051c-0.479,0-0.868,0.389-0.868,0.868v1.674h-1.84v-1.674c0-0.479-0.389-0.868-0.868-0.868h-2.051
		c-0.479,0-0.868,0.389-0.868,0.868v1.674H6.167V7.574H8.061z M24.077,24.512v-1.402c0-0.479-0.39-0.868-0.868-0.868h-2.052
		c-0.479,0-0.868,0.39-0.868,0.868v1.402H6.166v-7.197h3.41v1.188c0,0.479,0.389,0.868,0.868,0.868h2.051
		c0.48,0,0.868-0.389,0.868-0.868v-1.188h1.84v1.188c0,0.479,0.389,0.868,0.868,0.868h2.051c0.479,0,0.868-0.389,0.868-0.868v-1.188
		h1.298v1.188c0,0.479,0.39,0.868,0.868,0.868h2.052c0.479,0,0.868-0.389,0.868-0.868v-1.188h1.461v7.197H24.077L24.077,24.512z"/>
</g>
<g>
</g>
<g>
</g>
<g>
</g>
<g>
</g>
<g>
</g>
<g>
</g>
<g>
</g>
<g>
</g>
<g>
</g>
<g>
</g>
<g>
</g>
<g>
</g>
<g>
</g>
<g>
</g>
<g>
</g>
</svg>
