<?xml version="1.0" encoding="iso-8859-1"?>
<!-- Generator: Adobe Illustrator 16.0.0, SVG Export Plug-In . SVG Version: 6.00 Build 0)  -->
<!DOCTYPE svg PUBLIC "-//W3C//DTD SVG 1.1//EN" "http://www.w3.org/Graphics/SVG/1.1/DTD/svg11.dtd">
<svg version="1.1" id="Capa_1" xmlns="http://www.w3.org/2000/svg" xmlns:xlink="http://www.w3.org/1999/xlink" x="0px" y="0px"
	 width="31.861px" height="31.861px" viewBox="0 0 31.861 31.861" style="enable-background:new 0 0 31.861 31.861;"
	 xml:space="preserve">
<g>
	<g>
		<path d="M10.423,26.927c-0.009,0.014-0.018,0.029-0.024,0.043C10.405,26.957,10.415,26.94,10.423,26.927z"/>
		<path d="M5.896,22.88c0.011-0.002,0.021-0.004,0.03-0.006C5.917,22.876,5.905,22.878,5.896,22.88z"/>
		<path d="M10.282,27.167c0.003-0.002,0.003-0.002,0.005-0.004C10.285,27.166,10.285,27.166,10.282,27.167z"/>
		<g>
			<path d="M30.156,0.571c-1.004-0.906-1.666-0.462-1.666-0.462L12.323,15.732l4.598,4.143L30.788,2.181
				C30.788,2.181,31.163,1.478,30.156,0.571z"/>
			<path d="M6.879,21.771l4.597,4.145l4.629-5.153l-4.625-4.117L6.879,21.771z M10.019,22.035c-0.093,0.104-0.226,0.17-0.366,0.178
				c-0.142,0.011-0.28-0.039-0.387-0.131l-0.271-0.24c-0.106-0.094-0.171-0.227-0.18-0.365c-0.009-0.143,0.039-0.28,0.132-0.387
				l2.11-2.393c0.194-0.221,0.531-0.24,0.752-0.047l0.271,0.239c0.106,0.094,0.171,0.226,0.18,0.367
				c0.009,0.142-0.039,0.279-0.133,0.386L10.019,22.035z"/>
			<path d="M5.925,22.875c-0.01,0.002-0.02,0.004-0.03,0.006c-3.481,0.822-6.905,4.56-3.46,8.746
				c0.158,0.192,0.415,0.275,0.657,0.215c0.242-0.062,0.426-0.26,0.471-0.506c0.101-0.551,0.322-1.153,0.786-1.594
				c1.058-1,3.993,0.616,5.934-2.574c0.001-0.002,0.217-0.383,0.254-0.459l-4.318-3.896C6.121,22.832,6.023,22.854,5.925,22.875z
				 M6.026,28.219c-0.865,0.032-1.762,0.067-2.444,0.713c-0.133,0.126-0.252,0.259-0.358,0.397c-0.12,0.156-0.318,0.233-0.514,0.199
				c-0.195-0.031-0.355-0.173-0.417-0.359c-0.193-0.603-0.241-1.24-0.054-1.901c0.109-0.386,0.287-0.746,0.514-1.076
				c0.879,0.957,1.644,1.503,3.062,1.375c0.886-0.08,1.7-0.043,2.455,0.155C7.573,28.16,6.814,28.188,6.026,28.219z"/>
		</g>
	</g>
</g>
<g>
</g>
<g>
</g>
<g>
</g>
<g>
</g>
<g>
</g>
<g>
</g>
<g>
</g>
<g>
</g>
<g>
</g>
<g>
</g>
<g>
</g>
<g>
</g>
<g>
</g>
<g>
</g>
<g>
</g>
</svg>
