<?xml version="1.0" encoding="iso-8859-1"?>
<!-- Generator: Adobe Illustrator 16.0.0, SVG Export Plug-In . SVG Version: 6.00 Build 0)  -->
<!DOCTYPE svg PUBLIC "-//W3C//DTD SVG 1.1//EN" "http://www.w3.org/Graphics/SVG/1.1/DTD/svg11.dtd">
<svg version="1.1" id="Capa_1" xmlns="http://www.w3.org/2000/svg" xmlns:xlink="http://www.w3.org/1999/xlink" x="0px" y="0px"
	 width="31.962px" height="31.961px" viewBox="0 0 31.962 31.961" style="enable-background:new 0 0 31.962 31.961;"
	 xml:space="preserve">
<g>
	<path d="M27.705,2.756c-2.354,0-4.258,1.906-4.258,4.256c0,0.411,0.059,0.806,0.166,1.182l-4.219,2.71
		c-1.143-1.195-2.75-1.939-4.535-1.939c-1.347,0-2.593,0.424-3.614,1.146L7.936,6.59c0.367-0.628,0.576-1.359,0.576-2.138
		c0.002-2.353-1.904-4.258-4.256-4.258C1.907,0.194,0,2.099,0,4.452c0,2.35,1.907,4.255,4.256,4.255
		c0.686,0,1.334-0.161,1.906-0.449l3.404,3.621C8.951,12.849,8.593,14,8.593,15.233c0,1.493,0.524,2.863,1.394,3.939l-3.283,4.349
		c-0.461-0.175-0.962-0.267-1.484-0.267c-2.351,0-4.257,1.902-4.257,4.254s1.906,4.26,4.257,4.26c2.351,0,4.257-1.907,4.257-4.26
		c0-0.942-0.308-1.815-0.828-2.521l3.21-4.252c0.893,0.488,1.916,0.766,3.004,0.766c3.463,0,6.269-2.808,6.269-6.269
		c0-0.802-0.151-1.569-0.427-2.274l4.227-2.716c0.745,0.64,1.715,1.027,2.774,1.027c2.349,0,4.256-1.905,4.256-4.258
		C31.961,4.663,30.055,2.756,27.705,2.756z"/>
</g>
<g>
</g>
<g>
</g>
<g>
</g>
<g>
</g>
<g>
</g>
<g>
</g>
<g>
</g>
<g>
</g>
<g>
</g>
<g>
</g>
<g>
</g>
<g>
</g>
<g>
</g>
<g>
</g>
<g>
</g>
</svg>
