<?xml version="1.0" encoding="iso-8859-1"?>
<!-- Generator: Adobe Illustrator 16.0.0, SVG Export Plug-In . SVG Version: 6.00 Build 0)  -->
<!DOCTYPE svg PUBLIC "-//W3C//DTD SVG 1.1//EN" "http://www.w3.org/Graphics/SVG/1.1/DTD/svg11.dtd">
<svg version="1.1" id="Capa_1" xmlns="http://www.w3.org/2000/svg" xmlns:xlink="http://www.w3.org/1999/xlink" x="0px" y="0px"
	 width="729.839px" height="729.839px" viewBox="0 0 729.839 729.839" style="enable-background:new 0 0 729.839 729.839;"
	 xml:space="preserve">
<g>
	<g>
		<g>
			<path d="M70.323,376.322c-6.296,0-11.404-5.107-11.404-11.403s5.108-11.404,11.404-11.404h213.582
				c6.296,0,11.404,5.108,11.404,11.404s-5.108,11.403-11.404,11.403H70.323L70.323,376.322z M328.094,376.322
				c-6.295,0-11.404-5.107-11.404-11.403s5.132-11.404,11.404-11.404h132.545c6.296,0,11.404,5.108,11.404,11.404
				s-5.108,11.403-11.404,11.403H328.094L328.094,376.322z M504.853,376.322c-6.296,0-11.403-5.107-11.403-11.403
				s5.107-11.404,11.403-11.404h154.663c6.295,0,11.403,5.108,11.403,11.404s-5.108,11.403-11.403,11.403H504.853L504.853,376.322z"
				/>
			<path d="M70.323,258.484c-6.296,0-11.404-5.108-11.404-11.403s5.108-11.404,11.404-11.404h69.206
				c6.296,0,11.404,5.108,11.404,11.404s-5.131,11.404-11.404,11.404L70.323,258.484L70.323,258.484z M183.743,258.484
				c-6.296,0-11.404-5.108-11.404-11.404s5.108-11.404,11.404-11.404h58.919c6.296,0,11.404,5.108,11.404,11.404
				s-5.108,11.404-11.404,11.404H183.743L183.743,258.484z M286.852,258.484c-6.296,0-11.404-5.108-11.404-11.404
				s5.108-11.404,11.404-11.404h232.731c6.296,0,11.403,5.108,11.403,11.404s-5.107,11.404-11.403,11.404H286.852L286.852,258.484z
				 M563.772,258.484c-6.296,0-11.402-5.108-11.402-11.404s5.106-11.404,11.403-11.404h95.743c6.295,0,11.403,5.108,11.403,11.404
				s-5.107,11.404-11.403,11.404H563.772z"/>
			<path d="M70.323,140.646c-6.296,0-11.404-5.108-11.404-11.404c0-6.296,5.108-11.404,11.404-11.404h331.42
				c6.296,0,11.403,5.108,11.403,11.404c0,6.295-5.107,11.403-11.403,11.403L70.323,140.646L70.323,140.646z M445.933,140.646
				c-6.296,0-11.402-5.108-11.402-11.403c0-6.296,5.106-11.404,11.402-11.404h213.583c6.295,0,11.403,5.108,11.403,11.404
				c0,6.295-5.107,11.403-11.403,11.403H445.933z"/>
			<path d="M70.323,494.161c-6.296,0-11.404-5.107-11.404-11.403s5.108-11.404,11.404-11.404h65.547
				c6.296,0,11.404,5.108,11.404,11.404s-5.108,11.403-11.404,11.403H70.323L70.323,494.161z M180.084,494.161
				c-6.296,0-11.404-5.107-11.404-11.403s5.108-11.404,11.404-11.404h206.194c6.296,0,11.402,5.108,11.402,11.404
				s-5.132,11.403-11.402,11.403H180.084L180.084,494.161z M430.467,494.161c-6.296,0-11.404-5.107-11.404-11.403
				s5.108-11.404,11.404-11.404h229.048c6.296,0,11.404,5.108,11.404,11.404s-5.108,11.403-11.404,11.403H430.467z"/>
			<path d="M70.323,612c-6.296,0-11.404-5.108-11.404-11.404s5.108-11.402,11.404-11.402h139.933
				c6.296,0,11.404,5.106,11.404,11.402S216.552,612,210.256,612H70.323L70.323,612z M254.445,612
				c-6.296,0-11.404-5.108-11.404-11.404s5.108-11.402,11.404-11.402h58.919c6.295,0,11.403,5.106,11.403,11.402
				S319.661,612,313.365,612H254.445L254.445,612z M357.554,612c-6.296,0-11.404-5.108-11.404-11.404s5.108-11.402,11.404-11.402
				h190.75c6.296,0,11.404,5.106,11.404,11.402S554.601,612,548.305,612H357.554L357.554,612z M592.495,612
				c-6.296,0-11.403-5.108-11.403-11.404s5.107-11.402,11.403-11.402h66.997c6.296,0,11.403,5.106,11.403,11.402
				S665.788,612,659.492,612H592.495z"/>
			<path d="M670.919,600.596c0,6.296-5.108,11.404-11.403,11.404c-6.296,0-11.403-5.108-11.403-11.404V70.323
				c0-13.019-5.369-24.922-13.971-33.522c-8.624-8.625-20.525-13.994-33.546-13.994H129.243c-13.019,0-24.922,5.369-33.522,13.97
				c-8.6,8.6-13.993,20.527-13.993,33.546v589.192c0,13.02,5.369,24.922,13.993,33.547c8.6,8.6,20.479,13.969,33.522,13.969h471.354
				c13.043,0,24.922-5.369,33.546-13.969c8.602-8.602,13.971-20.504,13.971-33.547c0-6.296,5.107-11.403,11.402-11.403
				c6.296,0,11.404,5.107,11.404,11.403c0,19.34-7.911,36.968-20.646,49.678c-12.733,12.733-30.314,20.646-49.678,20.646H129.243
				c-19.362,0-36.943-7.935-49.653-20.646c-12.759-12.734-20.67-30.363-20.67-49.678V70.323c0-19.315,7.935-36.919,20.669-49.654
				C92.299,7.935,109.927,0,129.243,0h471.354c19.315,0,36.943,7.911,49.679,20.669c12.709,12.71,20.645,30.315,20.645,49.654
				V600.596L670.919,600.596z"/>
			<path d="M401.744,81.014h0.285h43.903c6.296,0,11.404,5.108,11.404,11.404v0.309v73.34c0,6.296-5.108,11.404-11.404,11.404
				h-0.309h-43.881c-6.296,0-11.403-5.108-11.403-11.404v-0.285V92.418C390.34,86.122,395.448,81.014,401.744,81.014L401.744,81.014
				z M434.53,103.821h-21.383v50.841h21.383V103.821L434.53,103.821z M283.905,316.691h0.309h43.904
				c6.296,0,11.404,5.108,11.404,11.403v0.285v73.34c0,6.296-5.108,11.403-11.404,11.403h-0.285h-43.928
				c-6.295,0-11.403-5.107-11.403-11.403v-0.285v-73.34C272.502,321.799,277.609,316.691,283.905,316.691L283.905,316.691z
				 M316.69,339.498H295.31v50.842h21.382L316.69,339.498L316.69,339.498z M460.664,316.691h0.285h43.903
				c6.295,0,11.403,5.108,11.403,11.403v0.285v73.34c0,6.296-5.108,11.403-11.403,11.403h-0.284h-43.904
				c-6.296,0-11.404-5.107-11.404-11.403v-0.285v-73.34C449.236,321.799,454.368,316.691,460.664,316.691L460.664,316.691z
				 M493.425,339.498h-21.382v50.842h21.382V339.498L493.425,339.498z M548.305,552.368h0.285h43.904
				c6.296,0,11.403,5.106,11.403,11.403v0.284v73.364c0,6.295-5.107,11.403-11.403,11.403h-0.284h-43.905
				c-6.295,0-11.402-5.108-11.402-11.403v-0.31V563.77C536.902,557.476,542.009,552.368,548.305,552.368L548.305,552.368z
				 M581.091,575.175h-21.382v50.842h21.382V575.175L581.091,575.175z M386.278,434.529h0.309h43.904
				c6.296,0,11.402,5.106,11.402,11.402v0.311v73.34c0,6.296-5.106,11.403-11.402,11.403h-0.31h-43.903
				c-6.296,0-11.404-5.107-11.404-11.403v-0.309v-73.342C374.874,439.637,379.982,434.529,386.278,434.529L386.278,434.529z
				 M419.063,457.337h-21.382v50.842h21.382V457.337L419.063,457.337z M135.871,434.529h0.309h43.904
				c6.296,0,11.404,5.106,11.404,11.402v0.311v73.34c0,6.296-5.108,11.403-11.404,11.403h-0.309h-43.904
				c-6.295,0-11.403-5.107-11.403-11.403v-0.309v-73.342C124.467,439.637,129.599,434.529,135.871,434.529L135.871,434.529z
				 M168.656,457.337h-21.382v50.842h21.382V457.337L168.656,457.337z M210.256,552.368h0.285h43.904
				c6.296,0,11.404,5.106,11.404,11.403v0.284v73.364c0,6.295-5.108,11.403-11.404,11.403h-0.285h-43.904
				c-6.296,0-11.404-5.108-11.404-11.403v-0.31V563.77C198.853,557.476,203.96,552.368,210.256,552.368L210.256,552.368z
				 M243.042,575.175h-21.382v50.842h21.382V575.175L243.042,575.175z M313.365,552.368h0.285h43.88
				c6.296,0,11.403,5.106,11.403,11.403v0.284v73.364c0,6.295-5.106,11.403-11.403,11.403h-0.285h-43.88
				c-6.296,0-11.404-5.108-11.404-11.403v-0.31V563.77C301.961,557.476,307.069,552.368,313.365,552.368L313.365,552.368z
				 M346.127,575.175H324.77v50.842h21.358V575.175L346.127,575.175z M139.553,198.852h0.309h43.904
				c6.296,0,11.404,5.108,11.404,11.404v0.285v73.364c0,6.295-5.108,11.403-11.404,11.403h-0.333h-43.88
				c-6.296,0-11.404-5.108-11.404-11.403v-0.309v-73.34C128.126,203.96,133.257,198.852,139.553,198.852L139.553,198.852z
				 M172.338,221.66h-21.381v50.842h21.382L172.338,221.66L172.338,221.66z M242.663,198.852h0.285h43.88
				c6.296,0,11.404,5.108,11.404,11.404v0.285v73.364c0,6.295-5.108,11.403-11.404,11.403h-0.285h-43.88
				c-6.296,0-11.404-5.108-11.404-11.403v-0.309v-73.34C231.258,203.96,236.366,198.852,242.663,198.852L242.663,198.852z
				 M275.423,221.66h-21.358v50.842h21.358V221.66L275.423,221.66z M519.583,198.852h0.285h43.903
				c6.297,0,11.403,5.108,11.403,11.404v0.285v73.364c0,6.295-5.106,11.403-11.403,11.403h-0.309h-43.881
				c-6.296,0-11.403-5.108-11.403-11.403v-0.309v-73.34C508.179,203.96,513.287,198.852,519.583,198.852L519.583,198.852z
				 M552.369,221.66h-21.383v50.842h21.383V221.66z"/>
		</g>
	</g>
</g>
<g>
</g>
<g>
</g>
<g>
</g>
<g>
</g>
<g>
</g>
<g>
</g>
<g>
</g>
<g>
</g>
<g>
</g>
<g>
</g>
<g>
</g>
<g>
</g>
<g>
</g>
<g>
</g>
<g>
</g>
</svg>
