<?xml version="1.0" encoding="iso-8859-1"?>
<!-- Generator: Adobe Illustrator 18.0.0, SVG Export Plug-In . SVG Version: 6.00 Build 0)  -->
<!DOCTYPE svg PUBLIC "-//W3C//DTD SVG 1.1//EN" "http://www.w3.org/Graphics/SVG/1.1/DTD/svg11.dtd">
<svg version="1.1" id="Capa_1" xmlns="http://www.w3.org/2000/svg" xmlns:xlink="http://www.w3.org/1999/xlink" x="0px" y="0px"
	 viewBox="0 0 431.66 431.66" style="enable-background:new 0 0 431.66 431.66;" xml:space="preserve">
<g>
	<path d="M165.301,396.429H80.309c-4.379,0-7.951-3.564-7.951-7.943v-141.55l16.771,44.731c3.587,9.583,12.672,15.492,22.331,15.492
		c2.78,0,5.623-0.49,8.371-1.53c12.346-4.621,18.588-18.372,13.961-30.71L46.189,41.287c-4.612-12.338-18.37-18.588-30.701-13.96
		c-12.346,4.62-18.59,18.372-13.96,30.709l39.026,104.08v226.372c0,21.919,17.826,39.747,39.755,39.747h84.992
		c8.789,0,15.902-7.119,15.902-15.902C181.203,403.55,174.09,396.429,165.301,396.429z"/>
	<path d="M275.528,212.763l15.39-8.913c10.281,11.243,22.967,18.092,37.721,18.092c48.871,0,86.156-37.939,97.509-124.562
		c6.149-46.969-19.444-78.377-52.63-89.877c7.159,30.982-2.096,75.101-10.327,104.482c5.467,5.809,8.883,13.58,8.883,22.191
		c0,10.475-5.047,19.692-12.749,25.633c-5.483,4.224-12.268,6.832-19.723,6.832c-4.27,0-8.323-0.876-12.067-2.376
		c-3.028,1.756-60.471,35.812-63.965,35.812c-3.619,0-35.812-20.794-39.025-22.789c-3.728-2.314-4.877-7.213-2.563-10.949
		c2.33-3.735,7.269-4.845,10.949-2.562l30.78,19.078l50.174-29.072c-3.23-4.232-5.419-9.239-6.242-14.744
		c-0.25-1.6-0.498-3.2-0.498-4.861c0-15.59,11.01-28.589,25.655-31.726c11.663-42.573,16.43-86.374,5.715-97.299
		c-0.84-0.862-1.988-1.375-3.246-1.724c-40.377,4.372-68.19,36.828-73.081,92.912c-1.958,22.471,0.388,45.354,6.351,65.348
		l-4.551,2.632l-22.688-14.061c-0.048-0.024-0.094-0.04-0.124-0.062c-11.151-6.825-25.811-3.409-32.706,7.763
		c-6.941,11.197-3.494,25.903,7.703,32.846l34.832,21.593C258.85,217.274,268.339,216.932,275.528,212.763z"/>
	<path d="M425.279,318.744c-3.276-46.309-41.789-82.213-88.222-82.213c-41.791,0-77.865,29.257-86.516,70.138l-21.074,99.746
		c-1.134,5.334,0.218,10.885,3.65,15.125c3.432,4.231,8.589,6.693,14.038,6.693h166.43c5.016,0,9.799-2.08,13.231-5.753
		c3.416-3.672,5.156-8.595,4.798-13.596L425.279,318.744z"/>
</g>
<g>
</g>
<g>
</g>
<g>
</g>
<g>
</g>
<g>
</g>
<g>
</g>
<g>
</g>
<g>
</g>
<g>
</g>
<g>
</g>
<g>
</g>
<g>
</g>
<g>
</g>
<g>
</g>
<g>
</g>
</svg>
