<?xml version="1.0" encoding="iso-8859-1"?>
<!-- Generator: Adobe Illustrator 16.0.0, SVG Export Plug-In . SVG Version: 6.00 Build 0)  -->
<!DOCTYPE svg PUBLIC "-//W3C//DTD SVG 1.1//EN" "http://www.w3.org/Graphics/SVG/1.1/DTD/svg11.dtd">
<svg version="1.1" id="Capa_1" xmlns="http://www.w3.org/2000/svg" xmlns:xlink="http://www.w3.org/1999/xlink" x="0px" y="0px"
	 width="31.914px" height="31.914px" viewBox="0 0 31.914 31.914" style="enable-background:new 0 0 31.914 31.914;"
	 xml:space="preserve">
<g>
	<g>
		<path d="M3.635,13.542h22.975v-3.088h-1.461c-0.979-2.377-0.572-4.831-0.156-6.257h1.617V1.108H3.635C1.632,1.108,0,2.729,0,4.733
			v5.193C0,11.93,1.632,13.542,3.635,13.542z M3.087,4.733c0-0.286,0.262-0.537,0.548-0.537h18.926
			c-0.387,1.584-0.625,3.88,0.104,6.257H3.635c-0.286,0-0.548-0.241-0.548-0.527V4.733z"/>
		<path d="M27.779,19.958H5.543v3.088H6.29c0.684,2.217,0.146,3.881-0.224,4.672H5.543v3.088h22.236c2.006,0,3.66-1.455,3.66-3.269
			V23.21C31.439,21.397,29.785,19.958,27.779,19.958z M27.779,27.718H8.57c0.358-1.107,0.596-2.771,0.148-4.674h19.062
			c0.324,0,0.5,0.149,0.521,0.17l0.008,4.297C28.279,27.565,28.104,27.718,27.779,27.718z"/>
		<path d="M27.919,14.414l-2.181,1.333v-1.333H0.157v4.593h25.581v-1.308l2.181,1.308h2.508c0.821,0,1.487-0.666,1.487-1.488v-1.864
			c0-0.685-0.557-1.241-1.24-1.241H27.919z"/>
	</g>
</g>
<g>
</g>
<g>
</g>
<g>
</g>
<g>
</g>
<g>
</g>
<g>
</g>
<g>
</g>
<g>
</g>
<g>
</g>
<g>
</g>
<g>
</g>
<g>
</g>
<g>
</g>
<g>
</g>
<g>
</g>
</svg>
