<?xml version="1.0" encoding="iso-8859-1"?>
<!-- Generator: Adobe Illustrator 16.0.0, SVG Export Plug-In . SVG Version: 6.00 Build 0)  -->
<!DOCTYPE svg PUBLIC "-//W3C//DTD SVG 1.1//EN" "http://www.w3.org/Graphics/SVG/1.1/DTD/svg11.dtd">
<svg version="1.1" id="Capa_1" xmlns="http://www.w3.org/2000/svg" xmlns:xlink="http://www.w3.org/1999/xlink" x="0px" y="0px"
	 width="795.885px" height="795.885px" viewBox="0 0 795.885 795.885" style="enable-background:new 0 0 795.885 795.885;"
	 xml:space="preserve">
<g>
	<g>
		<g>
			<path d="M399.511,229.309c-64.394,0-106.559,50.44-106.559,108.547c0,55.862,41.599,89.757,88.894,89.757
				c20.23,0,35.047-2.568,52.147-10.258l-5.13-16.516c-11.404,5.979-26.787,9.115-41.322,9.115
				c-42.442,0-72.939-27.075-72.939-74.666c0-54.409,38.189-88.612,81.783-88.612c44.159,0,68.09,28.773,68.09,65.83
				c0,32.763-15.379,48.435-27.632,48.147c-7.98-0.277-9.978-7.966-7.126-24.785l8.553-52.712
				c-7.124-3.991-21.379-7.122-33.904-7.122c-41.035,0-66.681,31.625-66.681,66.394c0,23.359,13.387,37.026,31.915,37.026
				c15.104,0,27.923-7.399,36.755-21.94h0.568c1.414,15.119,11.114,21.94,24.499,21.94c30.783,0,54.146-26.202,54.146-67.803
				C485.567,263.789,449.661,229.309,399.511,229.309z M404.639,326.758c-2.56,16.508-13.676,29.903-24.216,29.903
				c-9.403,0-14.249-6.836-14.249-17.657c0-21.939,14.816-40.452,33.627-40.452c3.706,0,6.555,0.566,8.828,1.131L404.639,326.758z"
				/>
			<path d="M381.846,428.113c-23.942,0-46.148-8.547-62.526-24.067c-17.577-16.656-26.868-39.544-26.868-66.19
				c0-29.095,10.394-56.23,29.267-76.405c19.691-21.049,47.318-32.642,77.792-32.642c24.37,0,46.453,8.297,62.181,23.362
				c15.719,15.057,24.376,36.181,24.376,59.481c0,40.216-22.471,68.303-54.646,68.303c-14.535,0-23.364-7.703-24.927-21.712
				c-8.805,14.208-21.552,21.712-36.896,21.712c-19.691,0-32.415-14.73-32.415-37.526c0-32.429,23.545-66.894,67.181-66.894
				c12.354,0,26.716,3.022,34.148,7.186l0.306,0.171l-0.057,0.345l-8.553,52.712c-1.95,11.505-1.587,18.422,1.145,21.771
				c1.267,1.553,3.067,2.35,5.506,2.435l0.314,0.003c6.388,0,12.878-4.256,17.808-11.677c4.103-6.176,8.992-17.43,8.992-35.974
				c0-39.687-26.53-65.33-67.59-65.33c-21.718,0-41.919,8.436-56.881,23.752c-15.964,16.342-24.402,38.598-24.402,64.36
				c0,22.736,7.056,41.693,20.404,54.823c12.865,12.654,30.859,19.343,52.035,19.343c15.133,0,30.109-3.302,41.09-9.058l0.532-0.279
				l5.438,17.512l-0.403,0.182C417.712,425.225,403.033,428.113,381.846,428.113z M399.511,229.809
				c-30.195,0-57.562,11.48-77.062,32.325c-18.699,19.99-28.997,46.881-28.997,75.722c0,26.365,9.183,49.002,26.555,65.464
				c16.192,15.343,38.154,23.793,61.839,23.793c20.859,0,35.355-2.816,51.538-10.033l-4.821-15.521
				c-11.067,5.658-25.976,8.896-41.021,8.896c-44.613,0-73.439-29.504-73.439-75.166c0-26.029,8.536-48.526,24.687-65.059
				c15.152-15.511,35.607-24.053,57.597-24.053c41.667,0,68.59,26.036,68.59,66.33c0,31.6-14.323,48.65-27.8,48.651l-0.344-0.004
				c-2.749-0.096-4.792-1.012-6.252-2.802c-2.927-3.589-3.357-10.759-1.355-22.566l8.496-52.361
				c-7.386-4.002-21.32-6.89-33.354-6.89c-32.083,0-66.181,23.094-66.181,65.894c0,22.189,12.331,36.526,31.415,36.526
				c15.143,0,27.705-7.503,36.327-21.7l0.146-0.24h1.305l0.043,0.454c1.296,13.855,9.819,21.486,24.001,21.486
				c31.586,0,53.646-27.676,53.646-67.303c0-23.025-8.548-43.893-24.067-58.759C445.459,238.007,423.621,229.809,399.511,229.809z
				 M380.423,357.161c-9.373,0-14.749-6.618-14.749-18.157c0-22.581,15.309-40.952,34.127-40.952c3.848,0,6.804,0.612,8.949,1.146
				l0.439,0.109l-4.056,27.523C402.584,343.273,391.268,357.161,380.423,357.161z M399.801,299.052
				c-18.266,0-33.127,17.922-33.127,39.952c0,10.903,5.011,17.157,13.749,17.157c10.381,0,21.244-13.5,23.722-29.479l3.923-26.621
				C406.02,299.569,403.283,299.052,399.801,299.052z"/>
		</g>
		<g>
			<path d="M646.809,509.373V152.791H149.077v356.582L0.5,602.234v40.859h794.885v-40.859L646.809,509.373z M186.223,197.364
				h412.298V466.57H186.223V197.364z M479.835,593.369H319.453l20.016-30.934h120.35L479.835,593.369z M36.922,604.346h729.436
				C723.449,617.316,36.922,604.346,36.922,604.346z"/>
			<path d="M795.885,643.594H0v-41.637l0.235-0.146l148.342-92.715V152.291h498.732v356.805l148.576,92.861V643.594z M1,642.594
				h793.885v-40.082L646.309,509.65V153.291H149.577V509.65l-0.235,0.146L1,602.512V642.594z M558.174,610.61
				c-213.663,0-518.21-5.707-521.261-5.765l0.009-1h732.817l-3.237,0.979C753.801,608.664,683.709,610.61,558.174,610.61z
				 M94.087,604.846c98.859,1.65,306.272,4.765,464.087,4.765c114.206,0,182.452-1.602,203.272-4.765H94.087z M480.754,593.869
				h-162.22l20.663-31.934h120.894L480.754,593.869z M320.372,592.869h158.544l-19.37-29.934H339.741L320.372,592.869z
				 M599.021,467.07H185.723V196.864h413.298V467.07z M186.723,466.07h411.298V197.864H186.723V466.07z"/>
		</g>
	</g>
</g>
<g>
</g>
<g>
</g>
<g>
</g>
<g>
</g>
<g>
</g>
<g>
</g>
<g>
</g>
<g>
</g>
<g>
</g>
<g>
</g>
<g>
</g>
<g>
</g>
<g>
</g>
<g>
</g>
<g>
</g>
</svg>
