<?xml version="1.0" encoding="iso-8859-1"?>
<!-- Generator: Adobe Illustrator 18.0.0, SVG Export Plug-In . SVG Version: 6.00 Build 0)  -->
<!DOCTYPE svg PUBLIC "-//W3C//DTD SVG 1.1//EN" "http://www.w3.org/Graphics/SVG/1.1/DTD/svg11.dtd">
<svg version="1.1" id="Capa_1" xmlns="http://www.w3.org/2000/svg" xmlns:xlink="http://www.w3.org/1999/xlink" x="0px" y="0px"
	 viewBox="0 0 301.332 301.332" style="enable-background:new 0 0 301.332 301.332;" xml:space="preserve">
<g>
	<path d="M282,2.999c-10.661,0-19.334,8.673-19.334,19.334v6.499h-224v-6.499c0-10.661-8.673-19.334-19.334-19.334
		C8.672,2.999,0,11.672,0,22.333v270c0,3.314,2.687,6,6,6h26.666c3.313,0,6-2.686,6-6V272.5h224v19.833c0,3.314,2.686,6,6,6h26.666
		c3.314,0,6-2.686,6-6v-270C301.332,11.672,292.66,2.999,282,2.999z M262.666,260.5h-224V40.832h224V260.5z"/>
	<path d="M134.375,112.166h30.248c5.722,0,10.377-4.654,10.377-10.375v-30.25c0-5.721-4.655-10.375-10.377-10.375h-30.248
		c-5.721,0-10.375,4.654-10.375,10.375v30.25C124,107.512,128.654,112.166,134.375,112.166z M149.5,73.166
		c7.444,0,13.5,6.056,13.5,13.5s-6.056,13.5-13.5,13.5c-7.444,0-13.5-6.056-13.5-13.5S142.056,73.166,149.5,73.166z"/>
	<path d="M149.5,93.166c3.584,0,6.5-2.916,6.5-6.5s-2.916-6.5-6.5-6.5s-6.5,2.916-6.5,6.5S145.916,93.166,149.5,93.166z"/>
	<path d="M202.375,112.166h30.248c5.722,0,10.377-4.654,10.377-10.375v-30.25c0-5.721-4.655-10.375-10.377-10.375h-30.248
		c-5.721,0-10.375,4.654-10.375,10.375v30.25C192,107.512,196.654,112.166,202.375,112.166z M217.5,73.166
		c7.444,0,13.5,6.056,13.5,13.5s-6.056,13.5-13.5,13.5c-7.444,0-13.5-6.056-13.5-13.5S210.056,73.166,217.5,73.166z"/>
	<path d="M217.5,93.166c3.584,0,6.5-2.916,6.5-6.5s-2.916-6.5-6.5-6.5s-6.5,2.916-6.5,6.5S213.916,93.166,217.5,93.166z"/>
	<path d="M68.707,112.166h30.25c5.721,0,10.375-4.654,10.375-10.375v-30.25c0-5.721-4.654-10.375-10.375-10.375h-30.25
		c-5.721,0-10.375,4.654-10.375,10.375v30.25C58.332,107.512,62.986,112.166,68.707,112.166z M72.795,80.578
		c-1.367-1.366-1.367-3.583,0-4.949c1.367-1.367,3.582-1.367,4.949,0l6.088,6.088l6.088-6.088c1.367-1.367,3.582-1.367,4.949,0
		c1.367,1.366,1.367,3.583,0,4.949l-6.088,6.088l6.088,6.088c1.367,1.366,1.367,3.583,0,4.949c-0.684,0.684-1.579,1.025-2.475,1.025
		s-1.791-0.342-2.475-1.025l-6.088-6.088l-6.088,6.088c-0.684,0.684-1.579,1.025-2.475,1.025s-1.791-0.342-2.475-1.025
		c-1.367-1.366-1.367-3.583,0-4.949l6.088-6.088L72.795,80.578z"/>
	<path d="M134.375,176.166h30.248c5.722,0,10.377-4.654,10.377-10.375v-30.25c0-5.721-4.655-10.375-10.377-10.375h-30.248
		c-5.721,0-10.375,4.654-10.375,10.375v30.25C124,171.512,128.654,176.166,134.375,176.166z M149.5,137.166
		c7.444,0,13.5,6.056,13.5,13.5s-6.056,13.5-13.5,13.5c-7.444,0-13.5-6.056-13.5-13.5S142.056,137.166,149.5,137.166z"/>
	<path d="M149.5,157.166c3.584,0,6.5-2.916,6.5-6.5s-2.916-6.5-6.5-6.5s-6.5,2.916-6.5,6.5S145.916,157.166,149.5,157.166z"/>
	<path d="M202.375,176.166h30.248c5.722,0,10.377-4.654,10.377-10.375v-30.25c0-5.721-4.655-10.375-10.377-10.375h-30.248
		c-5.721,0-10.375,4.654-10.375,10.375v30.25C192,171.512,196.654,176.166,202.375,176.166z M206.463,144.578
		c-1.367-1.366-1.367-3.583,0-4.949c1.367-1.367,3.582-1.367,4.949,0l6.088,6.088l6.088-6.088c1.367-1.367,3.582-1.367,4.949,0
		c1.367,1.366,1.367,3.583,0,4.949l-6.088,6.088l6.088,6.088c1.367,1.366,1.367,3.583,0,4.949c-0.684,0.684-1.578,1.025-2.475,1.025
		c-0.895,0-1.791-0.342-2.475-1.025l-6.088-6.088l-6.088,6.088c-0.684,0.684-1.578,1.025-2.475,1.025
		c-0.895,0-1.791-0.342-2.475-1.025c-1.367-1.366-1.367-3.583,0-4.949l6.088-6.088L206.463,144.578z"/>
	<path d="M68.707,176.166h30.25c5.721,0,10.375-4.654,10.375-10.375v-30.25c0-5.721-4.654-10.375-10.375-10.375h-30.25
		c-5.721,0-10.375,4.654-10.375,10.375v30.25C58.332,171.512,62.986,176.166,68.707,176.166z M72.795,144.578
		c-1.367-1.366-1.367-3.583,0-4.949c1.367-1.367,3.582-1.367,4.949,0l6.088,6.088l6.088-6.088c1.367-1.367,3.582-1.367,4.949,0
		c1.367,1.366,1.367,3.583,0,4.949l-6.088,6.088l6.088,6.088c1.367,1.366,1.367,3.583,0,4.949c-0.684,0.684-1.579,1.025-2.475,1.025
		s-1.791-0.342-2.475-1.025l-6.088-6.088l-6.088,6.088c-0.684,0.684-1.579,1.025-2.475,1.025s-1.791-0.342-2.475-1.025
		c-1.367-1.366-1.367-3.583,0-4.949l6.088-6.088L72.795,144.578z"/>
	<path d="M134.375,240.166h30.248c5.722,0,10.377-4.654,10.377-10.375v-30.25c0-5.721-4.655-10.375-10.377-10.375h-30.248
		c-5.721,0-10.375,4.654-10.375,10.375v30.25C124,235.512,128.654,240.166,134.375,240.166z M138.463,208.578
		c-1.367-1.366-1.367-3.583,0-4.949c1.367-1.367,3.582-1.367,4.949,0l6.088,6.088l6.088-6.088c1.367-1.367,3.582-1.367,4.949,0
		c1.367,1.366,1.367,3.583,0,4.949l-6.088,6.088l6.088,6.088c1.367,1.366,1.367,3.583,0,4.949c-0.684,0.684-1.578,1.025-2.475,1.025
		c-0.895,0-1.791-0.342-2.475-1.025l-6.088-6.088l-6.088,6.088c-0.684,0.684-1.578,1.025-2.475,1.025
		c-0.895,0-1.791-0.342-2.475-1.025c-1.367-1.366-1.367-3.583,0-4.949l6.088-6.088L138.463,208.578z"/>
	<path d="M202.375,240.166h30.248c5.722,0,10.377-4.654,10.377-10.375v-30.25c0-5.721-4.655-10.375-10.377-10.375h-30.248
		c-5.721,0-10.375,4.654-10.375,10.375v30.25C192,235.512,196.654,240.166,202.375,240.166z M217.5,201.166
		c7.444,0,13.5,6.056,13.5,13.5s-6.056,13.5-13.5,13.5c-7.444,0-13.5-6.056-13.5-13.5S210.056,201.166,217.5,201.166z"/>
	<path d="M217.5,221.166c3.584,0,6.5-2.916,6.5-6.5s-2.916-6.5-6.5-6.5s-6.5,2.916-6.5,6.5S213.916,221.166,217.5,221.166z"/>
	<path d="M68.707,240.166h30.25c5.721,0,10.375-4.654,10.375-10.375v-30.25c0-5.721-4.654-10.375-10.375-10.375h-30.25
		c-5.721,0-10.375,4.654-10.375,10.375v30.25C58.332,235.512,62.986,240.166,68.707,240.166z M83.832,201.166
		c7.444,0,13.5,6.056,13.5,13.5s-6.056,13.5-13.5,13.5c-7.444,0-13.5-6.056-13.5-13.5S76.388,201.166,83.832,201.166z"/>
	<path d="M83.832,221.166c3.584,0,6.5-2.916,6.5-6.5s-2.916-6.5-6.5-6.5s-6.5,2.916-6.5,6.5S80.248,221.166,83.832,221.166z"/>
</g>
<g>
</g>
<g>
</g>
<g>
</g>
<g>
</g>
<g>
</g>
<g>
</g>
<g>
</g>
<g>
</g>
<g>
</g>
<g>
</g>
<g>
</g>
<g>
</g>
<g>
</g>
<g>
</g>
<g>
</g>
</svg>
