<?xml version="1.0" encoding="iso-8859-1"?>
<!-- Generator: Adobe Illustrator 18.1.1, SVG Export Plug-In . SVG Version: 6.00 Build 0)  -->
<svg version="1.1" id="Capa_1" xmlns="http://www.w3.org/2000/svg" xmlns:xlink="http://www.w3.org/1999/xlink" x="0px" y="0px"
	 viewBox="0 0 285.001 285.001" style="enable-background:new 0 0 285.001 285.001;" xml:space="preserve">
<g>
	<g>
		<path d="M280.491,124.25L150.949,12.848c-4.861-4.175-12.036-4.175-16.897,0L4.509,124.25c-5.424,4.664-6.042,12.846-1.379,18.27
			c4.669,5.421,12.852,6.04,18.27,1.376L142.5,39.752l121.1,104.145c2.443,2.103,5.455,3.132,8.436,3.132
			c3.643,0,7.273-1.527,9.834-4.509C286.534,137.097,285.915,128.914,280.491,124.25z"/>
		<polygon points="189.208,155.988 95.792,155.988 81.14,197.022 203.86,197.022 		"/>
		<path d="M209.977,222.949h-32.396c-1.49,0-2.696,1.194-2.696,2.697v9.664c0,1.49,1.206,2.706,2.696,2.706h32.396
			c1.484,0,2.697-1.215,2.697-2.706v-9.664C212.674,224.143,211.461,222.949,209.977,222.949z"/>
		<path d="M123.611,226.437c-1.497,0-2.703,1.197-2.703,2.688v2.7c0,1.491,1.206,2.706,2.703,2.706h37.777
			c1.497,0,2.703-1.215,2.703-2.706v-2.7c0-1.491-1.206-2.688-2.703-2.688H123.611z"/>
		<path d="M110.116,235.31v-9.664c0-1.503-1.206-2.697-2.697-2.697H75.023c-1.484,0-2.697,1.194-2.697,2.697v9.664
			c0,1.49,1.212,2.706,2.697,2.706h32.396C108.91,238.015,110.116,236.8,110.116,235.31z"/>
		<path d="M146.73,57.921c-2.437-2.094-6.024-2.094-8.461,0l-97.622,84.201c-1.429,1.231-2.239,3.021-2.239,4.908v121.774
			c0,3.581,2.895,6.479,6.47,6.479h14.497v-20.8c-2.684-3.729-4.317-8.263-4.317-13.205v-21.591c0-8.285,4.515-15.472,11.17-19.424
			l18.901-52.93c0.916-2.579,3.358-4.298,6.099-4.298h102.545c2.74,0,5.183,1.719,6.098,4.298l18.901,52.93
			c6.655,3.952,11.17,11.139,11.17,19.424v21.591c0,4.942-1.633,9.475-4.317,13.205v20.8h14.497c3.575,0,6.47-2.897,6.47-6.479
			V147.029c0-1.886-0.811-3.677-2.239-4.908L146.73,57.921z"/>
		<rect x="90.683" y="263.945" width="103.634" height="11.337"/>
	</g>
</g>
<g>
</g>
<g>
</g>
<g>
</g>
<g>
</g>
<g>
</g>
<g>
</g>
<g>
</g>
<g>
</g>
<g>
</g>
<g>
</g>
<g>
</g>
<g>
</g>
<g>
</g>
<g>
</g>
<g>
</g>
</svg>
