<?xml version="1.0" encoding="iso-8859-1"?>
<!-- Generator: Adobe Illustrator 19.0.0, SVG Export Plug-In . SVG Version: 6.00 Build 0)  -->
<svg version="1.1" id="Capa_1" xmlns="http://www.w3.org/2000/svg" xmlns:xlink="http://www.w3.org/1999/xlink" x="0px" y="0px"
	 viewBox="0 0 428.979 428.979" style="enable-background:new 0 0 428.979 428.979;" xml:space="preserve">
<g>
	<g>
		<path d="M58.498,71.247c7.856,0,14.249,6.393,14.249,14.249v5.25c0,4.143,3.357,7.5,7.5,7.5s7.5-3.357,7.5-7.5v-5.25
			c0-16.128-13.121-29.249-29.249-29.249c-7.856,0-14.249-6.393-14.249-14.249v-1.5c0-7.856,6.393-14.249,14.249-14.249h67.465
			c-2.364,4.219-3.719,9.078-3.719,14.249v1.5c0,16.128,13.121,29.249,29.249,29.249c7.856,0,14.249,6.393,14.249,14.249v5.25
			c0,4.143,3.357,7.5,7.5,7.5s7.5-3.357,7.5-7.5v-5.25c0-16.128-13.121-29.249-29.249-29.249c-7.856,0-14.249-6.393-14.249-14.249
			v-1.5c0-7.856,6.393-14.249,14.249-14.249H405.73c4.143,0,7.5-3.357,7.5-7.5s-3.357-7.5-7.5-7.5H58.498
			c-16.128,0-29.249,13.121-29.249,29.249v1.5C29.249,58.126,42.37,71.247,58.498,71.247z"/>
		<path d="M374.982,322.964H53.998c-4.143,0-7.5,3.357-7.5,7.5s3.357,7.5,7.5,7.5h320.984c4.143,0,7.5-3.357,7.5-7.5
			S379.125,322.964,374.982,322.964z"/>
		<path d="M374.982,349.963H53.998c-4.143,0-7.5,3.357-7.5,7.5s3.357,7.5,7.5,7.5h320.984c4.143,0,7.5-3.357,7.5-7.5
			S379.125,349.963,374.982,349.963z"/>
		<path d="M374.982,376.962H53.998c-4.143,0-7.5,3.357-7.5,7.5s3.357,7.5,7.5,7.5h320.984c4.143,0,7.5-3.357,7.5-7.5
			S379.125,376.962,374.982,376.962z"/>
		<path d="M329.233,202.34v7.5c0,4.143,3.357,7.5,7.5,7.5s7.5-3.357,7.5-7.5v-7.5c0-4.143-3.357-7.5-7.5-7.5
			S329.233,198.197,329.233,202.34z"/>
		<path d="M421.479,402.729H408.73v-98.033c0-4.143-3.357-7.5-7.5-7.5h-35.482v-95.629c0-17.082-13.583-31.043-30.514-31.67v-10.038
			c0-10.816-8.8-19.616-19.616-19.616h-35.765c-10.816,0-19.616,8.8-19.616,19.616v137.337h-43.495v-15.96
			c0-4.143-3.357-7.5-7.5-7.5h-11.196l-3.243-157.341c-0.084-4.081-3.416-7.346-7.498-7.346h-25.288
			c-4.082,0-7.414,3.265-7.498,7.346l-3.243,157.341h-11.197c-4.143,0-7.5,3.357-7.5,7.5v15.96h-10.167v-15.96
			c0-4.143-3.357-7.5-7.5-7.5h-11.197l-3.243-157.341c-0.084-4.081-3.416-7.346-7.498-7.346H67.687
			c-4.082,0-7.414,3.265-7.498,7.346l-3.243,157.341H45.748c-4.143,0-7.5,3.357-7.5,7.5v15.96H27.749c-4.143,0-7.5,3.357-7.5,7.5
			v98.033H7.5c-4.143,0-7.5,3.357-7.5,7.5s3.357,7.5,7.5,7.5h413.979c4.143,0,7.5-3.357,7.5-7.5S425.622,402.729,421.479,402.729z
			 M169.363,124.05h10.595l3.081,149.516h-16.757L169.363,124.05z M75.033,124.05h10.594l3.081,149.516H71.952L75.033,124.05z
			 M350.748,201.567v95.629h-6.515V233.24c0-4.143-3.357-7.5-7.5-7.5s-7.5,3.357-7.5,7.5v63.957h-27.858v-95.629
			c0-9.209,7.491-16.7,16.7-16.7h15.973C343.257,184.867,350.748,192.358,350.748,201.567z M275.237,159.859
			c0-2.545,2.071-4.616,4.616-4.616h35.765c2.545,0,4.616,2.071,4.616,4.616v10.008h-2.159c-17.479,0-31.7,14.221-31.7,31.7v95.629
			h-11.138L275.237,159.859L275.237,159.859z M147.579,288.736h54.163v8.46h-54.163V288.736z M53.248,288.736h54.164v8.46H53.248
			V288.736z M35.249,402.729v-90.533H393.73v90.533H35.249z"/>
	</g>
</g>
<g>
</g>
<g>
</g>
<g>
</g>
<g>
</g>
<g>
</g>
<g>
</g>
<g>
</g>
<g>
</g>
<g>
</g>
<g>
</g>
<g>
</g>
<g>
</g>
<g>
</g>
<g>
</g>
<g>
</g>
</svg>
