<?xml version="1.0" encoding="iso-8859-1"?>
<!-- Generator: Adobe Illustrator 16.0.0, SVG Export Plug-In . SVG Version: 6.00 Build 0)  -->
<!DOCTYPE svg PUBLIC "-//W3C//DTD SVG 1.1//EN" "http://www.w3.org/Graphics/SVG/1.1/DTD/svg11.dtd">
<svg version="1.1" id="Capa_1" xmlns="http://www.w3.org/2000/svg" xmlns:xlink="http://www.w3.org/1999/xlink" x="0px" y="0px"
	 width="30.893px" height="30.893px" viewBox="0 0 30.893 30.893" style="enable-background:new 0 0 30.893 30.893;"
	 xml:space="preserve">
<g>
	<path d="M21.268,5.819c-2.263,0-4.345,0.784-5.991,2.095c-0.203,0.161-0.33,0.4-0.353,0.659c-0.022,0.259,0.063,0.516,0.236,0.709
		c0.427,0.479,0.861,1.035,1.244,1.651c0.123,0.201,0.33,0.339,0.562,0.376c0.234,0.037,0.474-0.03,0.653-0.183
		c0.984-0.832,2.258-1.333,3.646-1.333c3.116,0,5.652,2.537,5.652,5.655c0,3.121-2.536,5.656-5.652,5.656
		c-3.119,0-5.66-2.537-5.66-5.656c0-0.164-0.016-0.665-0.016-0.758c0-1.816-1.302-3.491-2.357-4.551
		c-0.265-0.265-0.513-0.493-0.723-0.672c-1.318-1.066-2.995-1.706-4.82-1.706C3.45,7.761,0,11.208,0,15.449
		c0,4.241,3.45,7.688,7.69,7.688c1.088,0,2.124-0.228,3.063-0.64c0.275-0.118,0.485-0.354,0.575-0.639
		c0.09-0.285,0.055-0.599-0.102-0.854c-0.205-0.339-0.392-0.668-0.536-0.966c-0.148-0.303-0.269-0.608-0.37-0.92
		c-0.06-0.183-0.197-0.328-0.375-0.399c-0.178-0.072-0.379-0.062-0.549,0.024c-0.512,0.269-1.092,0.418-1.708,0.418
		c-2.05,0-3.717-1.668-3.717-3.715c0-2.048,1.667-3.715,3.717-3.715c1.766,0,3.246,1.239,3.622,2.893
		c0.143,0.401,0.244,0.815,0.33,1.233c0.056,0.271,0.104,0.541,0.153,0.812c0.152,0.852,0.309,1.729,0.683,2.498
		c0.49,1.008,1.62,2.575,2.022,3.127c1.736,1.719,4.13,2.778,6.766,2.778c5.309,0,9.629-4.317,9.629-9.627
		C30.896,10.139,26.576,5.819,21.268,5.819z"/>
</g>
<g>
</g>
<g>
</g>
<g>
</g>
<g>
</g>
<g>
</g>
<g>
</g>
<g>
</g>
<g>
</g>
<g>
</g>
<g>
</g>
<g>
</g>
<g>
</g>
<g>
</g>
<g>
</g>
<g>
</g>
</svg>
