<?xml version="1.0" encoding="iso-8859-1"?>
<!-- Generator: Adobe Illustrator 16.0.0, SVG Export Plug-In . SVG Version: 6.00 Build 0)  -->
<!DOCTYPE svg PUBLIC "-//W3C//DTD SVG 1.1//EN" "http://www.w3.org/Graphics/SVG/1.1/DTD/svg11.dtd">
<svg version="1.1" id="Capa_1" xmlns="http://www.w3.org/2000/svg" xmlns:xlink="http://www.w3.org/1999/xlink" x="0px" y="0px"
	 width="781.718px" height="781.718px" viewBox="0 0 781.718 781.718" style="enable-background:new 0 0 781.718 781.718;"
	 xml:space="preserve">
<g>
	<path d="M651.433,0H130.285v781.718h521.148V0z M586.289,65.139v206.206H547.75v-145.96h-26.058v145.96h-26.058v-145.96h-26.062
		v145.96h-26.055v-145.96h-26.06v145.96H248.09v-145.96h-26.06v145.96h-26.601V65.139H586.289z M521.693,338.346V484.31h-26.058
		V338.346h-26.062V484.31h-32.575l-84.272-112.078l-0.406,0.304v-34.188h-26.057v145.963h-26.059V338.346h-26.058V484.31H248.09
		V338.346h-26.06V484.31h-26.601V297.404h26.603h26.06h169.375h26.056h26.059h26.062h26.058h26.061h38.535v186.906h-38.535V338.346
		H521.693z M352.32,415.047l52.078,69.267H352.32V415.047z M417.462,716.575h-63.168l63.168-110.756V716.575z M547.75,716.575
		V557.583h-26.058v158.992h-26.058V557.583h-26.062v158.992h-26.055V557.583h-26.06V584.7l-13.55-7.726l-79.621,139.601h-128.86
		V510.367h26.603h26.06h26.057h26.058h26.059h26.057H469.58h26.062h26.058h26.062h38.538v206.208H547.75z"/>
</g>
<g>
</g>
<g>
</g>
<g>
</g>
<g>
</g>
<g>
</g>
<g>
</g>
<g>
</g>
<g>
</g>
<g>
</g>
<g>
</g>
<g>
</g>
<g>
</g>
<g>
</g>
<g>
</g>
<g>
</g>
</svg>
