<?xml version="1.0" encoding="iso-8859-1"?>
<!-- Generator: Adobe Illustrator 16.0.0, SVG Export Plug-In . SVG Version: 6.00 Build 0)  -->
<!DOCTYPE svg PUBLIC "-//W3C//DTD SVG 1.1//EN" "http://www.w3.org/Graphics/SVG/1.1/DTD/svg11.dtd">
<svg version="1.1" id="Capa_1" xmlns="http://www.w3.org/2000/svg" xmlns:xlink="http://www.w3.org/1999/xlink" x="0px" y="0px"
	 width="612px" height="612px" viewBox="0 0 612 612" style="enable-background:new 0 0 612 612;" xml:space="preserve">
<g>
	<g>
		<g>
			<path d="M0,478.113v-0.237V248.648c0-5.279,4.283-9.562,9.562-9.562h0.239h477.854c5.278,0,9.562,4.283,9.562,9.562v0.259
				v229.227c0,5.279-4.283,9.561-9.562,9.561h-0.238H9.562C4.283,487.695,0,483.393,0,478.113L0,478.113z M19.124,258.211v210.342
				h458.97V258.211H19.124z"/>
			<path d="M47.829,219.964c-5.279,0-9.562-4.283-9.562-9.562c0-5.279,4.283-9.562,9.562-9.562h478.094
				c5.279,0,9.563,4.283,9.563,9.562v0.239v229.227c0,5.279-4.283,9.562-9.563,9.562c-5.259,0-9.562-4.281-9.562-9.562V219.964
				H47.829z"/>
			<path d="M86.077,181.696c-5.279,0-9.562-4.283-9.562-9.562c0-5.279,4.283-9.562,9.562-9.562h478.094
				c5.278,0,9.562,4.283,9.562,9.562v0.259V401.6c0,5.279-4.283,9.563-9.562,9.563s-9.562-4.283-9.562-9.563V181.696H86.077z"/>
			<path d="M124.344,143.429c-5.279,0-9.562-4.283-9.562-9.562s4.283-9.562,9.562-9.562h478.094c5.278,0,9.562,4.283,9.562,9.562
				l-0.04,0.976l-0.06,228.55c0,5.258-4.264,9.521-9.522,9.521s-9.521-4.265-9.521-9.521l0.06-219.964H124.344z"/>
			<path d="M86.037,392.078c-7.909,0-15.1-3.229-20.279-8.408c-5.159-5.178-8.387-12.369-8.387-20.277
				c0-7.93,3.208-15.102,8.387-20.301c5.179-5.178,12.351-8.406,20.279-8.406c7.888,0,15.06,3.229,20.259,8.406l0.04,0.041
				l0.239,0.238l0.1,0.08c4.98,5.159,8.068,12.172,8.068,19.899c0,7.908-3.227,15.119-8.407,20.279l-0.757,0.735
				C100.439,389.129,93.587,392.078,86.037,392.078L86.037,392.078z M79.284,370.145c1.713,1.713,4.124,2.81,6.753,2.81
				c2.47,0,4.741-0.916,6.414-2.41l0.339-0.379c1.733-1.732,2.829-4.144,2.829-6.771c0-2.649-1.056-5.041-2.749-6.772l-0.04-0.041
				c-1.713-1.693-4.124-2.748-6.773-2.748c-2.63,0-5.04,1.075-6.753,2.809c-1.733,1.732-2.809,4.123-2.809,6.754
				C76.495,366.021,77.571,368.432,79.284,370.145z"/>
			<path d="M411.181,392.057c-7.868,0-15.04-3.227-20.238-8.406l-0.021-0.02l-0.021,0.02c-5.18-5.18-8.406-12.371-8.406-20.278
				c0-7.89,3.228-15.06,8.406-20.238l0.04-0.041l0.238-0.238l0.101-0.1c5.159-4.98,12.19-8.068,19.899-8.068
				c7.89,0,15.061,3.229,20.26,8.406l0.04,0.041l0.238,0.238l0.101,0.1c4.979,5.16,8.067,12.172,8.067,19.9
				c0,7.907-3.228,15.121-8.406,20.278l-0.758,0.697C425.583,389.109,418.711,392.057,411.181,392.057L411.181,392.057z
				 M404.388,370.145c1.713,1.713,4.124,2.771,6.773,2.771c2.47,0,4.74-0.916,6.414-2.41l0.357-0.379
				c1.714-1.713,2.81-4.123,2.81-6.754c0-2.648-1.057-5.039-2.749-6.771l-0.04-0.041c-1.713-1.692-4.123-2.748-6.772-2.748
				c-2.648,0-5.04,1.056-6.753,2.748l-0.04,0.041c-1.692,1.713-2.749,4.123-2.749,6.771c0,2.631,1.076,5.041,2.81,6.754
				L404.388,370.145z"/>
			<path d="M409.209,248.648c0-5.279,4.282-9.562,9.562-9.562c5.277,0,9.562,4.283,9.562,9.562c0,16.375,6.634,31.216,17.331,41.933
				c10.737,10.697,25.559,17.331,41.933,17.331c5.279,0,9.563,4.282,9.563,9.562s-4.283,9.563-9.563,9.563
				c-21.612,0-41.216-8.785-55.397-22.969l-0.04-0.04C417.993,289.845,409.209,270.263,409.209,248.648z"/>
			<path d="M68.826,248.648c0-5.279,4.283-9.562,9.562-9.562c5.279,0,9.562,4.283,9.562,9.562c0,21.594-8.785,41.176-22.968,55.379
				l-0.04,0.06c-14.203,14.203-33.785,22.969-55.379,22.969c-5.279,0-9.562-4.303-9.562-9.562c0-5.279,4.283-9.562,9.562-9.562
				c16.395,0,31.215-6.634,41.913-17.332l0.04-0.04C62.212,279.865,68.826,265.023,68.826,248.648z"/>
			<path d="M428.332,478.113c0,5.279-4.282,9.563-9.562,9.563c-5.279,0-9.562-4.303-9.562-9.563
				c0-21.594,8.784-41.176,22.968-55.379l0.04-0.039c14.203-14.203,33.806-22.969,55.399-22.969c5.277,0,9.562,4.283,9.562,9.563
				c0,5.279-4.283,9.561-9.562,9.561c-16.396,0-31.216,6.635-41.913,17.332l-0.04,0.039
				C434.966,446.918,428.332,461.74,428.332,478.113z"/>
			<path d="M87.969,478.113c0,5.279-4.283,9.563-9.562,9.563c-5.279,0-9.562-4.303-9.562-9.563c0-16.373-6.614-31.215-17.311-41.911
				l-0.04-0.039c-10.697-10.697-25.518-17.332-41.913-17.332c-5.279,0-9.562-4.283-9.562-9.562c0-5.279,4.283-9.562,9.562-9.562
				c21.594,0,41.195,8.766,55.379,22.969l0.04,0.039C79.184,436.938,87.969,456.541,87.969,478.113z"/>
			<path d="M248.609,301.24c-7.251,0-13.825,2.948-18.586,7.709l-0.458,0.418c-4.502,4.701-7.251,11.115-7.251,18.169
				c0,7.29,2.929,13.862,7.65,18.586l0.02,0.02l0.02-0.02c4.761,4.739,11.335,7.688,18.586,7.688c7.291,0,13.865-2.93,18.586-7.649
				l0.04-0.039c4.721-4.724,7.649-11.316,7.649-18.586c0-7.253-2.948-13.826-7.709-18.587l-0.418-0.459
				C262.095,304.009,255.681,301.24,248.609,301.24L248.609,301.24z M216.497,295.403c8.227-8.228,19.582-13.307,32.112-13.307
				c12.211,0,23.347,4.861,31.534,12.749l0.598,0.538c8.227,8.227,13.287,19.582,13.287,32.111c0,12.489-5.08,23.825-13.287,32.071
				l-0.04,0.041c-8.227,8.228-19.582,13.308-32.072,13.308c-12.55,0-23.885-5.08-32.112-13.308l0.02-0.021
				c-8.227-8.228-13.327-19.582-13.327-32.093c0-12.211,4.86-23.326,12.729-31.494L216.497,295.403z"/>
			<path d="M201.955,394.029c-1.853,2.111-3.565,4.345-5.119,6.693l-0.418,0.578c-1.893,2.928-3.566,6.055-4.96,9.283
				c6.395,7.748,14.363,14.184,23.367,18.785c10.08,5.18,21.574,8.088,33.785,8.088c12.231,0,23.725-2.931,33.805-8.088
				c8.984-4.603,16.952-11.037,23.347-18.767c-1.494-3.467-3.307-6.793-5.358-9.899h-0.02c-1.574-2.353-3.287-4.582-5.12-6.693
				c-5.538,3.885-11.574,7.111-17.968,9.521c-8.984,3.388-18.666,5.24-28.706,5.24c-10.06,0-19.741-1.854-28.706-5.24
				C213.509,401.121,207.473,397.914,201.955,394.029L201.955,394.029z M180.918,390.105c3.825-5.738,8.466-11.037,13.706-15.717
				c3.526-3.367,9.144-3.527,12.869-0.221c5.558,4.899,12.052,8.846,19.124,11.535c6.753,2.549,14.183,3.963,21.972,3.963
				s15.199-1.394,21.973-3.963c6.992-2.65,13.446-6.556,18.964-11.375c3.526-3.308,9.083-3.406,12.789-0.14
				c5.339,4.722,10.061,10.101,13.944,15.916l-0.02,0.021l0.02,0.039c3.885,5.817,7.032,12.213,9.323,18.965l-0.021,0.02
				c0.957,2.83,0.578,6.037-1.294,8.607c-8.605,11.971-20,21.832-33.208,28.604c-12.789,6.554-27.231,10.259-42.491,10.259
				c-15.219,0-29.682-3.705-42.471-10.259c-13.207-6.772-24.602-16.635-33.208-28.604c-1.733-2.412-2.331-5.578-1.315-8.586
				c2.211-6.556,5.219-12.75,8.925-18.388L180.918,390.105z"/>
		</g>
	</g>
</g>
<g>
</g>
<g>
</g>
<g>
</g>
<g>
</g>
<g>
</g>
<g>
</g>
<g>
</g>
<g>
</g>
<g>
</g>
<g>
</g>
<g>
</g>
<g>
</g>
<g>
</g>
<g>
</g>
<g>
</g>
</svg>
