<?xml version="1.0" encoding="iso-8859-1"?>
<!-- Generator: Adobe Illustrator 18.1.1, SVG Export Plug-In . SVG Version: 6.00 Build 0)  -->
<svg version="1.1" id="Capa_1" xmlns="http://www.w3.org/2000/svg" xmlns:xlink="http://www.w3.org/1999/xlink" x="0px" y="0px"
	 viewBox="0 0 32.001 32.001" style="enable-background:new 0 0 32.001 32.001;" xml:space="preserve">
<g>
	<path id="clip_2_" style="fill:#010002;" d="M29.364,4.137c-3.514-3.516-9.213-3.516-12.727,0L2.047,18.554
		c-2.729,2.729-2.729,7.171,0,9.9s7.17,2.729,9.898,0l14.59-14.418c1.953-1.953,1.953-5.118,0-7.071
		c-1.953-1.952-5.119-1.952-7.07,0L8.497,17.933c-0.391,0.392-0.391,1.023,0,1.415c0.391,0.391,1.023,0.391,1.414,0L20.88,8.379
		c1.17-1.169,3.072-1.169,4.242,0c1.17,1.17,1.17,3.073,0,4.243l-14.59,14.417c-1.953,1.953-5.117,1.953-7.07,0
		c-1.953-1.952-1.953-5.118,0-7.07L17.909,5.692c2.734-2.734,7.168-2.734,9.898,0c2.736,2.735,2.736,7.165,0.002,9.899
		L16.983,26.418c-0.393,0.392-0.393,1.023,0,1.414c0.391,0.392,1.023,0.392,1.414,0l10.967-10.968
		C32.88,13.35,32.88,7.651,29.364,4.137z"/>
</g>
<g>
</g>
<g>
</g>
<g>
</g>
<g>
</g>
<g>
</g>
<g>
</g>
<g>
</g>
<g>
</g>
<g>
</g>
<g>
</g>
<g>
</g>
<g>
</g>
<g>
</g>
<g>
</g>
<g>
</g>
</svg>
