<?xml version="1.0" encoding="iso-8859-1"?>
<!-- Generator: Adobe Illustrator 16.0.0, SVG Export Plug-In . SVG Version: 6.00 Build 0)  -->
<!DOCTYPE svg PUBLIC "-//W3C//DTD SVG 1.1//EN" "http://www.w3.org/Graphics/SVG/1.1/DTD/svg11.dtd">
<svg version="1.1" id="Capa_1" xmlns="http://www.w3.org/2000/svg" xmlns:xlink="http://www.w3.org/1999/xlink" x="0px" y="0px"
	 width="611.999px" height="611.999px" viewBox="0 0 611.999 611.999" style="enable-background:new 0 0 611.999 611.999;"
	 xml:space="preserve">
<g>
	<g>
		<g>
			<path d="M536.2,266.15c-5.279,0-9.563-4.283-9.563-9.563c0-5.279,4.283-9.562,9.563-9.562h56.655v-30.28h-43.429
				c-5.278,0-9.562-4.283-9.562-9.562c0-5.279,4.283-9.563,9.562-9.563h52.751h0.239c5.279,0,9.582,4.283,9.582,9.563v49.146v0.239
				c0,5.279-4.283,9.562-9.582,9.562H536.2V266.15z M391.771,197.622c5.278,0,9.562,4.283,9.562,9.563
				c0,5.279-4.283,9.562-9.562,9.562H19.125v30.26h359.399c5.278,0,9.562,4.283,9.562,9.563c0,5.279-4.282,9.562-9.562,9.562H9.821
				H9.562C4.283,266.15,0,261.848,0,256.588v-49.146v-0.259c0-5.279,4.283-9.563,9.562-9.563L391.771,197.622L391.771,197.622z"/>
			<path d="M518.689,99.092l-36.078-9.662l-80.383,300.033l4.503,55.4l31.556-45.659L518.689,99.092L518.689,99.092z
				 M478.328,68.493l54.523,14.622c5.102,1.355,8.129,6.594,6.773,11.694l-83.29,310.871l-0.04-0.021
				c-0.279,1.036-0.718,2.032-1.354,2.969l-47.394,68.55c-1.534,2.55-4.243,4.362-7.431,4.602c-5.26,0.418-9.861-3.525-10.26-8.785
				l-6.813-83.67c-0.079-1.056,0.021-2.131,0.299-3.207l83.312-310.87C467.989,70.166,473.229,67.138,478.328,68.493z"/>
			<path d="M398.026,396.395c-4.305,3.009-10.261,1.952-13.269-2.351c-3.009-4.304-1.952-10.261,2.352-13.247
				c2.19-1.534,4.462-2.869,6.732-3.905c10-4.621,21.375-5.259,31.734-2.47c10.358,2.769,19.9,9.004,26.275,18.027
				c1.494,2.112,2.81,4.384,3.904,6.773c2.211,4.781,0.119,10.459-4.661,12.67s-10.459,0.119-12.649-4.661
				c-0.617-1.314-1.375-2.63-2.191-3.806c-3.686-5.239-9.363-8.885-15.578-10.559c-6.234-1.674-13.009-1.335-18.806,1.354
				C400.477,394.841,399.201,395.598,398.026,396.395z"/>
			<path d="M390.157,469.805c1.354-5.1,6.594-8.128,11.692-6.773c5.102,1.354,8.128,6.595,6.773,11.693l-5.856,21.814
				c-1.354,5.1-6.594,8.128-11.693,6.771c-5.101-1.354-8.128-6.594-6.772-11.693L390.157,469.805z"/>
			<path d="M532.854,83.115c5.101,1.355,8.128,6.594,6.772,11.694c-1.354,5.1-6.594,8.128-11.693,6.773l-13.626-3.646L500.68,94.27
				l-13.626-3.646l-13.626-3.666c-5.1-1.355-8.128-6.594-6.772-11.694l4.562-17.033l4.562-17.033l4.582-17.053l4.562-17.032
				c1.354-5.1,6.594-8.128,11.693-6.773l13.605,3.646l13.626,3.646l13.626,3.646l13.646,3.666c5.1,1.354,8.127,6.594,6.771,11.693
				l-4.581,17.033l-4.562,17.033c-1.354,5.1-6.594,8.128-11.693,6.773c-5.101-1.355-8.128-6.594-6.772-11.694l4.562-17.033
				l2.092-7.829l-4.401-1.195l-13.626-3.646l-13.626-3.646l-4.423-1.175l-2.093,7.809l-4.582,17.052l-4.521,17.013l-2.092,7.829
				l4.401,1.175l13.626,3.646l13.626,3.666L532.854,83.115z"/>
			<path d="M577.059,44.945c1.354-5.1,6.595-8.128,11.693-6.773c5.1,1.354,8.128,6.594,6.773,11.694l-31.178,116.32
				c-1.354,5.1-6.594,8.128-11.693,6.773c-5.101-1.354-8.128-6.594-6.772-11.693L577.059,44.945z"/>
			<path d="M582.896,59.985c5.1,1.355,8.128,6.594,6.771,11.694c-1.354,5.1-6.594,8.128-11.693,6.773l-40.897-10.957
				c-5.101-1.354-8.128-6.594-6.773-11.693c1.355-5.1,6.595-8.128,11.694-6.753L582.896,59.985z"/>
			<path d="M343.044,488.491c5.278,0,9.562,4.283,9.562,9.563s-4.283,9.562-9.562,9.562H83.669c-5.279,0-9.562-4.282-9.562-9.562
				s4.303-9.563,9.562-9.563H343.044z"/>
			<path d="M528.331,364.979c5.279,0,9.562,4.304,9.562,9.563c0,5.278-4.281,9.562-9.562,9.562h-23.746
				c-5.279,0-9.562-4.283-9.562-9.562c0-5.28,4.282-9.563,9.562-9.563H528.331L528.331,364.979z M346.928,364.979
				c5.279,0,9.563,4.304,9.563,9.563c0,5.278-4.304,9.562-9.563,9.562H83.669c-5.279,0-9.562-4.283-9.562-9.562
				c0-5.28,4.303-9.563,9.562-9.563H346.928z"/>
			<path d="M528.331,315.575c5.279,0,9.562,4.283,9.562,9.563s-4.281,9.562-9.562,9.562h-10.499c-5.279,0-9.562-4.281-9.562-9.562
				s4.282-9.563,9.562-9.563H528.331L528.331,315.575z M360.156,315.575c5.277,0,9.562,4.283,9.562,9.563s-4.283,9.562-9.562,9.562
				H83.669c-5.279,0-9.562-4.281-9.562-9.562s4.303-9.563,9.562-9.563H360.156z"/>
			<path d="M0,305.994c0-5.279,4.283-9.562,9.562-9.562s9.563,4.283,9.563,9.562v271.725c0,4.124,1.713,7.929,4.462,10.678
				l0.398,0.438c2.669,2.489,6.295,4.022,10.259,4.022h543.471c4.163,0,7.948-1.692,10.678-4.401l0.04-0.04
				c2.709-2.729,4.402-6.534,4.402-10.679V305.994c0-5.279,4.283-9.562,9.563-9.562c5.277,0,9.581,4.283,9.581,9.562v271.725
				c0,9.383-3.864,17.949-10.061,24.164l-0.04,0.04c-6.215,6.194-14.762,10.061-24.164,10.061H34.265
				c-9.044,0-17.352-3.586-23.507-9.423l-0.697-0.638C3.865,595.727,0,587.122,0,577.718V305.994z"/>
			<path d="M528.331,414.384c5.279,0,9.562,4.283,9.562,9.562c0,5.278-4.281,9.562-9.562,9.562h-33.807
				c-5.279,0-9.563-4.283-9.563-9.562c0-5.278,4.283-9.562,9.563-9.562H528.331L528.331,414.384z M346.031,414.384
				c5.278,0,9.562,4.283,9.562,9.562c0,5.278-4.283,9.562-9.562,9.562H83.669c-5.279,0-9.562-4.283-9.562-9.562
				c0-5.278,4.303-9.562,9.562-9.562H346.031L346.031,414.384z"/>
		</g>
	</g>
</g>
<g>
</g>
<g>
</g>
<g>
</g>
<g>
</g>
<g>
</g>
<g>
</g>
<g>
</g>
<g>
</g>
<g>
</g>
<g>
</g>
<g>
</g>
<g>
</g>
<g>
</g>
<g>
</g>
<g>
</g>
</svg>
