<?xml version="1.0" encoding="iso-8859-1"?>
<!-- Generator: Adobe Illustrator 16.0.0, SVG Export Plug-In . SVG Version: 6.00 Build 0)  -->
<!DOCTYPE svg PUBLIC "-//W3C//DTD SVG 1.1//EN" "http://www.w3.org/Graphics/SVG/1.1/DTD/svg11.dtd">
<svg version="1.1" id="Capa_1" xmlns="http://www.w3.org/2000/svg" xmlns:xlink="http://www.w3.org/1999/xlink" x="0px" y="0px"
	 width="31.881px" height="31.882px" viewBox="0 0 31.881 31.882" style="enable-background:new 0 0 31.881 31.882;"
	 xml:space="preserve">
<g>
	<g>
		<path d="M30.747,14.482c0-0.534-0.432-0.967-0.967-0.967H16.767v17.33c0,0.572,0.464,1.036,1.035,1.036h10.565
			c0.572,0,1.037-0.464,1.037-1.036V15.786h1.34L30.747,14.482L30.747,14.482z"/>
		<path d="M13.929,9.756c0-1.543-0.968-2.173-1.794-2.173h-4.47c-0.827,0-1.886,0.63-1.886,2.173v10.672h9.337v-4.642h-1.187V9.756z
			"/>
		<ellipse cx="11.654" cy="3.238" rx="3.276" ry="3.238"/>
		<path d="M4.592,8.888c0-0.643-1.146-1.163-1.79-1.163c-0.642,0-1.667,0.52-1.667,1.163v14.997h13.981v-2.318H4.592V8.888z"/>
		<path d="M14.108,28.939c-0.097-3.332-3.421-4.244-5.19-4.244c-1.717,0-3.06,0.435-3.988,1.389
			c-1.209,1.243-1.206,2.684-1.201,2.857c-0.331,0.312-0.538,0.75-0.538,1.24c0,0.938,0.761,1.699,1.701,1.699
			c0.939,0,1.7-0.762,1.7-1.699c0-0.49-0.207-0.931-0.537-1.24c0.001-0.021,0.001-0.041,0-0.062c0-0.009,0.014-0.527,0.543-1.072
			c0.474-0.488,1.254-0.736,2.32-0.736c0.114,0,2.716,0.021,2.86,1.881c-0.327,0.309-0.531,0.746-0.531,1.23
			c0,0.938,0.761,1.7,1.701,1.7c0.939,0,1.699-0.762,1.699-1.7C14.647,29.689,14.44,29.25,14.108,28.939z"/>
	</g>
</g>
<g>
</g>
<g>
</g>
<g>
</g>
<g>
</g>
<g>
</g>
<g>
</g>
<g>
</g>
<g>
</g>
<g>
</g>
<g>
</g>
<g>
</g>
<g>
</g>
<g>
</g>
<g>
</g>
<g>
</g>
</svg>
