<?xml version="1.0" encoding="iso-8859-1"?>
<!-- Generator: Adobe Illustrator 16.0.0, SVG Export Plug-In . SVG Version: 6.00 Build 0)  -->
<!DOCTYPE svg PUBLIC "-//W3C//DTD SVG 1.1//EN" "http://www.w3.org/Graphics/SVG/1.1/DTD/svg11.dtd">
<svg version="1.1" id="Capa_1" xmlns="http://www.w3.org/2000/svg" xmlns:xlink="http://www.w3.org/1999/xlink" x="0px" y="0px"
	 width="31.602px" height="31.602px" viewBox="0 0 31.602 31.602" style="enable-background:new 0 0 31.602 31.602;"
	 xml:space="preserve">
<g>
	<g>
		<path d="M27.534,19.739h-5.578h-5.578c-0.016,0-0.029,0-0.045,0c-1.764,0.026-3.435-0.818-4.454-2.261
			c-0.803-1.135-1.12-2.542-0.884-3.912c0.086-0.501,0.067-1.031-0.077-1.556c-0.189-0.69-0.567-1.279-1.058-1.718l0.024-0.008
			L8.78,6.257C8.637,5.736,8.099,5.43,7.578,5.572L6.897,5.759c-0.25,0.068-0.463,0.234-0.591,0.459
			C6.177,6.443,6.143,6.71,6.212,6.961l0.696,2.54c-0.05,0.011-0.1,0.023-0.15,0.037c-1.789,0.491-2.828,2.391-2.319,4.245
			c0.183,0.668,0.543,1.239,1.01,1.673c0.643,2.659,2.26,5.946,5.531,8.255c1.13,0.798,2.105,1.819,2.844,2.989
			c0.002,0.004,0.005,0.009,0.007,0.013l0.185,4.331h17.175v-6.906C31.191,21.858,29.598,19.739,27.534,19.739z"/>
		<ellipse cx="21.956" cy="14.458" rx="5.354" ry="5.244"/>
		<path d="M10.599,6.12c0,0.33,0.267,0.596,0.596,0.596h19.8c0.33,0,0.596-0.267,0.596-0.596V5.698c0-0.33-0.268-0.596-0.596-0.596
			H11.196c-0.33,0-0.596,0.267-0.596,0.596L10.599,6.12L10.599,6.12z"/>
		<path d="M0.656,0.559C0.293,0.559,0,0.853,0,1.215v0.362c0,0.329,0.267,0.596,0.596,0.596h30.408c0.33,0,0.598-0.267,0.598-0.596
			V1.155c0-0.329-0.268-0.597-0.598-0.597L0.656,0.559L0.656,0.559z"/>
	</g>
</g>
<g>
</g>
<g>
</g>
<g>
</g>
<g>
</g>
<g>
</g>
<g>
</g>
<g>
</g>
<g>
</g>
<g>
</g>
<g>
</g>
<g>
</g>
<g>
</g>
<g>
</g>
<g>
</g>
<g>
</g>
</svg>
