<?xml version="1.0" encoding="iso-8859-1"?>
<!-- Generator: Adobe Illustrator 16.0.0, SVG Export Plug-In . SVG Version: 6.00 Build 0)  -->
<!DOCTYPE svg PUBLIC "-//W3C//DTD SVG 1.1//EN" "http://www.w3.org/Graphics/SVG/1.1/DTD/svg11.dtd">
<svg version="1.1" id="Capa_1" xmlns="http://www.w3.org/2000/svg" xmlns:xlink="http://www.w3.org/1999/xlink" x="0px" y="0px"
	 width="612px" height="612px" viewBox="0 0 612 612" style="enable-background:new 0 0 612 612;" xml:space="preserve">
<g>
	<g>
		<g>
			<path d="M306.01,290.252c36.695,0,69.964,14.901,94.048,38.986l0.021,0.02l0.02,0.021l0.021,0.02
				c24.063,24.085,38.966,57.334,38.966,94.028c0,36.755-14.901,70.022-38.986,94.107l-0.638,0.577
				c-24.045,23.728-57.054,38.39-93.45,38.39c-36.754,0-70.022-14.901-94.108-38.986c-24.104-24.064-38.986-57.333-38.986-94.088
				c0-36.715,14.901-69.983,39.006-94.068l-0.02-0.02C235.967,305.154,269.255,290.252,306.01,290.252L306.01,290.252z
				 M386.552,342.725c-20.579-20.577-49.065-33.327-80.562-33.327c-31.456,0-59.963,12.75-80.562,33.367l-0.02-0.02l-0.02,0.02
				c-20.579,20.579-33.328,49.066-33.328,80.562c0,31.456,12.75,59.963,33.368,80.562c20.618,20.618,49.105,33.368,80.562,33.368
				c31.235,0,59.544-12.551,80.083-32.87l0.458-0.498c20.619-20.617,33.368-49.104,33.368-80.562
				c0-31.477-12.749-59.982-33.328-80.562L386.552,342.725z"/>
			<path d="M306.01,389.062c9.423,0,17.969,3.824,24.186,10.041l0.04,0.038c6.194,6.217,10.04,14.763,10.04,24.186
				s-3.846,17.989-10.04,24.204l-0.021,0.021l0.021,0.021c-6.195,6.194-14.781,10.04-24.226,10.04
				c-9.422,0-17.989-3.846-24.204-10.04l-0.04-0.04c-6.195-6.195-10.04-14.763-10.04-24.204c0-9.463,3.845-18.028,10.04-24.224
				C287.961,392.887,296.527,389.062,306.01,389.062L306.01,389.062z M316.688,412.589c-2.688-2.709-6.493-4.383-10.696-4.383
				c-4.184,0-7.969,1.693-10.698,4.423s-4.423,6.514-4.423,10.697c0,4.203,1.673,7.969,4.383,10.698l0.04,0.038
				c2.749,2.689,6.514,4.384,10.698,4.384c4.163,0,7.969-1.713,10.696-4.422l0.021,0.02c2.709-2.749,4.402-6.515,4.402-10.737
				c0-4.203-1.675-7.987-4.384-10.697L316.688,412.589z"/>
			<g>
				<circle cx="253.597" cy="475.719" r="16.057"/>
				<circle cx="305.99" cy="497.434" r="16.057"/>
				<circle cx="358.402" cy="475.719" r="16.057"/>
				<circle cx="253.597" cy="370.934" r="16.057"/>
				<circle cx="231.883" cy="423.326" r="16.057"/>
				<circle cx="305.99" cy="349.219" r="16.056"/>
				<circle cx="358.402" cy="370.934" r="16.057"/>
				<circle cx="380.097" cy="423.326" r="16.057"/>
			</g>
			<path d="M603.594,212.56c5.219,0.777,8.806,5.658,8.027,10.877c-0.776,5.22-5.657,8.825-10.877,8.028l-160.326-24.702
				c-4.74-0.717-8.127-4.801-8.127-9.462l0,0v-18.328v-18.368c0-33.965-31.994-56.038-72.912-65.999
				c-16.674-4.044-34.962-6.076-53.329-6.076c-18.387,0-36.655,2.052-53.329,6.076c-40.958,9.941-72.991,31.934-72.991,65.641V197.3
				c0,4.92-3.726,8.964-8.506,9.522L11.255,231.465c-5.219,0.777-10.1-2.809-10.877-8.028c-0.12-0.757-0.139-1.514-0.06-2.251
				l-0.278-63.41H0v-0.458C0,107.017,26.216,67.354,78.49,40.34C128.612,14.443,203.277,0.378,302.265,0.039h3.726V0
				c3.426,0,9.104,0.06,16.354,0.18h0.039C416.693,1.654,488.23,16.057,536.36,41.636c50.24,26.674,75.62,65.341,75.62,114.128
				l-0.021,1.016v1.036v0.119v0.199l-0.239,14.623c-0.079,5.259-4.422,9.462-9.682,9.383c-5.259-0.08-9.462-4.422-9.383-9.682
				l0.238-14.822v-0.956l-0.039-0.917c0-41.197-21.993-74.146-65.462-97.235c-45.56-24.224-114.169-37.87-205.309-39.305
				c-3.386-0.04-8.586-0.08-16.096-0.08v-0.04l-3.726,0.02c-95.781,0.319-167.518,13.646-215.03,38.209
				c-45.36,23.427-68.09,57.313-68.09,99.985v0.458h-0.04l0.199,53.09l141.261-21.773v-28.846c0-44.225,38.468-72.234,87.673-84.167
				c18.348-4.443,38.169-6.694,57.812-6.694c19.644,0,39.444,2.251,57.812,6.694c49.165,11.953,87.572,40.021,87.572,84.525v18.348
				v10.14L603.594,212.56z"/>
			<path d="M278.519,206.743h54.982v-46.496c0-9.403,3.865-17.949,10.062-24.165l0.02-0.02l-0.02-0.02
				c6.194-6.196,14.78-10.061,24.203-10.061c9.384,0,17.949,3.865,24.164,10.08l0.04,0.04c6.216,6.215,10.08,14.782,10.08,24.165
				v52.094l157.757,157.736l0.498,0.538C612,422.33,612,422.529,612,475.68v77.354c0,16.235-6.634,30.998-17.312,41.655
				C584.03,605.347,569.269,612,553.033,612H306.01H58.987c-16.196,0-30.938-6.653-41.616-17.312l-0.04-0.039l-0.02,0.021
				C6.654,584.011,0,569.249,0,553.014V475.66c0-53.369,0-53.389,52.213-105.582L209.97,212.341v-52.094
				c0-9.363,3.865-17.949,10.06-24.165l0.04-0.04c6.215-6.215,14.782-10.081,24.165-10.081c9.403,0,17.949,3.865,24.184,10.061
				l0.04,0.04c6.195,6.216,10.06,14.762,10.06,24.165V206.743L278.519,206.743z M343.062,225.887h-73.868h-0.259
				c-5.279,0-9.582-4.283-9.582-9.563v-56.078c0-4.144-1.693-7.929-4.403-10.678l-0.04-0.04c-2.749-2.709-6.534-4.402-10.678-4.402
				c-4.164,0-7.949,1.693-10.658,4.422l-0.04,0.04c-2.729,2.709-4.442,6.514-4.442,10.658v56.058c0,2.451-0.937,4.901-2.809,6.773
				L65.74,383.623c-46.596,46.596-46.616,46.596-46.616,92.036v77.354c0,10.938,4.502,20.917,11.713,28.129l-0.02,0.021
				c7.211,7.191,17.212,11.693,28.148,11.693H305.99h247.022c10.938,0,20.917-4.502,28.128-11.714
				c7.212-7.212,11.715-17.191,11.715-28.129v-77.354c0-45.301-0.021-45.5-46.059-91.538l-0.538-0.498L385.694,223.078
				c-1.732-1.733-2.81-4.144-2.81-6.773v-56.058c0-4.164-1.692-7.949-4.423-10.658l-0.039-0.04
				c-2.709-2.729-6.515-4.422-10.678-4.422c-4.145,0-7.929,1.713-10.658,4.442l-0.02-0.02c-2.729,2.749-4.424,6.554-4.424,10.698
				v55.799v0.259C352.626,221.584,348.343,225.887,343.062,225.887z"/>
			<path d="M603.633,163.155c5.22,0.797,8.807,5.697,8.009,10.917c-0.797,5.22-5.696,8.805-10.917,7.989l-40.081-6.176l-0.198-0.04
				l-39.844-6.136h-0.039l-40.081-6.175c-5.221-0.797-8.807-5.698-8.01-10.917c0.797-5.219,5.697-8.805,10.917-8.008l40.081,6.176
				l39.743,6.136l0.318,0.04L603.633,163.155z"/>
			<path d="M11.255,182.061c-5.199,0.816-10.1-2.77-10.897-7.989c-0.816-5.219,2.769-10.12,7.989-10.917l40.082-6.176l0.318-0.04
				l39.763-6.136l40.082-6.175c5.22-0.817,10.12,2.789,10.917,8.008c0.797,5.219-2.789,10.12-8.008,10.917l-40.082,6.175h-0.02
				l-39.862,6.116l-0.199,0.04L11.255,182.061z"/>
		</g>
	</g>
</g>
<g>
</g>
<g>
</g>
<g>
</g>
<g>
</g>
<g>
</g>
<g>
</g>
<g>
</g>
<g>
</g>
<g>
</g>
<g>
</g>
<g>
</g>
<g>
</g>
<g>
</g>
<g>
</g>
<g>
</g>
</svg>
