<?xml version="1.0" encoding="iso-8859-1"?>
<!-- Generator: Adobe Illustrator 18.0.0, SVG Export Plug-In . SVG Version: 6.00 Build 0)  -->
<!DOCTYPE svg PUBLIC "-//W3C//DTD SVG 1.1//EN" "http://www.w3.org/Graphics/SVG/1.1/DTD/svg11.dtd">
<svg version="1.1" id="Capa_1" xmlns="http://www.w3.org/2000/svg" xmlns:xlink="http://www.w3.org/1999/xlink" x="0px" y="0px"
	 viewBox="0 0 319.253 319.253" style="enable-background:new 0 0 319.253 319.253;" xml:space="preserve">
<g>
	<path d="M317.361,282.335L172.735,22.335c-2.646-4.758-7.664-7.708-13.108-7.708c-5.444,0-10.462,2.95-13.108,7.708L1.891,282.335
		c-2.584,4.647-2.517,10.313,0.179,14.896c2.694,4.583,7.613,7.397,12.93,7.397h289.254c5.316,0,10.235-2.814,12.93-7.397
		C319.879,292.647,319.945,286.981,317.361,282.335z M40.508,274.627L159.627,60.483l119.118,214.143H40.508z"/>
	<polygon points="132.405,164.598 116.849,180.155 144.07,207.377 116.849,234.598 132.405,250.155 159.627,222.933 
		186.849,250.155 202.405,234.598 175.183,207.377 202.405,180.155 186.849,164.598 159.627,191.82 	"/>
</g>
<g>
</g>
<g>
</g>
<g>
</g>
<g>
</g>
<g>
</g>
<g>
</g>
<g>
</g>
<g>
</g>
<g>
</g>
<g>
</g>
<g>
</g>
<g>
</g>
<g>
</g>
<g>
</g>
<g>
</g>
</svg>
