<?xml version="1.0" encoding="iso-8859-1"?>
<!-- Generator: Adobe Illustrator 18.0.0, SVG Export Plug-In . SVG Version: 6.00 Build 0)  -->
<!DOCTYPE svg PUBLIC "-//W3C//DTD SVG 1.1//EN" "http://www.w3.org/Graphics/SVG/1.1/DTD/svg11.dtd">
<svg version="1.1" id="Capa_1" xmlns="http://www.w3.org/2000/svg" xmlns:xlink="http://www.w3.org/1999/xlink" x="0px" y="0px"
	 viewBox="0 0 319.273 319.273" style="enable-background:new 0 0 319.273 319.273;" xml:space="preserve">
<g>
	<path d="M316.994,281.684L172.735,22.345c-2.646-4.758-7.664-7.708-13.108-7.708c-5.445,0-10.462,2.95-13.108,7.708l-144.626,260
		c-2.584,4.646-2.517,10.313,0.178,14.895c2.695,4.583,7.614,7.397,12.93,7.397h289.253c0.006-0.001,0.013-0.001,0.02,0
		c8.284,0,15-6.716,15-15C319.273,286.716,318.438,283.99,316.994,281.684z M40.508,274.637L159.627,60.493l119.118,214.143H40.508z
		"/>
	<path d="M115.769,197.736v32.145H97.294l30,30l30-30h-19.525v-32.145c0-12.051,9.805-21.855,21.857-21.855
		s21.857,9.805,21.857,21.855v47.145h22v-47.145c0-24.182-19.674-43.855-43.857-43.855S115.769,173.555,115.769,197.736z"/>
</g>
<g>
</g>
<g>
</g>
<g>
</g>
<g>
</g>
<g>
</g>
<g>
</g>
<g>
</g>
<g>
</g>
<g>
</g>
<g>
</g>
<g>
</g>
<g>
</g>
<g>
</g>
<g>
</g>
<g>
</g>
</svg>
