<?xml version="1.0" encoding="iso-8859-1"?>
<!-- Generator: Adobe Illustrator 19.0.0, SVG Export Plug-In . SVG Version: 6.00 Build 0)  -->
<svg version="1.1" id="Capa_1" xmlns="http://www.w3.org/2000/svg" xmlns:xlink="http://www.w3.org/1999/xlink" x="0px" y="0px"
	 viewBox="0 0 447 447" style="enable-background:new 0 0 447 447;" xml:space="preserve">
<g>
	<g>
		<path d="M341.004,135.97H118.026c-36.852,0-66.833,29.981-66.833,66.833c0,4.143,3.358,7.5,7.5,7.5h282.311
			c12.889,0,23.375-10.486,23.375-23.375v-27.583C364.379,146.457,353.893,135.97,341.004,135.97z M192.445,150.97h43.778v44.333
			h-43.778V150.97z M177.445,195.303h-43.778V150.97h43.778V195.303z M251.223,150.97H295v44.333h-43.777L251.223,150.97
			L251.223,150.97z M118.026,150.97h0.641v44.333H66.734C70.379,170.264,91.992,150.97,118.026,150.97z M349.379,186.928
			c0,4.618-3.757,8.375-8.375,8.375H310V150.97h31.004c4.618,0,8.375,3.757,8.375,8.375V186.928z"/>
		<path d="M102.616,277.413c-12.163,0-22.058,9.895-22.058,22.058c0,12.162,9.895,22.057,22.058,22.057
			c12.162,0,22.057-9.895,22.057-22.057C124.673,287.307,114.778,277.413,102.616,277.413z M102.616,306.527
			c-3.892,0-7.058-3.166-7.058-7.057c0-3.892,3.166-7.058,7.058-7.058c3.891,0,7.057,3.166,7.057,7.058
			C109.673,303.361,106.507,306.527,102.616,306.527z"/>
		<path d="M335.5,277.413c-12.162,0-22.057,9.895-22.057,22.058c0,12.162,9.895,22.057,22.057,22.057
			c12.163,0,22.058-9.895,22.058-22.057C357.558,287.307,347.663,277.413,335.5,277.413z M335.5,306.527
			c-3.891,0-7.057-3.166-7.057-7.057c0-3.892,3.166-7.058,7.057-7.058c3.892,0,7.058,3.166,7.058,7.058
			C342.558,303.361,339.392,306.527,335.5,306.527z"/>
		<path d="M447,276.47c0-4.112-3.31-7.447-7.41-7.495V175.41c0-39.91-32.469-72.38-72.38-72.38H132.4
			c-68.087,0-123.48,55.394-123.48,123.48v42.46H7.5c-4.142,0-7.5,3.357-7.5,7.5s3.358,7.5,7.5,7.5h1.42v15.5
			c0,4.143,3.358,7.5,7.5,7.5h42.341c3.577,20.977,21.875,37,43.855,37s40.278-16.023,43.855-37h145.173
			c3.577,20.977,21.875,37,43.855,37s40.278-16.023,43.855-37h52.735c4.142,0,7.5-3.357,7.5-7.5v-15.505
			C443.69,283.917,447,280.582,447,276.47z M424.59,211.97h-12.177c-10.705,0-19.413-8.709-19.413-19.413v-31.745
			c0-5.427,4.415-9.842,9.842-9.842h16.27c3.508,7.42,5.479,15.702,5.479,24.439v36.561H424.59z M102.616,328.97
			c-16.267,0-29.5-13.233-29.5-29.5s13.233-29.5,29.5-29.5s29.5,13.233,29.5,29.5S118.883,328.97,102.616,328.97z M335.5,328.97
			c-16.267,0-29.5-13.233-29.5-29.5s13.233-29.5,29.5-29.5s29.5,13.233,29.5,29.5S351.767,328.97,335.5,328.97z M379.355,291.97
			c-3.577-20.977-21.875-37-43.855-37s-40.278,16.023-43.855,37H146.471c-3.577-20.977-21.875-37-43.855-37
			s-40.278,16.023-43.855,37H23.92v-8H42.5c4.142,0,7.5-3.357,7.5-7.5s-3.358-7.5-7.5-7.5H23.92v-42.46
			c0-59.816,48.664-108.48,108.48-108.48h234.81c16.373,0,31.154,6.904,41.618,17.94h-5.987c-13.697,0-24.841,11.144-24.841,24.842
			v31.745c0,18.976,15.438,34.413,34.413,34.413h12.177v19h-7.09c-4.142,0-7.5,3.357-7.5,7.5s3.358,7.5,7.5,7.5h7.09v8H404.5
			c-4.142,0-7.5,3.357-7.5,7.5s3.358,7.5,7.5,7.5h20.09v8H379.355z"/>
	</g>
</g>
<g>
</g>
<g>
</g>
<g>
</g>
<g>
</g>
<g>
</g>
<g>
</g>
<g>
</g>
<g>
</g>
<g>
</g>
<g>
</g>
<g>
</g>
<g>
</g>
<g>
</g>
<g>
</g>
<g>
</g>
</svg>
