<?xml version="1.0" encoding="iso-8859-1"?>
<!-- Generator: Adobe Illustrator 18.0.0, SVG Export Plug-In . SVG Version: 6.00 Build 0)  -->
<!DOCTYPE svg PUBLIC "-//W3C//DTD SVG 1.1//EN" "http://www.w3.org/Graphics/SVG/1.1/DTD/svg11.dtd">
<svg version="1.1" id="Capa_1" xmlns="http://www.w3.org/2000/svg" xmlns:xlink="http://www.w3.org/1999/xlink" x="0px" y="0px"
	 viewBox="0 0 427.912 427.912" style="enable-background:new 0 0 427.912 427.912;" xml:space="preserve">
<g>
	<path d="M417.935,221.673c-30.554-29.857-81.027-73.723-121.169-87.859c-5.103-1.797-9.785-2.418-14.08-2.137
		c-28.853-13.104-52.267-18.5-54.162-18.925c-0.832-0.186-1.683-0.28-2.535-0.28h-18.839c-6.403,0-11.595,5.191-11.595,11.595
		s5.191,11.595,11.595,11.595h17.473c3.815,0.943,16.579,4.303,33.151,10.767c-12.381,15.737-17.014,38.362-17.014,38.362h-82.503
		c-20.007,0-36.229,16.222-36.235,36.23H7.096c0,0-3.947,7.377-6.023,15.634c20.615,3.892,80.787,14.296,153.143,18.141
		C231.373,258.894,337.618,256.114,417.935,221.673z M344.441,177.299c0,0,52.143,31.04,24.639,31.04
		C337.712,208.339,344.441,177.299,344.441,177.299z"/>
	<path d="M426.151,230.724c-35.082,15.613-77.675,26.44-126.895,32.193c-28.21,3.297-58.636,4.95-90.909,4.95
		c-17.77,0-36.096-0.501-54.925-1.505C81.77,262.543,21.918,252.349,0,248.247c0.325,2.512,1.145,4.791,2.676,6.601
		c15.551,18.367,48.87,32.039,90.214,40.947c4.308-0.892,8.466-2.232,12.247-3.993c4.086-1.904,7.353-4.605,10.813-7.465
		c0.769-0.636,1.539-1.272,2.314-1.898c1.336-1.077,2.965-1.625,4.603-1.625c1.343,0,2.69,0.369,3.885,1.115
		c0.976,0.611,1.945,1.23,2.916,1.852c5.136,3.285,9.987,6.388,16.054,8.169c5.399,1.586,11.496,2.46,17.168,2.46
		c3.15,0,6.101-0.267,8.77-0.793c0.028-0.005,0.057-0.011,0.086-0.016c5.652-1.043,9.644-2.213,12.943-3.794
		c4.191-2.008,7.518-4.354,9.887-6.974l9.393-10.389c1.379-1.524,3.334-2.399,5.39-2.412c0.015,0,0.029,0,0.044,0
		c2.039,0,3.986,0.85,5.373,2.347l1.586,1.714l0.819,0.885c0.946,1.022,1.868,2.065,2.761,3.074c3.353,3.79,6.519,7.37,10.828,9.84
		c0.02,0.011,0.038,0.022,0.057,0.033c6.582,3.853,15.805,6.245,24.066,6.245c0.179,0,0.357-0.001,0.545-0.003
		c8.732-0.098,16.424-1.564,22.857-4.358c3.827-1.661,7.217-3.957,10.807-6.388c1.1-0.745,2.237-1.515,3.389-2.266
		c1.221-0.797,2.613-1.19,4.001-1.19c1.638,0,3.271,0.548,4.606,1.63c0.898,0.726,1.783,1.463,2.67,2.201
		c2.088,1.742,4.063,3.388,6.182,4.852c4.678,2.961,9.35,4.957,14.691,6.276c0.533,0.132,1.083,0.25,1.635,0.367
		C391.887,279.087,437.607,250.991,426.151,230.724z"/>
	<path d="M385.272,299.751c-3.681-2.523-6.492-5.412-9.43-8.317c-4.125,3.001-8.075,5.938-13.123,8.272
		c-4.884,2.258-10.497,3.831-16.305,4.665c-3.588,0.515-8.736,1-15.967,0.381c-3.318-0.284-6.558-0.853-9.677-1.664
		c-6.449-1.672-11.741-4.227-16.594-7.47c-3.32-2.396-6.188-5.107-9.203-7.67c-4.737,3.246-9.31,6.92-14.936,9.486
		c-7.578,3.456-16.05,4.988-25.113,5.096c-0.204,0.002-0.409,0.003-0.613,0.003c-9.876,0-19.999-3.054-27.137-7.441
		c-6.524-3.928-10.577-9.685-14.978-14.678c-0.781-0.89-1.563-1.778-2.347-2.666c-3.061,3.556-6.122,7.109-9.181,10.666
		c-3.025,3.516-7.039,6.465-11.881,8.9c-4.376,2.203-9.235,3.5-14.446,4.509c-3.179,0.658-6.552,0.956-9.958,0.956
		c-6.516,0-13.154-1.09-18.795-2.83c-8.121-2.506-14.065-7.017-20.321-11.13c-4.393,3.725-8.506,7.74-14.304,10.579
		c-7.743,3.792-17.219,6.103-26.869,6.103c-1.12,0-2.241-0.031-3.365-0.095c-5.678-0.321-10.893-1.219-16.127-2.65
		c-4.681-1.28-8.636-3.344-12.564-5.412c-0.655-0.346-3.025-1.56-3.025-1.56s-3.75,2.857-5.657,4.021
		c-3.017,1.842-6.036,3.518-9.53,4.952c-2.851,1.129-5.763,2.075-8.872,2.854c-3.698,0.926-7.476,1.443-11.352,1.876v0.172
		c1.255,0.036,2.495,0.058,3.731,0.058c3.611,0,7.161-0.178,10.798-0.652c4.474-0.559,8.903-1.775,12.901-3.186
		c1.909-0.675,3.704-1.417,5.496-2.222c0.382-0.172,0.766-0.344,1.147-0.514c0.457-0.206,1.251-0.616,1.251-0.616
		s2.115,1.296,3.041,1.843c3.289,1.941,6.781,3.551,10.583,5.014c7.222,2.778,15.358,3.895,23.55,4.396
		c1.291,0.08,2.592,0.119,3.897,0.119c10.146,0,20.597-2.317,29.025-5.779c1.773-0.729,3.477-1.532,5.115-2.39
		c0.41-0.214,0.82-0.43,1.226-0.649c0.28-0.151,0.352-0.234,0.43-0.234c0.071,0,0.146,0.07,0.39,0.217
		c0.534,0.323,1.089,0.63,1.64,0.938c1.948,1.095,4.016,2.099,6.166,3.01c6.302,2.671,13.23,4.472,20.539,5.462
		c3.697,0.499,7.634,0.758,11.593,0.758c5.536,0,11.118-0.507,16.16-1.568c10.457-2.186,20.291-5.851,27.628-11.351
		c10.819,8.205,27.777,13.129,44.396,13.129c3.775,0,7.535-0.255,11.201-0.782c7.71-1.111,14.96-2.958,21.588-5.835
		c2.089-0.906,4.067-1.919,5.953-3.002c0.475-0.272,0.945-0.544,1.404-0.829c0.683,0.388,1.382,0.761,2.087,1.13
		c1.759,0.921,3.626,1.761,5.537,2.534c9.029,3.658,19.481,5.584,29.983,5.584c3.613,0,7.228-0.229,10.796-0.69
		c12.944-1.681,24.8-6.407,32.93-13.33c5.863,3.821,13.146,6.559,20.95,8.189c4.637,0.969,9.41,1.354,14.215,1.354
		c1.299,0,2.602-0.028,3.903-0.08v-0.201c-0.492-0.048-0.985-0.095-1.478-0.142C402.801,307.979,392.856,304.95,385.272,299.751z"/>
</g>
<g>
</g>
<g>
</g>
<g>
</g>
<g>
</g>
<g>
</g>
<g>
</g>
<g>
</g>
<g>
</g>
<g>
</g>
<g>
</g>
<g>
</g>
<g>
</g>
<g>
</g>
<g>
</g>
<g>
</g>
</svg>
