<?xml version="1.0" encoding="iso-8859-1"?>
<!-- Generator: Adobe Illustrator 18.0.0, SVG Export Plug-In . SVG Version: 6.00 Build 0)  -->
<!DOCTYPE svg PUBLIC "-//W3C//DTD SVG 1.1//EN" "http://www.w3.org/Graphics/SVG/1.1/DTD/svg11.dtd">
<svg version="1.1" id="Capa_1" xmlns="http://www.w3.org/2000/svg" xmlns:xlink="http://www.w3.org/1999/xlink" x="0px" y="0px"
	 viewBox="0 0 363.61 363.61" style="enable-background:new 0 0 363.61 363.61;" xml:space="preserve">
<g>
	<path style="stroke:#000000;stroke-width:0;stroke-linecap:round;stroke-linejoin:round;" d="M329.814,159.671
		c-3.982-37.802-7.578-80.456-29.602-112.843C273.949,8.203,225.402,0.002,181.816,0C138.232-0.002,89.682,8.205,63.419,46.828
		C41.396,79.216,37.8,121.867,33.816,159.671c-2.441,23.163-6.611,49.162-4.454,73.699c27.176-9.295,84.815-25.743,152.444-25.743
		c67.632,0,125.273,16.449,152.448,25.744C336.398,208.798,332.242,182.712,329.814,159.671z M71.973,175.218l0.623-5.953
		c3.811-36.521,7.753-74.284,23.375-97.261c12.087-17.774,40.959-26.786,85.832-26.786c44.872,0.002,73.751,9.014,85.835,26.785
		c15.627,22.981,19.565,60.751,23.376,97.277l0.623,5.936L71.973,175.218z"/>
	<path style="stroke:#000000;stroke-width:0;stroke-linecap:round;stroke-linejoin:round;" d="M33,254.109
		c1.662,5.989,3.882,11.805,6.821,17.365c8.598,16.263,21.879,27.767,37.533,35.884l-11.59,41.723
		c-1.694,6.098,1.876,12.414,7.974,14.108c6.096,1.694,12.415-1.876,14.108-7.974l10.401-37.445h6.22
		c25.785,7.125,54.004,8.526,77.348,8.526c23.496,0,51.782-1.357,77.603-8.526h5.944l10.401,37.445
		c1.408,5.072,6.015,8.396,11.035,8.395c1.015,0,2.047-0.136,3.073-0.421c6.098-1.694,9.668-8.01,7.975-14.108l-11.573-41.663
		c14.078-7.321,26.255-17.41,34.878-31.291c4.297-6.918,7.349-14.314,9.477-22.012c-24.238-8.449-82.041-25.755-148.823-25.755
		C115.04,228.361,57.249,245.658,33,254.109z M117.545,286.021H95.399c-7.996,0-14.5-6.505-14.5-14.5c0-7.995,6.504-14.5,14.5-14.5
		h22.146c7.995,0,14.5,6.505,14.5,14.5C132.045,279.516,125.54,286.021,117.545,286.021z M246.066,257.021h22.146
		c7.995,0,14.5,6.505,14.5,14.5c0,7.995-6.505,14.5-14.5,14.5h-22.146c-7.995,0-14.5-6.505-14.5-14.5
		C231.566,263.525,238.07,257.021,246.066,257.021z"/>
</g>
<g>
</g>
<g>
</g>
<g>
</g>
<g>
</g>
<g>
</g>
<g>
</g>
<g>
</g>
<g>
</g>
<g>
</g>
<g>
</g>
<g>
</g>
<g>
</g>
<g>
</g>
<g>
</g>
<g>
</g>
</svg>
