<?xml version="1.0" encoding="iso-8859-1"?>
<!-- Generator: Adobe Illustrator 18.0.0, SVG Export Plug-In . SVG Version: 6.00 Build 0)  -->
<!DOCTYPE svg PUBLIC "-//W3C//DTD SVG 1.1//EN" "http://www.w3.org/Graphics/SVG/1.1/DTD/svg11.dtd">
<svg version="1.1" id="Capa_1" xmlns="http://www.w3.org/2000/svg" xmlns:xlink="http://www.w3.org/1999/xlink" x="0px" y="0px"
	 viewBox="0 0 359.525 359.525" style="enable-background:new 0 0 359.525 359.525;" xml:space="preserve">
<g>
	<path style="stroke:#000000;stroke-width:0;stroke-linecap:round;stroke-linejoin:round;" d="M45.799,217.964
		c-21.084,0-39.403,14.473-45.584,36.014c-0.479,1.672-0.146,3.473,0.901,4.863c1.047,1.389,2.686,2.207,4.426,2.207h3.631
		c1.414,20.633,18.64,36.992,39.627,36.992c21.14,0,38.471-16.596,39.662-37.443h-0.24c0.883-0.375,1.668-0.971,2.261-1.756
		c1.047-1.391,1.381-3.191,0.901-4.863C85.202,232.436,66.884,217.964,45.799,217.964z M48.8,279.702
		c-10.868,0-19.848-8.15-21.201-18.654h42.4C68.645,271.551,59.666,279.702,48.8,279.702z"/>
	<path style="stroke:#000000;stroke-width:0;stroke-linecap:round;stroke-linejoin:round;" d="M336.552,154.735h1.512h0.817
		c3.504,0,6.344-2.84,6.344-6.346v-14.502c0-3.504-2.84-6.346-6.344-6.346H199.647c-3.504,0-6.344,2.842-6.344,6.346v14.502
		c0,3.506,2.84,6.346,6.344,6.346h2.078h1.478c-17.353,20.781-13.661,65.271-13.621,65.727l0.055,0.623l-44.584-0.01
		c-0.497-0.098-12.319-2.619-24.24-23.188c-9.017-15.559-19.457-44.424-22.821-96.553c0.384-0.271,0.749-0.568,1.091-0.9
		c0.657-0.641,1.238-1.381,1.694-2.234l6.758-12.625l2.956-5.521l7.076-0.086l16.883-0.207c5.064-0.063,9.118-4.219,9.057-9.281
		c-0.062-5.025-4.155-9.057-9.167-9.057c-0.038,0-0.076,0-0.114,0l-29.375,0.359c-2.661,0.033-5.127,1.23-6.822,3.199
		c-0.43,0.498-0.822,1.035-1.142,1.629c0-0.279-0.005-0.551-0.005-0.832H82.7c-0.092,0.068-0.179,0.146-0.269,0.217h-1.829H75.71
		c-19.354,0-35.1,15.746-35.1,35.102c0,5.613,1.332,10.92,3.685,15.629c0.216,0.434,0.438,0.861,0.671,1.283
		c-10.981,25.09-16.676,52.17-16.676,70.982c0,7.16,2.426,14.645,6.252,21.996c4.538-1.355,9.316-2.098,14.257-2.098
		c28.833,0,52.313,24.699,52.605,55.176H239.93c2.773,19.217,19.331,34.037,39.304,34.037c19.973,0,36.53-14.82,39.304-34.037
		h26.375c1.379-2.168,11.002-17.91,13.836-39.311C361.202,206.245,358.862,180.053,336.552,154.735z M66.541,115.124
		c-4.569-2.998-7.593-8.166-7.593-14.027c0-5.861,3.023-11.029,7.593-14.027V115.124z M236.284,182.114h76.793
		c1.899,0,3.438,1.541,3.438,3.438c0,1.9-1.538,3.439-3.438,3.439h-76.793c-1.898,0-3.439-1.539-3.439-3.439
		C232.845,183.655,234.386,182.114,236.284,182.114z M307.155,200.452c0,1.898-1.539,3.439-3.44,3.439h-60.173
		c-1.897,0-3.438-1.541-3.438-3.439c0-1.898,1.541-3.439,3.438-3.439h60.173C305.616,197.012,307.155,198.553,307.155,200.452z
		 M232.845,216.118c0-1.898,1.541-3.438,3.439-3.438h76.793c1.899,0,3.438,1.539,3.438,3.438c0,1.898-1.538,3.439-3.438,3.439
		h-76.793C234.386,219.557,232.845,218.016,232.845,216.118z M279.234,279.764c-9.819,0-18.077-6.664-20.578-15.699h41.155
		C297.311,273.1,289.053,279.764,279.234,279.764z"/>
</g>
<g>
</g>
<g>
</g>
<g>
</g>
<g>
</g>
<g>
</g>
<g>
</g>
<g>
</g>
<g>
</g>
<g>
</g>
<g>
</g>
<g>
</g>
<g>
</g>
<g>
</g>
<g>
</g>
<g>
</g>
</svg>
