<?xml version="1.0" encoding="iso-8859-1"?>
<!-- Generator: Adobe Illustrator 18.0.0, SVG Export Plug-In . SVG Version: 6.00 Build 0)  -->
<!DOCTYPE svg PUBLIC "-//W3C//DTD SVG 1.1//EN" "http://www.w3.org/Graphics/SVG/1.1/DTD/svg11.dtd">
<svg version="1.1" id="Capa_1" xmlns="http://www.w3.org/2000/svg" xmlns:xlink="http://www.w3.org/1999/xlink" x="0px" y="0px"
	 viewBox="0 0 391.949 391.949" style="enable-background:new 0 0 391.949 391.949;" xml:space="preserve">
<path style="stroke:#000000;stroke-width:0;stroke-linecap:round;stroke-linejoin:round;" d="M391.838,200.604
	c0-1.224-0.228-2.436-0.674-3.577l-17.141-43.943l-9.986-89.822c-0.895-8.047-7.696-14.134-15.793-14.134H43.705
	c-8.097,0-14.899,6.087-15.793,14.134l-9.986,89.822L0.785,197.027c-0.445,1.14-0.674,2.353-0.674,3.577L0,324.963
	c0,9.847,8.011,17.858,17.857,17.858h37.831c9.847,0,17.857-8.011,17.857-17.858v-42.009l4.942,20.105
	c1.096,4.454,5.09,7.585,9.677,7.585h215.619c4.587,0,8.581-3.131,9.677-7.585l4.942-20.105v42.009
	c0,9.847,8.011,17.858,17.857,17.858h37.831c9.847,0,17.857-8.011,17.857-17.858L391.838,200.604z M33.654,255.092H17.046v-32.55
	h16.608V255.092z M71.499,256.089c-9.539,0-17.271-7.732-17.271-17.271c0-9.54,7.731-17.272,17.271-17.272
	c9.54,0,17.272,7.732,17.272,17.272C88.771,248.356,81.039,256.089,71.499,256.089z M156.739,291.692h-41.104v-11.874h41.104
	V291.692z M161.348,254.981h-14.449v-32.329h14.449V254.981z M216.526,291.692h-41.104v-11.874h41.104V291.692z M174.8,254.981
	v-32.329h14.448v32.329H174.8z M217.149,254.981h-14.448v-32.329h14.448V254.981z M276.314,291.692H235.21v-11.874h41.104V291.692z
	 M230.602,254.981v-32.329h14.449v32.329H230.602z M320.448,256.089c-9.538,0-17.271-7.732-17.271-17.271
	c0-9.54,7.732-17.272,17.271-17.272c9.54,0,17.272,7.732,17.272,17.272C337.721,248.356,329.988,256.089,320.448,256.089z
	 M50.638,146.471l7.289-65.564h276.096l7.289,65.564H50.638z M374.903,255.092h-16.608v-32.55h16.608V255.092z"/>
<g>
</g>
<g>
</g>
<g>
</g>
<g>
</g>
<g>
</g>
<g>
</g>
<g>
</g>
<g>
</g>
<g>
</g>
<g>
</g>
<g>
</g>
<g>
</g>
<g>
</g>
<g>
</g>
<g>
</g>
</svg>
