<?xml version="1.0" encoding="iso-8859-1"?>
<!-- Generator: Adobe Illustrator 19.0.0, SVG Export Plug-In . SVG Version: 6.00 Build 0)  -->
<svg version="1.1" id="Capa_1" xmlns="http://www.w3.org/2000/svg" xmlns:xlink="http://www.w3.org/1999/xlink" x="0px" y="0px"
	 viewBox="0 0 434.85 434.85" style="enable-background:new 0 0 434.85 434.85;" xml:space="preserve">
<g>
	<g>
		<path d="M427.35,300.368H269.81v-21.376c28.858-18.028,46.614-49.801,46.614-83.985c0-4.143-3.357-7.5-7.5-7.5H224.94v-10.491
			c0.126-30.872,25.279-55.95,56.185-55.95c4.143,0,7.5-3.357,7.5-7.5s-3.357-7.5-7.5-7.5c-22.165,0-41.993,10.184-55.059,26.114
			c6.581-40.319,41.643-71.196,83.795-71.196c13.223,0,25.887,2.952,37.64,8.774c3.713,1.84,8.212,0.32,10.05-3.392
			c1.839-3.712,0.32-8.211-3.392-10.05c-13.841-6.855-28.745-10.332-44.298-10.332c-41.668,0-77.455,25.64-92.427,61.969
			c-14.973-36.329-50.76-61.969-92.428-61.969c-15.552,0-30.456,3.477-44.298,10.333c-3.712,1.839-5.23,6.338-3.392,10.05
			c1.838,3.71,6.336,5.231,10.05,3.392c11.755-5.823,24.418-8.775,37.64-8.775c42.153,0,77.216,30.878,83.797,71.199
			c-13.066-15.931-32.894-26.116-55.06-26.116c-4.142,0-7.5,3.357-7.5,7.5s3.358,7.5,7.5,7.5c30.919,0,56.08,25.098,56.185,55.988
			v10.452h-83.995c-4.142,0-7.5,3.357-7.5,7.5c0,34.191,17.753,65.967,46.606,83.99v21.37H7.5c-4.142,0-7.5,3.357-7.5,7.5v16.315
			c0,8.693,5.218,16.184,12.684,19.521v37.663c0,4.143,3.358,7.5,7.5,7.5h394.48c4.143,0,7.5-3.357,7.5-7.5v-37.662
			c7.467-3.337,12.686-10.829,12.686-19.522v-16.315C434.85,303.725,431.492,300.368,427.35,300.368z M133.77,202.507h167.317
			c-2.39,26.545-17.353,50.611-40.375,64.48h-86.584C151.115,253.121,136.157,229.057,133.77,202.507z M180.04,281.988h74.77v18.38
			h-74.77L180.04,281.988L180.04,281.988z M419.85,315.368v8.815c0,3.516-2.86,6.376-6.376,6.376H21.376
			c-3.516,0-6.376-2.86-6.376-6.376v-8.815H419.85z M27.684,373.868v-28.309h379.48v28.309H27.684z"/>
		<path d="M32.584,153.407c4.142,0,7.5-3.357,7.5-7.5c0-4.193,0.308-8.406,0.915-12.521c0.605-4.098-2.227-7.909-6.324-8.515
			c-4.102-0.599-7.91,2.228-8.515,6.325c-0.714,4.838-1.076,9.787-1.076,14.711C25.084,150.049,28.442,153.407,32.584,153.407z"/>
		<path d="M38.263,113.064c1.039,0.493,2.135,0.728,3.213,0.728c2.805,0,5.496-1.581,6.78-4.283
			c3.793-7.983,8.8-15.31,14.881-21.774c2.838-3.017,2.693-7.764-0.324-10.602c-3.018-2.839-7.764-2.694-10.602,0.324
			c-7.151,7.603-13.04,16.22-17.504,25.614C32.93,106.812,34.521,111.286,38.263,113.064z"/>
		<path d="M114.004,137.523c3.738-3.734,7.968-6.919,12.57-9.465c3.624-2.005,4.937-6.568,2.932-10.193
			c-2.005-3.624-6.568-4.938-10.193-2.932c-5.828,3.224-11.18,7.254-15.909,11.979c-2.931,2.927-2.933,7.676-0.006,10.606
			c1.465,1.466,3.385,2.199,5.306,2.199C110.622,139.717,112.54,138.986,114.004,137.523z"/>
		<path d="M97.554,177.248c0-6.037,0.95-11.973,2.824-17.644c1.299-3.933-0.835-8.175-4.769-9.474
			c-3.933-1.304-8.175,0.834-9.475,4.769c-2.376,7.19-3.581,14.71-3.581,22.349c0,4.143,3.358,7.5,7.5,7.5
			S97.554,181.39,97.554,177.248z"/>
		<path d="M393.868,133.386c0.608,4.113,0.916,8.326,0.916,12.521c0,4.143,3.357,7.5,7.5,7.5s7.5-3.357,7.5-7.5
			c0-4.926-0.362-9.875-1.076-14.712c-0.605-4.099-4.431-6.927-8.516-6.324C396.095,125.476,393.264,129.289,393.868,133.386z"/>
		<path d="M386.611,109.508c1.284,2.702,3.975,4.283,6.779,4.283c1.079,0,2.175-0.234,3.214-0.728
			c3.741-1.778,5.333-6.252,3.556-9.993c-4.464-9.396-10.354-18.014-17.504-25.614c-2.838-3.018-7.585-3.162-10.602-0.324
			c-3.018,2.838-3.162,7.585-0.324,10.602C377.811,94.198,382.817,101.524,386.611,109.508z"/>
		<path d="M305.361,117.865c-2.005,3.625-0.692,8.188,2.932,10.193c4.602,2.546,8.831,5.73,12.571,9.466
			c1.464,1.462,3.382,2.193,5.3,2.193c1.921,0,3.842-0.733,5.307-2.2c2.927-2.931,2.924-7.679-0.007-10.606
			c-4.729-4.725-10.083-8.755-15.909-11.978C311.928,112.928,307.366,114.242,305.361,117.865z"/>
		<path d="M339.258,150.13c-3.933,1.3-6.067,5.542-4.768,9.475c1.873,5.669,2.823,11.604,2.823,17.643c0,4.143,3.357,7.5,7.5,7.5
			s7.5-3.357,7.5-7.5c0-7.641-1.205-15.16-3.581-22.35C347.433,150.966,343.191,148.833,339.258,150.13z"/>
	</g>
</g>
<g>
</g>
<g>
</g>
<g>
</g>
<g>
</g>
<g>
</g>
<g>
</g>
<g>
</g>
<g>
</g>
<g>
</g>
<g>
</g>
<g>
</g>
<g>
</g>
<g>
</g>
<g>
</g>
<g>
</g>
</svg>
