<?xml version="1.0" encoding="iso-8859-1"?>
<!-- Generator: Adobe Illustrator 18.0.0, SVG Export Plug-In . SVG Version: 6.00 Build 0)  -->
<!DOCTYPE svg PUBLIC "-//W3C//DTD SVG 1.1//EN" "http://www.w3.org/Graphics/SVG/1.1/DTD/svg11.dtd">
<svg version="1.1" id="Capa_1" xmlns="http://www.w3.org/2000/svg" xmlns:xlink="http://www.w3.org/1999/xlink" x="0px" y="0px"
	 viewBox="0 0 477.177 477.177" style="enable-background:new 0 0 477.177 477.177;" xml:space="preserve">
<g>
	<path d="M473.089,361.516l-35.998-62.351c-5.45-9.435-15.514-15.25-26.415-15.25h-71.994c-10.902,0-20.965,5.815-26.417,15.25
		l-35.998,62.351c-5.45,9.433-5.45,21.066,0,30.499l35.998,62.351c5.451,9.435,15.514,15.25,26.417,15.25h71.994
		c10.901,0,20.965-5.815,26.415-15.25l35.998-62.351C478.54,382.581,478.54,370.949,473.089,361.516z M374.678,420.939
		c-24.397,0-44.165-19.785-44.165-44.173c0-24.389,19.768-44.175,44.165-44.175c24.397,0,44.167,19.786,44.167,44.175
		C418.845,401.154,399.076,420.939,374.678,420.939z"/>
	<path d="M263.379,273.2l-60.239-34.694c-10.607-6.072-14.24-19.582-8.107-30.181l25.361-44.073
		c2.888-5.109,7.733-8.797,13.401-10.335c5.653-1.522,11.678-0.762,16.772,2.182l60.239,34.662
		c5.917,3.424,13.48,1.382,16.896-4.551c14.054-24.427,8.463-55.432-13.215-73.422l-25.173-20.872
		c-23.885-19.863-55.565-27.635-85.956-21.175l-57.879,12.307L16.912,9.067C13.418,7.055,9.115,7.063,5.637,9.075
		C2.144,11.093,0,14.812,0,18.842v108.847c0,4.038,2.158,7.763,5.653,9.775l81.545,46.923l18.402,56.201
		c9.691,29.513,32.318,52.994,61.481,63.687l30.718,11.281c26.461,9.729,56.076-1.048,70.13-25.459
		C271.33,284.133,269.297,276.592,263.379,273.2z"/>
</g>
<g>
</g>
<g>
</g>
<g>
</g>
<g>
</g>
<g>
</g>
<g>
</g>
<g>
</g>
<g>
</g>
<g>
</g>
<g>
</g>
<g>
</g>
<g>
</g>
<g>
</g>
<g>
</g>
<g>
</g>
</svg>
