<?xml version="1.0" encoding="iso-8859-1"?>
<!-- Generator: Adobe Illustrator 16.0.0, SVG Export Plug-In . SVG Version: 6.00 Build 0)  -->
<!DOCTYPE svg PUBLIC "-//W3C//DTD SVG 1.1//EN" "http://www.w3.org/Graphics/SVG/1.1/DTD/svg11.dtd">
<svg version="1.1" id="Capa_1" xmlns="http://www.w3.org/2000/svg" xmlns:xlink="http://www.w3.org/1999/xlink" x="0px" y="0px"
	 width="31.739px" height="31.74px" viewBox="0 0 31.739 31.74" style="enable-background:new 0 0 31.739 31.74;"
	 xml:space="preserve">
<g>
	<path d="M21.91,13.422l4.586-8.144l-5.676-3.18l-4.895,8.697l4.697,2.627H21.91z M18.893,9.806
		c-0.104,0.029-0.215,0.015-0.311-0.037l-0.301-0.17c-0.197-0.11-0.268-0.358-0.153-0.553l2.602-4.63
		c0.054-0.094,0.142-0.163,0.244-0.192c0.104-0.029,0.216-0.016,0.31,0.037l0.307,0.17c0.191,0.11,0.264,0.358,0.152,0.553
		l-2.603,4.63C19.087,9.707,18.996,9.777,18.893,9.806z M18.77,13.422h-4.327l1.039-1.848L18.77,13.422z M29.107,6.376l-3.971,7.046
		H22.85l5.139-9.129l0.633,0.375C29.232,5.011,29.451,5.766,29.107,6.376z M26.148,4.06l-4.754-2.67
		c0.738-1.312,2.4-1.778,3.713-1.04C26.421,1.087,26.886,2.747,26.148,4.06z M5.447,13.422h1.314l-0.409-1.539
		C6.328,11.791,6.34,11.702,6.39,11.62c0.047-0.083,0.127-0.137,0.219-0.161l0.327-0.083c0.19-0.05,0.386,0.047,0.438,0.238
		l0.479,1.809h3.512L9.593,6.698L4.056,8.142L5.447,13.422z M5.941,8.922l0.327-0.085c0.192-0.05,0.388,0.064,0.439,0.256
		l0.167,0.639c0.024,0.092,0.012,0.19-0.036,0.272c-0.049,0.082-0.127,0.142-0.22,0.166l-0.326,0.086
		C6.2,10.28,6.103,10.266,6.02,10.218C5.936,10.17,5.875,10.091,5.854,10L5.686,9.36C5.635,9.168,5.75,8.973,5.941,8.922z
		 M3.504,6.057l5.535-1.453L9.437,6.12L3.902,7.573L3.504,6.057z M3.357,5.502l5.535-1.456L8.35,1.985
		C8.176,1.323,7.498,0.928,6.837,1.101L3.699,1.925c-0.318,0.084-0.59,0.29-0.755,0.574C2.778,2.783,2.733,3.121,2.815,3.438
		L3.357,5.502z M7.229,2.164l0.284,1.079L4.162,4.124l-0.284-1.08L7.229,2.164z M3.098,14.937H2.469L6.159,30.5
		c0,0.007-0.001,0.016-0.001,0.021c0,0.672,3.581,1.218,7.995,1.218c4.166,0,7.587-0.484,7.962-1.104h0.01h0.033l3.658-15.698
		h-0.062L3.098,14.937L3.098,14.937z M8.588,29.225c-0.093,0.021-0.184,0.035-0.277,0.035c-0.501,0-0.958-0.34-1.087-0.848
		l-2.453-9.676c-0.153-0.601,0.21-1.21,0.811-1.363c0.6-0.15,1.211,0.209,1.365,0.812L9.4,27.864
		C9.551,28.46,9.188,29.072,8.588,29.225z"/>
</g>
<g>
</g>
<g>
</g>
<g>
</g>
<g>
</g>
<g>
</g>
<g>
</g>
<g>
</g>
<g>
</g>
<g>
</g>
<g>
</g>
<g>
</g>
<g>
</g>
<g>
</g>
<g>
</g>
<g>
</g>
</svg>
